<?xml version="1.0" encoding="utf-8"?>
<!-- Generator: Adobe Illustrator 19.2.1, SVG Export Plug-In . SVG Version: 6.00 Build 0)  -->
<svg version="1.1" id="Capa_1" xmlns="http://www.w3.org/2000/svg" xmlns:xlink="http://www.w3.org/1999/xlink" x="0px" y="0px"
	 viewBox="0 0 409.5 409.5" style="enable-background:new 0 0 409.5 409.5;" xml:space="preserve">
<style type="text/css">
	.st0{fill:#333333;}
</style>
<g>
	<path class="st0" d="M3,214.4c0-5.9,0-11.8,0-17.6c1.3-4.8,3.1-9.5,3.7-14.4C17.8,99,64.5,44.2,142.2,15.3
		c17.4-6.5,36.5-8.4,54.8-12.5c7.3,0,14.7,0,22,0c3.9,1.5,7.8,3.8,11.8,4.4c82,12,136.6,57.9,165.2,134.8
		c6.5,17.4,8.5,36.5,12.5,54.8c0,5.9,0,11.8,0,17.6c-1.2,4.1-3.1,8.1-3.5,12.2c-7.1,70.2-43.3,121.8-104.3,154.4
		c-25,13.3-54.4,18.5-81.7,27.4c-7.3,0-14.7,0-22,0c-4.8-1.3-9.5-3.1-14.4-3.7c-84.4-11.1-139-59-168-137.4
		C8.4,250.4,6.7,232,3,214.4z M373.2,205.8c0.2-91.5-75.6-167.9-166.1-167.7c-93.5,0.2-168.7,74.7-168.8,167.2
		c-0.2,92.5,74.8,167.2,168.4,167.7C297.1,373.5,373,297.3,373.2,205.8z"/>
	<path class="st0" d="M205.8,186.1c16.8-18.5,28.5-33.8,42.9-46c5.7-4.8,19.6-6.7,25.6-3.1c11.6,7,6.2,17.8-2.1,25.7
		c-13.7,13.2-27.8,26-49,45.7c17.4,13.9,32.4,25.3,46.7,37.7c8.5,7.4,16.4,16.5,5.6,28c-11.8,12.5-21.1,4.1-29.6-4.8
		c-12.6-13.1-24.9-26.5-39.8-42.4c-15.8,16.6-28.7,30.4-41.8,44c-8.4,8.6-19.2,15.5-27.3,2.8c-3.6-5.7-1.1-19.7,3.8-25.6
		c12-14.5,27-26.5,44.3-42.7c-17-15.8-31.5-29-45.6-42.5c-8.2-7.9-13.6-18.7-2.1-25.7c6-3.6,19.9-1.8,25.6,3.1
		C177.2,152.3,189,167.6,205.8,186.1z"/>
</g>
</svg>
