<?xml version="1.0" encoding="utf-8"?>
<!-- Generator: Adobe Illustrator 19.2.1, SVG Export Plug-In . SVG Version: 6.00 Build 0)  -->
<svg version="1.1" id="Capa_1" xmlns="http://www.w3.org/2000/svg" xmlns:xlink="http://www.w3.org/1999/xlink" x="0px" y="0px"
	 viewBox="0 0 409.5 409.5" style="enable-background:new 0 0 409.5 409.5;" xml:space="preserve">
<style type="text/css">
	.st0{fill:#333333;}
</style>
<g>
	<path class="st0" d="M2,206.2c51.1-134,191.8-169,294-124c5.2,2.3,15.5-0.4,20.2-4.6c17-15.2,32.7-31.9,48.9-48.1
		c8.5-8.5,17.7-14.6,28.3-3.4c10,10.5,3.1,18.5-4.7,26.3C296.8,144.2,205,235.9,113.1,327.6c-18.3,18.2-36.7,36.3-54.9,54.5
		c-7.9,8-16,14-26.5,4.3c-11.5-10.7-5.5-19.7,3.4-28c13.4-12.6,27.1-24.9,42.8-39.4C42.2,289,15.2,256.8,2,215
		C2,212.1,2,209.1,2,206.2z M277.9,114.3C195.4,71,74.5,114.9,39.3,204.7c-1.7,4.3-1.7,10.6,0.2,14.8c13.2,30.2,33.7,54,64.7,74.1
		c3.8-5.5,6-10.8,9.9-13.9c16.1-12.9,21-24.9,14.1-48c-18.4-61,40.7-118,100.7-97.3C255.7,143.6,265.5,131.3,277.9,114.3z
		 M224.4,168.8c-19.2-9.8-39.8-5.8-54.3,9.6c-13.1,13.9-15.1,31.8-5.5,48.6C184.5,207.7,204.3,188.4,224.4,168.8z"/>
	<path class="st0" d="M409.5,223.9c-22.8,47.7-54.8,86.7-103.2,110.6c-48.9,24.2-99.9,28.7-152.9,17.4c-11.7-2.5-22.1-5.9-18.9-21.2
		c3.3-15.7,14.3-13.6,25.9-11.2c79.5,16.4,145.7-5.3,195.9-70.2c24.3-31.4,24.2-40.3,2.1-72.7c-4.1-6.1-8.8-11.8-13.5-17.5
		c-7.7-9.2-17.4-18.6-4.7-30.2c14.4-13.2,23.5-0.2,30.2,9.5c14,20.5,26.2,42.2,39.2,63.3C409.5,209.1,409.5,216.5,409.5,223.9z"/>
	<path class="st0" d="M288.2,212.1c0.4,40-37.6,80.1-72.2,80.1c-6.1,0-16.9-7.5-17.1-11.9c-0.3-6.5,5.9-17.9,11.3-19.3
		c26-6.6,40.4-21.5,46-47.7c1.2-5.5,12.2-11.9,18.9-12.1C280.2,200.9,285.7,209.7,288.2,212.1z"/>
</g>
</svg>
