<svg width="168" height="21" viewBox="0 0 168 21" fill="none" xmlns="http://www.w3.org/2000/svg">
<path fill-rule="evenodd" clip-rule="evenodd" d="M3.69395 7.0431C3.81585 7.50053 4.29135 7.73644 4.77442 7.58135C8.73479 6.40392 12.7049 5.59819 16.8013 5.01201C17.2707 4.95131 17.5276 4.48227 17.355 4.01175C16.9914 3.02034 16.8075 2.52594 16.4358 1.54024C16.2779 1.12175 15.8511 0.847233 15.4142 0.893041C11.4109 1.36994 7.54317 2.07424 3.66691 3.15907C3.16219 3.3122 2.85224 3.8583 2.97951 4.34272C3.26277 5.42133 3.40565 5.96122 3.69395 7.0431" fill="#2C2A29"/>
<path fill-rule="evenodd" clip-rule="evenodd" d="M19.7447 7.58302C19.5911 7.13999 19.1739 6.84387 18.7613 6.89606C12.4941 7.66792 6.39142 9.16487 0.604409 11.6388C0.182296 11.8317 -0.0709048 12.3448 0.0175811 12.7968C0.244421 13.9531 0.358932 14.5318 0.590473 15.6902C0.689369 16.1856 1.16823 16.4137 1.64055 16.1912C7.51874 13.5901 13.7306 11.934 20.103 10.9465C20.508 10.8823 20.7146 10.4339 20.5596 9.97191C20.2385 9.01403 20.0755 8.53631 19.7447 7.58302" fill="#2C2A29"/>
<path fill-rule="evenodd" clip-rule="evenodd" d="M19.7271 14.0401C19.5718 13.5672 19.1177 13.2586 18.6864 13.3443C14.7732 14.1646 10.9482 15.1533 7.15904 16.4112C6.67849 16.5817 6.40783 17.0715 6.5341 17.522C6.83532 18.5956 6.98694 19.1332 7.29185 20.21C7.43507 20.7158 8.02274 20.9747 8.56407 20.7754C12.3518 19.4648 16.1777 18.3204 20.0872 17.4029C20.4622 17.3149 20.6467 16.89 20.5073 16.4518C20.1996 15.485 20.0436 15.0026 19.7271 14.0401" fill="#2C2A29"/>
<path fill-rule="evenodd" clip-rule="evenodd" d="M34.6679 12.9812C34.6679 11.6806 33.8116 11.1407 32.1241 11.1407H30.1093V14.8215H32.0989C33.736 14.8215 34.6679 14.1837 34.6679 12.9812ZM31.7211 4.687C31.1922 4.687 30.6383 4.73608 30.1093 4.8097V8.07337H31.8219C33.3329 8.07337 34.0382 7.45987 34.0382 6.40481C34.0382 5.39867 33.3078 4.687 31.7211 4.687ZM38.798 13.153C38.798 16.024 35.8262 17.9381 32.4513 17.9381H26.256V2.08589C28.3212 1.79141 29.8827 1.59509 31.7211 1.59509C35.121 1.59509 37.8411 3.14095 37.8411 5.84036C37.8411 7.38621 37.01 8.4169 35.524 8.98132C37.8159 9.61936 38.798 10.9691 38.798 13.153V13.153Z" fill="#2C2A29"/>
<path fill-rule="evenodd" clip-rule="evenodd" d="M47.6722 14.7972V12.6869H46.9418C45.2294 12.6869 43.6678 13.055 43.6678 14.2082C43.6678 15.0917 44.2723 15.4107 45.5064 15.4107C46.4886 15.4107 47.2944 15.116 47.6722 14.7972ZM51.3743 10.2083V16.6621C50.0144 17.6682 47.8232 18.2081 44.8515 18.2081C42.2071 18.2081 40.016 17.1529 40.016 14.8215C40.016 11.3125 43.5166 10.4537 47.6721 10.331C47.5966 8.80956 46.9669 8.41692 45.5817 8.41692C44.8515 8.41692 42.9122 8.73594 42.6605 8.73594C42.0559 8.73594 41.5775 8.36784 41.1745 7.28824L40.8721 6.4048C42.4337 5.84038 43.97 5.44774 45.6322 5.44774C49.2588 5.44774 51.3743 6.7729 51.3743 10.2083V10.2083Z" fill="#2C2A29"/>
<path fill-rule="evenodd" clip-rule="evenodd" d="M65.2429 9.20214V17.9381H61.4652V10.5026C61.4652 9.20214 60.5839 8.53956 59.0475 8.53956C58.4684 8.53956 57.9143 8.61318 57.4356 8.73588V17.9381H53.6329L53.658 7.01824C55.2447 5.98756 57.8134 5.42314 59.9038 5.42314C62.8002 5.42314 65.2429 6.82176 65.2429 9.20214" fill="#2C2A29"/>
<path fill-rule="evenodd" clip-rule="evenodd" d="M66.8806 11.9506C66.8806 7.65613 69.9531 5.39861 73.9323 5.39861C75.0405 5.39861 76.0479 5.54585 77.2566 5.81579C77.1057 7.04279 76.5766 8.12239 75.9975 8.73589C75.5694 8.61319 74.8642 8.51503 74.4614 8.51503C71.9176 8.51503 70.885 9.79111 70.885 11.7298C70.885 13.6928 71.842 14.8953 74.2345 14.8953C74.8895 14.8953 75.6449 14.7726 76.5766 14.4534L77.2566 17.3982C75.8716 17.9381 74.436 18.1835 73.3026 18.1835C69.4244 18.1835 66.8806 15.9258 66.8806 11.9506" fill="#2C2A29"/>
<path fill-rule="evenodd" clip-rule="evenodd" d="M87.3308 11.7789C87.3308 9.76658 86.3234 8.58866 84.5606 8.58866C82.8479 8.58866 81.7903 9.76658 81.7903 11.7789C81.7903 13.8891 82.8229 14.9934 84.5606 14.9934C86.3234 14.9934 87.3308 13.8891 87.3308 11.7789ZM77.9874 11.7789C77.9874 7.85245 80.7073 5.39861 84.5606 5.39861C88.5648 5.39861 91.1337 7.95061 91.1337 11.7789C91.1337 15.7295 88.5398 18.1835 84.5606 18.1835C80.5562 18.1835 77.9874 15.656 77.9874 11.7789V11.7789Z" fill="#2C2A29"/>
<path fill-rule="evenodd" clip-rule="evenodd" d="M93.2749 2.18401C94.1562 1.54597 96.0704 1.00609 97.0776 1.00609V17.9381H93.2749V2.18401" fill="#2C2A29"/>
<path fill-rule="evenodd" clip-rule="evenodd" d="M108.562 11.7789C108.562 9.76658 107.555 8.58866 105.792 8.58866C104.079 8.58866 103.021 9.76658 103.021 11.7789C103.021 13.8891 104.054 14.9934 105.792 14.9934C107.555 14.9934 108.562 13.8891 108.562 11.7789ZM99.2186 11.7789C99.2186 7.85245 101.939 5.39861 105.792 5.39861C109.796 5.39861 112.365 7.95061 112.365 11.7789C112.365 15.7295 109.771 18.1835 105.792 18.1835C101.787 18.1835 99.2186 15.656 99.2186 11.7789V11.7789Z" fill="#2C2A29"/>
<path fill-rule="evenodd" clip-rule="evenodd" d="M133.546 9.20214V17.9381H129.793V10.5026C129.793 9.20214 128.937 8.53956 127.426 8.53956C126.721 8.53956 126.041 8.6868 125.487 8.90766C125.688 9.44754 125.789 10.0365 125.789 10.6745V17.9381H122.036V10.5026C122.036 9.20214 121.18 8.53956 119.669 8.53956C119.09 8.53956 118.536 8.61318 118.057 8.73588V17.9381H114.254L114.28 7.01824C115.791 5.98756 118.158 5.42314 120.148 5.42314C121.734 5.42314 123.094 5.93848 124.076 6.77284C125.361 5.96286 127.149 5.42314 128.66 5.42314C131.405 5.42314 133.546 6.8463 133.546 9.20214" fill="#2C2A29"/>
<path fill-rule="evenodd" clip-rule="evenodd" d="M145.056 11.6071C145.056 9.34942 143.847 8.53959 141.908 8.53959C141.127 8.53959 140.497 8.68683 139.943 8.93224V15.0916C140.623 15.1896 141.278 15.2387 141.883 15.2387C144.099 15.2387 145.056 13.5701 145.056 11.6071ZM148.808 11.1406C148.808 15.6068 146.089 18.1835 141.656 18.1835C139.49 18.1835 137.4 17.7908 136.141 17.2266V2.18401C137.022 1.54597 138.961 1.00609 139.943 1.00609V6.82175C141.027 5.91393 142.336 5.42313 143.52 5.42313C147.272 5.42313 148.808 7.9506 148.808 11.1406V11.1406Z" fill="#2C2A29"/>
<path fill-rule="evenodd" clip-rule="evenodd" d="M150.95 5.76677C151.479 5.54591 152.134 5.42321 152.864 5.42321C153.594 5.42321 154.224 5.54591 154.753 5.76677V17.9381H150.95V5.76677ZM150.899 1.88942C150.899 0.858902 151.781 0 152.838 0C153.921 0 154.803 0.834362 154.803 1.88942C154.803 2.89556 153.921 3.779 152.838 3.779C151.781 3.779 150.899 2.94464 150.899 1.88942V1.88942Z" fill="#2C2A29"/>
<path fill-rule="evenodd" clip-rule="evenodd" d="M164.298 14.7972V12.6869H163.567C161.855 12.6869 160.293 13.055 160.293 14.2082C160.293 15.0917 160.898 15.4107 162.132 15.4107C163.114 15.4107 163.92 15.116 164.298 14.7972ZM168 10.2083V16.6621C166.64 17.6682 164.449 18.2081 161.477 18.2081C158.832 18.2081 156.641 17.1529 156.641 14.8215C156.641 11.3125 160.142 10.4537 164.298 10.331C164.222 8.80956 163.592 8.41692 162.207 8.41692C161.477 8.41692 159.538 8.73594 159.286 8.73594C158.681 8.73594 158.203 8.36784 157.8 7.28824L157.498 6.4048C159.059 5.84038 160.595 5.44774 162.258 5.44774C165.884 5.44774 168 6.7729 168 10.2083V10.2083Z" fill="#2C2A29"/>
</svg>
