<?xml version="1.0" encoding="utf-8"?>
<!-- Generator: Adobe Illustrator 19.2.1, SVG Export Plug-In . SVG Version: 6.00 Build 0)  -->
<svg version="1.1" id="Capa_1" xmlns="http://www.w3.org/2000/svg" xmlns:xlink="http://www.w3.org/1999/xlink" x="0px" y="0px"
	 viewBox="0 0 409.5 409.5" style="enable-background:new 0 0 409.5 409.5;" xml:space="preserve">
<style type="text/css">
	.st0{fill:#333333;}
</style>
<g>
	<path class="st0" d="M311.8,133.7c52.1,5.7,65.3,20.7,65.4,72.9c0,46.4,0.3,92.8-0.1,139.1c-0.3,42.6-19.3,61.5-61.7,61.6
		c-72.8,0.2-145.5,0.2-218.3,0c-41.9-0.1-59.9-18.2-60.1-60.1c-0.2-45.6-0.1-91.2-0.1-136.7c0-57.5,9.4-68.7,67.1-77.8
		c-2-41.1,3.2-80.8,39.7-108.8C164.4,8,187.4,1.8,213,3.1C273.5,6.1,302.5,43.9,311.8,133.7z M205.7,372.6
		c35.9,0,71.9-0.2,107.8,0.1c18.5,0.2,27.3-6.2,26.8-26.7c-1.2-49.5-1.1-99,0-148.5c0.4-20-6.7-26.5-26.4-26.2
		c-71.8,0.8-143.7,0.9-215.5-0.1c-20.7-0.3-26.7,8.9-26.6,27.1c0.2,48.7,0.5,97.4-0.1,146.1c-0.2,20.5,8.7,28.7,28.8,28.4
		C135.5,372.1,170.6,372.6,205.7,372.6z M143,135.3c10.7,0,20.8,0,30.9,0c32.4,0,64.9,0,98.2,0c4-35.1,1.3-64.9-28.3-85.5
		c-22.2-15.4-51.6-15.4-74.1-0.1C139.3,70.4,138,100.4,143,135.3z"/>
	<path class="st0" d="M170.4,232.3c5.9-6.8,12.5-21,22.9-24.6c10.5-3.6,29.1-0.9,35.9,6.6c7.6,8.4,12.3,29.7,6.9,37.4
		c-12.4,17.5-10.7,35.4-12.9,53.9c-0.7,6.1-9.8,15.2-15.4,15.4c-5.8,0.3-16.9-8.3-17.2-13.5c-1-21.5-1.7-42.4-16.9-59.9
		C172,245.6,172.4,241.6,170.4,232.3z"/>
</g>
</svg>
