<?xml version="1.0" encoding="utf-8"?>
<!-- Generator: Adobe Illustrator 19.2.1, SVG Export Plug-In . SVG Version: 6.00 Build 0)  -->
<svg version="1.1" id="Capa_1" xmlns="http://www.w3.org/2000/svg" xmlns:xlink="http://www.w3.org/1999/xlink" x="0px" y="0px"
	 viewBox="0 0 409.5 409.5" style="enable-background:new 0 0 409.5 409.5;" xml:space="preserve">
<style type="text/css">
	.st0{fill:#333333;}
</style>
<g>
	<path class="st0" d="M1.9,202.3c33.2-93.1,118-141.1,203.4-140.6c84.3,0.5,170.5,46.9,203.7,140.6c0,1.5,0,2.9,0,4.4
		c-29.5,84.4-91.3,129.7-177.6,140.1C142,357.5,70.4,324,20.3,248.1c-7.5-11.4-12.4-24.6-18.4-37C1.9,208.2,1.9,205.2,1.9,202.3z
		 M206,95.3c-69.3,1.5-120.9,30.5-158.4,85.6c-11.3,16.7-11,31.5-0.2,48.8c71.2,114.2,244.7,114.7,316.3,0.9
		c10.8-17.1,11.2-32,0-48.9C325.5,124.4,272.1,96.1,206,95.3z"/>
	<path class="st0" d="M286.7,207.8c-1.7,45-39.8,80-84.6,77.8c-44.8-2.2-79.6-38.8-78.2-82.3c1.4-45.7,39.6-79.5,87.2-77.2
		C254.3,128.2,288.3,164.9,286.7,207.8z M205.9,251.9c26.6-0.2,48.5-21.6,48.2-47c-0.3-25-23.6-47-49.2-46.7
		c-26,0.3-48.4,22.6-48,47.7C157.2,231.7,179.1,252.1,205.9,251.9z"/>
</g>
</svg>
