<?xml version="1.0" encoding="utf-8"?>
<!-- Generator: Adobe Illustrator 19.2.1, SVG Export Plug-In . SVG Version: 6.00 Build 0)  -->
<svg version="1.1" id="Capa_1" xmlns="http://www.w3.org/2000/svg" xmlns:xlink="http://www.w3.org/1999/xlink" x="0px" y="0px"
	 viewBox="0 0 409.5 409.5" style="enable-background:new 0 0 409.5 409.5;" xml:space="preserve">
<style type="text/css">
	.st0{fill:#333333;}
</style>
<g>
	<path class="st0" d="M212.4,5.4c59.1-0.2,107.2,47.5,107,106.1c-0.3,57.9-47.2,104.9-105.4,105.6c-59.6,0.7-107-45.7-107.6-105.2
		C105.8,52.5,152.5,5.6,212.4,5.4z M141,111.3c0,39.9,32.4,72.7,71.8,72.6c39.3-0.1,71.7-33.1,71.7-72.9c0-40-32.3-72.5-71.9-72.3
		C172.6,38.8,141,71,141,111.3z"/>
	<path class="st0" d="M408.5,366.8c0,6.8,0.1,13.7,0,20.5c-0.2,11.4-2.3,22.2-16.6,22.2c-13.8,0-17.3-9.5-16.9-21.7
		c0.4-11.4,0.4-22.8-0.1-34.1c-1.6-39.1-26.8-69.2-66.1-70.6c-68.1-2.4-136.5-2.5-204.6,0c-40.5,1.4-65.6,32-66.4,72.3
		c-0.3,12.9,1.5,26.1-1,38.5c-1.2,6.1-9.9,14.6-15.4,14.8C15.8,408.9,5.7,400.6,5,395c-11.1-80.5,20-143.2,110.8-146.5
		c58.3-2.1,116.8-0.7,175.2-0.4C366.9,248.5,408.3,290.6,408.5,366.8z"/>
</g>
</svg>
