<?xml version="1.0" standalone="no"?>
<!DOCTYPE svg PUBLIC "-//W3C//DTD SVG 1.1//EN" "http://www.w3.org/Graphics/SVG/1.1/DTD/svg11.dtd" >
<svg xmlns="http://www.w3.org/2000/svg" xmlns:xlink="http://www.w3.org/1999/xlink" version="1.1">
<metadata>
Created by FontForge 20170731 at Thu Jul  7 17:43:15 2011
 By Aleksey,,,
Copyright (c) 2011 by Hannes von Doehren. All rights reserved.
</metadata>
<defs>
<font id="PlutoCondRegular" horiz-adv-x="510" >
  <font-face 
    font-family="Pluto Cond Regular"
    font-weight="400"
    font-stretch="condensed"
    units-per-em="1000"
    panose-1="2 11 5 6 2 2 3 6 2 4"
    ascent="750"
    descent="-250"
    x-height="523"
    cap-height="680"
    bbox="-117 -260 1061 907"
    underline-thickness="50"
    underline-position="-200"
    unicode-range="U+0020-FB02"
  />
<missing-glyph horiz-adv-x="612" 
d="M50 720h512v-720h-512v720zM266 283h48q0 26 14 47t34 36t40 29.5t34 36t14 48.5q0 51 -36.5 85t-101.5 34q-39 0 -67 -14.5t-41.5 -37t-19 -43.5t-5.5 -41h47q0 40 21 66.5t65 26.5q41 0 64 -21.5t23 -54.5q0 -23 -21 -45t-45.5 -38t-45.5 -46t-21 -68zM255 194v-71h68
v71h-68z" />
    <glyph glyph-name=".notdef" horiz-adv-x="612" 
d="M50 720h512v-720h-512v720zM266 283h48q0 26 14 47t34 36t40 29.5t34 36t14 48.5q0 51 -36.5 85t-101.5 34q-39 0 -67 -14.5t-41.5 -37t-19 -43.5t-5.5 -41h47q0 40 21 66.5t65 26.5q41 0 64 -21.5t23 -54.5q0 -23 -21 -45t-45.5 -38t-45.5 -46t-21 -68zM255 194v-71h68
v71h-68z" />
    <glyph glyph-name=".null" horiz-adv-x="0" 
 />
    <glyph glyph-name="nonmarkingreturn" horiz-adv-x="333" 
 />
    <glyph glyph-name="space" unicode=" " horiz-adv-x="215" 
 />
    <glyph glyph-name="exclam" unicode="!" horiz-adv-x="278" 
d="M103 237l-13 443h97l-14 -443h-70zM76 56q0 68 63 68q30 0 47 -18t17 -50q0 -33 -17 -50.5t-47 -17.5q-63 0 -63 68z" />
    <glyph glyph-name="quotedbl" unicode="&#x22;" horiz-adv-x="404" 
d="M149 680l-4 -246h-69l-3 246h76zM331 680l-4 -246h-69l-3 246h76z" />
    <glyph glyph-name="numbersign" unicode="#" horiz-adv-x="602" 
d="M298 8l32 150h-141l-33 -158h-73v8l32 150h-75v74h91l46 216h-73v75h89l34 157h72v-8l-32 -149h140l34 157h72v-8l-32 -149h82v-75h-98l-46 -216h80v-74h-96l-33 -158h-72v8zM251 448l-46 -216h140l46 216h-140z" />
    <glyph glyph-name="dollar" unicode="$" 
d="M223 -129v120q-103 5 -180 54l23 92q73 -52 157 -57v227l-58 18q-131 39 -131 167q0 74 49.5 128.5t139.5 65.5v84h60v-81q105 -4 183 -50l-28 -88q-61 42 -155 47v-215l38 -12q79 -25 117 -66t38 -108q0 -83 -52.5 -138.5t-140.5 -65.5v-122h-60zM375 191
q0 37 -22.5 59.5t-69.5 37.5v-204q42 9 67 36.5t25 70.5zM130 498q0 -68 79 -92l14 -5v194q-46 -9 -69.5 -34.5t-23.5 -62.5z" />
    <glyph glyph-name="percent" unicode="%" horiz-adv-x="764" 
d="M191 8l300 672h83v-8l-300 -672h-83v8zM39 513q0 83 42 130t111 47t111.5 -47.5t42.5 -129.5q0 -83 -42.5 -129t-111.5 -46t-111 46t-42 129zM111 513q0 -50 22 -76.5t59 -26.5q38 0 60 26.5t22 76.5t-22 76.5t-60 26.5q-37 0 -59 -26.5t-22 -76.5zM417 165
q0 83 42.5 130t111.5 47t111.5 -47t42.5 -130q0 -82 -42.5 -128.5t-111.5 -46.5t-111.5 46.5t-42.5 128.5zM489 165q0 -50 22.5 -76t59.5 -26q38 0 59.5 26t21.5 76q0 51 -21.5 77t-59.5 26q-37 0 -59.5 -26.5t-22.5 -76.5z" />
    <glyph glyph-name="ampersand" unicode="&#x26;" horiz-adv-x="654" 
d="M615 11v-15h-113l-57 64q-86 -70 -193 -70q-91 0 -144.5 49t-53.5 131q0 110 136 182q-39 43 -58.5 81t-19.5 87q0 73 49 121.5t134 48.5q83 0 133 -46t50 -124q0 -115 -131 -179l-23 -11l128 -140q60 82 90 193l73 -49q-40 -126 -105 -208zM271 76q61 0 119 47l-147 168
q-44 -23 -67 -47t-23 -62q0 -48 32 -77t86 -29zM207 513q0 -53 63 -124l41 19q72 32 72 105q0 39 -25 65.5t-63 26.5q-40 0 -64 -25.5t-24 -66.5z" />
    <glyph glyph-name="quotesingle" unicode="'" horiz-adv-x="222" 
d="M149 680l-4 -246h-69l-3 246h76z" />
    <glyph glyph-name="parenleft" unicode="(" horiz-adv-x="278" 
d="M185 716l56 -34q-40 -65 -71.5 -173.5t-31.5 -247.5q0 -138 31.5 -247t71.5 -173l-56 -34q-47 55 -89.5 175.5t-42.5 279.5t42.5 279t89.5 175z" />
    <glyph glyph-name="parenright" unicode=")" horiz-adv-x="278" 
d="M37 682l56 34q47 -55 89.5 -175t42.5 -279t-42.5 -279.5t-89.5 -175.5l-56 34q40 64 71.5 173t31.5 247q0 139 -31.5 247.5t-71.5 173.5z" />
    <glyph glyph-name="asterisk" unicode="*" horiz-adv-x="467" 
d="M210 538q-13 64 -13 131q0 19 10.5 30t25.5 11t25.5 -11t10.5 -30q0 -50 -15 -127q65 40 111 55q21 7 35 -4.5t14 -28.5q0 -30 -31 -37q-43 -14 -119 -23q44 -40 89 -100q14 -22 3 -40t-32 -18q-20 0 -33 19q-41 59 -58 116q-24 -65 -56 -114q-15 -21 -34 -21
q-22 0 -33 19t5 41q46 64 81 94q-55 10 -114 30q-29 9 -29 36q1 18 16 29.5t37 3.5q35 -12 104 -61z" />
    <glyph glyph-name="plus" unicode="+" 
d="M293 535v-193h162v-79h-162v-193h-77v193h-162v79h162v193h77z" />
    <glyph glyph-name="comma" unicode="," horiz-adv-x="254" 
d="M71 -148l38 136q-46 9 -46 64q0 34 16.5 52t46.5 18t47 -19.5t17 -50.5q0 -46 -21.5 -116t-42.5 -107z" />
    <glyph glyph-name="hyphen" unicode="-" horiz-adv-x="480" 
d="M74 342h332v-79h-332v79z" />
    <glyph glyph-name="period" unicode="." horiz-adv-x="255" 
d="M64 56q0 32 16.5 50t46.5 18q31 0 48 -18t17 -50q0 -33 -17 -50.5t-48 -17.5q-63 0 -63 68z" />
    <glyph glyph-name="slash" unicode="/" horiz-adv-x="432" 
d="M24 8l301 672h83v-8l-300 -672h-84v8z" />
    <glyph glyph-name="zero" unicode="0" horiz-adv-x="630" 
d="M65 339q0 162 63 256.5t186 94.5q124 0 187.5 -94.5t63.5 -256.5q0 -161 -63.5 -255t-187.5 -94q-123 0 -186 94t-63 255zM158 339q0 -120 38 -188.5t118 -68.5q157 0 157 257q0 261 -157 261q-80 0 -118 -69.5t-38 -191.5z" />
    <glyph glyph-name="one" unicode="1" horiz-adv-x="433" 
d="M14 534l248 146h73v-680h-97v565l-188 -106z" />
    <glyph glyph-name="two" unicode="2" horiz-adv-x="563" 
d="M68 0v75l231 217q49 46 70.5 86t21.5 90q0 60 -31 96t-90 36q-62 0 -94 -44t-33 -118l-88 16q2 108 59.5 172t160.5 64q104 0 159.5 -60.5t55.5 -154.5q0 -65 -28.5 -117t-92.5 -115l-164 -157h301v-86h-438z" />
    <glyph glyph-name="three" unicode="3" horiz-adv-x="558" 
d="M125 394h143q52 0 80.5 29.5t28.5 72.5q0 53 -38 81.5t-96 28.5q-88 0 -163 -47l-23 84q89 47 193 47q108 0 166.5 -47t58.5 -135q0 -55 -28.5 -98t-74.5 -55q124 -37 124 -170q0 -91 -65 -143t-181 -52q-90 0 -194 45l25 83q85 -44 165 -44q65 0 108 33.5t43 91.5
q0 108 -129 108h-143v87z" />
    <glyph glyph-name="four" unicode="4" horiz-adv-x="608" 
d="M572 141h-113v-141h-97v141h-333v66l302 473h128v-465h113v-74zM127 215h235v370z" />
    <glyph glyph-name="five" unicode="5" horiz-adv-x="555" 
d="M87 335l-5 5l25 340h370v-86h-288l-12 -185h80q239 0 239 -190q0 -115 -68 -172t-178 -57q-106 0 -200 47l25 83q81 -46 165 -46q67 0 112 35t45 107q0 119 -151 119h-159z" />
    <glyph glyph-name="six" unicode="6" horiz-adv-x="609" 
d="M527 630l-29 -80q-67 56 -159 56q-88 0 -132 -69t-46 -188q68 104 179 104q100 0 156 -59t56 -163q0 -108 -63.5 -174.5t-162.5 -66.5q-124 0 -193 95t-69 256q0 158 69.5 253.5t194.5 95.5q62 0 116 -19t83 -41zM324 372q-57 0 -96.5 -35.5t-60.5 -76.5q12 -84 52 -132
t103 -48q58 0 96 43.5t38 107.5q0 68 -36 104.5t-96 36.5z" />
    <glyph glyph-name="seven" unicode="7" horiz-adv-x="478" 
d="M101 9l243 585h-316v86h425v-71l-245 -609h-107v9z" />
    <glyph glyph-name="eight" unicode="8" horiz-adv-x="610" 
d="M306 -10q-115 0 -179 52t-64 143q0 138 132 170q-52 12 -82 54.5t-30 98.5q0 87 58.5 134.5t164.5 47.5q105 0 162.5 -47.5t57.5 -134.5q0 -56 -29.5 -98.5t-81.5 -54.5q132 -32 132 -170q0 -90 -64 -142.5t-177 -52.5zM305 318q-71 0 -107.5 -32.5t-36.5 -86.5
q0 -58 40.5 -93.5t104.5 -35.5q63 0 103 35.5t40 93.5q0 54 -36 86.5t-108 32.5zM306 611q-59 0 -93 -29t-34 -83q0 -47 31 -79t95 -32q63 0 94 32t31 79q0 54 -33.5 83t-90.5 29z" />
    <glyph glyph-name="nine" unicode="9" horiz-adv-x="609" 
d="M82 50l29 80q67 -56 159 -56q88 0 132 68.5t46 186.5q-70 -102 -179 -102q-100 0 -156 59t-56 163q0 108 63.5 174.5t162.5 66.5q124 0 193 -95t69 -256q0 -159 -69.5 -254t-194.5 -95q-62 0 -115.5 18.5t-83.5 41.5zM286 308q97 0 156 112q-13 83 -52.5 131.5
t-102.5 48.5q-58 0 -96 -43.5t-38 -107.5q0 -68 36.5 -104.5t96.5 -36.5z" />
    <glyph glyph-name="colon" unicode=":" horiz-adv-x="273" 
d="M73 471q0 32 16.5 49.5t45.5 17.5q64 0 64 -67t-64 -67q-29 0 -45.5 17.5t-16.5 49.5zM73 54q0 32 16.5 49.5t45.5 17.5q64 0 64 -67t-64 -67q-29 0 -45.5 17.5t-16.5 49.5z" />
    <glyph glyph-name="semicolon" unicode=";" horiz-adv-x="277" 
d="M84 -146l37 133q-21 4 -33 21.5t-12 41.5q0 33 16.5 51t45.5 18t46 -19.5t17 -49.5q0 -45 -21 -114t-42 -105zM75 471q0 32 16.5 49.5t45.5 17.5q64 0 64 -67t-64 -67q-29 0 -45.5 17.5t-16.5 49.5z" />
    <glyph glyph-name="less" unicode="&#x3c;" 
d="M55 262v78l393 199h7v-76l-322 -161l322 -159v-77h-7z" />
    <glyph glyph-name="equal" unicode="=" 
d="M55 482h400v-78h-400v78zM55 201h400v-78h-400v78z" />
    <glyph glyph-name="greater" unicode="&#x3e;" 
d="M455 340v-78l-392 -196h-8v77l322 159l-322 161v76h8z" />
    <glyph glyph-name="question" unicode="?" horiz-adv-x="424" 
d="M222 237h-80q-8 28 -8 50q0 41 47 83l41 39q18 18 27.5 29.5t19 34t9.5 49.5q0 38 -24 62t-65 24q-74 0 -120 -74l-29 75q65 81 171 81q75 0 120 -44t45 -112q0 -39 -14.5 -74.5t-29 -54t-38.5 -42.5l-45 -46q-13 -13 -17.5 -18.5t-8.5 -14t-4 -20.5t3 -27zM120 56
q0 68 63 68q30 0 47 -18t17 -50q0 -33 -17 -50.5t-47 -17.5q-63 0 -63 68z" />
    <glyph glyph-name="at" unicode="@" horiz-adv-x="860" 
d="M616 491v-349q0 -35 7 -48.5t29 -13.5q39 0 68.5 61.5t29.5 174.5q0 156 -84 245.5t-228 89.5q-143 0 -231 -102t-88 -286t86.5 -286.5t232.5 -102.5q84 0 153 40l23 -62q-80 -46 -176 -46q-179 0 -284 122t-105 335q0 206 108.5 331t280.5 125t277 -109t105 -288
q0 -158 -55.5 -234.5t-143.5 -76.5q-39 0 -59 13.5t-32 43.5q-41 -56 -130 -56q-85 0 -137 67.5t-52 174.5q0 108 52 176.5t137 68.5q86 0 124 -48v40h92zM305 254q0 -71 34 -115.5t90 -44.5q57 0 95 47v230q-33 45 -95 45q-56 0 -90 -45t-34 -117z" />
    <glyph glyph-name="A" unicode="A" horiz-adv-x="620" 
d="M19 0l237 680h113l227 -680h-97l-50 153h-282l-51 -153h-97zM312 582l-119 -355h232z" />
    <glyph glyph-name="B" unicode="B" horiz-adv-x="623" 
d="M97 0v680h230q94 0 145.5 -44.5t51.5 -133.5q0 -110 -95 -148q141 -29 141 -170q0 -87 -52.5 -135.5t-151.5 -48.5h-269zM195 302v-216h158q115 0 115 104q0 112 -129 112h-144zM195 594v-201h115q55 0 85 26t30 75q0 100 -111 100h-119z" />
    <glyph glyph-name="C" unicode="C" horiz-adv-x="645" 
d="M553 173l41 -80q-42 -44 -105.5 -73.5t-131.5 -29.5q-131 0 -213.5 94t-82.5 255q0 163 82.5 257t213.5 94q112 0 173 -59.5t63 -177.5l-89 -17q-3 162 -151 162q-88 0 -140 -68.5t-52 -190.5q0 -123 54.5 -190.5t148.5 -67.5q51 0 101.5 27t87.5 65z" />
    <glyph glyph-name="D" unicode="D" horiz-adv-x="697" 
d="M97 0v680h240q132 0 215.5 -90t83.5 -251q0 -160 -83.5 -249.5t-215.5 -89.5h-240zM195 86h130q97 0 154 66t57 187q0 122 -57 188.5t-154 66.5h-130v-508z" />
    <glyph glyph-name="E" unicode="E" horiz-adv-x="608" 
d="M549 0h-452v680h452v-87h-358v-198h296v-86h-296v-223h358v-86z" />
    <glyph glyph-name="F" unicode="F" horiz-adv-x="569" 
d="M486 264h-295v-264h-94v680h435v-87h-341v-242h295v-87z" />
    <glyph glyph-name="G" unicode="G" horiz-adv-x="679" 
d="M588 604l-42 -78q-78 72 -168 72q-99 0 -159 -69t-60 -190q0 -122 59.5 -190t154.5 -68q86 0 146 47v164h-177v85h268v-305q-41 -35 -109.5 -58.5t-133.5 -23.5q-132 0 -220 94.5t-88 254.5q0 161 88 256t220 95q130 0 221 -86z" />
    <glyph glyph-name="H" unicode="H" horiz-adv-x="736" 
d="M541 0v299h-346v-299h-98v680h98v-295h346v295h98v-680h-98z" />
    <glyph glyph-name="I" unicode="I" horiz-adv-x="292" 
d="M97 0v680h98v-680h-98z" />
    <glyph glyph-name="J" unicode="J" horiz-adv-x="569" 
d="M23 227l94 9q5 -82 36 -120.5t95 -38.5q132 0 132 165v438h98v-437q0 -118 -59.5 -186t-172.5 -68q-106 0 -162.5 62t-60.5 176z" />
    <glyph glyph-name="K" unicode="K" horiz-adv-x="676" 
d="M593 680v-15l-199 -331q14 -18 47.5 -89.5t70 -120t76.5 -48.5q29 0 63 18l11 -78q-45 -26 -97 -26q-49 0 -91 38.5t-65.5 85.5t-51 103.5t-45.5 77.5h-117v-295h-98v680h98v-299h126l171 299h101z" />
    <glyph glyph-name="L" unicode="L" horiz-adv-x="527" 
d="M507 0h-410v680h98v-594h312v-86z" />
    <glyph glyph-name="M" unicode="M" horiz-adv-x="832" 
d="M637 0v517l-212 -309h-18l-212 309v-517h-98v680h96l223 -327l223 327h96v-680h-98z" />
    <glyph glyph-name="N" unicode="N" horiz-adv-x="734" 
d="M550 0l-356 516v-516h-97v680h85l356 -517v517h99v-680h-87z" />
    <glyph glyph-name="O" unicode="O" horiz-adv-x="714" 
d="M59 339q0 156 82 253.5t215 97.5t215.5 -97.5t82.5 -253.5q0 -155 -82.5 -252t-215.5 -97q-132 0 -214.5 97t-82.5 252zM156 339q0 -122 55 -189t145 -67q91 0 146.5 67t55.5 189q0 123 -55.5 190.5t-146.5 67.5q-90 0 -145 -67.5t-55 -190.5z" />
    <glyph glyph-name="P" unicode="P" horiz-adv-x="614" 
d="M97 0v680h265q90 0 150 -62t60 -180q0 -108 -61.5 -173.5t-148.5 -65.5h-167v-199h-98zM342 594h-147v-309h147q54 0 92 42t38 111q0 75 -37 115.5t-93 40.5z" />
    <glyph glyph-name="Q" unicode="Q" horiz-adv-x="715" 
d="M60 339q0 156 82 253.5t215 97.5t215.5 -97.5t82.5 -253.5q0 -122 -52.5 -210.5t-143.5 -121.5q1 -1 12 -13t13.5 -14.5l13.5 -13.5t15 -14.5t14.5 -12t17 -11.5t16.5 -9t18.5 -8t19 -4t21.5 -2q54 0 88 15l11 -81q-46 -19 -106 -19q-48 0 -93.5 24t-73 52.5t-54.5 58
t-38 35.5q-131 1 -212.5 98t-81.5 251zM155 339q0 -122 56 -189t146 -67q91 0 146.5 67t55.5 189q0 123 -55.5 190.5t-146.5 67.5q-90 0 -146 -67.5t-56 -190.5z" />
    <glyph glyph-name="R" unicode="R" horiz-adv-x="668" 
d="M97 0v680h269q89 0 147 -59t58 -159q0 -87 -52 -144t-130 -66q11 -13 34.5 -43.5t39 -49t37 -40t42.5 -32.5t42 -11q31 0 66 19l11 -79q-45 -26 -101 -26q-46 0 -92.5 34.5t-77.5 76.5t-66 88.5t-56 61.5h-73v-251h-98zM195 594v-264h147q56 0 92.5 35t36.5 96
q0 65 -36 99t-93 34h-147z" />
    <glyph glyph-name="S" unicode="S" horiz-adv-x="555" 
d="M67 45l23 92q81 -57 173 -57q60 0 98 29t38 82q0 38 -24 61t-76 38l-110 33q-132 41 -132 169q0 83 61.5 140t171.5 57q113 0 200 -50l-28 -88q-32 21 -79 34.5t-90 13.5q-68 0 -103.5 -28t-35.5 -73q0 -66 79 -90l111 -35q79 -25 117 -67t38 -109q0 -92 -63 -149.5
t-168 -57.5q-58 0 -112.5 17t-88.5 38z" />
    <glyph glyph-name="T" unicode="T" horiz-adv-x="546" 
d="M519 582h-193v-582h-98v582h-202v98h493v-98z" />
    <glyph glyph-name="U" unicode="U" horiz-adv-x="694" 
d="M188 680v-402q0 -198 158 -198q82 0 121.5 53t39.5 146v401h98v-407q0 -125 -66 -204.5t-193 -79.5q-128 0 -192 76t-64 208v407h98z" />
    <glyph glyph-name="V" unicode="V" horiz-adv-x="627" 
d="M251 0l-227 680h104l183 -578l191 578h106l-237 -680h-120z" />
    <glyph glyph-name="W" unicode="W" horiz-adv-x="943" 
d="M581 0l-109 335l-116 -335h-105l-227 680h103l184 -570l119 341l-74 229h104l172 -555l186 555h105l-236 -680h-106z" />
    <glyph glyph-name="X" unicode="X" horiz-adv-x="625" 
d="M594 680v-8l-214 -333l214 -331v-8h-113l-169 274l-169 -274h-112v8l213 331l-213 333v8h111l170 -275l170 275h112z" />
    <glyph glyph-name="Y" unicode="Y" horiz-adv-x="585" 
d="M244 0v280l-232 392v8h108l173 -310l173 310h107v-8l-232 -392v-280h-97z" />
    <glyph glyph-name="Z" unicode="Z" horiz-adv-x="548" 
d="M53 71l317 523h-317v86h442v-71l-317 -523h317v-86h-442v71z" />
    <glyph glyph-name="bracketleft" unicode="[" horiz-adv-x="308" 
d="M274 -188h-188v898h188v-79h-110v-740h110v-79z" />
    <glyph glyph-name="backslash" unicode="\" horiz-adv-x="432" 
d="M107 680l301 -672v-8h-84l-300 672v8h83z" />
    <glyph glyph-name="bracketright" unicode="]" horiz-adv-x="308" 
d="M34 710h188v-898h-188v79h110v740h-110v79z" />
    <glyph glyph-name="asciicircum" unicode="^" 
d="M216 680h73l159 -275v-8h-89l-106 205l-106 -205h-87v8z" />
    <glyph glyph-name="underscore" unicode="_" horiz-adv-x="631" 
d="M103 -37h425v-79h-425v79z" />
    <glyph glyph-name="grave" unicode="`" 
d="M256 598l-84 143h96l70 -143h-82z" />
    <glyph glyph-name="a" unicode="a" horiz-adv-x="608" 
d="M498 523v-393q0 -56 35 -56q19 0 47 19l5 -78q-37 -25 -89 -25q-73 0 -88 69q-51 -68 -146 -68q-97 0 -154 71t-57 198q0 126 57 199t157 73q39 0 77 -15t60 -42v48h96zM402 387q-45 59 -111 59t-104 -49.5t-38 -136.5q0 -85 38.5 -134.5t103.5 -49.5q33 0 62.5 18.5
t48.5 44.5v248z" />
    <glyph glyph-name="b" unicode="b" horiz-adv-x="580" 
d="M177 710v-236q55 58 143 58q96 0 152.5 -71.5t56.5 -198.5q0 -128 -56.5 -200t-152.5 -72q-90 0 -143 61v-51h-96v710h96zM431 260q0 87 -38 136.5t-104 49.5q-33 0 -63.5 -16.5t-48.5 -40.5v-257q46 -56 112 -56q65 0 103.5 49.5t38.5 134.5z" />
    <glyph glyph-name="c" unicode="c" horiz-adv-x="526" 
d="M441 135l39 -77q-85 -72 -190 -72q-121 0 -180.5 74t-59.5 200q0 124 64 200.5t170 76.5q178 0 201 -182l-77 -27q-9 122 -115 122q-67 0 -105.5 -51.5t-38.5 -135.5q0 -190 152 -190q71 0 140 62z" />
    <glyph glyph-name="d" unicode="d" horiz-adv-x="608" 
d="M403 710h96v-579q0 -57 36 -57q19 0 45 19l6 -78q-38 -25 -90 -25q-71 0 -87 68q-53 -68 -147 -68q-96 0 -153.5 72t-57.5 200q0 127 57 198.5t154 71.5q86 0 141 -58v236zM149 260q0 -85 38.5 -134.5t103.5 -49.5q33 0 63 16.5t48 40.5v256q-17 24 -47 40.5t-64 16.5
q-66 0 -104 -49.5t-38 -136.5z" />
    <glyph glyph-name="e" unicode="e" horiz-adv-x="532" 
d="M469 229h-324q7 -160 154 -160q75 0 139 57l38 -74q-76 -66 -191 -66q-117 0 -176 75t-59 199q0 122 63.5 199.5t169.5 77.5q99 0 148.5 -59.5t49.5 -152.5q0 -46 -12 -96zM150 306h240q3 15 3 32q0 52 -28.5 83.5t-81.5 31.5q-60 0 -95 -40t-38 -107z" />
    <glyph glyph-name="f" unicode="f" horiz-adv-x="392" 
d="M36 416v78h85v56q0 170 150 170q65 0 112 -36l-24 -83q-37 32 -73 32q-69 0 -69 -79v-60h147v-78h-147v-416h-96v416h-85z" />
    <glyph glyph-name="g" unicode="g" horiz-adv-x="581" 
d="M52 280q0 115 58 183.5t155 68.5q83 0 138 -60v51h96v-493q0 -114 -60 -171t-156 -57q-93 0 -179 49l22 86q75 -49 146 -49q131 0 131 130v67q-53 -55 -138 -55q-97 0 -155 68t-58 182zM150 280q0 -75 38 -119.5t104 -44.5q60 0 111 55v215q-46 60 -110 60
q-66 0 -104.5 -44.5t-38.5 -121.5z" />
    <glyph glyph-name="h" unicode="h" horiz-adv-x="597" 
d="M177 0h-96v710h96v-255q47 77 153 77q165 0 165 -205v-205q0 -26 8 -37t26 -11q21 0 46 18l6 -77q-37 -25 -86 -25q-50 0 -73.5 25.5t-23.5 81.5v212q0 132 -105 132q-43 0 -73 -30t-43 -74v-337z" />
    <glyph glyph-name="i" unicode="i" horiz-adv-x="291" 
d="M70 674q0 56 61 56q58 0 58 -56q0 -57 -58 -57q-61 0 -61 57zM81 523h97v-401q0 -48 34 -48q21 0 46 18l6 -77q-36 -25 -86 -25q-49 0 -73 25.5t-24 81.5v426z" />
    <glyph glyph-name="j" unicode="j" horiz-adv-x="258" 
d="M81 523h96v-503q0 -83 -30 -133.5t-85 -83.5l-56 65q38 26 56.5 59.5t18.5 88.5v507zM70 674q0 56 60 56q59 0 59 -56q0 -57 -59 -57q-60 0 -60 57z" />
    <glyph glyph-name="k" unicode="k" horiz-adv-x="547" 
d="M177 0h-96v710h96v-407q46 0 78.5 9t63 31.5t51 67t31.5 112.5h97q-26 -188 -132 -257l148 -254v-12h-102l-127 229q-49 -12 -108 -12v-217z" />
    <glyph glyph-name="l" unicode="l" horiz-adv-x="294" 
d="M78 710h97v-578q0 -32 10.5 -45t31.5 -13q27 0 54 18l6 -77q-44 -25 -94 -25q-53 0 -79 27.5t-26 90.5v602z" />
    <glyph glyph-name="m" unicode="m" horiz-adv-x="886" 
d="M177 0h-96v523h96v-66q46 75 147 75q108 0 143 -94q48 94 151 94q87 0 126.5 -49.5t39.5 -149.5v-211q0 -48 34 -48q22 0 47 18l6 -77q-36 -25 -87 -25q-49 0 -72.5 25.5t-23.5 81.5v218q0 65 -24.5 95.5t-76.5 30.5q-74 0 -104 -93q0 -2 0.5 -7t0.5 -8v-333h-96v315
q0 126 -101 126q-81 0 -110 -98v-343z" />
    <glyph glyph-name="n" unicode="n" horiz-adv-x="597" 
d="M177 0h-96v523h96v-68q47 77 153 77q165 0 165 -205v-205q0 -26 8 -37t26 -11q21 0 46 18l6 -77q-37 -25 -86 -25q-50 0 -73.5 25.5t-23.5 81.5v212q0 132 -105 132q-43 0 -73 -30t-43 -74v-337z" />
    <glyph glyph-name="o" unicode="o" horiz-adv-x="575" 
d="M50 260q0 128 64.5 202.5t172.5 74.5t173 -74t65 -203q0 -127 -65 -200.5t-173 -73.5t-172.5 73.5t-64.5 200.5zM145 260q0 -87 38.5 -135.5t103.5 -48.5t103.5 48.5t38.5 135.5q0 89 -38.5 138t-103.5 49t-103.5 -49t-38.5 -138z" />
    <glyph glyph-name="p" unicode="p" horiz-adv-x="609" 
d="M558 261q0 -127 -57.5 -198.5t-153.5 -71.5q-87 0 -141 57v-235h-97v579q0 57 -36 57q-20 0 -44 -19l-7 79q42 24 90 24q71 0 88 -67q52 67 147 67q96 0 153.5 -72.5t57.5 -199.5zM460 264q0 85 -38 134t-104 49q-34 0 -64 -16t-48 -40v-257q18 -24 48 -40t64 -16
q66 0 104 49.5t38 136.5z" />
    <glyph glyph-name="q" unicode="q" horiz-adv-x="580" 
d="M51 260q0 128 56.5 200t152.5 72q89 0 143 -61v52h96v-711h-96v235q-55 -57 -143 -57q-96 0 -152.5 71.5t-56.5 198.5zM149 263q0 -87 38.5 -137t104.5 -50q65 0 111 56v257q-19 24 -48.5 40t-62.5 16q-66 0 -104.5 -48.5t-38.5 -133.5z" />
    <glyph glyph-name="r" unicode="r" horiz-adv-x="413" 
d="M396 503l-16 -89q-33 27 -77 27q-42 0 -63.5 -32t-33.5 -91v-318h-97v392q0 57 -36 57q-20 0 -44 -19l-7 79q42 24 90 24q73 0 89 -74q34 73 113 73q51 0 82 -29z" />
    <glyph glyph-name="s" unicode="s" horiz-adv-x="453" 
d="M401 497l-24 -83q-68 34 -135 34q-46 0 -70.5 -19t-24.5 -54q0 -25 15.5 -38.5t54.5 -24.5l78 -23q109 -32 109 -135q0 -70 -48 -117t-132 -47q-92 0 -168 40l20 87q74 -45 143 -45q42 0 65 20.5t23 53.5q0 29 -17 43.5t-51 24.5l-81 24q-110 33 -110 135
q0 70 50.5 114.5t138.5 44.5q41 0 89 -10.5t75 -24.5z" />
    <glyph glyph-name="t" unicode="t" horiz-adv-x="419" 
d="M204 445v-287q0 -82 70 -82q51 0 98 36l25 -78q-70 -44 -145 -44q-67 0 -105.5 38.5t-38.5 117.5v299h-82v78h88l11 133h79v-133h171v-78h-171z" />
    <glyph glyph-name="u" unicode="u" horiz-adv-x="598" 
d="M393 523h96v-401q0 -48 35 -48q21 0 46 18l6 -77q-36 -25 -87 -25q-80 0 -93 69q-50 -69 -153 -69q-167 0 -167 205v328h96v-316q0 -127 102 -127q84 0 119 89v354z" />
    <glyph glyph-name="v" unicode="v" horiz-adv-x="594" 
d="M202 410v-184q0 -69 30 -107.5t81 -38.5q52 0 86 45t34 120q0 144 -43 278h98q42 -138 42 -284q0 -113 -59.5 -181t-158.5 -68q-98 0 -152 58.5t-54 163.5v181q0 56 -36 56q-22 0 -46 -19l-5 78q34 24 89 24q94 0 94 -122z" />
    <glyph glyph-name="w" unicode="w" horiz-adv-x="885" 
d="M504 523v-301q0 -65 27.5 -103.5t75.5 -38.5q53 0 82.5 45.5t29.5 119.5q0 134 -38 278h99q40 -145 40 -278q0 -121 -53 -188t-148 -67q-62 0 -101 24t-61 83q-43 -107 -165 -107q-185 0 -185 222v181q0 56 -37 56q-23 0 -45 -19l-6 79q48 23 92 23q92 0 92 -120v-188
q0 -144 101 -144q50 0 79.5 38.5t29.5 107.5v297h91z" />
    <glyph glyph-name="x" unicode="x" horiz-adv-x="509" 
d="M479 523v-8l-158 -255l158 -252v-8h-106l-119 206l-118 -206h-106v8l156 252l-156 255v8h104l120 -209l121 209h104z" />
    <glyph glyph-name="y" unicode="y" horiz-adv-x="512" 
d="M23 -168l15 74q37 -22 80 -22q35 0 55.5 21t36.5 68l11 36l-207 514h106l144 -416l133 416h98l-201 -569q-27 -77 -65 -114.5t-105 -37.5q-58 0 -101 30z" />
    <glyph glyph-name="z" unicode="z" horiz-adv-x="456" 
d="M48 71l239 373h-239v79h360v-71l-239 -374h239v-78h-360v71z" />
    <glyph glyph-name="braceleft" unicode="{" horiz-adv-x="293" 
d="M222 -124h23v-71h-39q-63 0 -94 32t-31 87q0 36 24 114.5t24 120.5q0 36 -20.5 52.5t-66.5 16.5v61q87 0 87 73q0 42 -24 120t-24 113q0 52 31 83.5t94 31.5h39v-71h-23q-33 0 -48.5 -18t-15.5 -46t24 -106t24 -119q0 -76 -69 -92q69 -16 69 -93q0 -41 -24 -118.5
t-24 -105.5q0 -65 64 -65z" />
    <glyph glyph-name="bar" unicode="|" horiz-adv-x="249" 
d="M86 -188v898h77v-898h-77z" />
    <glyph glyph-name="braceright" unicode="}" horiz-adv-x="294" 
d="M88 -195h-40v71h25q31 0 47 18t16 47q0 28 -24 105.5t-24 118.5q0 78 69 93q-69 15 -69 92q0 41 24 119t24 106t-16 46t-47 18h-25v71h40q62 0 93 -31.5t31 -83.5q0 -35 -23.5 -113t-23.5 -120q0 -73 87 -73v-61q-46 0 -66.5 -16.5t-20.5 -52.5q0 -42 23.5 -120.5
t23.5 -114.5q0 -55 -30.5 -87t-93.5 -32z" />
    <glyph glyph-name="asciitilde" unicode="~" horiz-adv-x="467" 
d="M368 360l36 -44q-10 -42 -35.5 -67.5t-59.5 -25.5q-21 0 -42 12.5t-36 28t-34 28t-37 12.5q-21 0 -37.5 -16.5t-23.5 -47.5l-36 47q8 37 33.5 63.5t59.5 26.5q28 0 56 -20t52 -40t42 -20q42 0 62 63z" />
    <glyph glyph-name="uni00A0" unicode="&#xa0;" horiz-adv-x="215" 
 />
    <glyph glyph-name="exclamdown" unicode="&#xa1;" horiz-adv-x="265" 
d="M167 285l14 -443h-97l14 443h69zM196 468q0 -33 -16.5 -51t-47.5 -18t-48 18t-17 51q0 69 65 69q64 0 64 -69z" />
    <glyph glyph-name="cent" unicode="&#xa2;" 
d="M430 134l36 -76q-80 -72 -187 -72q-21 0 -41 3l-29 -125l-56 16l28 122q-71 28 -106.5 95.5t-35.5 162.5q0 121 64.5 199t169.5 78q23 0 33 -2l26 108l57 -17l-25 -106q89 -37 116 -160l-73 -31q-16 79 -63 109l-86 -367q18 -2 29 -2q74 0 143 65zM129 263
q0 -125 73 -172l86 365q-2 0 -7 0.5t-7 0.5q-66 0 -105.5 -54t-39.5 -140z" />
    <glyph glyph-name="sterling" unicode="&#xa3;" 
d="M389 316h-167q13 -87 13 -136q0 -20 -1 -30q8 -6 30.5 -27t42 -35t35.5 -14q61 0 61 128v16h82q1 -13 1 -38q0 -190 -121 -190q-27 0 -54 16.5t-58 45t-39 34.5q-17 -47 -41 -71.5t-65 -24.5q-40 0 -62.5 27.5t-22.5 72.5q0 43 24.5 70.5t63.5 27.5q23 0 41 -11v8
q0 35 -20 131h-81v62h69q-11 57 -11 116q0 87 45 141.5t131 54.5q54 0 100.5 -22.5t72.5 -49.5l-31 -84q-56 66 -125 66q-47 0 -71.5 -35t-24.5 -93q0 -38 7 -94h176v-62zM117 131q-18 0 -29 -12t-11 -33q0 -40 29 -40q35 0 43 73q-14 12 -32 12z" />
    <glyph glyph-name="currency" unicode="&#xa4;" horiz-adv-x="553" 
d="M426 508l57 -56l-59 -58q28 -39 28 -92q0 -52 -27 -92l58 -57l-57 -56l-58 58q-39 -28 -94 -28q-52 0 -91 25l-55 -55l-57 56l54 53q-30 41 -30 96t30 96l-54 54l57 56l55 -57q40 27 91 27q56 0 94 -29zM166 302q0 -47 30 -78t78 -31t78 31t30 78q0 46 -30.5 77.5
t-77.5 31.5t-77.5 -31.5t-30.5 -77.5z" />
    <glyph glyph-name="yen" unicode="&#xa5;" 
d="M437 139h-136v-139h-97v139h-135v61h135v65h-135v62h113l-155 345v8h100l126 -320l129 320h100v-8l-160 -345h115v-62h-136v-65h136v-61z" />
    <glyph glyph-name="brokenbar" unicode="&#xa6;" horiz-adv-x="259" 
d="M168 -188h-77v347h77v-347zM91 710h77v-335h-77v335z" />
    <glyph glyph-name="section" unicode="&#xa7;" horiz-adv-x="568" 
d="M76 -51l22 80q95 -45 185 -45q56 0 89 18.5t33 52.5q0 16 -7 27t-24 19t-32.5 12.5t-44.5 11.5l-101 23q-67 16 -97.5 49t-30.5 91q0 89 79 135q-78 32 -78 112q0 66 58.5 110.5t160.5 44.5q112 0 202 -43l-26 -80q-97 44 -184 44q-56 0 -86.5 -20.5t-30.5 -52.5
q0 -26 19.5 -38.5t56.5 -20.5l108 -21q75 -16 114.5 -56.5t39.5 -100.5q0 -89 -81 -134q81 -36 81 -109q0 -71 -61.5 -113t-161.5 -42q-117 0 -202 46zM314 385l-56 11q-53 -6 -79.5 -34t-26.5 -64q0 -33 17.5 -51.5t59.5 -28.5l74 -18q50 4 79.5 28t29.5 64q0 74 -98 93z
" />
    <glyph glyph-name="dieresis" unicode="&#xa8;" 
d="M91 672q0 54 57 54q55 0 55 -54t-55 -54q-57 0 -57 54zM307 672q0 54 57 54q55 0 55 -54t-55 -54q-57 0 -57 54z" />
    <glyph glyph-name="copyright" unicode="&#xa9;" horiz-adv-x="805" 
d="M53 339q0 151 100 251t249 100q151 0 251 -100t100 -251q0 -149 -100 -249t-251 -100q-149 0 -249 100t-100 249zM110 339q0 -126 83 -209.5t209 -83.5t209.5 83.5t83.5 209.5q0 127 -83.5 211t-209.5 84t-209 -84t-83 -211zM503 272l42 -53q-59 -55 -140 -55
q-77 0 -125.5 47t-48.5 128t48.5 128t125.5 47q65 0 101 -34t38 -94l-64 -15q0 35 -19.5 54t-55.5 19q-44 0 -71 -28t-27 -77q0 -50 27 -77.5t73 -27.5q52 0 96 38z" />
    <glyph glyph-name="ordfeminine" unicode="&#xaa;" horiz-adv-x="447" 
d="M373 409l4 -55q-28 -16 -61 -16q-41 0 -54 39q-37 -39 -86 -39q-45 0 -72.5 28.5t-27.5 73.5q0 57 40.5 87t111.5 30q11 0 29 -2v13q0 33 -13.5 47t-41.5 14q-48 0 -86 -25l-12 61q47 22 113 22q58 0 82 -28t24 -85v-148q0 -16 4.5 -23t17.5 -7q9 0 28 13zM95 255h264
v-57h-264v57zM192 395q36 0 65 25v86q-17 5 -38 5q-37 0 -61 -15.5t-24 -47.5q0 -25 15.5 -39t42.5 -14z" />
    <glyph glyph-name="guillemotleft" unicode="&#xab;" horiz-adv-x="481" 
d="M50 292v20l136 201h8l35 -23l-98 -188l98 -188l-35 -23h-8zM239 292v20l137 201h7l35 -23l-97 -188l98 -188l-36 -23h-7z" />
    <glyph glyph-name="logicalnot" unicode="&#xac;" 
d="M455 402l-1 -272h-76v193h-323v79h400z" />
    <glyph glyph-name="uni00AD" unicode="&#xad;" horiz-adv-x="480" 
d="M74 342h332v-79h-332v79z" />
    <glyph glyph-name="registered" unicode="&#xae;" horiz-adv-x="805" 
d="M53 339q0 151 100 251t249 100q151 0 251 -100t100 -251q0 -149 -100 -249t-251 -100q-149 0 -249 100t-100 249zM110 339q0 -126 83 -209.5t209 -83.5t209 83.5t83 209.5q0 127 -83 211t-209 84t-209 -84t-83 -211zM351 281v8h-14v-120h-74v340h142q61 0 99.5 -27
t38.5 -86q0 -44 -26.5 -70.5t-69.5 -34.5q24 -22 33.5 -30t30 -19.5t37.5 -11.5q20 0 40 9l8 -62q-26 -13 -56 -13q-37 0 -74.5 27t-68 56.5t-46.5 33.5zM417 449h-80v-106h80q24 0 39.5 14.5t15.5 37.5q0 26 -15.5 40t-39.5 14z" />
    <glyph glyph-name="macron" unicode="&#xaf;" 
d="M360 625h-211v69h211v-69z" />
    <glyph glyph-name="degree" unicode="&#xb0;" horiz-adv-x="417" 
d="M54 513q0 82 43 129.5t111 47.5q69 0 111.5 -47.5t42.5 -129.5q0 -83 -42.5 -129t-111.5 -46t-111.5 46t-42.5 129zM122 513q0 -53 23 -81t63 -28t63.5 28t23.5 81t-23.5 81t-63.5 28t-63 -28t-23 -81z" />
    <glyph glyph-name="plusminus" unicode="&#xb1;" 
d="M293 646v-193h162v-79h-162v-142h-76v142h-162v79h162v193h76zM55 148h400v-79h-400v79z" />
    <glyph glyph-name="twosuperior" unicode="&#xb2;" horiz-adv-x="296" 
d="M43 458v43l110 99q43 37 43 79q0 25 -14 41.5t-39 16.5q-28 0 -42 -19.5t-14 -52.5l-52 9q2 53 31 84.5t80 31.5t78.5 -29.5t27.5 -76.5q0 -63 -59 -114l-71 -62h137v-50h-216z" />
    <glyph glyph-name="threesuperior" unicode="&#xb3;" horiz-adv-x="291" 
d="M69 650h67q24 0 36.5 13t12.5 32q0 45 -57 45q-42 0 -80 -20l-12 49q45 21 97 21t80.5 -23.5t28.5 -66.5q0 -54 -48 -71q58 -15 58 -82q0 -44 -31 -69t-88 -25q-48 0 -98 20l14 48q38 -19 81 -19q29 0 46.5 14.5t17.5 39.5q0 45 -58 45h-67v49z" />
    <glyph glyph-name="acute" unicode="&#xb4;" 
d="M338 741l-84 -143h-82l70 143h96z" />
    <glyph glyph-name="mu" unicode="&#xb5;" horiz-adv-x="572" 
d="M185 523v-280q0 -82 24 -122.5t80 -40.5q79 0 115 85v358h97v-523h-97v53q-51 -63 -149 -63q-40 0 -70 12v-190h-97v711h97z" />
    <glyph glyph-name="paragraph" unicode="&#xb6;" horiz-adv-x="495" 
d="M199 -188v461h-49q-51 0 -83 33t-32 92t32 92t83 33h125v-711h-76zM342 -188v711h76v-711h-76z" />
    <glyph glyph-name="periodcentered" unicode="&#xb7;" horiz-adv-x="265" 
d="M69 297q0 32 16.5 50t46.5 18q31 0 48 -18t17 -50q0 -33 -17 -50.5t-48 -17.5q-63 0 -63 68z" />
    <glyph glyph-name="cedilla" unicode="&#xb8;" 
d="M187 -96l23 98h41l-15 -65q14 4 25 4q34 0 53.5 -18t19.5 -47q0 -35 -26 -54.5t-67 -19.5q-36 0 -65 12l9 36q31 -11 53 -11q48 0 48 36q0 31 -44 31q-30 0 -53 -7z" />
    <glyph glyph-name="onesuperior" unicode="&#xb9;" horiz-adv-x="234" 
d="M13 711l123 73h40v-327h-55v262l-86 -51z" />
    <glyph glyph-name="ordmasculine" unicode="&#xba;" horiz-adv-x="442" 
d="M68 513q0 84 42 130.5t111 46.5t111.5 -46.5t42.5 -130.5t-42 -129.5t-112 -45.5q-69 0 -111 45.5t-42 129.5zM130 513q0 -56 24.5 -85.5t66.5 -29.5t67 29.5t25 85.5t-25 86t-67 30t-66.5 -30t-24.5 -86zM90 255h264v-57h-264v57z" />
    <glyph glyph-name="guillemotright" unicode="&#xbb;" horiz-adv-x="480" 
d="M241 312v-20l-137 -201h-7l-35 23l97 188l-98 188l36 23h7zM430 312v-20l-136 -201h-8l-35 23l98 188l-98 188l35 23h8z" />
    <glyph glyph-name="onequarter" unicode="&#xbc;" horiz-adv-x="707" 
d="M669 64h-51v-64h-56v64h-157v39l141 224l16 -1v1h56v-219h51v-44zM143 8l314 672h57v-8l-313 -672h-58v8zM29 611l123 73h40v-327h-55v262l-86 -51zM462 108h100v160z" />
    <glyph glyph-name="onehalf" unicode="&#xbd;" horiz-adv-x="695" 
d="M143 8l314 672h57v-8l-313 -672h-58v8zM432 0v44l110 98q43 37 43 79q0 26 -14 42.5t-39 16.5q-27 0 -41.5 -20t-14.5 -53l-52 9q2 53 31 84.5t80 31.5t78.5 -29.5t27.5 -76.5q0 -63 -59 -114l-71 -62h137v-50h-216zM29 611l123 73h40v-327h-55v262l-86 -51z" />
    <glyph glyph-name="threequarters" unicode="&#xbe;" horiz-adv-x="757" 
d="M724 64h-51v-64h-56v64h-157v39l141 224l16 -1v1h56v-219h51v-44zM197 8l314 672h57v-8l-313 -672h-58v8zM80 550h67q24 0 36.5 13t12.5 32q0 45 -57 45q-43 0 -80 -20l-12 49q45 21 97 21t80.5 -23.5t28.5 -66.5q0 -54 -48 -71q58 -15 58 -82q0 -44 -31 -69t-88 -25
q-48 0 -98 20l14 48q38 -19 81 -19q29 0 46.5 14.5t17.5 39.5q0 45 -58 45h-67v49zM517 108h100v160z" />
    <glyph glyph-name="questiondown" unicode="&#xbf;" horiz-adv-x="415" 
d="M197 287h80q9 -34 9 -51q0 -24 -11.5 -41.5t-36.5 -41.5l-41 -38q-19 -19 -28 -30t-18.5 -34t-9.5 -50q0 -38 24 -61.5t66 -23.5q74 0 120 73l28 -75q-64 -80 -170 -80q-76 0 -120.5 44t-44.5 112q0 39 14.5 74.5t28.5 53.5t38 42l46 46q25 27 28 40q1 6 1 14q0 10 -3 27
zM300 467q0 -32 -16.5 -50t-46.5 -18q-31 0 -48 18t-17 50q0 69 65 69q63 0 63 -69z" />
    <glyph glyph-name="Agrave" unicode="&#xc0;" horiz-adv-x="620" 
d="M19 0l237 680h113l227 -680h-97l-50 153h-282l-51 -153h-97zM312 582l-119 -355h232zM276 755l-84 143h96l70 -143h-82z" />
    <glyph glyph-name="Aacute" unicode="&#xc1;" horiz-adv-x="620" 
d="M19 0l237 680h113l227 -680h-97l-50 153h-282l-51 -153h-97zM312 582l-119 -355h232zM423 898l-84 -143h-82l70 143h96z" />
    <glyph glyph-name="Acircumflex" unicode="&#xc2;" horiz-adv-x="620" 
d="M19 0l237 680h113l227 -680h-97l-50 153h-282l-51 -153h-97zM312 582l-119 -355h232zM373 755l-61 92l-62 -92h-75l89 143h96l89 -143h-76z" />
    <glyph glyph-name="Atilde" unicode="&#xc3;" horiz-adv-x="620" 
d="M19 0l237 680h113l227 -680h-97l-50 153h-282l-51 -153h-97zM312 582l-119 -355h232zM188 772l-29 41q12 31 36.5 53t52.5 22q32 0 70 -32t57 -32q39 0 59 47l30 -39q-33 -77 -89 -77q-29 0 -69 32.5t-58 32.5q-35 0 -60 -48z" />
    <glyph glyph-name="Adieresis" unicode="&#xc4;" horiz-adv-x="620" 
d="M19 0l237 680h113l227 -680h-97l-50 153h-282l-51 -153h-97zM312 582l-119 -355h232zM148 829q0 54 57 54q55 0 55 -54t-55 -54q-57 0 -57 54zM364 829q0 54 57 54q55 0 55 -54t-55 -54q-57 0 -57 54z" />
    <glyph glyph-name="Aring" unicode="&#xc5;" horiz-adv-x="620" 
d="M214 743q0 41 29 69.5t69 28.5t69 -28.5t29 -69.5q0 -48 -37 -77l223 -666h-97l-50 153h-282l-51 -153h-97l232 666q-37 29 -37 77zM312 582l-119 -355h232zM258 743q0 -23 16 -38.5t38 -15.5t37.5 16t15.5 38t-15.5 37.5t-37.5 15.5t-38 -15.5t-16 -37.5z" />
    <glyph glyph-name="AE" unicode="&#xc6;" horiz-adv-x="918" 
d="M407 0v153h-224l-75 -153h-104l347 680h507v-87h-358v-201h296v-80h-296v-226h358v-86h-451zM221 227h186v362z" />
    <glyph glyph-name="Ccedilla" unicode="&#xc7;" horiz-adv-x="646" 
d="M289 -96l21 90q-113 16 -181 107.5t-68 237.5q0 163 82.5 257t213.5 94q112 0 173 -59.5t63 -177.5l-89 -17q-3 162 -151 162q-88 0 -140 -68.5t-52 -190.5q0 -123 54.5 -190.5t148.5 -67.5q51 0 101.5 27t87.5 65l41 -80q-42 -44 -105.5 -73.5t-131.5 -29.5h-7l-12 -53
q14 4 25 4q34 0 53.5 -18t19.5 -47q0 -35 -26 -54.5t-67 -19.5q-36 0 -65 12l9 36q31 -11 53 -11q48 0 48 36q0 31 -44 31q-30 0 -53 -7z" />
    <glyph glyph-name="Egrave" unicode="&#xc8;" horiz-adv-x="608" 
d="M549 0h-452v680h452v-87h-358v-198h296v-86h-296v-223h358v-86zM291 755l-84 143h96l70 -143h-82z" />
    <glyph glyph-name="Eacute" unicode="&#xc9;" horiz-adv-x="608" 
d="M549 0h-452v680h452v-87h-358v-198h296v-86h-296v-223h358v-86zM439 898l-84 -143h-82l70 143h96z" />
    <glyph glyph-name="Ecircumflex" unicode="&#xca;" horiz-adv-x="608" 
d="M549 0h-452v680h452v-87h-358v-198h296v-86h-296v-223h358v-86zM386 755l-61 92l-62 -92h-75l89 143h96l89 -143h-76z" />
    <glyph glyph-name="Edieresis" unicode="&#xcb;" horiz-adv-x="608" 
d="M549 0h-452v680h452v-87h-358v-198h296v-86h-296v-223h358v-86zM161 829q0 54 57 54q55 0 55 -54t-55 -54q-57 0 -57 54zM377 829q0 54 57 54q55 0 55 -54t-55 -54q-57 0 -57 54z" />
    <glyph glyph-name="Igrave" unicode="&#xcc;" horiz-adv-x="292" 
d="M97 0v680h98v-680h-98zM112 755l-84 143h96l70 -143h-82z" />
    <glyph glyph-name="Iacute" unicode="&#xcd;" horiz-adv-x="292" 
d="M97 0v680h98v-680h-98zM269 898l-84 -143h-82l70 143h96z" />
    <glyph glyph-name="Icircumflex" unicode="&#xce;" horiz-adv-x="292" 
d="M97 0v680h98v-680h-98zM207 755l-61 92l-62 -92h-75l89 143h96l89 -143h-76z" />
    <glyph glyph-name="Idieresis" unicode="&#xcf;" horiz-adv-x="292" 
d="M97 0v680h98v-680h-98zM-19 829q0 54 57 54q55 0 55 -54t-55 -54q-57 0 -57 54zM197 829q0 54 57 54q55 0 55 -54t-55 -54q-57 0 -57 54z" />
    <glyph glyph-name="Eth" unicode="&#xd0;" horiz-adv-x="697" 
d="M97 0v301h-53v79h53v300h240q132 0 215.5 -90t83.5 -251q0 -160 -83.5 -249.5t-215.5 -89.5h-240zM195 86h130q97 0 154.5 66t57.5 187q0 122 -57.5 188.5t-154.5 66.5h-130v-214h127v-79h-127v-215z" />
    <glyph glyph-name="Ntilde" unicode="&#xd1;" horiz-adv-x="734" 
d="M550 0l-356 516v-516h-97v680h85l356 -517v517h99v-680h-87zM247 772l-29 41q12 31 36.5 53t52.5 22q32 0 70 -32t57 -32q39 0 59 47l30 -39q-33 -77 -89 -77q-30 0 -70 32.5t-57 32.5q-35 0 -60 -48z" />
    <glyph glyph-name="Ograve" unicode="&#xd2;" horiz-adv-x="714" 
d="M59 339q0 156 82 253.5t215 97.5t215.5 -97.5t82.5 -253.5q0 -155 -82.5 -252t-215.5 -97q-132 0 -214.5 97t-82.5 252zM156 339q0 -122 55 -189t145 -67q91 0 146.5 67t55.5 189q0 123 -55.5 190.5t-146.5 67.5q-90 0 -145 -67.5t-55 -190.5zM320 755l-84 143h96
l70 -143h-82z" />
    <glyph glyph-name="Oacute" unicode="&#xd3;" horiz-adv-x="714" 
d="M59 339q0 156 82 253.5t215 97.5t215.5 -97.5t82.5 -253.5q0 -155 -82.5 -252t-215.5 -97q-132 0 -214.5 97t-82.5 252zM156 339q0 -122 55 -189t145 -67q91 0 146.5 67t55.5 189q0 123 -55.5 190.5t-146.5 67.5q-90 0 -145 -67.5t-55 -190.5zM478 898l-84 -143h-82
l70 143h96z" />
    <glyph glyph-name="Ocircumflex" unicode="&#xd4;" horiz-adv-x="714" 
d="M59 339q0 156 82 253.5t215 97.5t215.5 -97.5t82.5 -253.5q0 -155 -82.5 -252t-215.5 -97q-132 0 -214.5 97t-82.5 252zM156 339q0 -122 55 -189t145 -67q91 0 146.5 67t55.5 189q0 123 -55.5 190.5t-146.5 67.5q-90 0 -145 -67.5t-55 -190.5zM417 755l-61 92l-62 -92
h-75l89 143h96l89 -143h-76z" />
    <glyph glyph-name="Otilde" unicode="&#xd5;" horiz-adv-x="714" 
d="M59 339q0 156 82 253.5t215 97.5t215.5 -97.5t82.5 -253.5q0 -155 -82.5 -252t-215.5 -97q-132 0 -214.5 97t-82.5 252zM156 339q0 -122 55 -189t145 -67q91 0 146.5 67t55.5 189q0 123 -55.5 190.5t-146.5 67.5q-90 0 -145 -67.5t-55 -190.5zM233 772l-29 41
q12 31 36.5 53t52.5 22q32 0 70 -32t57 -32q39 0 59 47l30 -39q-33 -77 -89 -77q-30 0 -70 32.5t-57 32.5q-35 0 -60 -48z" />
    <glyph glyph-name="Odieresis" unicode="&#xd6;" horiz-adv-x="714" 
d="M59 339q0 156 82 253.5t215 97.5t215.5 -97.5t82.5 -253.5q0 -155 -82.5 -252t-215.5 -97q-132 0 -214.5 97t-82.5 252zM156 339q0 -122 55 -189t145 -67q91 0 146.5 67t55.5 189q0 123 -55.5 190.5t-146.5 67.5q-90 0 -145 -67.5t-55 -190.5zM193 829q0 54 57 54
q55 0 55 -54t-55 -54q-57 0 -57 54zM409 829q0 54 57 54q55 0 55 -54t-55 -54q-57 0 -57 54z" />
    <glyph glyph-name="multiply" unicode="&#xd7;" 
d="M424 439l-115 -136l115 -137l-55 -56l-114 137l-114 -137l-55 56l115 137l-115 136l55 56l114 -137l114 137z" />
    <glyph glyph-name="Oslash" unicode="&#xd8;" horiz-adv-x="714" 
d="M59 339q0 156 82 253.5t215 97.5q97 0 171 -55l31 45h70v-8l-56 -81q82 -96 82 -252q0 -155 -82.5 -252t-215.5 -97q-94 0 -163 49l-27 -39h-72v8l51 74q-86 97 -86 257zM156 339q0 -111 45 -176l273 395q-51 39 -118 39q-90 0 -145 -67.5t-55 -190.5zM558 339
q0 104 -42 171l-270 -394q47 -33 110 -33q91 0 146.5 67t55.5 189z" />
    <glyph glyph-name="Ugrave" unicode="&#xd9;" horiz-adv-x="694" 
d="M188 680v-402q0 -198 158 -198q82 0 121.5 53t39.5 146v401h98v-407q0 -125 -66 -204.5t-193 -79.5q-128 0 -192 76t-64 208v407h98zM311 755l-84 143h96l70 -143h-82z" />
    <glyph glyph-name="Uacute" unicode="&#xda;" horiz-adv-x="694" 
d="M188 680v-402q0 -198 158 -198q82 0 121.5 53t39.5 146v401h98v-407q0 -125 -66 -204.5t-193 -79.5q-128 0 -192 76t-64 208v407h98zM468 898l-84 -143h-82l70 143h96z" />
    <glyph glyph-name="Ucircumflex" unicode="&#xdb;" horiz-adv-x="694" 
d="M188 680v-402q0 -198 158 -198q82 0 121.5 53t39.5 146v401h98v-407q0 -125 -66 -204.5t-193 -79.5q-128 0 -192 76t-64 208v407h98zM408 755l-61 92l-62 -92h-75l89 143h96l89 -143h-76z" />
    <glyph glyph-name="Udieresis" unicode="&#xdc;" horiz-adv-x="694" 
d="M188 680v-402q0 -198 158 -198q82 0 121.5 53t39.5 146v401h98v-407q0 -125 -66 -204.5t-193 -79.5q-128 0 -192 76t-64 208v407h98zM184 829q0 54 57 54q55 0 55 -54t-55 -54q-57 0 -57 54zM400 829q0 54 57 54q55 0 55 -54t-55 -54q-57 0 -57 54z" />
    <glyph glyph-name="Yacute" unicode="&#xdd;" horiz-adv-x="585" 
d="M244 0v280l-232 392v8h108l173 -310l173 310h107v-8l-232 -392v-280h-97zM414 898l-84 -143h-82l70 143h96z" />
    <glyph glyph-name="Thorn" unicode="&#xde;" horiz-adv-x="612" 
d="M97 0v680h97v-103h167q91 0 150 -57t59 -173q0 -107 -60.5 -167t-148.5 -60h-167v-120h-97zM340 491h-146v-285h146q57 0 94.5 36.5t37.5 104.5q0 73 -37 108.5t-95 35.5z" />
    <glyph glyph-name="germandbls" unicode="&#xdf;" horiz-adv-x="591" 
d="M81 0v466q0 131 62 192.5t161 61.5q89 0 142 -57.5t53 -133.5q0 -41 -17.5 -78.5t-34.5 -62t-17 -33.5q0 -7 18 -25t39.5 -39t39.5 -58.5t18 -77.5q0 -74 -46 -119.5t-121 -45.5t-129 29l12 79q38 -24 83 -24q42 0 69.5 25.5t27.5 69.5q0 30 -18 58.5t-39 47t-39 38.5
t-18 35q0 13 11.5 32.5t25 38t25 47t11.5 56.5q0 49 -28 79.5t-77 30.5q-57 0 -87 -42.5t-30 -124.5v-465h-97z" />
    <glyph glyph-name="agrave" unicode="&#xe0;" horiz-adv-x="608" 
d="M498 523v-393q0 -56 35 -56q19 0 47 19l5 -78q-37 -25 -89 -25q-73 0 -88 69q-51 -68 -146 -68q-97 0 -154 71t-57 198q0 126 57 199t157 73q39 0 77 -15t60 -42v48h96zM402 387q-45 59 -111 59t-104 -49.5t-38 -136.5q0 -85 38.5 -134.5t103.5 -49.5q33 0 62.5 18.5
t48.5 44.5v248zM275 598l-84 143h96l70 -143h-82z" />
    <glyph glyph-name="aacute" unicode="&#xe1;" horiz-adv-x="608" 
d="M498 523v-393q0 -56 35 -56q19 0 47 19l5 -78q-37 -25 -89 -25q-73 0 -88 69q-51 -68 -146 -68q-97 0 -154 71t-57 198q0 126 57 199t157 73q39 0 77 -15t60 -42v48h96zM402 387q-45 59 -111 59t-104 -49.5t-38 -136.5q0 -85 38.5 -134.5t103.5 -49.5q33 0 62.5 18.5
t48.5 44.5v248zM422 741l-84 -143h-82l70 143h96z" />
    <glyph glyph-name="acircumflex" unicode="&#xe2;" horiz-adv-x="608" 
d="M498 523v-393q0 -56 35 -56q19 0 47 19l5 -78q-37 -25 -89 -25q-73 0 -88 69q-51 -68 -146 -68q-97 0 -154 71t-57 198q0 126 57 199t157 73q39 0 77 -15t60 -42v48h96zM402 387q-45 59 -111 59t-104 -49.5t-38 -136.5q0 -85 38.5 -134.5t103.5 -49.5q33 0 62.5 18.5
t48.5 44.5v248zM359 598l-61 92l-62 -92h-75l89 143h96l89 -143h-76z" />
    <glyph glyph-name="atilde" unicode="&#xe3;" horiz-adv-x="608" 
d="M498 523v-393q0 -56 35 -56q19 0 47 19l5 -78q-37 -25 -89 -25q-73 0 -88 69q-51 -68 -146 -68q-97 0 -154 71t-57 198q0 126 57 199t157 73q39 0 77 -15t60 -42v48h96zM402 387q-45 59 -111 59t-104 -49.5t-38 -136.5q0 -85 38.5 -134.5t103.5 -49.5q33 0 62.5 18.5
t48.5 44.5v248zM178 615l-29 41q12 31 36.5 53t52.5 22q32 0 70 -32t57 -32q39 0 59 47l30 -39q-33 -77 -89 -77q-29 0 -69 32.5t-58 32.5q-35 0 -60 -48z" />
    <glyph glyph-name="adieresis" unicode="&#xe4;" horiz-adv-x="608" 
d="M498 523v-393q0 -56 35 -56q19 0 47 19l5 -78q-37 -25 -89 -25q-73 0 -88 69q-51 -68 -146 -68q-97 0 -154 71t-57 198q0 126 57 199t157 73q39 0 77 -15t60 -42v48h96zM402 387q-45 59 -111 59t-104 -49.5t-38 -136.5q0 -85 38.5 -134.5t103.5 -49.5q33 0 62.5 18.5
t48.5 44.5v248zM146 672q0 54 57 54q55 0 55 -54t-55 -54q-57 0 -57 54zM362 672q0 54 57 54q55 0 55 -54t-55 -54q-57 0 -57 54z" />
    <glyph glyph-name="aring" unicode="&#xe5;" horiz-adv-x="608" 
d="M498 523v-393q0 -56 35 -56q19 0 47 19l5 -78q-37 -25 -89 -25q-73 0 -88 69q-51 -68 -146 -68q-97 0 -154 71t-57 198q0 126 57 199t157 73q39 0 77 -15t60 -42v48h96zM402 387q-45 59 -111 59t-104 -49.5t-38 -136.5q0 -85 38.5 -134.5t103.5 -49.5q33 0 62.5 18.5
t48.5 44.5v248zM204 670q0 40 29 69t69 29t69 -29t29 -69t-29 -69t-69 -29t-69 29t-29 69zM248 670q0 -22 16 -38t38 -16t37.5 16t15.5 38t-15.5 37.5t-37.5 15.5t-38 -15.5t-16 -37.5z" />
    <glyph glyph-name="ae" unicode="&#xe6;" horiz-adv-x="819" 
d="M99 417l-15 85q79 35 189 35q117 0 141 -112q19 44 62 78t111 34q181 0 181 -210q0 -52 -10 -98h-312q3 -78 35 -119t104 -41q77 0 141 60l34 -71q-79 -72 -186 -72q-124 0 -173 89q-87 -89 -191 -89q-75 0 -122.5 46.5t-47.5 124.5q0 81 61.5 128t164.5 47q45 0 85 -7
q0 71 -22 99.5t-78 28.5q-35 0 -80 -10.5t-72 -25.5zM452 306h233q2 16 2 29q0 55 -26.5 86.5t-81.5 31.5q-59 0 -92 -43t-35 -104zM352 246q-29 9 -72 9q-66 0 -104 -25t-38 -74q0 -38 24 -61.5t66 -23.5q69 0 124 60v115z" />
    <glyph glyph-name="ccedilla" unicode="&#xe7;" horiz-adv-x="527" 
d="M226 -96l20 85q-99 14 -147 85.5t-48 185.5q0 124 64 200.5t170 76.5q178 0 201 -182l-77 -27q-9 122 -115 122q-67 0 -105.5 -51.5t-38.5 -135.5q0 -190 152 -190q71 0 140 62l39 -77q-85 -72 -190 -72h-5l-11 -49q14 4 25 4q34 0 53.5 -18t19.5 -47q0 -35 -26 -54.5
t-67 -19.5q-36 0 -65 12l9 36q31 -11 53 -11q48 0 48 36q0 31 -44 31q-30 0 -53 -7z" />
    <glyph glyph-name="egrave" unicode="&#xe8;" horiz-adv-x="532" 
d="M469 229h-324q7 -160 154 -160q75 0 139 57l38 -74q-76 -66 -191 -66q-117 0 -176 75t-59 199q0 122 63.5 199.5t169.5 77.5q99 0 148.5 -59.5t49.5 -152.5q0 -46 -12 -96zM150 306h240q3 15 3 32q0 52 -28.5 83.5t-81.5 31.5q-60 0 -95 -40t-38 -107zM262 598l-84 143
h96l70 -143h-82z" />
    <glyph glyph-name="eacute" unicode="&#xe9;" horiz-adv-x="532" 
d="M469 229h-324q7 -160 154 -160q75 0 139 57l38 -74q-76 -66 -191 -66q-117 0 -176 75t-59 199q0 122 63.5 199.5t169.5 77.5q99 0 148.5 -59.5t49.5 -152.5q0 -46 -12 -96zM150 306h240q3 15 3 32q0 52 -28.5 83.5t-81.5 31.5q-60 0 -95 -40t-38 -107zM402 741l-84 -143
h-82l70 143h96z" />
    <glyph glyph-name="ecircumflex" unicode="&#xea;" horiz-adv-x="532" 
d="M469 229h-324q7 -160 154 -160q75 0 139 57l38 -74q-76 -66 -191 -66q-117 0 -176 75t-59 199q0 122 63.5 199.5t169.5 77.5q99 0 148.5 -59.5t49.5 -152.5q0 -46 -12 -96zM150 306h240q3 15 3 32q0 52 -28.5 83.5t-81.5 31.5q-60 0 -95 -40t-38 -107zM349 598l-61 92
l-62 -92h-75l89 143h96l89 -143h-76z" />
    <glyph glyph-name="edieresis" unicode="&#xeb;" horiz-adv-x="532" 
d="M469 229h-324q7 -160 154 -160q75 0 139 57l38 -74q-76 -66 -191 -66q-117 0 -176 75t-59 199q0 122 63.5 199.5t169.5 77.5q99 0 148.5 -59.5t49.5 -152.5q0 -46 -12 -96zM150 306h240q3 15 3 32q0 52 -28.5 83.5t-81.5 31.5q-60 0 -95 -40t-38 -107zM123 672
q0 54 57 54q55 0 55 -54t-55 -54q-57 0 -57 54zM339 672q0 54 57 54q55 0 55 -54t-55 -54q-57 0 -57 54z" />
    <glyph glyph-name="igrave" unicode="&#xec;" horiz-adv-x="291" 
d="M81 523h96v-401q0 -48 35 -48q21 0 46 18l6 -77q-36 -25 -86 -25t-73.5 25.5t-23.5 81.5v426zM103 598l-84 143h96l70 -143h-82z" />
    <glyph glyph-name="iacute" unicode="&#xed;" horiz-adv-x="291" 
d="M81 523h96v-401q0 -48 35 -48q21 0 46 18l6 -77q-36 -25 -86 -25t-73.5 25.5t-23.5 81.5v426zM249 741l-84 -143h-82l70 143h96z" />
    <glyph glyph-name="icircumflex" unicode="&#xee;" horiz-adv-x="291" 
d="M81 523h96v-401q0 -48 35 -48q21 0 46 18l6 -77q-36 -25 -86 -25t-73.5 25.5t-23.5 81.5v426zM191 598l-61 92l-62 -92h-75l89 143h96l89 -143h-76z" />
    <glyph glyph-name="idieresis" unicode="&#xef;" horiz-adv-x="291" 
d="M81 523h96v-401q0 -48 35 -48q21 0 46 18l6 -77q-36 -25 -86 -25t-73.5 25.5t-23.5 81.5v426zM-33 672q0 54 57 54q55 0 55 -54t-55 -54q-57 0 -57 54zM183 672q0 54 57 54q55 0 55 -54t-55 -54q-57 0 -57 54z" />
    <glyph glyph-name="eth" unicode="&#xf0;" horiz-adv-x="543" 
d="M199 657l39 63q50 -14 94 -48l46 56l28 -25l-46 -55q56 -53 89.5 -132t33.5 -175q0 -165 -61.5 -258t-173.5 -93q-89 0 -145.5 66.5t-56.5 174.5q0 101 48.5 161.5t132.5 60.5q91 0 158 -92q-5 128 -82 218l-50 -61l-27 26l51 62q-36 33 -78 51zM252 80q55 0 88.5 50.5
t42.5 142.5q-57 99 -130 99q-50 0 -80 -36.5t-30 -105.5q0 -66 30 -108t79 -42z" />
    <glyph glyph-name="ntilde" unicode="&#xf1;" horiz-adv-x="597" 
d="M177 0h-96v523h96v-68q47 77 153 77q165 0 165 -205v-205q0 -26 8 -37t26 -11q21 0 46 18l6 -77q-37 -25 -86 -25q-50 0 -73.5 25.5t-23.5 81.5v212q0 132 -105 132q-43 0 -73 -30t-43 -74v-337zM172 615l-29 41q12 31 36.5 53t52.5 22q32 0 70 -32t57 -32q39 0 59 47
l30 -39q-33 -77 -89 -77q-29 0 -69 32.5t-58 32.5q-35 0 -60 -48z" />
    <glyph glyph-name="ograve" unicode="&#xf2;" horiz-adv-x="575" 
d="M50 260q0 128 64.5 202.5t172.5 74.5t173 -74t65 -203q0 -127 -65 -200.5t-173 -73.5t-172.5 73.5t-64.5 200.5zM145 260q0 -87 38.5 -135.5t103.5 -48.5t103.5 48.5t38.5 135.5q0 89 -38.5 138t-103.5 49t-103.5 -49t-38.5 -138zM251 598l-84 143h96l70 -143h-82z" />
    <glyph glyph-name="oacute" unicode="&#xf3;" horiz-adv-x="575" 
d="M50 260q0 128 64.5 202.5t172.5 74.5t173 -74t65 -203q0 -127 -65 -200.5t-173 -73.5t-172.5 73.5t-64.5 200.5zM145 260q0 -87 38.5 -135.5t103.5 -48.5t103.5 48.5t38.5 135.5q0 89 -38.5 138t-103.5 49t-103.5 -49t-38.5 -138zM409 741l-84 -143h-82l70 143h96z" />
    <glyph glyph-name="ocircumflex" unicode="&#xf4;" horiz-adv-x="575" 
d="M50 260q0 128 64.5 202.5t172.5 74.5t173 -74t65 -203q0 -127 -65 -200.5t-173 -73.5t-172.5 73.5t-64.5 200.5zM145 260q0 -87 38.5 -135.5t103.5 -48.5t103.5 48.5t38.5 135.5q0 89 -38.5 138t-103.5 49t-103.5 -49t-38.5 -138zM349 598l-61 92l-62 -92h-75l89 143h96
l89 -143h-76z" />
    <glyph glyph-name="otilde" unicode="&#xf5;" horiz-adv-x="575" 
d="M50 260q0 128 64.5 202.5t172.5 74.5t173 -74t65 -203q0 -127 -65 -200.5t-173 -73.5t-172.5 73.5t-64.5 200.5zM145 260q0 -87 38.5 -135.5t103.5 -48.5t103.5 48.5t38.5 135.5q0 89 -38.5 138t-103.5 49t-103.5 -49t-38.5 -138zM163 615l-29 41q12 31 36.5 53t52.5 22
q32 0 70 -32t57 -32q39 0 59 47l30 -39q-33 -77 -89 -77q-30 0 -70 32.5t-57 32.5q-35 0 -60 -48z" />
    <glyph glyph-name="odieresis" unicode="&#xf6;" horiz-adv-x="575" 
d="M50 260q0 128 64.5 202.5t172.5 74.5t173 -74t65 -203q0 -127 -65 -200.5t-173 -73.5t-172.5 73.5t-64.5 200.5zM145 260q0 -87 38.5 -135.5t103.5 -48.5t103.5 48.5t38.5 135.5q0 89 -38.5 138t-103.5 49t-103.5 -49t-38.5 -138zM123 672q0 54 57 54q55 0 55 -54
t-55 -54q-57 0 -57 54zM339 672q0 54 57 54q55 0 55 -54t-55 -54q-57 0 -57 54z" />
    <glyph glyph-name="divide" unicode="&#xf7;" 
d="M55 342h400v-79h-400v79zM194 485q0 64 57 64q28 0 43 -17t15 -47t-15 -46.5t-43 -16.5q-57 0 -57 63zM194 119q0 63 57 63q28 0 43 -16.5t15 -46.5q0 -63 -58 -63q-57 0 -57 63z" />
    <glyph glyph-name="oslash" unicode="&#xf8;" horiz-adv-x="575" 
d="M50 260q0 128 64.5 202.5t172.5 74.5q82 0 141 -45l22 31h51v-9l-38 -55q62 -75 62 -199q0 -127 -65 -200.5t-173 -73.5q-74 0 -130 36l-15 -22h-51v8l30 44q-71 74 -71 208zM145 260q0 -81 32 -128l198 283q-37 32 -88 32q-65 0 -103.5 -49t-38.5 -138zM429 260
q0 69 -25 116l-193 -278q33 -22 76 -22q65 0 103.5 48.5t38.5 135.5z" />
    <glyph glyph-name="ugrave" unicode="&#xf9;" horiz-adv-x="598" 
d="M393 523h96v-401q0 -48 35 -48q21 0 46 18l6 -77q-36 -25 -87 -25q-80 0 -93 69q-50 -69 -153 -69q-167 0 -167 205v328h96v-316q0 -127 102 -127q84 0 119 89v354zM247 598l-84 143h96l70 -143h-82z" />
    <glyph glyph-name="uacute" unicode="&#xfa;" horiz-adv-x="598" 
d="M393 523h96v-401q0 -48 35 -48q21 0 46 18l6 -77q-36 -25 -87 -25q-80 0 -93 69q-50 -69 -153 -69q-167 0 -167 205v328h96v-316q0 -127 102 -127q84 0 119 89v354zM410 741l-84 -143h-82l70 143h96z" />
    <glyph glyph-name="ucircumflex" unicode="&#xfb;" horiz-adv-x="598" 
d="M393 523h96v-401q0 -48 35 -48q21 0 46 18l6 -77q-36 -25 -87 -25q-80 0 -93 69q-50 -69 -153 -69q-167 0 -167 205v328h96v-316q0 -127 102 -127q84 0 119 89v354zM348 598l-61 92l-62 -92h-75l89 143h96l89 -143h-76z" />
    <glyph glyph-name="udieresis" unicode="&#xfc;" horiz-adv-x="598" 
d="M393 523h96v-401q0 -48 35 -48q21 0 46 18l6 -77q-36 -25 -87 -25q-80 0 -93 69q-50 -69 -153 -69q-167 0 -167 205v328h96v-316q0 -127 102 -127q84 0 119 89v354zM123 672q0 54 57 54q55 0 55 -54t-55 -54q-57 0 -57 54zM339 672q0 54 57 54q55 0 55 -54t-55 -54
q-57 0 -57 54z" />
    <glyph glyph-name="yacute" unicode="&#xfd;" horiz-adv-x="512" 
d="M23 -168l15 74q37 -22 80 -22q35 0 55.5 21t36.5 68l11 36l-207 514h106l144 -416l133 416h98l-201 -569q-27 -77 -65 -114.5t-105 -37.5q-58 0 -101 30zM381 741l-84 -143h-82l70 143h96z" />
    <glyph glyph-name="thorn" unicode="&#xfe;" horiz-adv-x="580" 
d="M529 262q0 -128 -56.5 -200t-152.5 -72q-90 0 -143 61v-239h-96v898h96v-236q55 58 143 58q96 0 152.5 -71.5t56.5 -198.5zM431 260q0 87 -38 136.5t-104 49.5q-33 0 -63.5 -16.5t-48.5 -40.5v-257q46 -56 112 -56q65 0 103.5 49.5t38.5 134.5z" />
    <glyph glyph-name="ydieresis" unicode="&#xff;" horiz-adv-x="512" 
d="M23 -168l15 74q37 -22 80 -22q35 0 55.5 21t36.5 68l11 36l-207 514h106l144 -416l133 416h98l-201 -569q-27 -77 -65 -114.5t-105 -37.5q-58 0 -101 30zM98 672q0 54 57 54q55 0 55 -54t-55 -54q-57 0 -57 54zM314 672q0 54 57 54q55 0 55 -54t-55 -54q-57 0 -57 54z
" />
    <glyph glyph-name="Amacron" unicode="&#x100;" horiz-adv-x="620" 
d="M19 0l237 680h113l227 -680h-97l-50 153h-282l-51 -153h-97zM312 582l-119 -355h232zM417 782h-211v69h211v-69z" />
    <glyph glyph-name="amacron" unicode="&#x101;" horiz-adv-x="608" 
d="M498 523v-393q0 -56 35 -56q19 0 47 19l5 -78q-37 -25 -89 -25q-73 0 -88 69q-51 -68 -146 -68q-97 0 -154 71t-57 198q0 126 57 199t157 73q39 0 77 -15t60 -42v48h96zM402 387q-45 59 -111 59t-104 -49.5t-38 -136.5q0 -85 38.5 -134.5t103.5 -49.5q33 0 62.5 18.5
t48.5 44.5v248zM408 625h-211v69h211v-69z" />
    <glyph glyph-name="Abreve" unicode="&#x102;" horiz-adv-x="620" 
d="M19 0l237 680h113l227 -680h-97l-50 153h-282l-51 -153h-97zM312 582l-119 -355h232zM192 839l26 40q34 -51 94 -51q61 0 94 51l26 -40q-42 -79 -119 -79q-81 0 -121 79z" />
    <glyph glyph-name="abreve" unicode="&#x103;" horiz-adv-x="608" 
d="M498 523v-393q0 -56 35 -56q19 0 47 19l5 -78q-37 -25 -89 -25q-73 0 -88 69q-51 -68 -146 -68q-97 0 -154 71t-57 198q0 126 57 199t157 73q39 0 77 -15t60 -42v48h96zM402 387q-45 59 -111 59t-104 -49.5t-38 -136.5q0 -85 38.5 -134.5t103.5 -49.5q33 0 62.5 18.5
t48.5 44.5v248zM183 682l26 40q34 -51 94 -51q61 0 94 51l26 -40q-42 -79 -119 -79q-43 0 -74 23t-47 56z" />
    <glyph glyph-name="Aogonek" unicode="&#x104;" horiz-adv-x="620" 
d="M19 0l237 680h113l227 -680h-24q-35 -2 -58 -21.5t-23 -52.5q0 -26 14.5 -40.5t36.5 -14.5q25 0 47 14l10 -47q-34 -16 -70 -16q-38 0 -62 24.5t-24 67.5q0 31 15.5 54t39.5 34l-49 151h-282l-51 -153h-97zM312 582l-119 -355h232z" />
    <glyph glyph-name="aogonek" unicode="&#x105;" horiz-adv-x="608" 
d="M498 523v-393q0 -56 35 -56q19 0 47 19l5 -78q-33 -21 -76 -24q-36 -20 -36 -65q0 -26 14 -40.5t36 -14.5q26 0 47 14l10 -47q-34 -16 -70 -16q-38 0 -62 24.5t-24 67.5q0 52 39 80q-44 11 -55 65q-51 -68 -146 -68q-97 0 -154 71t-57 198q0 126 57 199t157 73
q39 0 77 -15t60 -42v48h96zM402 387q-45 59 -111 59t-104 -49.5t-38 -136.5q0 -85 38.5 -134.5t103.5 -49.5q33 0 62.5 18.5t48.5 44.5v248z" />
    <glyph glyph-name="Cacute" unicode="&#x106;" horiz-adv-x="645" 
d="M553 173l41 -80q-42 -44 -105.5 -73.5t-131.5 -29.5q-131 0 -213.5 94t-82.5 255q0 163 82.5 257t213.5 94q112 0 173 -59.5t63 -177.5l-89 -17q-3 162 -151 162q-88 0 -140 -68.5t-52 -190.5q0 -123 54.5 -190.5t148.5 -67.5q51 0 101.5 27t87.5 65zM479 898l-84 -143
h-82l70 143h96z" />
    <glyph glyph-name="cacute" unicode="&#x107;" horiz-adv-x="526" 
d="M441 135l39 -77q-85 -72 -190 -72q-121 0 -180.5 74t-59.5 200q0 124 64 200.5t170 76.5q178 0 201 -182l-77 -27q-9 122 -115 122q-67 0 -105.5 -51.5t-38.5 -135.5q0 -190 152 -190q71 0 140 62zM402 741l-84 -143h-82l70 143h96z" />
    <glyph glyph-name="Ccircumflex" unicode="&#x108;" horiz-adv-x="645" 
d="M553 173l41 -80q-42 -44 -105.5 -73.5t-131.5 -29.5q-131 0 -213.5 94t-82.5 255q0 163 82.5 257t213.5 94q112 0 173 -59.5t63 -177.5l-89 -17q-3 162 -151 162q-88 0 -140 -68.5t-52 -190.5q0 -123 54.5 -190.5t148.5 -67.5q51 0 101.5 27t87.5 65zM419 755l-61 92
l-62 -92h-75l89 143h96l89 -143h-76z" />
    <glyph glyph-name="ccircumflex" unicode="&#x109;" horiz-adv-x="526" 
d="M441 135l39 -77q-85 -72 -190 -72q-121 0 -180.5 74t-59.5 200q0 124 64 200.5t170 76.5q178 0 201 -182l-77 -27q-9 122 -115 122q-67 0 -105.5 -51.5t-38.5 -135.5q0 -190 152 -190q71 0 140 62zM348 598l-61 92l-62 -92h-75l89 143h96l89 -143h-76z" />
    <glyph glyph-name="Cdotaccent" unicode="&#x10a;" horiz-adv-x="645" 
d="M553 173l41 -80q-42 -44 -105.5 -73.5t-131.5 -29.5q-131 0 -213.5 94t-82.5 255q0 163 82.5 257t213.5 94q112 0 173 -59.5t63 -177.5l-89 -17q-3 162 -151 162q-88 0 -140 -68.5t-52 -190.5q0 -123 54.5 -190.5t148.5 -67.5q51 0 101.5 27t87.5 65zM299 831q0 56 60 56
q58 0 58 -56q0 -57 -58 -57q-60 0 -60 57z" />
    <glyph glyph-name="cdotaccent" unicode="&#x10b;" horiz-adv-x="526" 
d="M441 135l39 -77q-85 -72 -190 -72q-121 0 -180.5 74t-59.5 200q0 124 64 200.5t170 76.5q178 0 201 -182l-77 -27q-9 122 -115 122q-67 0 -105.5 -51.5t-38.5 -135.5q0 -190 152 -190q71 0 140 62zM231 674q0 56 60 56q58 0 58 -56q0 -57 -58 -57q-60 0 -60 57z" />
    <glyph glyph-name="Ccaron" unicode="&#x10c;" horiz-adv-x="645" 
d="M553 173l41 -80q-42 -44 -105.5 -73.5t-131.5 -29.5q-131 0 -213.5 94t-82.5 255q0 163 82.5 257t213.5 94q112 0 173 -59.5t63 -177.5l-89 -17q-3 162 -151 162q-88 0 -140 -68.5t-52 -190.5q0 -123 54.5 -190.5t148.5 -67.5q51 0 101.5 27t87.5 65zM299 898l62 -92
l61 92h76l-89 -143h-96l-89 143h75z" />
    <glyph glyph-name="ccaron" unicode="&#x10d;" horiz-adv-x="526" 
d="M441 135l39 -77q-85 -72 -190 -72q-121 0 -180.5 74t-59.5 200q0 124 64 200.5t170 76.5q178 0 201 -182l-77 -27q-9 122 -115 122q-67 0 -105.5 -51.5t-38.5 -135.5q0 -190 152 -190q71 0 140 62zM228 741l62 -92l61 92h76l-89 -143h-96l-89 143h75z" />
    <glyph glyph-name="Dcaron" unicode="&#x10e;" horiz-adv-x="697" 
d="M97 0v680h240q132 0 215.5 -90t83.5 -251q0 -160 -83.5 -249.5t-215.5 -89.5h-240zM195 86h130q97 0 154 66t57 187q0 122 -57 188.5t-154 66.5h-130v-508zM245 898l62 -92l61 92h76l-89 -143h-96l-89 143h75z" />
    <glyph glyph-name="dcaron" unicode="&#x10f;" horiz-adv-x="633" 
d="M403 710h96v-579q0 -57 36 -57q19 0 45 19l6 -78q-38 -25 -90 -25q-71 0 -87 68q-53 -68 -147 -68q-96 0 -153.5 72t-57.5 200q0 127 57 198.5t154 71.5q86 0 141 -58v236zM149 260q0 -85 38.5 -134.5t103.5 -49.5q33 0 63 16.5t48 40.5v256q-17 24 -47 40.5t-64 16.5
q-66 0 -104 -49.5t-38 -136.5zM581 512l20 68q-46 6 -46 52q0 27 15 42t39 15q31 0 47.5 -17t16.5 -47q0 -62 -45 -131z" />
    <glyph glyph-name="Dcroat" unicode="&#x110;" horiz-adv-x="697" 
d="M97 0v301h-53v79h53v300h240q132 0 215.5 -90t83.5 -251q0 -160 -83.5 -249.5t-215.5 -89.5h-240zM195 86h130q97 0 154.5 66t57.5 187q0 122 -57.5 188.5t-154.5 66.5h-130v-214h127v-79h-127v-215z" />
    <glyph glyph-name="dcroat" unicode="&#x111;" horiz-adv-x="608" 
d="M403 710h96v-62h80v-72h-80v-445q0 -57 36 -57q19 0 45 19l6 -78q-38 -25 -90 -25q-71 0 -87 68q-53 -68 -147 -68q-96 0 -153.5 72t-57.5 200q0 127 57 198.5t154 71.5q86 0 141 -58v102h-101v72h101v62zM149 260q0 -85 38.5 -134.5t103.5 -49.5q33 0 63 16.5t48 40.5
v256q-17 24 -47 40.5t-64 16.5q-66 0 -104 -49.5t-38 -136.5z" />
    <glyph glyph-name="Emacron" unicode="&#x112;" horiz-adv-x="608" 
d="M549 0h-452v680h452v-87h-358v-198h296v-86h-296v-223h358v-86zM430 782h-211v69h211v-69z" />
    <glyph glyph-name="emacron" unicode="&#x113;" horiz-adv-x="532" 
d="M469 229h-324q7 -160 154 -160q75 0 139 57l38 -74q-76 -66 -191 -66q-117 0 -176 75t-59 199q0 122 63.5 199.5t169.5 77.5q99 0 148.5 -59.5t49.5 -152.5q0 -46 -12 -96zM150 306h240q3 15 3 32q0 52 -28.5 83.5t-81.5 31.5q-60 0 -95 -40t-38 -107zM389 625h-211v69
h211v-69z" />
    <glyph glyph-name="Ebreve" unicode="&#x114;" horiz-adv-x="608" 
d="M549 0h-452v680h452v-87h-358v-198h296v-86h-296v-223h358v-86zM204 839l26 40q34 -51 94 -51q61 0 94 51l26 -40q-42 -79 -119 -79q-81 0 -121 79z" />
    <glyph glyph-name="ebreve" unicode="&#x115;" horiz-adv-x="532" 
d="M469 229h-324q7 -160 154 -160q75 0 139 57l38 -74q-76 -66 -191 -66q-117 0 -176 75t-59 199q0 122 63.5 199.5t169.5 77.5q99 0 148.5 -59.5t49.5 -152.5q0 -46 -12 -96zM150 306h240q3 15 3 32q0 52 -28.5 83.5t-81.5 31.5q-60 0 -95 -40t-38 -107zM168 682l26 40
q34 -51 94 -51q61 0 94 51l26 -40q-42 -79 -119 -79q-81 0 -121 79z" />
    <glyph glyph-name="Edotaccent" unicode="&#x116;" horiz-adv-x="608" 
d="M549 0h-452v680h452v-87h-358v-198h296v-86h-296v-223h358v-86zM264 831q0 56 60 56q58 0 58 -56q0 -57 -58 -57q-60 0 -60 57z" />
    <glyph glyph-name="edotaccent" unicode="&#x117;" horiz-adv-x="532" 
d="M469 229h-324q7 -160 154 -160q75 0 139 57l38 -74q-76 -66 -191 -66q-117 0 -176 75t-59 199q0 122 63.5 199.5t169.5 77.5q99 0 148.5 -59.5t49.5 -152.5q0 -46 -12 -96zM150 306h240q3 15 3 32q0 52 -28.5 83.5t-81.5 31.5q-60 0 -95 -40t-38 -107zM228 674
q0 56 60 56q58 0 58 -56q0 -57 -58 -57q-60 0 -60 57z" />
    <glyph glyph-name="Eogonek" unicode="&#x118;" horiz-adv-x="608" 
d="M549 0h-11q-33 -2 -55 -22t-22 -52q0 -26 14.5 -40.5t36.5 -14.5q25 0 47 14l10 -47q-34 -16 -70 -16q-38 0 -62 24.5t-24 67.5q0 60 51 86h-367v680h452v-87h-358v-198h296v-86h-296v-223h358v-86z" />
    <glyph glyph-name="eogonek" unicode="&#x119;" horiz-adv-x="533" 
d="M470 229h-324q7 -160 154 -160q75 0 139 57l38 -74q-58 -51 -142 -63q-38 -20 -38 -63q0 -26 14.5 -40.5t36.5 -14.5q25 0 47 14l10 -47q-34 -16 -70 -16q-38 0 -62 24.5t-24 67.5q0 44 31 72q-114 2 -171.5 76.5t-57.5 197.5q0 122 63.5 199.5t169.5 77.5
q99 0 148.5 -59.5t49.5 -152.5q0 -46 -12 -96zM151 306h240q3 15 3 32q0 52 -28.5 83.5t-81.5 31.5q-60 0 -95 -40t-38 -107z" />
    <glyph glyph-name="Ecaron" unicode="&#x11a;" horiz-adv-x="608" 
d="M549 0h-452v680h452v-87h-358v-198h296v-86h-296v-223h358v-86zM263 898l62 -92l61 92h76l-89 -143h-96l-89 143h75z" />
    <glyph glyph-name="ecaron" unicode="&#x11b;" horiz-adv-x="532" 
d="M469 229h-324q7 -160 154 -160q75 0 139 57l38 -74q-76 -66 -191 -66q-117 0 -176 75t-59 199q0 122 63.5 199.5t169.5 77.5q99 0 148.5 -59.5t49.5 -152.5q0 -46 -12 -96zM150 306h240q3 15 3 32q0 52 -28.5 83.5t-81.5 31.5q-60 0 -95 -40t-38 -107zM223 741l62 -92
l61 92h76l-89 -143h-96l-89 143h75z" />
    <glyph glyph-name="Gcircumflex" unicode="&#x11c;" horiz-adv-x="679" 
d="M588 604l-42 -78q-78 72 -168 72q-99 0 -159 -69t-60 -190q0 -122 59.5 -190t154.5 -68q86 0 146 47v164h-177v85h268v-305q-41 -35 -109.5 -58.5t-133.5 -23.5q-132 0 -220 94.5t-88 254.5q0 161 88 256t220 95q130 0 221 -86zM429 755l-61 92l-62 -92h-75l89 143h96
l89 -143h-76z" />
    <glyph glyph-name="gcircumflex" unicode="&#x11d;" horiz-adv-x="581" 
d="M357 598l-61 92l-62 -92h-75l89 143h96l89 -143h-76zM52 280q0 115 58 183.5t155 68.5q83 0 138 -60v51h96v-493q0 -114 -60 -171t-156 -57q-93 0 -179 49l22 86q75 -49 146 -49q131 0 131 130v67q-53 -55 -138 -55q-97 0 -155 68t-58 182zM150 280q0 -75 38 -119.5
t104 -44.5q60 0 111 55v215q-46 60 -110 60q-66 0 -104.5 -44.5t-38.5 -121.5z" />
    <glyph glyph-name="Gbreve" unicode="&#x11e;" horiz-adv-x="679" 
d="M588 604l-42 -78q-78 72 -168 72q-99 0 -159 -69t-60 -190q0 -122 59.5 -190t154.5 -68q86 0 146 47v164h-177v85h268v-305q-41 -35 -109.5 -58.5t-133.5 -23.5q-132 0 -220 94.5t-88 254.5q0 161 88 256t220 95q130 0 221 -86zM249 839l26 40q34 -51 94 -51q61 0 94 51
l26 -40q-42 -79 -119 -79q-43 0 -74 23t-47 56z" />
    <glyph glyph-name="gbreve" unicode="&#x11f;" horiz-adv-x="581" 
d="M178 682l26 40q34 -51 94 -51q61 0 94 51l26 -40q-42 -79 -119 -79q-81 0 -121 79zM52 280q0 115 58 183.5t155 68.5q83 0 138 -60v51h96v-493q0 -114 -60 -171t-156 -57q-93 0 -179 49l22 86q75 -49 146 -49q131 0 131 130v67q-53 -55 -138 -55q-97 0 -155 68t-58 182z
M150 280q0 -75 38 -119.5t104 -44.5q60 0 111 55v215q-46 60 -110 60q-66 0 -104.5 -44.5t-38.5 -121.5z" />
    <glyph glyph-name="Gdotaccent" unicode="&#x120;" horiz-adv-x="679" 
d="M588 604l-42 -78q-78 72 -168 72q-99 0 -159 -69t-60 -190q0 -122 59.5 -190t154.5 -68q86 0 146 47v164h-177v85h268v-305q-41 -35 -109.5 -58.5t-133.5 -23.5q-132 0 -220 94.5t-88 254.5q0 161 88 256t220 95q130 0 221 -86zM307 831q0 56 60 56q58 0 58 -56
q0 -57 -58 -57q-60 0 -60 57z" />
    <glyph glyph-name="gdotaccent" unicode="&#x121;" horiz-adv-x="581" 
d="M245 674q0 56 60 56q58 0 58 -56q0 -57 -58 -57q-60 0 -60 57zM52 280q0 115 58 183.5t155 68.5q83 0 138 -60v51h96v-493q0 -114 -60 -171t-156 -57q-93 0 -179 49l22 86q75 -49 146 -49q131 0 131 130v67q-53 -55 -138 -55q-97 0 -155 68t-58 182zM150 280
q0 -75 38 -119.5t104 -44.5q60 0 111 55v215q-46 60 -110 60q-66 0 -104.5 -44.5t-38.5 -121.5z" />
    <glyph glyph-name="Gcommaaccent" unicode="&#x122;" horiz-adv-x="679" 
d="M588 604l-42 -78q-78 72 -168 72q-99 0 -159 -69t-60 -190q0 -122 59.5 -190t154.5 -68q86 0 146 47v164h-177v85h268v-305q-41 -35 -109.5 -58.5t-133.5 -23.5q-132 0 -220 94.5t-88 254.5q0 161 88 256t220 95q130 0 221 -86zM330 -242l20 68q-46 6 -46 52q0 27 15 42
t39 15q31 0 47.5 -17t16.5 -47q0 -62 -45 -131z" />
    <glyph glyph-name="gcommaaccent" unicode="&#x123;" horiz-adv-x="581" 
d="M52 280q0 115 58 183.5t155 68.5q83 0 138 -60v51h96v-493q0 -114 -60 -171t-156 -57q-93 0 -179 49l22 86q75 -49 146 -49q131 0 131 130v67q-53 -55 -138 -55q-97 0 -155 68t-58 182zM150 280q0 -75 38 -119.5t104 -44.5q60 0 111 55v215q-46 60 -110 60
q-66 0 -104.5 -44.5t-38.5 -121.5zM334 772l-19 -68q22 -3 34 -17t12 -35q0 -27 -15.5 -42t-39.5 -15q-30 0 -46.5 17t-16.5 47q0 68 44 131z" />
    <glyph glyph-name="Hcircumflex" unicode="&#x124;" horiz-adv-x="736" 
d="M541 0v299h-346v-299h-98v680h98v-295h346v295h98v-680h-98zM429 755l-61 92l-62 -92h-75l89 143h96l89 -143h-76z" />
    <glyph glyph-name="hcircumflex" unicode="&#x125;" horiz-adv-x="597" 
d="M177 0h-96v710h96v-255q47 77 153 77q165 0 165 -205v-205q0 -26 8 -37t26 -11q21 0 46 18l6 -77q-37 -25 -86 -25q-50 0 -73.5 25.5t-23.5 81.5v212q0 132 -105 132q-43 0 -73 -30t-43 -74v-337zM353 753l-61 92l-62 -92h-75l89 143h96l89 -143h-76z" />
    <glyph glyph-name="Hbar" unicode="&#x126;" horiz-adv-x="736" 
d="M541 0v299h-346v-299h-98v505h-37v78h37v97h98v-97h346v97h98v-97h41v-78h-41v-505h-98zM195 385h346v120h-346v-120z" />
    <glyph glyph-name="hbar" unicode="&#x127;" horiz-adv-x="597" 
d="M177 0h-96v576h-65v72h65v62h96v-62h117v-72h-117v-121q47 77 153 77q165 0 165 -205v-205q0 -26 8 -37t26 -11q21 0 46 18l6 -77q-37 -25 -86 -25q-50 0 -73.5 25.5t-23.5 81.5v212q0 132 -105 132q-43 0 -73 -30t-43 -74v-337z" />
    <glyph glyph-name="Itilde" unicode="&#x128;" horiz-adv-x="292" 
d="M97 0v680h98v-680h-98zM23 772l-29 41q12 31 36.5 53t52.5 22q32 0 70 -32t57 -32q39 0 59 47l30 -39q-33 -77 -89 -77q-30 0 -70 32.5t-57 32.5q-35 0 -60 -48z" />
    <glyph glyph-name="itilde" unicode="&#x129;" horiz-adv-x="291" 
d="M81 523h96v-401q0 -48 35 -48q21 0 46 18l6 -77q-36 -25 -86 -25t-73.5 25.5t-23.5 81.5v426zM5 615l-29 41q12 31 36.5 53t52.5 22q32 0 70 -32t57 -32q39 0 59 47l30 -39q-33 -77 -89 -77q-30 0 -70 32.5t-57 32.5q-35 0 -60 -48z" />
    <glyph glyph-name="imacron" unicode="&#x12b;" horiz-adv-x="291" 
d="M81 523h96v-401q0 -48 35 -48q21 0 46 18l6 -77q-36 -25 -86 -25t-73.5 25.5t-23.5 81.5v426zM234 625h-211v69h211v-69z" />
    <glyph glyph-name="Ibreve" unicode="&#x12c;" horiz-adv-x="292" 
d="M97 0v680h98v-680h-98zM27 839l26 40q34 -51 94 -51q61 0 94 51l26 -40q-42 -79 -119 -79q-43 0 -74 23t-47 56z" />
    <glyph glyph-name="Iogonek" unicode="&#x12e;" horiz-adv-x="293" 
d="M97 0v680h98v-680h-21q-33 -2 -55 -22t-22 -52q0 -26 14.5 -40.5t36.5 -14.5q25 0 47 14l10 -47q-34 -16 -70 -16q-38 0 -62 24.5t-24 67.5q0 60 51 86h-3z" />
    <glyph glyph-name="iogonek" unicode="&#x12f;" horiz-adv-x="291" 
d="M82 523h97v-401q0 -48 34 -48q21 0 46 18l6 -77q-32 -22 -78 -25q-38 -20 -38 -64q0 -26 14 -40.5t37 -14.5q26 0 47 14l10 -47q-34 -16 -71 -16q-38 0 -62 24.5t-24 67.5q0 51 44 80q-62 15 -62 103v426zM75 662q0 52 57 52q54 0 54 -52q0 -53 -54 -53q-57 0 -57 53z
" />
    <glyph glyph-name="Idotaccent" unicode="&#x130;" horiz-adv-x="292" 
d="M97 0v680h98v-680h-98zM87 831q0 56 60 56q58 0 58 -56q0 -57 -58 -57q-60 0 -60 57z" />
    <glyph glyph-name="dotlessi" unicode="&#x131;" horiz-adv-x="291" 
d="M81 523h96v-401q0 -48 35 -48q21 0 46 18l6 -77q-36 -25 -86 -25t-73.5 25.5t-23.5 81.5v426z" />
    <glyph glyph-name="IJ" unicode="&#x132;" horiz-adv-x="861" 
d="M97 0v680h98v-680h-98zM315 227l94 9q5 -82 36 -120.5t95 -38.5q132 0 132 165v438h98v-437q0 -118 -59.5 -186t-172.5 -68q-106 0 -162.5 62t-60.5 176z" />
    <glyph glyph-name="ij" unicode="&#x133;" horiz-adv-x="549" 
d="M70 674q0 56 61 56q58 0 58 -56q0 -57 -58 -57q-61 0 -61 57zM81 523h97v-401q0 -48 34 -48q21 0 46 18l6 -77q-36 -25 -86 -25q-49 0 -73 25.5t-24 81.5v426zM372 523h96v-503q0 -83 -30 -133.5t-85 -83.5l-56 65q38 26 56.5 59.5t18.5 88.5v507zM361 674q0 56 60 56
q59 0 59 -56q0 -57 -59 -57q-60 0 -60 57z" />
    <glyph glyph-name="Jcircumflex" unicode="&#x134;" horiz-adv-x="569" 
d="M23 227l94 9q5 -82 36 -120.5t95 -38.5q132 0 132 165v438h98v-437q0 -118 -59.5 -186t-172.5 -68q-106 0 -162.5 62t-60.5 176zM488 755l-61 92l-62 -92h-75l89 143h96l89 -143h-76z" />
    <glyph glyph-name="jcircumflex" unicode="&#x135;" horiz-adv-x="258" 
d="M62 -197l-56 65q38 26 56.5 59.5t18.5 88.5v507h96v-503q0 -83 -30 -133.5t-85 -83.5zM189 598l-61 92l-62 -92h-75l89 143h96l89 -143h-76z" />
    <glyph glyph-name="Kcommaaccent" unicode="&#x136;" horiz-adv-x="677" 
d="M593 680v-15l-199 -331q14 -18 47.5 -89.5t70 -120t76.5 -48.5q29 0 63 18l11 -78q-45 -26 -97 -26q-49 0 -91 38.5t-65.5 85.5t-51 103.5t-45.5 77.5h-117v-295h-98v680h98v-299h126l171 299h101zM287 -242l20 68q-46 6 -46 52q0 27 15 42t39 15q31 0 47.5 -17t16.5 -47
q0 -62 -45 -131z" />
    <glyph glyph-name="kcommaaccent" unicode="&#x137;" horiz-adv-x="547" 
d="M177 0h-96v710h96v-407q46 0 78.5 9t63 31.5t51 67t31.5 112.5h97q-26 -188 -132 -257l148 -254v-12h-102l-127 229q-49 -12 -108 -12v-217zM246 -242l20 68q-46 6 -46 52q0 27 15 42t39 15q31 0 47.5 -17t16.5 -47q0 -62 -45 -131z" />
    <glyph glyph-name="kgreenlandic" unicode="&#x138;" horiz-adv-x="545" 
d="M177 0h-96v523h96v-236q91 1 147 53t77 183h97q-26 -192 -134 -266l146 -241v-16h-105l-124 219q-45 -13 -104 -13v-206z" />
    <glyph glyph-name="Lacute" unicode="&#x139;" horiz-adv-x="527" 
d="M507 0h-410v680h98v-594h312v-86zM268 898l-84 -143h-82l70 143h96z" />
    <glyph glyph-name="lacute" unicode="&#x13a;" horiz-adv-x="294" 
d="M78 710h97v-578q0 -32 10.5 -45t31.5 -13q27 0 54 18l6 -77q-44 -25 -94 -25q-53 0 -79 27.5t-26 90.5v602zM242 896l-84 -143h-82l70 143h96z" />
    <glyph glyph-name="Lcommaaccent" unicode="&#x13b;" horiz-adv-x="527" 
d="M507 0h-410v680h98v-594h312v-86zM269 -242l20 68q-46 6 -46 52q0 27 15 42t39 15q31 0 47.5 -17t16.5 -47q0 -62 -45 -131z" />
    <glyph glyph-name="lcommaaccent" unicode="&#x13c;" horiz-adv-x="294" 
d="M78 710h97v-578q0 -32 10.5 -45t31.5 -13q27 0 54 18l6 -77q-44 -25 -94 -25q-53 0 -79 27.5t-26 90.5v602zM137 -242l20 68q-46 6 -46 52q0 27 15 42t39 15q31 0 47.5 -17t16.5 -47q0 -62 -45 -131z" />
    <glyph glyph-name="Lcaron" unicode="&#x13d;" horiz-adv-x="533" 
d="M507 0h-410v680h98v-594h312v-86zM377 512l20 68q-46 6 -46 52q0 27 15 42t39 15q31 0 47.5 -17t16.5 -47q0 -62 -45 -131z" />
    <glyph glyph-name="lcaron" unicode="&#x13e;" horiz-adv-x="323" 
d="M78 710h97v-578q0 -32 10.5 -45t31.5 -13q27 0 54 18l6 -77q-44 -25 -94 -25q-53 0 -79 27.5t-26 90.5v602zM257 512l20 68q-46 6 -46 52q0 27 15 42t39 15q31 0 47.5 -17t16.5 -47q0 -62 -45 -131z" />
    <glyph glyph-name="Ldot" unicode="&#x13f;" horiz-adv-x="541" 
d="M507 0h-410v680h98v-594h312v-86zM312 377q0 32 16.5 50t46.5 18q31 0 48 -18t17 -50q0 -33 -17 -50.5t-48 -17.5q-63 0 -63 68z" />
    <glyph glyph-name="ldot" unicode="&#x140;" horiz-adv-x="358" 
d="M78 710h97v-578q0 -32 10.5 -45t31.5 -13q27 0 54 18l6 -77q-44 -25 -94 -25q-53 0 -79 27.5t-26 90.5v602zM241 377q0 32 16.5 50t46.5 18q31 0 48 -18t17 -50q0 -33 -17 -50.5t-48 -17.5q-63 0 -63 68z" />
    <glyph glyph-name="Lslash" unicode="&#x141;" horiz-adv-x="527" 
d="M507 0h-410v268l-40 -23v80l40 23v332h98v-275l106 62v-80l-106 -62v-239h312v-86z" />
    <glyph glyph-name="lslash" unicode="&#x142;" horiz-adv-x="297" 
d="M81 710h96v-270l69 40v-80l-69 -40v-228q0 -32 10.5 -45t32.5 -13q26 0 53 18l7 -77q-44 -25 -95 -25q-53 0 -78.5 27.5t-25.5 90.5v197l-40 -23v80l40 23v325z" />
    <glyph glyph-name="Nacute" unicode="&#x143;" horiz-adv-x="734" 
d="M550 0l-356 516v-516h-97v680h85l356 -517v517h99v-680h-87zM490 898l-84 -143h-82l70 143h96z" />
    <glyph glyph-name="nacute" unicode="&#x144;" horiz-adv-x="597" 
d="M177 0h-96v523h96v-68q47 77 153 77q165 0 165 -205v-205q0 -26 8 -37t26 -11q21 0 46 18l6 -77q-37 -25 -86 -25q-50 0 -73.5 25.5t-23.5 81.5v212q0 132 -105 132q-43 0 -73 -30t-43 -74v-337zM416 741l-84 -143h-82l70 143h96z" />
    <glyph glyph-name="Ncommaaccent" unicode="&#x145;" horiz-adv-x="734" 
d="M550 0l-356 516v-516h-97v680h85l356 -517v517h99v-680h-87zM329 -242l20 68q-46 6 -46 52q0 27 15 42t39 15q31 0 47.5 -17t16.5 -47q0 -62 -45 -131z" />
    <glyph glyph-name="ncommaaccent" unicode="&#x146;" horiz-adv-x="596" 
d="M177 0h-96v523h96v-68q47 77 153 77q165 0 165 -205v-205q0 -26 8 -37t26 -11q21 0 46 18l6 -77q-37 -25 -86 -25q-50 0 -73.5 25.5t-23.5 81.5v212q0 132 -105 132q-43 0 -73 -30t-43 -74v-337zM270 -242l20 68q-46 6 -46 52q0 27 15 42t39 15q31 0 47.5 -17t16.5 -47
q0 -62 -45 -131z" />
    <glyph glyph-name="Ncaron" unicode="&#x147;" horiz-adv-x="734" 
d="M550 0l-356 516v-516h-97v680h85l356 -517v517h99v-680h-87zM312 898l62 -92l61 92h76l-89 -143h-96l-89 143h75z" />
    <glyph glyph-name="ncaron" unicode="&#x148;" horiz-adv-x="597" 
d="M177 0h-96v523h96v-68q47 77 153 77q165 0 165 -205v-205q0 -26 8 -37t26 -11q21 0 46 18l6 -77q-37 -25 -86 -25q-50 0 -73.5 25.5t-23.5 81.5v212q0 132 -105 132q-43 0 -73 -30t-43 -74v-337zM230 741l62 -92l61 92h76l-89 -143h-96l-89 143h75z" />
    <glyph glyph-name="napostrophe" unicode="&#x149;" horiz-adv-x="641" 
d="M221 0h-96v523h96v-68q47 77 153 77q165 0 165 -205v-205q0 -26 8 -37t26 -11q21 0 46 18l6 -77q-37 -25 -86 -25q-50 0 -73.5 25.5t-23.5 81.5v212q0 132 -105 132q-43 0 -73 -30t-43 -74v-337z" />
    <glyph glyph-name="Eng" unicode="&#x14a;" horiz-adv-x="732" 
d="M538 25l-344 495v-520h-97v680h84l357 -517v517h97v-646q0 -157 -122 -230l-56 59q81 58 81 162z" />
    <glyph glyph-name="eng" unicode="&#x14b;" horiz-adv-x="570" 
d="M177 0h-96v523h96v-74q45 83 153 83q165 0 165 -205v-297q0 -153 -122 -226l-57 59q40 28 61 65t21 99v282q0 132 -105 132q-44 0 -73.5 -27t-42.5 -71v-343z" />
    <glyph glyph-name="Omacron" unicode="&#x14c;" horiz-adv-x="714" 
d="M59 339q0 156 82 253.5t215 97.5t215.5 -97.5t82.5 -253.5q0 -155 -82.5 -252t-215.5 -97q-132 0 -214.5 97t-82.5 252zM156 339q0 -122 55 -189t145 -67q91 0 146.5 67t55.5 189q0 123 -55.5 190.5t-146.5 67.5q-90 0 -145 -67.5t-55 -190.5zM462 782h-211v69h211v-69z
" />
    <glyph glyph-name="omacron" unicode="&#x14d;" horiz-adv-x="575" 
d="M50 260q0 128 64.5 202.5t172.5 74.5t173 -74t65 -203q0 -127 -65 -200.5t-173 -73.5t-172.5 73.5t-64.5 200.5zM145 260q0 -87 38.5 -135.5t103.5 -48.5t103.5 48.5t38.5 135.5q0 89 -38.5 138t-103.5 49t-103.5 -49t-38.5 -138zM393 625h-211v69h211v-69z" />
    <glyph glyph-name="Obreve" unicode="&#x14e;" horiz-adv-x="714" 
d="M59 339q0 156 82 253.5t215 97.5t215.5 -97.5t82.5 -253.5q0 -155 -82.5 -252t-215.5 -97q-132 0 -214.5 97t-82.5 252zM156 339q0 -122 55 -189t145 -67q91 0 146.5 67t55.5 189q0 123 -55.5 190.5t-146.5 67.5q-90 0 -145 -67.5t-55 -190.5zM237 839l26 40
q34 -51 94 -51q61 0 94 51l26 -40q-42 -79 -119 -79q-43 0 -74 23t-47 56z" />
    <glyph glyph-name="obreve" unicode="&#x14f;" horiz-adv-x="575" 
d="M50 260q0 128 64.5 202.5t172.5 74.5t173 -74t65 -203q0 -127 -65 -200.5t-173 -73.5t-172.5 73.5t-64.5 200.5zM145 260q0 -87 38.5 -135.5t103.5 -48.5t103.5 48.5t38.5 135.5q0 89 -38.5 138t-103.5 49t-103.5 -49t-38.5 -138zM168 682l26 40q34 -51 94 -51
q61 0 94 51l26 -40q-42 -79 -119 -79q-81 0 -121 79z" />
    <glyph glyph-name="Ohungarumlaut" unicode="&#x150;" horiz-adv-x="714" 
d="M59 339q0 156 82 253.5t215 97.5t215.5 -97.5t82.5 -253.5q0 -155 -82.5 -252t-215.5 -97q-132 0 -214.5 97t-82.5 252zM156 339q0 -122 55 -189t145 -67q91 0 146.5 67t55.5 189q0 123 -55.5 190.5t-146.5 67.5q-90 0 -145 -67.5t-55 -190.5zM410 898l-84 -143h-82
l69 143h97zM573 898l-83 -143h-82l69 143h96z" />
    <glyph glyph-name="ohungarumlaut" unicode="&#x151;" horiz-adv-x="575" 
d="M50 260q0 128 64.5 202.5t172.5 74.5t173 -74t65 -203q0 -127 -65 -200.5t-173 -73.5t-172.5 73.5t-64.5 200.5zM145 260q0 -87 38.5 -135.5t103.5 -48.5t103.5 48.5t38.5 135.5q0 89 -38.5 138t-103.5 49t-103.5 -49t-38.5 -138zM329 741l-84 -143h-82l69 143h97z
M492 741l-83 -143h-82l69 143h96z" />
    <glyph glyph-name="OE" unicode="&#x152;" horiz-adv-x="1021" 
d="M961 0h-450v43q-69 -54 -158 -54q-127 0 -211 100t-84 249q0 151 84 251t211 100q90 0 158 -54v45h451v-87h-358v-201h295v-80h-295v-226h357v-86zM152 338q0 -110 58.5 -183.5t148.5 -73.5q97 0 152 69v379q-57 68 -153 68q-90 0 -148 -73.5t-58 -185.5z" />
    <glyph glyph-name="oe" unicode="&#x153;" horiz-adv-x="942" 
d="M881 229h-329q1 -72 39.5 -115.5t114.5 -43.5q74 0 145 59l34 -75q-80 -68 -185 -68q-160 0 -208 139q-25 -66 -79.5 -102.5t-127.5 -36.5q-107 0 -171 73t-64 201q0 129 64 203t171 74q74 0 129 -38.5t79 -106.5q25 67 77 106t123 39q99 0 148.5 -60.5t49.5 -157.5
q0 -45 -10 -90zM142 260q0 -87 39.5 -135.5t105.5 -48.5t105.5 48.5t39.5 135.5q0 88 -39.5 137.5t-105.5 49.5t-105.5 -49.5t-39.5 -137.5zM558 306h238q2 10 2 31q0 49 -28.5 82.5t-79.5 33.5q-60 0 -93.5 -39.5t-38.5 -107.5z" />
    <glyph glyph-name="Racute" unicode="&#x154;" horiz-adv-x="668" 
d="M97 0v680h269q89 0 147 -59t58 -159q0 -87 -52 -144t-130 -66q11 -13 34.5 -43.5t39 -49t37 -40t42.5 -32.5t42 -11q31 0 66 19l11 -79q-45 -26 -101 -26q-46 0 -92.5 34.5t-77.5 76.5t-66 88.5t-56 61.5h-73v-251h-98zM195 594v-264h147q56 0 92.5 35t36.5 96
q0 65 -36 99t-93 34h-147zM422 898l-84 -143h-82l70 143h96z" />
    <glyph glyph-name="racute" unicode="&#x155;" horiz-adv-x="413" 
d="M396 503l-16 -89q-33 27 -77 27q-42 0 -63.5 -32t-33.5 -91v-318h-97v392q0 57 -36 57q-20 0 -44 -19l-7 79q42 24 90 24q73 0 89 -74q34 73 113 73q51 0 82 -29zM314 741l-84 -143h-82l70 143h96z" />
    <glyph glyph-name="Rcommaaccent" unicode="&#x156;" horiz-adv-x="669" 
d="M97 0v680h269q89 0 147 -59t58 -159q0 -87 -52 -144t-130 -66q11 -13 34.5 -43.5t39 -49t37 -40t42.5 -32.5t42 -11q31 0 66 19l11 -79q-45 -26 -101 -26q-46 0 -92.5 34.5t-77.5 76.5t-66 88.5t-56 61.5h-73v-251h-98zM195 594v-264h147q56 0 92.5 35t36.5 96
q0 65 -36 99t-93 34h-147zM294 -242l20 68q-46 6 -46 52q0 27 15 42t39 15q31 0 47.5 -17t16.5 -47q0 -62 -45 -131z" />
    <glyph glyph-name="rcommaaccent" unicode="&#x157;" horiz-adv-x="413" 
d="M396 503l-16 -89q-33 27 -77 27q-42 0 -63.5 -32t-33.5 -91v-318h-97v392q0 57 -36 57q-20 0 -44 -19l-7 79q42 24 90 24q73 0 89 -74q34 73 113 73q51 0 82 -29zM124 -242l20 68q-46 6 -46 52q0 27 15 42t39 15q31 0 47.5 -17t16.5 -47q0 -62 -45 -131z" />
    <glyph glyph-name="Rcaron" unicode="&#x158;" horiz-adv-x="668" 
d="M97 0v680h269q89 0 147 -59t58 -159q0 -87 -52 -144t-130 -66q11 -13 34.5 -43.5t39 -49t37 -40t42.5 -32.5t42 -11q31 0 66 19l11 -79q-45 -26 -101 -26q-46 0 -92.5 34.5t-77.5 76.5t-66 88.5t-56 61.5h-73v-251h-98zM195 594v-264h147q56 0 92.5 35t36.5 96
q0 65 -36 99t-93 34h-147zM235 898l62 -92l61 92h76l-89 -143h-96l-89 143h75z" />
    <glyph glyph-name="rcaron" unicode="&#x159;" horiz-adv-x="413" 
d="M396 503l-16 -89q-33 27 -77 27q-42 0 -63.5 -32t-33.5 -91v-318h-97v392q0 57 -36 57q-20 0 -44 -19l-7 79q42 24 90 24q73 0 89 -74q34 73 113 73q51 0 82 -29zM144 741l62 -92l61 92h76l-89 -143h-96l-89 143h75z" />
    <glyph glyph-name="Sacute" unicode="&#x15a;" horiz-adv-x="555" 
d="M67 45l23 92q81 -57 173 -57q60 0 98 29t38 82q0 38 -24 61t-76 38l-110 33q-132 41 -132 169q0 83 61.5 140t171.5 57q113 0 200 -50l-28 -88q-32 21 -79 34.5t-90 13.5q-68 0 -103.5 -28t-35.5 -73q0 -66 79 -90l111 -35q79 -25 117 -67t38 -109q0 -92 -63 -149.5
t-168 -57.5q-58 0 -112.5 17t-88.5 38zM407 898l-84 -143h-82l70 143h96z" />
    <glyph glyph-name="sacute" unicode="&#x15b;" horiz-adv-x="453" 
d="M401 497l-24 -83q-68 34 -135 34q-46 0 -70.5 -19t-24.5 -54q0 -25 15.5 -38.5t54.5 -24.5l78 -23q109 -32 109 -135q0 -70 -48 -117t-132 -47q-92 0 -168 40l20 87q74 -45 143 -45q42 0 65 20.5t23 53.5q0 29 -17 43.5t-51 24.5l-81 24q-110 33 -110 135
q0 70 50.5 114.5t138.5 44.5q41 0 89 -10.5t75 -24.5zM344 741l-84 -143h-82l70 143h96z" />
    <glyph glyph-name="Scircumflex" unicode="&#x15c;" horiz-adv-x="555" 
d="M67 45l23 92q81 -57 173 -57q60 0 98 29t38 82q0 38 -24 61t-76 38l-110 33q-132 41 -132 169q0 83 61.5 140t171.5 57q113 0 200 -50l-28 -88q-32 21 -79 34.5t-90 13.5q-68 0 -103.5 -28t-35.5 -73q0 -66 79 -90l111 -35q79 -25 117 -67t38 -109q0 -92 -63 -149.5
t-168 -57.5q-58 0 -112.5 17t-88.5 38zM342 755l-61 92l-62 -92h-75l89 143h96l89 -143h-76z" />
    <glyph glyph-name="scircumflex" unicode="&#x15d;" horiz-adv-x="453" 
d="M401 497l-24 -83q-68 34 -135 34q-46 0 -70.5 -19t-24.5 -54q0 -25 15.5 -38.5t54.5 -24.5l78 -23q109 -32 109 -135q0 -70 -48 -117t-132 -47q-92 0 -168 40l20 87q74 -45 143 -45q42 0 65 20.5t23 53.5q0 29 -17 43.5t-51 24.5l-81 24q-110 33 -110 135
q0 70 50.5 114.5t138.5 44.5q41 0 89 -10.5t75 -24.5zM293 598l-61 92l-62 -92h-75l89 143h96l89 -143h-76z" />
    <glyph glyph-name="Scedilla" unicode="&#x15e;" horiz-adv-x="557" 
d="M221 -96l20 87q-103 8 -173 54l23 92q81 -57 173 -57q60 0 98 29t38 82q0 38 -24 61t-76 38l-110 33q-132 41 -132 169q0 83 61.5 140t171.5 57q113 0 200 -50l-28 -88q-32 21 -79 34.5t-90 13.5q-68 0 -103.5 -28t-35.5 -73q0 -66 79 -90l111 -35q79 -25 117 -67
t38 -109q0 -89 -59 -146t-159 -61l-12 -53q14 4 25 4q34 0 53.5 -18t19.5 -47q0 -35 -26 -54.5t-67 -19.5q-36 0 -65 12l9 36q31 -11 53 -11q48 0 48 36q0 31 -44 31q-30 0 -53 -7z" />
    <glyph glyph-name="scedilla" unicode="&#x15f;" horiz-adv-x="454" 
d="M174 -96l20 88q-82 7 -138 38l20 87q74 -45 143 -45q42 0 65 20.5t23 53.5q0 29 -17 43.5t-51 24.5l-81 24q-110 33 -110 135q0 70 50.5 114.5t138.5 44.5q41 0 89 -10.5t75 -24.5l-24 -83q-68 34 -135 34q-46 0 -70.5 -19t-24.5 -54q0 -25 15.5 -38.5t54.5 -24.5l78 -23
q109 -32 109 -135q0 -67 -45 -113.5t-124 -50.5l-12 -53q14 4 25 4q34 0 53.5 -18t19.5 -47q0 -35 -26 -54.5t-67 -19.5q-36 0 -65 12l9 36q31 -11 53 -11q48 0 48 36q0 31 -44 31q-30 0 -53 -7z" />
    <glyph glyph-name="Scaron" unicode="&#x160;" horiz-adv-x="555" 
d="M67 45l23 92q81 -57 173 -57q60 0 98 29t38 82q0 38 -24 61t-76 38l-110 33q-132 41 -132 169q0 83 61.5 140t171.5 57q113 0 200 -50l-28 -88q-32 21 -79 34.5t-90 13.5q-68 0 -103.5 -28t-35.5 -73q0 -66 79 -90l111 -35q79 -25 117 -67t38 -109q0 -92 -63 -149.5
t-168 -57.5q-58 0 -112.5 17t-88.5 38zM213 898l62 -92l61 92h76l-89 -143h-96l-89 143h75z" />
    <glyph glyph-name="scaron" unicode="&#x161;" horiz-adv-x="453" 
d="M401 497l-24 -83q-68 34 -135 34q-46 0 -70.5 -19t-24.5 -54q0 -25 15.5 -38.5t54.5 -24.5l78 -23q109 -32 109 -135q0 -70 -48 -117t-132 -47q-92 0 -168 40l20 87q74 -45 143 -45q42 0 65 20.5t23 53.5q0 29 -17 43.5t-51 24.5l-81 24q-110 33 -110 135
q0 70 50.5 114.5t138.5 44.5q41 0 89 -10.5t75 -24.5zM170 741l62 -92l61 92h76l-89 -143h-96l-89 143h75z" />
    <glyph glyph-name="Tcommaaccent" unicode="&#x162;" horiz-adv-x="546" 
d="M519 582h-193v-582h-35l-14 -63q14 4 25 4q34 0 53.5 -18t19.5 -47q0 -35 -26 -54.5t-67 -19.5q-36 0 -65 12l9 36q31 -11 53 -11q48 0 48 36q0 31 -44 31q-30 0 -53 -7l-2 5l22 96h-22v582h-202v98h493v-98z" />
    <glyph glyph-name="tcommaaccent" unicode="&#x163;" horiz-adv-x="421" 
d="M189 -96l21 91q-101 22 -101 151v299h-82v78h88l11 133h79v-133h171v-78h-171v-287q0 -82 70 -82q51 0 98 36l25 -78q-70 -44 -145 -44h-3l-12 -53q14 4 25 4q34 0 53.5 -18t19.5 -47q0 -35 -26 -54.5t-67 -19.5q-36 0 -65 12l9 36q31 -11 53 -11q48 0 48 36q0 31 -44 31
q-30 0 -53 -7z" />
    <glyph glyph-name="Tcaron" unicode="&#x164;" horiz-adv-x="546" 
d="M519 582h-193v-582h-98v582h-202v98h493v-98zM216 898l62 -92l61 92h76l-89 -143h-96l-89 143h75z" />
    <glyph glyph-name="tcaron" unicode="&#x165;" horiz-adv-x="435" 
d="M204 445v-287q0 -82 70 -82q51 0 98 36l25 -78q-70 -44 -145 -44q-67 0 -105.5 38.5t-38.5 117.5v299h-82v78h88l11 133h79v-133h171v-78h-171zM403 512l20 68q-46 6 -46 52q0 27 15 42t39 15q31 0 47.5 -17t16.5 -47q0 -62 -45 -131z" />
    <glyph glyph-name="Tbar" unicode="&#x166;" horiz-adv-x="546" 
d="M519 582h-193v-220h92v-78h-92v-284h-98v284h-87v78h87v220h-202v98h493v-98z" />
    <glyph glyph-name="tbar" unicode="&#x167;" horiz-adv-x="420" 
d="M205 445v-132h113v-72h-113v-83q0 -82 70 -82q51 0 98 36l24 -75q-77 -47 -152 -47q-136 0 -136 156v95h-69v72h69v132h-82v78h88q1 22 5.5 66.5t5.5 66.5h79v-133h171v-78h-171z" />
    <glyph glyph-name="Utilde" unicode="&#x168;" horiz-adv-x="694" 
d="M188 680v-402q0 -198 158 -198q82 0 121.5 53t39.5 146v401h98v-407q0 -125 -66 -204.5t-193 -79.5q-128 0 -192 76t-64 208v407h98zM224 772l-29 41q12 31 36.5 53t52.5 22q32 0 70 -32t57 -32q39 0 59 47l30 -39q-33 -77 -89 -77q-29 0 -69 32.5t-58 32.5
q-35 0 -60 -48z" />
    <glyph glyph-name="utilde" unicode="&#x169;" horiz-adv-x="598" 
d="M393 523h96v-401q0 -48 35 -48q21 0 46 18l6 -77q-36 -25 -87 -25q-80 0 -93 69q-50 -69 -153 -69q-167 0 -167 205v328h96v-316q0 -127 102 -127q84 0 119 89v354zM163 615l-29 41q12 31 36.5 53t52.5 22q32 0 70 -32t57 -32q39 0 59 47l30 -39q-33 -77 -89 -77
q-30 0 -70 32.5t-57 32.5q-35 0 -60 -48z" />
    <glyph glyph-name="Umacron" unicode="&#x16a;" horiz-adv-x="694" 
d="M188 680v-402q0 -198 158 -198q82 0 121.5 53t39.5 146v401h98v-407q0 -125 -66 -204.5t-193 -79.5q-128 0 -192 76t-64 208v407h98zM452 782h-211v69h211v-69z" />
    <glyph glyph-name="umacron" unicode="&#x16b;" horiz-adv-x="598" 
d="M393 523h96v-401q0 -48 35 -48q21 0 46 18l6 -77q-36 -25 -87 -25q-80 0 -93 69q-50 -69 -153 -69q-167 0 -167 205v328h96v-316q0 -127 102 -127q84 0 119 89v354zM393 625h-211v69h211v-69z" />
    <glyph glyph-name="Ubreve" unicode="&#x16c;" horiz-adv-x="694" 
d="M188 680v-402q0 -198 158 -198q82 0 121.5 53t39.5 146v401h98v-407q0 -125 -66 -204.5t-193 -79.5q-128 0 -192 76t-64 208v407h98zM227 839l26 40q34 -51 94 -51q61 0 94 51l26 -40q-42 -79 -119 -79q-43 0 -74 23t-47 56z" />
    <glyph glyph-name="ubreve" unicode="&#x16d;" horiz-adv-x="598" 
d="M393 523h96v-401q0 -48 35 -48q21 0 46 18l6 -77q-36 -25 -87 -25q-80 0 -93 69q-50 -69 -153 -69q-167 0 -167 205v328h96v-316q0 -127 102 -127q84 0 119 89v354zM167 682l26 40q34 -51 94 -51q61 0 94 51l26 -40q-42 -79 -119 -79q-43 0 -74 23t-47 56z" />
    <glyph glyph-name="Uring" unicode="&#x16e;" horiz-adv-x="694" 
d="M188 680v-402q0 -198 158 -198q82 0 121.5 53t39.5 146v401h98v-407q0 -125 -66 -204.5t-193 -79.5q-128 0 -192 76t-64 208v407h98zM252 787q0 41 29 69.5t69 28.5t69 -28.5t29 -69.5t-29 -69.5t-69 -28.5t-69 28.5t-29 69.5zM296 787q0 -23 16 -38.5t38 -15.5t37.5 16
t15.5 38t-15.5 37.5t-37.5 15.5t-38 -15.5t-16 -37.5z" />
    <glyph glyph-name="uring" unicode="&#x16f;" horiz-adv-x="598" 
d="M393 523h96v-401q0 -48 35 -48q21 0 46 18l6 -77q-36 -25 -87 -25q-80 0 -93 69q-50 -69 -153 -69q-167 0 -167 205v328h96v-316q0 -127 102 -127q84 0 119 89v354zM186 670q0 40 29 69t69 29t69 -29t29 -69t-29 -69t-69 -29t-69 29t-29 69zM230 670q0 -22 16 -38t38 -16
t37.5 16t15.5 38t-15.5 37.5t-37.5 15.5t-38 -15.5t-16 -37.5z" />
    <glyph glyph-name="Uhungarumlaut" unicode="&#x170;" horiz-adv-x="694" 
d="M188 680v-402q0 -198 158 -198q82 0 121.5 53t39.5 146v401h98v-407q0 -125 -66 -204.5t-193 -79.5q-128 0 -192 76t-64 208v407h98zM387 898l-84 -143h-82l69 143h97zM550 898l-83 -143h-82l69 143h96z" />
    <glyph glyph-name="uhungarumlaut" unicode="&#x171;" horiz-adv-x="598" 
d="M393 523h96v-401q0 -48 35 -48q21 0 46 18l6 -77q-36 -25 -87 -25q-80 0 -93 69q-50 -69 -153 -69q-167 0 -167 205v328h96v-316q0 -127 102 -127q84 0 119 89v354zM327 741l-84 -143h-82l69 143h97zM490 741l-83 -143h-82l69 143h96z" />
    <glyph glyph-name="Uogonek" unicode="&#x172;" horiz-adv-x="696" 
d="M189 680v-402q0 -198 158 -198q82 0 121.5 53t39.5 146v401h98v-407q0 -114 -54.5 -190.5t-160.5 -90.5q-43 -21 -43 -66q0 -26 14.5 -40.5t36.5 -14.5q25 0 47 14l10 -47q-34 -16 -70 -16q-38 0 -62 24.5t-24 67.5q0 46 34 75q-122 4 -182.5 79.5t-60.5 204.5v407h98z
" />
    <glyph glyph-name="uogonek" unicode="&#x173;" horiz-adv-x="598" 
d="M393 523h96v-401q0 -48 35 -48q21 0 46 18l6 -77q-26 -20 -66 -24q-40 -20 -40 -65q0 -26 14.5 -40.5t36.5 -14.5q25 0 47 14l9 -47q-32 -16 -70 -16t-62 24.5t-24 67.5q0 49 41 78q-56 11 -66 67q-50 -69 -153 -69q-167 0 -167 205v328h96v-316q0 -127 102 -127
q84 0 119 89v354z" />
    <glyph glyph-name="Wcircumflex" unicode="&#x174;" horiz-adv-x="943" 
d="M581 0l-109 335l-116 -335h-105l-227 680h103l184 -570l119 341l-74 229h104l172 -555l186 555h105l-236 -680h-106zM532 755l-61 92l-62 -92h-75l89 143h96l89 -143h-76z" />
    <glyph glyph-name="wcircumflex" unicode="&#x175;" horiz-adv-x="885" 
d="M504 523v-301q0 -65 27.5 -103.5t75.5 -38.5q53 0 82.5 45.5t29.5 119.5q0 134 -38 278h99q40 -145 40 -278q0 -121 -53 -188t-148 -67q-62 0 -101 24t-61 83q-43 -107 -165 -107q-185 0 -185 222v181q0 56 -37 56q-23 0 -45 -19l-6 79q48 23 92 23q92 0 92 -120v-188
q0 -144 101 -144q50 0 79.5 38.5t29.5 107.5v297h91zM520 598l-61 92l-62 -92h-75l89 143h96l89 -143h-76z" />
    <glyph glyph-name="Ycircumflex" unicode="&#x176;" horiz-adv-x="585" 
d="M244 0v280l-232 392v8h108l173 -310l173 310h107v-8l-232 -392v-280h-97zM354 755l-61 92l-62 -92h-75l89 143h96l89 -143h-76z" />
    <glyph glyph-name="ycircumflex" unicode="&#x177;" horiz-adv-x="512" 
d="M23 -168l15 74q37 -22 80 -22q35 0 55.5 21t36.5 68l11 36l-207 514h106l144 -416l133 416h98l-201 -569q-27 -77 -65 -114.5t-105 -37.5q-58 0 -101 30zM322 598l-61 92l-62 -92h-75l89 143h96l89 -143h-76z" />
    <glyph glyph-name="Ydieresis" unicode="&#x178;" horiz-adv-x="585" 
d="M244 0v280l-232 392v8h108l173 -310l173 310h107v-8l-232 -392v-280h-97zM129 829q0 54 57 54q55 0 55 -54t-55 -54q-57 0 -57 54zM345 829q0 54 57 54q55 0 55 -54t-55 -54q-57 0 -57 54z" />
    <glyph glyph-name="Zacute" unicode="&#x179;" horiz-adv-x="548" 
d="M53 71l317 523h-317v86h442v-71l-317 -523h317v-86h-442v71zM395 898l-84 -143h-82l70 143h96z" />
    <glyph glyph-name="zacute" unicode="&#x17a;" horiz-adv-x="456" 
d="M48 71l239 373h-239v79h360v-71l-239 -374h239v-78h-360v71zM348 741l-84 -143h-82l70 143h96z" />
    <glyph glyph-name="Zdotaccent" unicode="&#x17b;" horiz-adv-x="548" 
d="M53 71l317 523h-317v86h442v-71l-317 -523h317v-86h-442v71zM221 831q0 56 60 56q58 0 58 -56q0 -57 -58 -57q-60 0 -60 57z" />
    <glyph glyph-name="zdotaccent" unicode="&#x17c;" horiz-adv-x="456" 
d="M48 71l239 373h-239v79h360v-71l-239 -374h239v-78h-360v71zM177 674q0 56 60 56q58 0 58 -56q0 -57 -58 -57q-60 0 -60 57z" />
    <glyph glyph-name="Zcaron" unicode="&#x17d;" horiz-adv-x="548" 
d="M53 71l317 523h-317v86h442v-71l-317 -523h317v-86h-442v71zM216 898l62 -92l61 92h76l-89 -143h-96l-89 143h75z" />
    <glyph glyph-name="zcaron" unicode="&#x17e;" horiz-adv-x="456" 
d="M48 71l239 373h-239v79h360v-71l-239 -374h239v-78h-360v71zM169 741l62 -92l61 92h76l-89 -143h-96l-89 143h75z" />
    <glyph glyph-name="florin" unicode="&#x192;" horiz-adv-x="397" 
d="M363 316h-124v-348q0 -78 -33.5 -122t-99.5 -44q-28 0 -58 12t-47 27l16 82q29 -33 66 -33q60 0 60 75v351h-119v62h119v178q0 77 33 120.5t99 43.5q28 0 58.5 -12.5t47.5 -26.5l-16 -82q-31 33 -67 33q-59 0 -59 -73v-181h124v-62z" />
    <glyph glyph-name="Aringacute" unicode="&#x1fa;" horiz-adv-x="620" 
d="M19 0l230 661q-35 22 -35 67q0 39 26.5 60t71.5 21t71 -21t26 -60q0 -43 -34 -66l221 -662h-97l-50 153h-282l-51 -153h-97zM312 581l-119 -354h232zM258 728q0 -41 54 -41t54 41q0 40 -54 40t-54 -40zM392 907l-52 -77h-62l42 77h72z" />
    <glyph glyph-name="aringacute" unicode="&#x1fb;" horiz-adv-x="608" 
d="M383 835l-52 -78h-62l42 78h72zM205 656q0 38 27 60t71 22t71 -22t27 -60q0 -40 -26.5 -61t-71.5 -21t-71.5 21t-26.5 61zM249 656q0 -41 54 -41t54 41q0 40 -54 40t-54 -40zM498 523v-393q0 -56 35 -56q19 0 47 19l5 -78q-37 -25 -89 -25q-73 0 -88 69q-51 -68 -146 -68
q-97 0 -154 71t-57 198q0 126 57 199t157 73q39 0 77 -15t60 -42v48h96zM402 387q-45 59 -111 59t-104 -49.5t-38 -136.5q0 -85 38.5 -134.5t103.5 -49.5q33 0 62.5 18.5t48.5 44.5v248z" />
    <glyph glyph-name="AEacute" unicode="&#x1fc;" horiz-adv-x="918" 
d="M407 0v153h-224l-75 -153h-104l347 680h507v-87h-358v-201h296v-80h-296v-226h358v-86h-451zM221 227h186v362zM708 898l-84 -143h-82l70 143h96z" />
    <glyph glyph-name="aeacute" unicode="&#x1fd;" horiz-adv-x="813" 
d="M99 417l-15 85q79 35 189 35q117 0 141 -112q19 44 62 78t111 34q181 0 181 -210q0 -52 -10 -98h-312q3 -78 35 -119t104 -41q77 0 141 60l34 -71q-79 -72 -186 -72q-124 0 -173 89q-87 -89 -191 -89q-75 0 -122.5 46.5t-47.5 124.5q0 81 61.5 128t164.5 47q45 0 85 -7
q0 71 -22 99.5t-78 28.5q-35 0 -80 -10.5t-72 -25.5zM452 306h233q2 16 2 29q0 55 -26.5 86.5t-81.5 31.5q-59 0 -92 -43t-35 -104zM352 246q-29 9 -72 9q-66 0 -104 -25t-38 -74q0 -38 24 -61.5t66 -23.5q69 0 124 60v115zM536 741l-84 -143h-82l70 143h96z" />
    <glyph glyph-name="Oslashacute" unicode="&#x1fe;" horiz-adv-x="714" 
d="M59 339q0 156 82 253.5t215 97.5q97 0 171 -55l31 45h70v-8l-56 -81q82 -96 82 -252q0 -155 -82.5 -252t-215.5 -97q-94 0 -163 49l-27 -39h-72v8l51 74q-86 97 -86 257zM156 339q0 -111 45 -176l273 395q-51 39 -118 39q-90 0 -145 -67.5t-55 -190.5zM558 339
q0 104 -42 171l-270 -394q47 -33 110 -33q91 0 146.5 67t55.5 189zM478 898l-84 -143h-82l70 143h96z" />
    <glyph glyph-name="oslashacute" unicode="&#x1ff;" horiz-adv-x="575" 
d="M50 260q0 128 64.5 202.5t172.5 74.5q82 0 141 -45l22 31h51v-9l-38 -55q62 -75 62 -199q0 -127 -65 -200.5t-173 -73.5q-74 0 -130 36l-15 -22h-51v8l30 44q-71 74 -71 208zM145 260q0 -81 32 -128l198 283q-37 32 -88 32q-65 0 -103.5 -49t-38.5 -138zM429 260
q0 69 -25 116l-193 -278q33 -22 76 -22q65 0 103.5 48.5t38.5 135.5zM409 741l-84 -143h-82l70 143h96z" />
    <glyph glyph-name="Scommaaccent" unicode="&#x218;" horiz-adv-x="556" 
d="M67 45l23 92q81 -57 173 -57q60 0 98 29t38 82q0 38 -24 61t-76 38l-110 33q-132 41 -132 169q0 83 61.5 140t171.5 57q113 0 200 -50l-28 -88q-32 21 -79 34.5t-90 13.5q-68 0 -103.5 -28t-35.5 -73q0 -66 79 -90l111 -35q79 -25 117 -67t38 -109q0 -92 -63 -149.5
t-168 -57.5q-58 0 -112.5 17t-88.5 38zM243 -242l20 68q-46 6 -46 52q0 27 15 42t39 15q31 0 47.5 -17t16.5 -47q0 -62 -45 -131z" />
    <glyph glyph-name="scommaaccent" unicode="&#x219;" horiz-adv-x="453" 
d="M401 497l-24 -83q-68 34 -135 34q-46 0 -70.5 -19t-24.5 -54q0 -25 15.5 -38.5t54.5 -24.5l78 -23q109 -32 109 -135q0 -70 -48 -117t-132 -47q-92 0 -168 40l20 87q74 -45 143 -45q42 0 65 20.5t23 53.5q0 29 -17 43.5t-51 24.5l-81 24q-110 33 -110 135
q0 70 50.5 114.5t138.5 44.5q41 0 89 -10.5t75 -24.5zM199 -242l20 68q-46 6 -46 52q0 27 15 42t39 15q31 0 47.5 -17t16.5 -47q0 -62 -45 -131z" />
    <glyph glyph-name="uni021A" unicode="&#x21a;" horiz-adv-x="549" 
d="M519 582h-193v-582h-98v582h-202v98h493v-98zM246 -242l20 68q-46 6 -46 52q0 27 15 42t39 15q31 0 47.5 -17t16.5 -47q0 -62 -45 -131z" />
    <glyph glyph-name="uni021B" unicode="&#x21b;" horiz-adv-x="419" 
d="M204 445v-287q0 -82 70 -82q51 0 98 36l25 -78q-70 -44 -145 -44q-67 0 -105.5 38.5t-38.5 117.5v299h-82v78h88l11 133h79v-133h171v-78h-171zM201 -242l20 68q-46 6 -46 52q0 27 15 42t39 15q31 0 47.5 -17t16.5 -47q0 -62 -45 -131z" />
    <glyph glyph-name="dotlessj" unicode="&#x237;" horiz-adv-x="258" 
d="M62 -197l-56 65q38 26 56.5 59.5t18.5 88.5v507h96v-503q0 -83 -30 -133.5t-85 -83.5z" />
    <glyph glyph-name="circumflex" unicode="&#x2c6;" 
d="M316 598l-61 92l-62 -92h-75l89 143h96l89 -143h-76z" />
    <glyph glyph-name="caron" unicode="&#x2c7;" 
d="M193 741l62 -92l61 92h76l-89 -143h-96l-89 143h75z" />
    <glyph glyph-name="breve" unicode="&#x2d8;" 
d="M135 682l26 40q34 -51 94 -51q61 0 94 51l26 -40q-42 -79 -119 -79q-43 0 -74 23t-47 56z" />
    <glyph glyph-name="dotaccent" unicode="&#x2d9;" 
d="M196 674q0 56 60 56q58 0 58 -56q0 -57 -58 -57q-60 0 -60 57z" />
    <glyph glyph-name="ring" unicode="&#x2da;" 
d="M157 630q0 40 28.5 69t69.5 29t69.5 -29t28.5 -69t-28.5 -69t-69.5 -29t-69.5 29t-28.5 69zM201 630q0 -22 15.5 -38t38.5 -16q22 0 37.5 16t15.5 38t-15.5 37.5t-37.5 15.5t-38 -15.5t-16 -37.5z" />
    <glyph glyph-name="ogonek" unicode="&#x2db;" 
d="M255 10l49 -10q-35 -2 -58 -21.5t-23 -52.5q0 -26 14.5 -40.5t36.5 -14.5q25 0 47 14l10 -47q-34 -16 -70 -16q-38 0 -62 24.5t-24 67.5q0 40 25 66t55 30z" />
    <glyph glyph-name="tilde" unicode="&#x2dc;" 
d="M131 615l-29 41q12 31 36.5 53t52.5 22q32 0 70 -32t57 -32q39 0 59 47l30 -39q-33 -77 -89 -77q-30 0 -70 32.5t-57 32.5q-35 0 -60 -48z" />
    <glyph glyph-name="hungarumlaut" unicode="&#x2dd;" 
d="M256 741l-84 -143h-82l69 143h97zM419 741l-83 -143h-82l69 143h96z" />
    <glyph glyph-name="uni0394" unicode="&#x394;" horiz-adv-x="636" 
d="M29 0l236 680h113l228 -680h-577zM321 582l-169 -507h331z" />
    <glyph glyph-name="uni03A9" unicode="&#x3a9;" horiz-adv-x="726" 
d="M644 78v-78h-236v80q69 27 113.5 101.5t44.5 168.5q0 114 -55.5 181t-148.5 67q-91 0 -146.5 -67.5t-55.5 -180.5q0 -97 42.5 -170t112.5 -100v-80h-233v78h117q-62 35 -97.5 114t-35.5 175q0 143 83 233t213 90q132 0 215.5 -90t83.5 -233q0 -94 -37 -173.5t-96 -115.5
h116z" />
    <glyph glyph-name="uni03BC" unicode="&#x3bc;" horiz-adv-x="575" 
d="M178 523v-280q0 -82 24 -122.5t80 -40.5q79 0 115 85v358h97v-523h-97v53q-51 -63 -149 -63q-40 0 -70 12v-190h-97v711h97z" />
    <glyph glyph-name="pi" unicode="&#x3c0;" horiz-adv-x="628" 
d="M28 523h566v-78h-106v-320q0 -27 8 -39t28 -12q23 0 45 19l6 -80q-7 -7 -34.5 -15t-55.5 -8q-47 0 -70 27.5t-23 89.5v338h-165v-445h-97v445h-102v78z" />
    <glyph glyph-name="Wgrave" unicode="&#x1e80;" horiz-adv-x="943" 
d="M581 0l-109 335l-116 -335h-105l-227 680h103l184 -570l119 341l-74 229h104l172 -555l186 555h105l-236 -680h-106zM438 755l-84 143h96l70 -143h-82z" />
    <glyph glyph-name="wgrave" unicode="&#x1e81;" horiz-adv-x="885" 
d="M504 523v-301q0 -65 27.5 -103.5t75.5 -38.5q53 0 82.5 45.5t29.5 119.5q0 134 -38 278h99q40 -145 40 -278q0 -121 -53 -188t-148 -67q-62 0 -101 24t-61 83q-43 -107 -165 -107q-185 0 -185 222v181q0 56 -37 56q-23 0 -45 -19l-6 79q48 23 92 23q92 0 92 -120v-188
q0 -144 101 -144q50 0 79.5 38.5t29.5 107.5v297h91zM423 598l-84 143h96l70 -143h-82z" />
    <glyph glyph-name="Wacute" unicode="&#x1e82;" horiz-adv-x="943" 
d="M581 0l-109 335l-116 -335h-105l-227 680h103l184 -570l119 341l-74 229h104l172 -555l186 555h105l-236 -680h-106zM588 898l-84 -143h-82l70 143h96z" />
    <glyph glyph-name="wacute" unicode="&#x1e83;" horiz-adv-x="885" 
d="M504 523v-301q0 -65 27.5 -103.5t75.5 -38.5q53 0 82.5 45.5t29.5 119.5q0 134 -38 278h99q40 -145 40 -278q0 -121 -53 -188t-148 -67q-62 0 -101 24t-61 83q-43 -107 -165 -107q-185 0 -185 222v181q0 56 -37 56q-23 0 -45 -19l-6 79q48 23 92 23q92 0 92 -120v-188
q0 -144 101 -144q50 0 79.5 38.5t29.5 107.5v297h91zM574 741l-84 -143h-82l70 143h96z" />
    <glyph glyph-name="Wdieresis" unicode="&#x1e84;" horiz-adv-x="943" 
d="M581 0l-109 335l-116 -335h-105l-227 680h103l184 -570l119 341l-74 229h104l172 -555l186 555h105l-236 -680h-106zM308 829q0 54 57 54q55 0 55 -54t-55 -54q-57 0 -57 54zM524 829q0 54 57 54q55 0 55 -54t-55 -54q-57 0 -57 54z" />
    <glyph glyph-name="wdieresis" unicode="&#x1e85;" horiz-adv-x="885" 
d="M504 523v-301q0 -65 27.5 -103.5t75.5 -38.5q53 0 82.5 45.5t29.5 119.5q0 134 -38 278h99q40 -145 40 -278q0 -121 -53 -188t-148 -67q-62 0 -101 24t-61 83q-43 -107 -165 -107q-185 0 -185 222v181q0 56 -37 56q-23 0 -45 -19l-6 79q48 23 92 23q92 0 92 -120v-188
q0 -144 101 -144q50 0 79.5 38.5t29.5 107.5v297h91zM295 672q0 54 57 54q55 0 55 -54t-55 -54q-57 0 -57 54zM511 672q0 54 57 54q55 0 55 -54t-55 -54q-57 0 -57 54z" />
    <glyph glyph-name="Ygrave" unicode="&#x1ef2;" horiz-adv-x="585" 
d="M244 0v280l-232 392v8h108l173 -310l173 310h107v-8l-232 -392v-280h-97zM256 755l-84 143h96l70 -143h-82z" />
    <glyph glyph-name="ygrave" unicode="&#x1ef3;" horiz-adv-x="512" 
d="M23 -168l15 74q37 -22 80 -22q35 0 55.5 21t36.5 68l11 36l-207 514h106l144 -416l133 416h98l-201 -569q-27 -77 -65 -114.5t-105 -37.5q-58 0 -101 30zM227 598l-84 143h96l70 -143h-82z" />
    <glyph glyph-name="endash" unicode="&#x2013;" horiz-adv-x="560" 
d="M74 342h412v-79h-412v79z" />
    <glyph glyph-name="emdash" unicode="&#x2014;" horiz-adv-x="766" 
d="M74 342h618v-79h-618v79z" />
    <glyph glyph-name="quoteleft" unicode="&#x2018;" horiz-adv-x="248" 
d="M177 667l-37 -136q47 -9 47 -64q0 -70 -64 -70q-30 0 -47 19.5t-17 50.5q0 46 21.5 116t42.5 107z" />
    <glyph glyph-name="quoteright" unicode="&#x2019;" horiz-adv-x="245" 
d="M72 418l38 136q-46 9 -46 64q0 34 16.5 52t46.5 18t47 -19.5t17 -50.5q0 -46 -21.5 -116t-42.5 -107z" />
    <glyph glyph-name="quotesinglbase" unicode="&#x201a;" horiz-adv-x="254" 
d="M71 -148l38 136q-46 9 -46 64q0 34 16.5 52t46.5 18t47 -19.5t17 -50.5q0 -46 -21.5 -116t-42.5 -107z" />
    <glyph glyph-name="quotedblleft" unicode="&#x201c;" horiz-adv-x="409" 
d="M340 670l-35 -130q42 -9 42 -58q0 -64 -56 -64q-27 0 -42.5 18t-15.5 46q0 42 20 108t39 100zM166 670l-36 -130q43 -9 43 -58q0 -64 -56 -64q-27 0 -42.5 18t-15.5 46q0 42 20 108t39 100z" />
    <glyph glyph-name="quotedblright" unicode="&#x201d;" horiz-adv-x="406" 
d="M71 437l35 130q-43 7 -43 58q0 31 15 47.5t42 16.5q26 0 41.5 -18t15.5 -46q0 -42 -19.5 -108.5t-38.5 -100.5zM245 437l35 130q-43 7 -43 58q0 31 15 47.5t41 16.5q27 0 42.5 -18t15.5 -46q0 -42 -20 -108t-38 -101z" />
    <glyph glyph-name="quotedblbase" unicode="&#x201e;" horiz-adv-x="414" 
d="M71 -151l35 131q-43 6 -43 57q0 65 57 65q27 0 42 -18t15 -47q0 -42 -19.5 -108t-38.5 -100zM244 -151l36 131q-43 6 -43 57q0 65 56 65q27 0 42.5 -18t15.5 -47q0 -43 -20 -109t-39 -99z" />
    <glyph glyph-name="dagger" unicode="&#x2020;" horiz-adv-x="517" 
d="M487 364h-189v-552h-78v552h-190v79h190v267h78v-267h189v-79z" />
    <glyph glyph-name="daggerdbl" unicode="&#x2021;" horiz-adv-x="559" 
d="M508 64h-190v-252h-77v252h-190v79h190v221h-190v79h190v267h77v-267h190v-79h-190v-221h190v-79z" />
    <glyph glyph-name="bullet" unicode="&#x2022;" horiz-adv-x="315" 
d="M66 302q0 49 23.5 76t67.5 27t68 -27t24 -76q0 -50 -24 -76.5t-68 -26.5t-67.5 26.5t-23.5 76.5z" />
    <glyph glyph-name="ellipsis" unicode="&#x2026;" horiz-adv-x="668" 
d="M64 49q0 31 15.5 48t43.5 17q29 0 45.5 -17t16.5 -48q0 -64 -62 -64q-59 0 -59 64zM274 49q0 31 15.5 48t43.5 17q29 0 45 -17t16 -48q0 -64 -61 -64q-59 0 -59 64zM484 49q0 65 60 65q28 0 44 -17t16 -48t-16 -47.5t-44 -16.5q-60 0 -60 64z" />
    <glyph glyph-name="perthousand" unicode="&#x2030;" horiz-adv-x="1098" 
d="M753 164q0 83 42.5 130t111.5 47t111.5 -47t42.5 -130q0 -82 -42.5 -128t-111.5 -46t-111.5 46t-42.5 128zM826 164q0 -49 22 -75t59 -26t59 26t22 75q0 50 -22 77t-59 27t-59 -27t-22 -77zM191 8l300 672h83v-8l-300 -672h-83v8zM39 513q0 83 42 130t111 47t111.5 -47.5
t42.5 -129.5q0 -83 -42.5 -129t-111.5 -46t-111 46t-42 129zM111 513q0 -50 22 -76.5t59 -26.5q38 0 60 26.5t22 76.5t-22 76.5t-60 26.5q-37 0 -59 -26.5t-22 -76.5zM417 165q0 83 42.5 130t111.5 47t111.5 -47t42.5 -130q0 -82 -42.5 -128.5t-111.5 -46.5t-111.5 46.5
t-42.5 128.5zM489 165q0 -50 22.5 -76t59.5 -26q38 0 59.5 26t21.5 76q0 51 -21.5 77t-59.5 26q-37 0 -59.5 -26.5t-22.5 -76.5z" />
    <glyph glyph-name="guilsinglleft" unicode="&#x2039;" horiz-adv-x="290" 
d="M50 292v20l136 201h8l35 -23l-98 -188l98 -188l-35 -23h-8z" />
    <glyph glyph-name="guilsinglright" unicode="&#x203a;" horiz-adv-x="290" 
d="M241 312v-20l-137 -201h-7l-35 23l97 188l-98 188l36 23h7z" />
    <glyph glyph-name="fraction" unicode="&#x2044;" horiz-adv-x="138" 
d="M-117 8l314 672h57v-8l-313 -672h-58v8z" />
    <glyph glyph-name="zerosuperior" unicode="&#x2070;" horiz-adv-x="326" 
d="M40 621q0 78 31.5 123.5t91.5 45.5q61 0 92 -45.5t31 -123.5t-31 -123t-92 -45q-60 0 -91.5 45t-31.5 123zM94 621q0 -116 69 -116t69 116t-69 116t-69 -116z" />
    <glyph glyph-name="foursuperior" unicode="&#x2074;" horiz-adv-x="312" 
d="M286 522h-51v-65h-56v65h-158v38l141 224l17 -1v1h56v-219h51v-43zM79 565h100v162z" />
    <glyph glyph-name="fivesuperior" unicode="&#x2075;" horiz-adv-x="289" 
d="M50 613l-2 2l12 169h182v-50h-135l-5 -77h32q117 0 117 -93q0 -56 -33 -84t-88 -28q-52 0 -98 23l15 47q40 -20 80 -20q29 0 48.5 15t19.5 45q0 51 -64 51h-81z" />
    <glyph glyph-name="sixsuperior" unicode="&#x2076;" horiz-adv-x="314" 
d="M267 763l-16 -48q-34 25 -76 25q-75 0 -80 -105q33 39 80 39q50 0 77 -27.5t27 -77.5q0 -53 -31 -84.5t-80 -31.5q-61 0 -95 45.5t-34 123.5q0 76 34.5 122t95.5 46q55 0 98 -27zM167 630q-38 0 -70 -39q10 -86 71 -86q25 0 40 18.5t15 45.5q0 61 -56 61z" />
    <glyph glyph-name="sevensuperior" unicode="&#x2077;" horiz-adv-x="253" 
d="M57 462l114 272h-148v50h210v-40l-116 -287h-60v5z" />
    <glyph glyph-name="eightsuperior" unicode="&#x2078;" horiz-adv-x="318" 
d="M159 453q-57 0 -88.5 25t-31.5 69q0 68 65 82q-24 5 -39.5 25.5t-15.5 45.5q0 44 28.5 67t81.5 23t81.5 -23t28.5 -67q0 -25 -15 -45.5t-40 -25.5q65 -14 65 -82q0 -44 -31.5 -69t-88.5 -25zM159 607q-31 0 -47 -14.5t-16 -36.5q0 -25 17.5 -41t45.5 -16q29 0 46.5 16
t17.5 41q0 22 -16.5 36.5t-47.5 14.5zM159 743q-25 0 -40 -12.5t-15 -35.5q0 -20 14 -34t41 -14t41 14t14 34q0 48 -55 48z" />
    <glyph glyph-name="ninesuperior" unicode="&#x2079;" horiz-adv-x="315" 
d="M140 502q78 0 81 108q-34 -41 -82 -41q-49 0 -76 27t-27 77q0 52 31.5 84.5t80.5 32.5q61 0 94.5 -46t33.5 -123q0 -76 -34 -122t-95 -46q-60 0 -99 27l16 47q36 -25 76 -25zM147 613q40 0 72 39q-12 85 -71 85q-25 0 -41 -18.5t-16 -45.5q0 -30 15 -45t41 -15z" />
    <glyph glyph-name="zeroinferior" unicode="&#x2080;" horiz-adv-x="325" 
d="M39 63q0 79 31.5 124t91.5 45q61 0 92.5 -45t31.5 -124q0 -78 -31.5 -123t-92.5 -45q-60 0 -91.5 45.5t-31.5 122.5zM94 63q0 -114 68 -114q70 0 70 114q0 117 -70 117q-68 0 -68 -117z" />
    <glyph glyph-name="oneinferior" unicode="&#x2081;" horiz-adv-x="234" 
d="M13 153l122 74h41v-327h-56v262l-85 -52z" />
    <glyph glyph-name="twoinferior" unicode="&#x2082;" horiz-adv-x="296" 
d="M43 -100v44l110 98q43 37 43 79q0 26 -14 42.5t-39 16.5q-27 0 -41.5 -20t-14.5 -53l-52 9q2 53 31 84.5t80 31.5t78.5 -29.5t27.5 -76.5q0 -63 -59 -114l-71 -62h137v-50h-216z" />
    <glyph glyph-name="threeinferior" unicode="&#x2083;" horiz-adv-x="291" 
d="M69 92h67q24 0 36.5 13t12.5 32q0 46 -57 46q-43 0 -80 -21l-12 49q45 21 97 21t80.5 -23t28.5 -66q0 -55 -48 -72q58 -15 58 -82q0 -43 -31.5 -68.5t-87.5 -25.5q-45 0 -98 21l14 48q38 -19 81 -19q29 0 46.5 14.5t17.5 38.5q0 45 -58 45h-67v49z" />
    <glyph glyph-name="fourinferior" unicode="&#x2084;" horiz-adv-x="312" 
d="M286 -36h-51v-64h-56v64h-157v39l141 224l16 -1v1h56v-219h51v-44zM79 8h100v160z" />
    <glyph glyph-name="fiveinferior" unicode="&#x2085;" horiz-adv-x="288" 
d="M50 56l-2 2l12 169h181v-50h-134l-5 -77h33q117 0 117 -94q0 -55 -33.5 -83t-88.5 -28q-51 0 -98 22l15 48q40 -20 80 -20q67 0 67 60q0 51 -63 51h-81z" />
    <glyph glyph-name="sixinferior" unicode="&#x2086;" horiz-adv-x="314" 
d="M175 183q-77 0 -80 -106q33 39 80 39q50 0 77 -27.5t27 -77.5q0 -52 -31 -84t-80 -32q-61 0 -95 46t-34 123q0 76 34.5 122t95.5 46q59 0 98 -27l-16 -47q-34 25 -76 25zM167 72q-38 0 -70 -39q10 -85 71 -85q25 0 40 18t15 45q0 61 -56 61z" />
    <glyph glyph-name="seveninferior" unicode="&#x2087;" horiz-adv-x="254" 
d="M57 -95l114 272h-147v50h209v-40l-115 -287h-61v5z" />
    <glyph glyph-name="eightinferior" unicode="&#x2088;" horiz-adv-x="318" 
d="M159 -105q-57 0 -88.5 25.5t-31.5 68.5q0 68 65 82q-24 5 -39.5 25.5t-15.5 46.5q0 43 28.5 66t81.5 23t81.5 -23t28.5 -66q0 -26 -15 -46.5t-40 -25.5q65 -14 65 -82q0 -43 -31.5 -68.5t-88.5 -25.5zM159 49q-63 0 -63 -51q0 -25 17.5 -40.5t45.5 -15.5t46 15.5t18 40.5
q0 23 -16 37t-48 14zM159 186q-25 0 -40 -12.5t-15 -35.5q0 -21 14 -35t41 -14t41 14t14 35q0 48 -55 48z" />
    <glyph glyph-name="nineinferior" unicode="&#x2089;" horiz-adv-x="314" 
d="M47 -78l16 48q36 -25 76 -25q76 0 81 107q-34 -41 -81 -41q-50 0 -77 27.5t-27 77.5q0 52 31.5 84t80.5 32q61 0 94.5 -45.5t33.5 -123.5q0 -76 -34 -122t-95 -46q-53 0 -99 27zM146 55q40 0 72 39q-12 86 -71 86q-25 0 -40.5 -18.5t-15.5 -45.5q0 -30 15 -45.5t40 -15.5
z" />
    <glyph glyph-name="Euro" unicode="&#x20ac;" 
d="M369 366h-200v-24q0 -27 1 -40h178l-20 -61h-151q13 -78 49.5 -119t91.5 -41q67 0 121 43l36 -77q-77 -57 -169 -57q-90 0 -150.5 65.5t-78.5 185.5h-47v61h41q-1 13 -1 40v24h-40v61h45q16 127 77 195t156 68q105 0 170 -65l-34 -78q-50 53 -126 53q-57 0 -94.5 -43
t-49.5 -130h218z" />
    <glyph glyph-name="afii61289" unicode="&#x2113;" horiz-adv-x="403" 
d="M64 125l-30 51l71 49v266q0 96 39 147t109 51q116 0 116 -137q0 -104 -50 -197t-119 -152v-51q0 -43 17 -61t50 -18q35 0 66 21l-4 -89q-35 -15 -93 -15q-65 0 -98 31t-33 100v33zM200 504v-224q107 103 107 278q0 68 -46 68q-28 0 -44.5 -30.5t-16.5 -91.5z" />
    <glyph glyph-name="uni2117" unicode="&#x2117;" horiz-adv-x="805" 
d="M53 339q0 151 100 251t249 100q151 0 251 -100t100 -251q0 -149 -100 -249t-251 -100q-149 0 -249 100t-100 249zM110 339q0 -126 83 -209.5t209 -83.5t209.5 83.5t83.5 209.5q0 127 -83.5 211t-209.5 84t-209 -84t-83 -211zM295 169v340h159q53 0 87.5 -31.5t34.5 -91.5
q0 -55 -35.5 -88t-86.5 -33h-84v-96h-75zM444 449h-74v-123h74q26 0 43.5 16.5t17.5 44.5q0 29 -17.5 45.5t-43.5 16.5z" />
    <glyph glyph-name="trademark" unicode="&#x2122;" horiz-adv-x="735" 
d="M647 663v-306h-54v209l-87 -124h-11l-87 124v-209h-54v306h48l98 -141l99 141h48zM289 607h-83v-250h-54v250h-85v56h222v-56z" />
    <glyph glyph-name="Omega" unicode="&#x2126;" horiz-adv-x="726" 
d="M644 78v-78h-236v80q69 27 113.5 101.5t44.5 168.5q0 114 -55.5 181t-148.5 67q-91 0 -146.5 -67.5t-55.5 -180.5q0 -97 42.5 -170t112.5 -100v-80h-233v78h117q-62 35 -97.5 114t-35.5 175q0 143 83 233t213 90q132 0 215.5 -90t83.5 -233q0 -94 -37 -173.5t-96 -115.5
h116z" />
    <glyph glyph-name="estimated" unicode="&#x212e;" horiz-adv-x="674" 
d="M527 145h66q-30 -73 -93 -115t-157 -42q-93 0 -157.5 45t-92.5 112.5t-28 148.5q0 82 28 149.5t92.5 112.5t157.5 45q71 0 126 -25.5t87.5 -69.5t49 -98t16.5 -114v-26h-431v-169q58 -58 152 -58q129 0 184 104zM191 320h304v170q-56 58 -152 58t-152 -58v-170z" />
    <glyph glyph-name="onethird" unicode="&#x2153;" horiz-adv-x="716" 
d="M143 8l314 672h57v-8l-313 -672h-58v8zM29 611l123 73h40v-327h-55v262l-86 -51zM486 190h67q24 0 36.5 13t12.5 32q0 46 -57 46q-43 0 -80 -21l-12 49q45 21 97 21t80.5 -23t28.5 -66q0 -55 -48 -72q58 -15 58 -82q0 -43 -31.5 -68.5t-87.5 -25.5q-46 0 -98 21l14 48
q38 -19 81 -19q29 0 46.5 14.5t17.5 38.5q0 45 -58 45h-67v49z" />
    <glyph glyph-name="twothirds" unicode="&#x2154;" horiz-adv-x="777" 
d="M209 8l314 672h57v-8l-313 -672h-58v8zM553 190h67q24 0 36.5 13t12.5 32q0 46 -57 46q-43 0 -80 -21l-12 49q45 21 97 21t80.5 -23t28.5 -66q0 -55 -48 -72q58 -15 58 -82q0 -43 -31.5 -68.5t-87.5 -25.5q-45 0 -98 21l14 48q38 -19 81 -19q29 0 46.5 14.5t17.5 38.5
q0 45 -58 45h-67v49zM52 358v43l110 99q43 37 43 79q0 25 -14 41.5t-39 16.5q-28 0 -42 -19.5t-14 -52.5l-52 9q2 53 31 84.5t80 31.5t78.5 -29.5t27.5 -76.5q0 -63 -59 -114l-71 -62h137v-50h-216z" />
    <glyph glyph-name="oneeighth" unicode="&#x215b;" horiz-adv-x="714" 
d="M143 8l314 672h57v-8l-313 -672h-58v8zM548 -5q-57 0 -88.5 25.5t-31.5 68.5q0 68 65 82q-24 5 -39.5 25.5t-15.5 46.5q0 43 28.5 66t81.5 23t81.5 -23t28.5 -66q0 -26 -15 -46.5t-40 -25.5q65 -14 65 -82q0 -43 -31.5 -68.5t-88.5 -25.5zM548 149q-63 0 -63 -51
q0 -25 17.5 -40.5t45.5 -15.5t46 15.5t18 40.5q0 23 -16 37t-48 14zM548 286q-25 0 -40 -12.5t-15 -35.5q0 -21 14 -35t41 -14t41 14t14 35q0 48 -55 48zM29 611l123 73h40v-327h-55v262l-86 -51z" />
    <glyph glyph-name="threeeighths" unicode="&#x215c;" horiz-adv-x="762" 
d="M196 8l314 672h57v-8l-313 -672h-58v8zM600 -5q-57 0 -88.5 25.5t-31.5 68.5q0 68 65 82q-24 5 -39.5 25.5t-15.5 46.5q0 43 28.5 66t81.5 23t81.5 -23t28.5 -66q0 -26 -15 -46.5t-40 -25.5q65 -14 65 -82q0 -43 -31.5 -68.5t-88.5 -25.5zM600 149q-63 0 -63 -51
q0 -25 17.5 -40.5t45.5 -15.5t46 15.5t18 40.5q0 23 -16 37t-48 14zM600 286q-25 0 -40 -12.5t-15 -35.5q0 -21 14 -35t41 -14t41 14t14 35q0 48 -55 48zM78 550h67q24 0 36.5 13t12.5 32q0 45 -57 45q-43 0 -80 -20l-12 49q45 21 97 21t80.5 -23.5t28.5 -66.5
q0 -54 -48 -71q58 -15 58 -82q0 -44 -31 -69t-88 -25q-48 0 -98 20l14 48q38 -19 81 -19q29 0 46.5 14.5t17.5 39.5q0 45 -58 45h-67v49z" />
    <glyph glyph-name="fiveeighths" unicode="&#x215d;" horiz-adv-x="761" 
d="M599 -5q-57 0 -88.5 25.5t-31.5 68.5q0 68 65 82q-24 5 -39.5 25.5t-15.5 46.5q0 43 28.5 66t81.5 23t81.5 -23t28.5 -66q0 -26 -15 -46.5t-40 -25.5q65 -14 65 -82q0 -43 -31.5 -68.5t-88.5 -25.5zM195 8l314 672h57v-8l-313 -672h-58v8zM59 513l-2 2l12 169h182v-50
h-135l-5 -77h32q117 0 117 -93q0 -56 -33 -84t-88 -28q-52 0 -98 23l15 47q40 -20 80 -20q29 0 48.5 15t19.5 45q0 51 -64 51h-81zM599 149q-63 0 -63 -51q0 -25 17.5 -40.5t45.5 -15.5t46 15.5t18 40.5q0 23 -16 37t-48 14zM599 286q-25 0 -40 -12.5t-15 -35.5
q0 -21 14 -35t41 -14t41 14t14 35q0 48 -55 48z" />
    <glyph glyph-name="seveneighths" unicode="&#x215e;" horiz-adv-x="710" 
d="M143 8l314 672h57v-8l-313 -672h-58v8zM548 -5q-57 0 -88.5 25.5t-31.5 68.5q0 68 65 82q-24 5 -39.5 25.5t-15.5 46.5q0 43 28.5 66t81.5 23t81.5 -23t28.5 -66q0 -26 -15 -46.5t-40 -25.5q65 -14 65 -82q0 -43 -31.5 -68.5t-88.5 -25.5zM548 149q-63 0 -63 -51
q0 -25 17.5 -40.5t45.5 -15.5t46 15.5t18 40.5q0 23 -16 37t-48 14zM548 286q-25 0 -40 -12.5t-15 -35.5q0 -21 14 -35t41 -14t41 14t14 35q0 48 -55 48zM67 362l114 272h-148v50h210v-40l-116 -287h-60v5z" />
    <glyph glyph-name="arrowleft" unicode="&#x2190;" horiz-adv-x="721" 
d="M321 547l50 -52l-170 -159h448v-74h-447l168 -162l-48 -51l-251 251z" />
    <glyph glyph-name="arrowup" unicode="&#x2191;" horiz-adv-x="721" 
d="M361 586l247 -249l-52 -50l-159 169v-447h-73v447l-163 -169l-50 49z" />
    <glyph glyph-name="arrowright" unicode="&#x2192;" horiz-adv-x="721" 
d="M399 547l250 -251l-249 -247l-51 53l170 159h-448v73h448l-169 163z" />
    <glyph glyph-name="arrowdown" unicode="&#x2193;" horiz-adv-x="721" 
d="M396 586v-446l162 168l50 -48l-250 -251l-247 250l52 49l159 -170v448h74z" />
    <glyph glyph-name="uni2196" unicode="&#x2196;" horiz-adv-x="721" 
d="M508 502l-1 -72l-233 7l317 -317l-52 -52l-316 316l5 -233l-71 -2v355z" />
    <glyph glyph-name="uni2197" unicode="&#x2197;" horiz-adv-x="721" 
d="M565 501l-2 -351q-12 0 -35.5 0.5t-35.5 0.5l7 233l-317 -317l-52 51l316 317l-234 -4q0 11 -0.5 34.5t-0.5 35.5h354z" />
    <glyph glyph-name="uni2198" unicode="&#x2198;" horiz-adv-x="721" 
d="M563 447l1 -354l-352 1l2 73l233 -8l-317 317l51 52l316 -316l-4 234z" />
    <glyph glyph-name="uni2199" unicode="&#x2199;" horiz-adv-x="721" 
d="M538 528l52 -51l-317 -317l234 5l2 -70l-355 -1l2 352l72 -2l-8 -232z" />
    <glyph glyph-name="partialdiff" unicode="&#x2202;" horiz-adv-x="540" 
d="M195 657l38 63q100 -27 172.5 -130t72.5 -249q0 -165 -61.5 -258t-173.5 -93q-88 0 -144.5 66.5t-56.5 174.5q0 101 48 161.5t133 60.5q89 0 157 -91q-5 111 -59.5 188t-125.5 107zM247 80q55 0 88.5 50.5t42.5 144.5q-57 97 -130 97q-50 0 -80 -36.5t-30 -105.5
q0 -66 30.5 -108t78.5 -42z" />
    <glyph glyph-name="Delta" unicode="&#x2206;" horiz-adv-x="636" 
d="M29 0l236 680h113l228 -680h-577zM321 582l-169 -507h331z" />
    <glyph glyph-name="product" unicode="&#x220f;" horiz-adv-x="635" 
d="M185 -188h-91v868h447v-868h-93v781h-263v-781z" />
    <glyph glyph-name="summation" unicode="&#x2211;" horiz-adv-x="474" 
d="M56 0v55l164 286l-166 286v53h366v-79h-249l145 -261l-143 -262h247v-78h-364z" />
    <glyph glyph-name="minus" unicode="&#x2212;" 
d="M55 342h400v-79h-400v79z" />
    <glyph glyph-name="uni2215" unicode="&#x2215;" horiz-adv-x="363" 
d="M-4 8l314 672h57v-8l-313 -672h-58v8z" />
    <glyph glyph-name="uni2219" unicode="&#x2219;" horiz-adv-x="265" 
d="M69 297q0 32 16.5 50t46.5 18q31 0 48 -18t17 -50q0 -33 -17 -50.5t-48 -17.5q-63 0 -63 68z" />
    <glyph glyph-name="radical" unicode="&#x221a;" horiz-adv-x="550" 
d="M167 454l142 -345l155 593l55 -19l-187 -683h-64l-144 346l-79 -49l-33 66z" />
    <glyph glyph-name="infinity" unicode="&#x221e;" horiz-adv-x="817" 
d="M137 299q0 -45 26 -70t67 -25q44 0 88 49l43 46l-43 47q-43 49 -88 49q-41 0 -67 -25t-26 -71zM409 252l-45 -47q-70 -72 -145 -72q-66 0 -111 45.5t-45 120.5q0 76 44.5 121.5t111.5 45.5q76 0 145 -72l45 -47l45 47q70 72 144 72q67 0 111.5 -45.5t44.5 -121.5
q0 -75 -45 -120.5t-111 -45.5q-75 0 -145 72zM680 299q0 46 -25.5 71t-66.5 25q-44 0 -88 -49l-43 -47l43 -46q43 -49 88 -49q40 0 66 25t26 70z" />
    <glyph glyph-name="integral" unicode="&#x222b;" horiz-adv-x="403" 
d="M10 -159l17 82q29 -33 66 -33q59 0 59 75v591q0 77 33.5 120.5t99.5 43.5q28 0 58 -12t48 -27l-17 -82q-31 33 -66 33q-59 0 -59 -73v-591q0 -78 -33.5 -122t-99.5 -44q-28 0 -58.5 12.5t-47.5 26.5z" />
    <glyph glyph-name="approxequal" unicode="&#x2248;" 
d="M434 484l25 -61q-37 -60 -103 -60q-35 0 -103.5 30t-96.5 30q-55 0 -83 -42l-23 63q35 59 102 59q37 0 107 -30.5t93 -30.5q51 0 82 42zM433 212l26 -61q-38 -61 -104 -61q-35 0 -103.5 30t-96.5 30q-56 0 -82 -42l-23 64q33 58 101 58q37 0 107 -30t93 -30q53 0 82 42z
" />
    <glyph glyph-name="notequal" unicode="&#x2260;" 
d="M137 41l25 82h-107v78h131l63 203h-194v78h219l35 113l58 -22l-29 -91h117v-78h-141l-64 -203h205v-78h-229l-32 -103z" />
    <glyph glyph-name="lessequal" unicode="&#x2264;" 
d="M55 148h399v-79h-399v79zM55 375v77l392 172h8v-73l-311 -136l311 -135v-74h-8z" />
    <glyph glyph-name="greaterequal" unicode="&#x2265;" 
d="M55 148h400v-79h-400v79zM455 452v-77l-393 -169h-7v74l310 135l-310 136v73h7z" />
    <glyph glyph-name="lozenge" unicode="&#x25ca;" horiz-adv-x="494" 
d="M458 331l-180 -331h-62l-179 331l179 349h62zM376 330l-129 263l-128 -263l128 -247z" />
    <glyph glyph-name="uniF8FF" unicode="&#xf8ff;" horiz-adv-x="612" 
d="M50 720h512v-720h-512v720zM266 283h48q0 26 14 47t34 36t40 29.5t34 36t14 48.5q0 51 -36.5 85t-101.5 34q-39 0 -67 -14.5t-41.5 -37t-19 -43.5t-5.5 -41h47q0 40 21 66.5t65 26.5q41 0 64 -21.5t23 -54.5q0 -23 -21 -45t-45.5 -38t-45.5 -46t-21 -68zM255 194v-71h68
v71h-68z" />
    <glyph glyph-name="fi" unicode="&#xfb01;" horiz-adv-x="672" 
d="M36 416v78h85v56q0 170 150 170q65 0 112 -36l-24 -83q-37 32 -73 32q-69 0 -69 -79v-60h147v-78h-147v-416h-96v416h-85zM452 674q0 56 61 56q58 0 58 -56q0 -57 -58 -57q-61 0 -61 57zM463 523h97v-401q0 -48 34 -48q21 0 46 18l6 -77q-36 -25 -86 -25q-49 0 -73 25.5
t-24 81.5v426z" />
    <glyph glyph-name="fl" unicode="&#xfb02;" horiz-adv-x="676" 
d="M36 416v78h85v56q0 170 150 170q65 0 112 -36l-24 -83q-37 32 -73 32q-69 0 -69 -79v-60h147v-78h-147v-416h-96v416h-85zM461 710h97v-578q0 -32 10.5 -45t31.5 -13q27 0 54 18l6 -77q-44 -25 -94 -25q-53 0 -79 27.5t-26 90.5v602z" />
    <glyph glyph-name="Imacron" horiz-adv-x="292" 
d="M97 0v680h98v-680h-98zM252 782h-211v69h211v-69z" />
    <glyph glyph-name="ibreve" horiz-adv-x="291" 
d="M81 523h96v-401q0 -48 35 -48q21 0 46 18l6 -77q-36 -25 -86 -25t-73.5 25.5t-23.5 81.5v426zM10 682l26 40q34 -51 94 -51q61 0 94 51l26 -40q-42 -79 -119 -79q-81 0 -121 79z" />
    <glyph glyph-name="commaaccent" 
d="M224 -242l20 68q-46 6 -46 52q0 27 15 42t39 15q31 0 47.5 -17t16.5 -47q0 -62 -45 -131z" />
    <glyph glyph-name="commaaccent.alt" 
d="M284 760l-19 -68q22 -3 34 -17t12 -35q0 -27 -15.5 -42t-39.5 -15q-30 0 -46.5 17t-16.5 47q0 68 44 131z" />
    <glyph glyph-name="zero.tf" 
d="M32 339q0 165 54 258t168 93q115 0 169.5 -93t54.5 -258q0 -163 -54.5 -256t-169.5 -93q-114 0 -168 93t-54 256zM126 339q0 -127 30 -192t98 -65q69 0 99.5 64.5t30.5 192.5q0 129 -30.5 195t-99.5 66q-68 0 -98 -66t-30 -195z" />
    <glyph glyph-name="one.tf" 
d="M469 0h-422v86h183v486l-156 -90l-33 79l213 119h72v-594h143v-86z" />
    <glyph glyph-name="two.tf" 
d="M54 0v75l209 216q48 49 70 90.5t22 92.5q0 57 -28.5 91.5t-83.5 34.5q-114 0 -116 -152l-87 12q2 107 56.5 168.5t152.5 61.5q100 0 153 -59t53 -153q0 -63 -31 -118.5t-93 -119.5l-151 -154h289v-86h-415z" />
    <glyph glyph-name="three.tf" 
d="M112 388h134q48 0 75 32t27 77q0 51 -35 80t-90 29q-43 0 -85.5 -14.5t-67.5 -30.5l-23 82q31 17 81.5 32t100.5 15q104 0 160 -47.5t56 -134.5q0 -56 -27.5 -99t-74.5 -54q57 -13 89 -56t32 -110q0 -94 -61.5 -146.5t-173.5 -52.5q-85 0 -182 45l24 82q77 -43 157 -43
q61 0 99 33.5t38 91.5q0 54 -30.5 84t-88.5 30h-134v75z" />
    <glyph glyph-name="four.tf" 
d="M483 141h-68v-141h-96v141h-293v66l262 473h127v-465h68v-74zM120 215h199v372z" />
    <glyph glyph-name="five.tf" 
d="M77 335l-5 5l25 340h353v-86h-271l-13 -185h74q228 0 228 -190q0 -115 -65 -172t-171 -57q-97 0 -191 47l25 83q81 -46 160 -46q62 0 102.5 35t40.5 107q0 119 -140 119h-152z" />
    <glyph glyph-name="six.tf" 
d="M450 632l-28 -79q-60 53 -140 53q-69 0 -106.5 -63.5t-41.5 -180.5q67 91 159 91q84 0 132 -59.5t48 -162.5q0 -110 -57 -175.5t-146 -65.5q-112 0 -173 93t-61 258q0 160 62 254.5t174 94.5q55 0 104 -18t74 -40zM265 372q-70 0 -128 -101q17 -191 129 -191
q49 0 80 42.5t31 108.5q0 70 -30.5 105.5t-81.5 35.5z" />
    <glyph glyph-name="seven.tf" 
d="M117 9l239 585h-311v86h419v-71l-240 -609h-107v9z" />
    <glyph glyph-name="eight.tf" 
d="M255 -10q-105 0 -163 52t-58 143q0 135 124 170q-47 12 -76.5 55t-29.5 98q0 88 52.5 135t150.5 47t150.5 -47t52.5 -135q0 -55 -29.5 -98t-76.5 -55q124 -36 124 -170q0 -91 -58 -143t-163 -52zM256 318q-125 0 -125 -119q0 -62 34.5 -95.5t89.5 -33.5t89.5 33.5
t34.5 95.5q0 119 -123 119zM255 611q-50 0 -80 -28.5t-30 -83.5q0 -49 27 -80t84 -31q55 0 82 31t27 80q0 55 -30 83.5t-80 28.5z" />
    <glyph glyph-name="nine.tf" 
d="M59 48l28 79q60 -53 140 -53q68 0 105 61t42 174q-64 -82 -159 -82q-83 0 -131 59.5t-48 162.5q0 110 57 175.5t146 65.5q112 0 173 -93t61 -258q0 -160 -62 -254.5t-174 -94.5q-55 0 -104 18t-74 40zM244 308q71 0 129 92q-16 200 -130 200q-49 0 -80 -42.5t-31 -108.5
q0 -70 30.5 -105.5t81.5 -35.5z" />
    <glyph glyph-name="Euro.tf" 
d="M369 366h-200v-24q0 -27 1 -40h178l-20 -61h-151q13 -78 49.5 -119t91.5 -41q67 0 121 43l36 -77q-77 -57 -169 -57q-90 0 -150.5 65.5t-78.5 185.5h-47v61h41q-1 13 -1 40v24h-40v61h45q16 127 77 195t156 68q105 0 170 -65l-34 -78q-50 53 -126 53q-57 0 -94.5 -43
t-49.5 -130h218z" />
    <glyph glyph-name="cent.tf" 
d="M430 134l36 -76q-80 -72 -187 -72q-21 0 -41 3l-29 -125l-56 16l28 122q-71 28 -106.5 95.5t-35.5 162.5q0 121 64.5 199t169.5 78q23 0 33 -2l26 108l57 -17l-25 -106q89 -37 116 -160l-73 -31q-16 79 -63 109l-86 -367q18 -2 29 -2q74 0 143 65zM129 263
q0 -125 73 -172l86 365q-2 0 -7 0.5t-7 0.5q-66 0 -105.5 -54t-39.5 -140z" />
    <glyph glyph-name="sterling.tf" 
d="M389 316h-167q13 -87 13 -136q0 -20 -1 -30q8 -6 30.5 -27t42 -35t35.5 -14q61 0 61 128v16h82q1 -13 1 -38q0 -190 -121 -190q-27 0 -54 16.5t-58 45t-39 34.5q-17 -47 -41 -71.5t-65 -24.5q-40 0 -62.5 27.5t-22.5 72.5q0 43 24.5 70.5t63.5 27.5q23 0 41 -11v8
q0 35 -20 131h-81v62h69q-11 57 -11 116q0 87 45 141.5t131 54.5q54 0 100.5 -22.5t72.5 -49.5l-31 -84q-56 66 -125 66q-47 0 -71.5 -35t-24.5 -93q0 -38 7 -94h176v-62zM117 131q-18 0 -29 -12t-11 -33q0 -40 29 -40q35 0 43 73q-14 12 -32 12z" />
    <glyph glyph-name="florin.tf" horiz-adv-x="397" 
d="M363 316h-124v-348q0 -78 -33.5 -122t-99.5 -44q-28 0 -58 12t-47 27l16 82q29 -33 66 -33q60 0 60 75v351h-119v62h119v178q0 77 33 120.5t99 43.5q28 0 58.5 -12.5t47.5 -26.5l-16 -82q-31 33 -67 33q-59 0 -59 -73v-181h124v-62z" />
    <glyph glyph-name="yen.tf" 
d="M437 139h-136v-139h-97v139h-135v61h135v65h-135v62h113l-155 345v8h100l126 -320l129 320h100v-8l-160 -345h115v-62h-136v-65h136v-61z" />
    <glyph glyph-name="dollar.tf" 
d="M223 -129v120q-103 5 -180 54l23 92q73 -52 157 -57v227l-58 18q-131 39 -131 167q0 74 49.5 128.5t139.5 65.5v84h60v-81q105 -4 183 -50l-28 -88q-61 42 -155 47v-215l38 -12q79 -25 117 -66t38 -108q0 -83 -52.5 -138.5t-140.5 -65.5v-122h-60zM375 191
q0 37 -22.5 59.5t-69.5 37.5v-204q42 9 67 36.5t25 70.5zM130 498q0 -68 79 -92l14 -5v194q-46 -9 -69.5 -34.5t-23.5 -62.5z" />
    <glyph glyph-name="zero.denom" horiz-adv-x="325" 
d="M39 163q0 79 31.5 124t91.5 45q61 0 92.5 -45t31.5 -124q0 -78 -31.5 -123t-92.5 -45q-60 0 -91.5 45.5t-31.5 122.5zM94 163q0 -114 68 -114q70 0 70 114q0 117 -70 117q-68 0 -68 -117z" />
    <glyph glyph-name="one.denom" horiz-adv-x="234" 
d="M14 253l122 74h41v-327h-56v262l-85 -52z" />
    <glyph glyph-name="two.denom" horiz-adv-x="296" 
d="M43 0v44l110 98q43 37 43 79q0 26 -14 42.5t-39 16.5q-27 0 -41.5 -20t-14.5 -53l-52 9q2 53 31 84.5t80 31.5t78.5 -29.5t27.5 -76.5q0 -63 -59 -114l-71 -62h137v-50h-216z" />
    <glyph glyph-name="three.denom" horiz-adv-x="291" 
d="M69 192h67q24 0 36.5 13t12.5 32q0 46 -57 46q-43 0 -80 -21l-12 49q45 21 97 21t80.5 -23t28.5 -66q0 -55 -48 -72q58 -15 58 -82q0 -43 -31.5 -68.5t-87.5 -25.5q-45 0 -98 21l14 48q38 -19 81 -19q29 0 46.5 14.5t17.5 38.5q0 45 -58 45h-67v49z" />
    <glyph glyph-name="four.denom" horiz-adv-x="312" 
d="M286 64h-51v-64h-56v64h-157v39l141 224l16 -1v1h56v-219h51v-44zM79 108h100v160z" />
    <glyph glyph-name="five.denom" horiz-adv-x="288" 
d="M50 156l-2 2l12 169h181v-50h-134l-5 -77h33q117 0 117 -94q0 -55 -33.5 -83t-88.5 -28q-51 0 -98 22l15 48q40 -20 80 -20q67 0 67 60q0 51 -63 51h-81z" />
    <glyph glyph-name="six.denom" horiz-adv-x="314" 
d="M175 283q-77 0 -80 -106q33 39 80 39q50 0 77 -27.5t27 -77.5q0 -52 -31 -84t-80 -32q-61 0 -95 46t-34 123q0 76 34.5 122t95.5 46q59 0 98 -27l-16 -47q-34 25 -76 25zM167 172q-38 0 -70 -39q10 -85 71 -85q25 0 40 18t15 45q0 61 -56 61z" />
    <glyph glyph-name="seven.denom" horiz-adv-x="253" 
d="M57 5l114 272h-147v50h209v-40l-115 -287h-61v5z" />
    <glyph glyph-name="eight.denom" horiz-adv-x="318" 
d="M159 -5q-57 0 -88.5 25.5t-31.5 68.5q0 68 65 82q-24 5 -39.5 25.5t-15.5 46.5q0 43 28.5 66t81.5 23t81.5 -23t28.5 -66q0 -26 -15 -46.5t-40 -25.5q65 -14 65 -82q0 -43 -31.5 -68.5t-88.5 -25.5zM159 149q-63 0 -63 -51q0 -25 17.5 -40.5t45.5 -15.5t46 15.5t18 40.5
q0 23 -16 37t-48 14zM159 286q-25 0 -40 -12.5t-15 -35.5q0 -21 14 -35t41 -14t41 14t14 35q0 48 -55 48z" />
    <glyph glyph-name="nine.denom" horiz-adv-x="314" 
d="M47 22l16 48q36 -25 76 -25q76 0 81 107q-34 -41 -81 -41q-50 0 -77 27.5t-27 77.5q0 52 31.5 84t80.5 32q61 0 94.5 -45.5t33.5 -123.5q0 -76 -34 -122t-95 -46q-53 0 -99 27zM146 155q40 0 72 39q-12 86 -71 86q-25 0 -40.5 -18.5t-15.5 -45.5q0 -30 15 -45.5t40 -15.5
z" />
    <glyph glyph-name="zero.num" horiz-adv-x="325" 
d="M40 516q0 78 31.5 123.5t91.5 45.5q61 0 92 -45.5t31 -123.5t-31 -123t-92 -45q-60 0 -91.5 45t-31.5 123zM94 516q0 -116 69 -116t69 116t-69 116t-69 -116z" />
    <glyph glyph-name="one.num" horiz-adv-x="234" 
d="M13 607l123 73h40v-327h-55v262l-86 -51z" />
    <glyph glyph-name="two.num" horiz-adv-x="296" 
d="M43 353v43l110 99q43 37 43 79q0 25 -14 41.5t-39 16.5q-28 0 -42 -19.5t-14 -52.5l-52 9q2 53 31 84.5t80 31.5t78.5 -29.5t27.5 -76.5q0 -63 -59 -114l-71 -62h137v-50h-216z" />
    <glyph glyph-name="three.num" horiz-adv-x="291" 
d="M69 545h67q24 0 36.5 13t12.5 32q0 45 -57 45q-42 0 -80 -20l-12 49q45 21 97 21t80.5 -23.5t28.5 -66.5q0 -54 -48 -71q58 -14 58 -82q0 -44 -31 -69t-88 -25q-48 0 -98 20l14 48q38 -19 81 -19q29 0 46.5 14.5t17.5 39.5q0 45 -58 45h-67v49z" />
    <glyph glyph-name="four.num" horiz-adv-x="312" 
d="M286 418h-51v-65h-56v65h-158v38l141 224l17 -1v1h56v-219h51v-43zM79 461h100v162z" />
    <glyph glyph-name="five.num" horiz-adv-x="288" 
d="M50 509l-2 2l12 169h182v-50h-135l-5 -77h32q117 0 117 -93q0 -56 -33 -84t-88 -28q-52 0 -98 23l15 47q40 -20 80 -20q29 0 48.5 15t19.5 45q0 51 -64 51h-81z" />
    <glyph glyph-name="six.num" horiz-adv-x="314" 
d="M267 658l-16 -48q-34 25 -76 25q-75 0 -80 -105q33 39 80 39q50 0 77 -27.5t27 -77.5q0 -53 -31 -84.5t-80 -31.5q-61 0 -95 45.5t-34 123.5q0 76 34.5 122t95.5 46q55 0 98 -27zM167 525q-38 0 -70 -39q10 -86 71 -86q25 0 40 18.5t15 45.5q0 61 -56 61z" />
    <glyph glyph-name="seven.num" horiz-adv-x="254" 
d="M57 358l114 272h-148v50h210v-40l-116 -287h-60v5z" />
    <glyph glyph-name="eight.num" horiz-adv-x="317" 
d="M159 348q-57 0 -88.5 25t-31.5 69q0 68 65 82q-24 5 -39.5 25.5t-15.5 45.5q0 44 28.5 67t81.5 23t81.5 -23t28.5 -67q0 -25 -15 -45.5t-40 -25.5q65 -14 65 -82q0 -44 -31.5 -69t-88.5 -25zM159 502q-31 0 -47 -14.5t-16 -36.5q0 -25 17.5 -41t45.5 -16q29 0 46.5 16
t17.5 41q0 22 -16.5 36.5t-47.5 14.5zM159 638q-25 0 -40 -12.5t-15 -35.5q0 -20 14 -34t41 -14t41 14t14 34q0 48 -55 48z" />
    <glyph glyph-name="nine.num" horiz-adv-x="315" 
d="M140 397q78 0 81 108q-34 -41 -82 -41q-49 0 -76 27t-27 77q0 52 31.5 84.5t80.5 32.5q61 0 94.5 -46t33.5 -123q0 -76 -34 -122t-95 -46q-60 0 -99 27l16 47q36 -25 76 -25zM147 508q40 0 72 39q-12 85 -71 85q-25 0 -41 -18.5t-16 -45.5q0 -30 15 -45t41 -15z" />
    <glyph glyph-name="parenleft.case" horiz-adv-x="278" 
d="M185 796l56 -34q-40 -65 -71.5 -173.5t-31.5 -247.5q0 -138 31.5 -247t71.5 -173l-56 -34q-47 55 -89.5 175.5t-42.5 279.5t42.5 279t89.5 175z" />
    <glyph glyph-name="parenright.case" horiz-adv-x="278" 
d="M37 762l56 34q47 -55 89.5 -175t42.5 -279t-42.5 -279.5t-89.5 -175.5l-56 34q40 64 71.5 173t31.5 247q0 139 -31.5 247.5t-71.5 173.5z" />
    <glyph glyph-name="hyphen.case" horiz-adv-x="480" 
d="M74 382h332v-79h-332v79z" />
    <glyph glyph-name="bracketleft.case" horiz-adv-x="308" 
d="M274 -108h-188v898h188v-79h-110v-740h110v-79z" />
    <glyph glyph-name="bracketright.case" horiz-adv-x="308" 
d="M34 790h188v-898h-188v79h110v740h-110v79z" />
    <glyph glyph-name="braceleft.case" horiz-adv-x="293" 
d="M222 -44h23v-71h-39q-63 0 -94 32t-31 87q0 36 24 114.5t24 120.5q0 36 -20.5 52.5t-66.5 16.5v61q87 0 87 73q0 42 -24 120t-24 113q0 52 31 83.5t94 31.5h39v-71h-23q-33 0 -48.5 -18t-15.5 -46t24 -106t24 -119q0 -76 -69 -92q69 -16 69 -93q0 -41 -24 -118.5
t-24 -105.5q0 -65 64 -65z" />
    <glyph glyph-name="bar.case" horiz-adv-x="249" 
d="M86 -108v898h77v-898h-77z" />
    <glyph glyph-name="braceright.case" horiz-adv-x="294" 
d="M88 -115h-40v71h25q31 0 47 18t16 47q0 28 -24 105.5t-24 118.5q0 78 69 93q-69 15 -69 92q0 41 24 119t24 106t-16 46t-47 18h-25v71h40q62 0 93 -31.5t31 -83.5q0 -35 -23.5 -113t-23.5 -120q0 -73 87 -73v-61q-46 0 -66.5 -16.5t-20.5 -52.5q0 -42 23.5 -120.5
t23.5 -114.5q0 -55 -30.5 -87t-93.5 -32z" />
    <glyph glyph-name="guilsinglleft.case" horiz-adv-x="276" 
d="M40 332v20l136 201h8l35 -23l-98 -188l98 -188l-35 -23h-8z" />
    <glyph glyph-name="guilsinglright.case" horiz-adv-x="276" 
d="M236 352v-20l-137 -201h-7l-35 23l97 188l-98 188l36 23h7z" />
    <glyph glyph-name="guillemotleft.case" horiz-adv-x="465" 
d="M40 332v20l136 201h8l35 -23l-98 -188l98 -188l-35 -23h-8zM229 332v20l137 201h7l35 -23l-97 -188l98 -188l-36 -23h-7z" />
    <glyph glyph-name="guillemotright.case" horiz-adv-x="466" 
d="M236 352v-20l-137 -201h-7l-35 23l97 188l-98 188l36 23h7zM425 352v-20l-136 -201h-8l-35 23l98 188l-98 188l35 23h8z" />
    <glyph glyph-name="endash.case" horiz-adv-x="560" 
d="M74 382h412v-79h-412v79z" />
    <glyph glyph-name="emdash.case" horiz-adv-x="766" 
d="M74 382h618v-79h-618v79z" />
    <glyph glyph-name="bullet.case" horiz-adv-x="313" 
d="M66 342q0 50 23.5 76.5t66.5 26.5q44 0 67.5 -27t23.5 -76q0 -50 -23.5 -76.5t-67.5 -26.5t-67 26.5t-23 76.5z" />
    <glyph glyph-name="periodcentered.case" horiz-adv-x="264" 
d="M68 337q0 32 16.5 50t46.5 18q31 0 48 -18t17 -50q0 -33 -17 -50.5t-48 -17.5q-63 0 -63 68z" />
    <glyph glyph-name="g.alt" horiz-adv-x="568" 
d="M48 299q0 103 54.5 168t155.5 65q36 0 73 -14.5t59 -38.5v44h97v-456q0 -123 -63.5 -194t-150.5 -71q-68 0 -108 36.5t-40 98.5q0 50 24 86.5t71 48.5q-76 10 -124 67t-48 160zM147 299q0 -78 39.5 -114.5t97.5 -36.5h106v246q-17 21 -47.5 36.5t-61.5 15.5
q-63 0 -98.5 -41t-35.5 -106zM390 37v29h-55q-60 0 -98 -26t-38 -78q0 -35 22 -55.5t57 -20.5q48 0 80 43t32 108z" />
    <glyph glyph-name="y.alt" horiz-adv-x="512" 
d="M26 -79q0 61 44.5 98.5t126.5 42.5l-169 461h100l136 -417l132 416q16 0 49 0.5t49 0.5l-178 -527q-36 -108 -74 -151t-100 -43q-52 0 -84 31.5t-32 87.5zM139 -114q28 0 45 23.5t36 83.5l5 15q-70 0 -102.5 -16t-32.5 -55q0 -23 13.5 -37t35.5 -14z" />
    <glyph glyph-name="asterisk.alt" horiz-adv-x="424" 
d="M89 403l67 109l-114 30l20 67l117 -39l-6 130h78l-6 -131l117 40l20 -67l-116 -32l69 -107l-59 -36l-64 112l-64 -112z" />
    <glyph glyph-name="a.alt" horiz-adv-x="543" 
d="M441 -10q-61 0 -83 51q-62 -51 -154 -51q-77 0 -120.5 42.5t-43.5 115.5q0 90 65 137t171 47q36 0 71 -8v21q0 56 -24.5 78t-78.5 22q-74 0 -144 -35l-16 86q31 15 85 25.5t102 10.5q90 0 131.5 -44.5t41.5 -132.5v-230q0 -51 35 -51q19 0 47 19l6 -78q-38 -25 -91 -25z
M139 156q0 -38 24.5 -59.5t65.5 -21.5q70 0 118 46v126q-24 8 -66 8q-66 0 -104 -25.5t-38 -73.5z" />
    <glyph glyph-name="agrave.alt" horiz-adv-x="543" 
d="M441 -10q-61 0 -83 51q-62 -51 -154 -51q-77 0 -120.5 42.5t-43.5 115.5q0 90 65 137t171 47q36 0 71 -8v21q0 56 -24.5 78t-78.5 22q-74 0 -144 -35l-16 86q31 15 85 25.5t102 10.5q90 0 131.5 -44.5t41.5 -132.5v-230q0 -51 35 -51q19 0 47 19l6 -78q-38 -25 -91 -25z
M139 156q0 -38 24.5 -59.5t65.5 -21.5q70 0 118 46v126q-24 8 -66 8q-66 0 -104 -25.5t-38 -73.5zM234 598l-84 143h96l70 -143h-82z" />
    <glyph glyph-name="aacute.alt" horiz-adv-x="543" 
d="M441 -10q-61 0 -83 51q-62 -51 -154 -51q-77 0 -120.5 42.5t-43.5 115.5q0 90 65 137t171 47q36 0 71 -8v21q0 56 -24.5 78t-78.5 22q-74 0 -144 -35l-16 86q31 15 85 25.5t102 10.5q90 0 131.5 -44.5t41.5 -132.5v-230q0 -51 35 -51q19 0 47 19l6 -78q-38 -25 -91 -25z
M139 156q0 -38 24.5 -59.5t65.5 -21.5q70 0 118 46v126q-24 8 -66 8q-66 0 -104 -25.5t-38 -73.5zM378 741l-84 -143h-82l70 143h96z" />
    <glyph glyph-name="acircumflex.alt" horiz-adv-x="543" 
d="M441 -10q-61 0 -83 51q-62 -51 -154 -51q-77 0 -120.5 42.5t-43.5 115.5q0 90 65 137t171 47q36 0 71 -8v21q0 56 -24.5 78t-78.5 22q-74 0 -144 -35l-16 86q31 15 85 25.5t102 10.5q90 0 131.5 -44.5t41.5 -132.5v-230q0 -51 35 -51q19 0 47 19l6 -78q-38 -25 -91 -25z
M139 156q0 -38 24.5 -59.5t65.5 -21.5q70 0 118 46v126q-24 8 -66 8q-66 0 -104 -25.5t-38 -73.5zM327 598l-61 92l-62 -92h-75l89 143h96l89 -143h-76z" />
    <glyph glyph-name="atilde.alt" horiz-adv-x="543" 
d="M441 -10q-61 0 -83 51q-62 -51 -154 -51q-77 0 -120.5 42.5t-43.5 115.5q0 90 65 137t171 47q36 0 71 -8v21q0 56 -24.5 78t-78.5 22q-74 0 -144 -35l-16 86q31 15 85 25.5t102 10.5q90 0 131.5 -44.5t41.5 -132.5v-230q0 -51 35 -51q19 0 47 19l6 -78q-38 -25 -91 -25z
M139 156q0 -38 24.5 -59.5t65.5 -21.5q70 0 118 46v126q-24 8 -66 8q-66 0 -104 -25.5t-38 -73.5zM151 615l-29 41q12 31 36.5 53t52.5 22q32 0 70 -32t57 -32q39 0 59 47l30 -39q-33 -77 -89 -77q-30 0 -70 32.5t-57 32.5q-35 0 -60 -48z" />
    <glyph glyph-name="adieresis.alt" horiz-adv-x="543" 
d="M441 -10q-61 0 -83 51q-62 -51 -154 -51q-77 0 -120.5 42.5t-43.5 115.5q0 90 65 137t171 47q36 0 71 -8v21q0 56 -24.5 78t-78.5 22q-74 0 -144 -35l-16 86q31 15 85 25.5t102 10.5q90 0 131.5 -44.5t41.5 -132.5v-230q0 -51 35 -51q19 0 47 19l6 -78q-38 -25 -91 -25z
M139 156q0 -38 24.5 -59.5t65.5 -21.5q70 0 118 46v126q-24 8 -66 8q-66 0 -104 -25.5t-38 -73.5zM330 672q0 54 57 54q55 0 55 -54t-55 -54q-57 0 -57 54zM114 672q0 54 57 54q55 0 55 -54t-55 -54q-57 0 -57 54z" />
    <glyph glyph-name="amacron.alt" horiz-adv-x="543" 
d="M441 -10q-61 0 -83 51q-62 -51 -154 -51q-77 0 -120.5 42.5t-43.5 115.5q0 90 65 137t171 47q36 0 71 -8v21q0 56 -24.5 78t-78.5 22q-74 0 -144 -35l-16 86q31 15 85 25.5t102 10.5q90 0 131.5 -44.5t41.5 -132.5v-230q0 -51 35 -51q19 0 47 19l6 -78q-38 -25 -91 -25z
M139 156q0 -38 24.5 -59.5t65.5 -21.5q70 0 118 46v126q-24 8 -66 8q-66 0 -104 -25.5t-38 -73.5zM374 625h-211v69h211v-69z" />
    <glyph glyph-name="abreve.alt" horiz-adv-x="543" 
d="M441 -10q-61 0 -83 51q-62 -51 -154 -51q-77 0 -120.5 42.5t-43.5 115.5q0 90 65 137t171 47q36 0 71 -8v21q0 56 -24.5 78t-78.5 22q-74 0 -144 -35l-16 86q31 15 85 25.5t102 10.5q90 0 131.5 -44.5t41.5 -132.5v-230q0 -51 35 -51q19 0 47 19l6 -78q-38 -25 -91 -25z
M139 156q0 -38 24.5 -59.5t65.5 -21.5q70 0 118 46v126q-24 8 -66 8q-66 0 -104 -25.5t-38 -73.5zM149 682l26 40q34 -51 94 -51q61 0 94 51l26 -40q-42 -79 -119 -79q-43 0 -74 23t-47 56z" />
    <glyph glyph-name="aring.alt" horiz-adv-x="543" 
d="M441 -10q-61 0 -83 51q-62 -51 -154 -51q-77 0 -120.5 42.5t-43.5 115.5q0 90 65 137t171 47q36 0 71 -8v21q0 56 -24.5 78t-78.5 22q-74 0 -144 -35l-16 86q31 15 85 25.5t102 10.5q90 0 131.5 -44.5t41.5 -132.5v-230q0 -51 35 -51q19 0 47 19l6 -78q-38 -25 -91 -25z
M139 156q0 -38 24.5 -59.5t65.5 -21.5q70 0 118 46v126q-24 8 -66 8q-66 0 -104 -25.5t-38 -73.5zM167 670q0 40 28.5 69t69.5 29t69.5 -29t28.5 -69t-28.5 -69t-69.5 -29t-69.5 29t-28.5 69zM211 670q0 -22 15.5 -38t38.5 -16q22 0 37.5 16t15.5 38t-15.5 37.5t-37.5 15.5
t-38 -15.5t-16 -37.5z" />
    <glyph glyph-name="aringacute.alt" horiz-adv-x="542" 
d="M441 -10q-61 0 -83 51q-62 -51 -154 -51q-77 0 -120.5 42.5t-43.5 115.5q0 90 65 137t171 47q36 0 71 -8v21q0 56 -24.5 78t-78.5 22q-74 0 -144 -35l-16 86q31 15 85 25.5t102 10.5q90 0 131.5 -44.5t41.5 -132.5v-230q0 -51 35 -51q19 0 47 19l6 -78q-38 -25 -91 -25z
M139 156q0 -38 24.5 -59.5t65.5 -21.5q70 0 118 46v126q-24 8 -66 8q-66 0 -104 -25.5t-38 -73.5zM168 656q0 38 27 60t71 22t71 -22t27 -60q0 -40 -26.5 -61t-71.5 -21t-71.5 21t-26.5 61zM213 656q0 -41 53 -41q54 0 54 41q0 40 -54 40q-53 0 -53 -40zM346 835l-52 -78
h-62l42 78h72z" />
    <glyph glyph-name="aogonek.alt" horiz-adv-x="543" 
d="M370 -86q0 49 43 79q-40 11 -55 48q-62 -51 -154 -51q-77 0 -120.5 42.5t-43.5 115.5q0 90 65 137t171 47q36 0 71 -8v21q0 56 -24.5 78t-78.5 22q-74 0 -144 -35l-16 86q31 15 85 25.5t102 10.5q90 0 131.5 -44.5t41.5 -132.5v-230q0 -51 35 -51q19 0 47 19l6 -78
q-29 -19 -73 -24q-39 -20 -39 -65q0 -26 14 -40.5t36 -14.5q26 0 47 14l10 -47q-34 -16 -71 -16q-38 0 -62 24.5t-24 67.5zM139 156q0 -38 24.5 -59.5t65.5 -21.5q70 0 118 46v126q-24 8 -66 8q-66 0 -104 -25.5t-38 -73.5z" />
    <glyph glyph-name="gcircumflex.alt" horiz-adv-x="568" 
d="M48 299q0 103 54.5 168t155.5 65q36 0 73 -14.5t59 -38.5v44h97v-456q0 -123 -63.5 -194t-150.5 -71q-68 0 -108 36.5t-40 98.5q0 50 24 86.5t71 48.5q-76 10 -124 67t-48 160zM147 299q0 -78 39.5 -114.5t97.5 -36.5h106v246q-17 21 -47.5 36.5t-61.5 15.5
q-63 0 -98.5 -41t-35.5 -106zM390 37v29h-55q-60 0 -98 -26t-38 -78q0 -35 22 -55.5t57 -20.5q48 0 80 43t32 108zM354 598l-61 92l-62 -92h-75l89 143h96l89 -143h-76z" />
    <glyph glyph-name="gbreve.alt" horiz-adv-x="568" 
d="M174 682l26 40q34 -51 94 -51q61 0 94 51l26 -40q-42 -79 -119 -79q-81 0 -121 79zM48 299q0 103 54.5 168t155.5 65q36 0 73 -14.5t59 -38.5v44h97v-456q0 -123 -63.5 -194t-150.5 -71q-68 0 -108 36.5t-40 98.5q0 50 24 86.5t71 48.5q-76 10 -124 67t-48 160zM147 299
q0 -78 39.5 -114.5t97.5 -36.5h106v246q-17 21 -47.5 36.5t-61.5 15.5q-63 0 -98.5 -41t-35.5 -106zM390 37v29h-55q-60 0 -98 -26t-38 -78q0 -35 22 -55.5t57 -20.5q48 0 80 43t32 108z" />
    <glyph glyph-name="gdotaccent.alt" horiz-adv-x="568" 
d="M48 299q0 103 54.5 168t155.5 65q36 0 73 -14.5t59 -38.5v44h97v-456q0 -123 -63.5 -194t-150.5 -71q-68 0 -108 36.5t-40 98.5q0 50 24 86.5t71 48.5q-76 10 -124 67t-48 160zM147 299q0 -78 39.5 -114.5t97.5 -36.5h106v246q-17 21 -47.5 36.5t-61.5 15.5
q-63 0 -98.5 -41t-35.5 -106zM390 37v29h-55q-60 0 -98 -26t-38 -78q0 -35 22 -55.5t57 -20.5q48 0 80 43t32 108zM240 674q0 56 60 56q58 0 58 -56q0 -57 -58 -57q-60 0 -60 57z" />
    <glyph glyph-name="gcommaaccent.alt" horiz-adv-x="568" 
d="M48 299q0 103 54.5 168t155.5 65q36 0 73 -14.5t59 -38.5v44h97v-456q0 -123 -63.5 -194t-150.5 -71q-68 0 -108 36.5t-40 98.5q0 50 24 86.5t71 48.5q-76 10 -124 67t-48 160zM147 299q0 -78 39.5 -114.5t97.5 -36.5h106v246q-17 21 -47.5 36.5t-61.5 15.5
q-63 0 -98.5 -41t-35.5 -106zM390 37v29h-55q-60 0 -98 -26t-38 -78q0 -35 22 -55.5t57 -20.5q48 0 80 43t32 108zM330 772l-19 -68q22 -3 34 -17t12 -35q0 -27 -15.5 -42t-39.5 -15q-30 0 -46.5 17t-16.5 47q0 68 44 131z" />
    <glyph glyph-name="yacute.alt" horiz-adv-x="512" 
d="M387 741l-84 -143h-82l70 143h96zM26 -79q0 61 44.5 98.5t126.5 42.5l-169 461h100l136 -417l132 416q16 0 49 0.5t49 0.5l-178 -527q-36 -108 -74 -151t-100 -43q-52 0 -84 31.5t-32 87.5zM139 -114q28 0 45 23.5t36 83.5l5 15q-70 0 -102.5 -16t-32.5 -55
q0 -23 13.5 -37t35.5 -14z" />
    <glyph glyph-name="ycircumflex.alt" horiz-adv-x="512" 
d="M26 -79q0 61 44.5 98.5t126.5 42.5l-169 461h100l136 -417l132 416q16 0 49 0.5t49 0.5l-178 -527q-36 -108 -74 -151t-100 -43q-52 0 -84 31.5t-32 87.5zM139 -114q28 0 45 23.5t36 83.5l5 15q-70 0 -102.5 -16t-32.5 -55q0 -23 13.5 -37t35.5 -14zM326 598l-61 92
l-62 -92h-75l89 143h96l89 -143h-76z" />
    <glyph glyph-name="ydieresis.alt" horiz-adv-x="512" 
d="M26 -79q0 61 44.5 98.5t126.5 42.5l-169 461h100l136 -417l132 416q16 0 49 0.5t49 0.5l-178 -527q-36 -108 -74 -151t-100 -43q-52 0 -84 31.5t-32 87.5zM139 -114q28 0 45 23.5t36 83.5l5 15q-70 0 -102.5 -16t-32.5 -55q0 -23 13.5 -37t35.5 -14zM110 660q0 50 53 50
q51 0 51 -50t-51 -50q-53 0 -53 50zM326 660q0 50 53 50q51 0 51 -50t-51 -50q-53 0 -53 50z" />
    <glyph glyph-name="ygrave.alt" horiz-adv-x="512" 
d="M235 598l-84 143h96l70 -143h-82zM26 -79q0 61 44.5 98.5t126.5 42.5l-169 461h100l136 -417l132 416q16 0 49 0.5t49 0.5l-178 -527q-36 -108 -74 -151t-100 -43q-52 0 -84 31.5t-32 87.5zM139 -114q28 0 45 23.5t36 83.5l5 15q-70 0 -102.5 -16t-32.5 -55
q0 -23 13.5 -37t35.5 -14z" />
    <glyph glyph-name="_499" horiz-adv-x="313" 
d="M66 342q0 50 23.5 76.5t66.5 26.5q44 0 67.5 -27t23.5 -76q0 -50 -23.5 -76.5t-67.5 -26.5t-67 26.5t-23 76.5z" />
    </font>
</defs>
</svg>
