<?xml version="1.0" standalone="no"?>
<!DOCTYPE svg PUBLIC "-//W3C//DTD SVG 1.1//EN" "http://www.w3.org/Graphics/SVG/1.1/DTD/svg11.dtd" >
<svg xmlns="http://www.w3.org/2000/svg" xmlns:xlink="http://www.w3.org/1999/xlink" version="1.1">
<metadata>
Created by FontForge 20170731 at Thu Jul  7 17:43:04 2011
 By Aleksey,,,
Copyright (c) 2011 by Hannes von Doehren. All rights reserved.
</metadata>
<defs>
<font id="PlutoCondLight" horiz-adv-x="510" >
  <font-face 
    font-family="Pluto Cond Light"
    font-weight="300"
    font-stretch="condensed"
    units-per-em="1000"
    panose-1="2 11 3 6 2 2 3 6 2 4"
    ascent="750"
    descent="-250"
    x-height="523"
    cap-height="680"
    bbox="-115 -245 1032 907"
    underline-thickness="50"
    underline-position="-200"
    unicode-range="U+0020-FB02"
  />
<missing-glyph horiz-adv-x="612" 
d="M50 720h512v-720h-512v720zM266 283h48q0 26 14 47t34 36t40 29.5t34 36t14 48.5q0 51 -36.5 85t-101.5 34q-39 0 -67 -14.5t-41.5 -37t-19 -43.5t-5.5 -41h47q0 40 21 66.5t65 26.5q41 0 64 -21.5t23 -54.5q0 -23 -21 -45t-45.5 -38t-45.5 -46t-21 -68zM255 194v-71h68
v71h-68z" />
    <glyph glyph-name=".notdef" horiz-adv-x="612" 
d="M50 720h512v-720h-512v720zM266 283h48q0 26 14 47t34 36t40 29.5t34 36t14 48.5q0 51 -36.5 85t-101.5 34q-39 0 -67 -14.5t-41.5 -37t-19 -43.5t-5.5 -41h47q0 40 21 66.5t65 26.5q41 0 64 -21.5t23 -54.5q0 -23 -21 -45t-45.5 -38t-45.5 -46t-21 -68zM255 194v-71h68
v71h-68z" />
    <glyph glyph-name=".null" horiz-adv-x="0" 
 />
    <glyph glyph-name="nonmarkingreturn" horiz-adv-x="333" 
 />
    <glyph glyph-name="space" unicode=" " horiz-adv-x="215" 
 />
    <glyph glyph-name="exclam" unicode="!" horiz-adv-x="266" 
d="M108 230l-7 449h64l-8 -449h-49zM84 44q0 55 49 55q50 0 50 -55t-50 -55q-49 0 -49 55z" />
    <glyph glyph-name="quotedbl" unicode="&#x22;" horiz-adv-x="386" 
d="M132 680l-3 -240h-48l-2 240h53zM307 680l-2 -240h-48l-2 240h52z" />
    <glyph glyph-name="numbersign" unicode="#" horiz-adv-x="600" 
d="M313 6l33 155h-173l-34 -161h-51v6l33 155h-80v53h91l55 256h-77v53h88l34 157h50v-6l-32 -151h172l34 157h50v-6l-32 -151h86v-53h-97l-55 -256h82v-53h-93l-34 -161h-50v6zM239 470l-55 -256h173l54 256h-172z" />
    <glyph glyph-name="dollar" unicode="$" 
d="M233 -129v119q-54 2 -105 19t-80 38l15 62q80 -55 170 -58v269l-65 19q-130 37 -130 160q0 72 51 125.5t144 62.5v83h43v-81q106 -3 186 -52l-20 -60q-29 20 -75.5 35t-90.5 16v-257l40 -12q78 -24 117 -63t39 -106q0 -83 -53 -136.5t-143 -61.5v-121h-43zM287 305l-11 3
v-255q58 9 93.5 44t35.5 90q0 45 -29 73t-89 45zM103 503q0 -81 92 -108l38 -12v243q-64 -8 -97 -42t-33 -81z" />
    <glyph glyph-name="percent" unicode="%" horiz-adv-x="743" 
d="M192 6l305 674h57v-6l-305 -674h-57v6zM43 517q0 80 41 126t107 46q67 0 108 -46t41 -126t-41 -125.5t-108 -45.5t-107.5 45.5t-40.5 125.5zM93 517q0 -57 26.5 -88.5t71.5 -31.5t72 31.5t27 88.5q0 58 -27 89.5t-72 31.5t-71.5 -31.5t-26.5 -89.5zM403 160q0 81 41 127
t107 46q67 0 108.5 -46t41.5 -127q0 -80 -41.5 -125t-108.5 -45q-66 0 -107 45.5t-41 124.5zM454 160q0 -57 26 -88t71 -31t72 31t27 88q0 59 -27 90.5t-72 31.5t-71 -31.5t-26 -90.5z" />
    <glyph glyph-name="ampersand" unicode="&#x26;" horiz-adv-x="636" 
d="M591 4v-10h-76l-68 78q-84 -81 -192 -81q-90 0 -142.5 47.5t-52.5 128.5q0 113 143 185q-30 35 -44.5 54t-29 52.5t-14.5 67.5q0 72 46 118t126 46q77 0 124.5 -45t47.5 -118q0 -114 -120 -170l-43 -21l153 -172q62 88 89 214l51 -30q-32 -135 -101 -228zM266 49
q76 0 143 67l-169 193q-54 -27 -84 -57t-30 -78q0 -57 38 -91t102 -34zM179 522q0 -57 79 -145l57 26q81 37 81 121q0 45 -31.5 76.5t-77.5 31.5q-51 0 -79.5 -30.5t-28.5 -79.5z" />
    <glyph glyph-name="quotesingle" unicode="'" horiz-adv-x="211" 
d="M132 680l-3 -240h-48l-2 240h53z" />
    <glyph glyph-name="parenleft" unicode="(" horiz-adv-x="266" 
d="M186 715l40 -25q-41 -64 -74.5 -173.5t-33.5 -255.5q0 -145 34 -255.5t74 -173.5l-40 -25q-45 56 -86 175.5t-41 278.5q0 160 41 278.5t86 175.5z" />
    <glyph glyph-name="parenright" unicode=")" horiz-adv-x="266" 
d="M41 690l39 25q45 -57 86 -175.5t41 -278.5q0 -159 -41 -278.5t-86 -175.5l-39 25q40 63 73.5 173.5t33.5 255.5q0 147 -33.5 256.5t-73.5 172.5z" />
    <glyph glyph-name="asterisk" unicode="*" horiz-adv-x="463" 
d="M216 533q-11 74 -11 142q-1 15 7 24t19 9t19 -8.5t8 -24.5q0 -65 -13 -140q55 34 118 58q17 6 28.5 -2t11.5 -22q0 -22 -24 -29q-53 -19 -128 -30q41 -40 94 -107q12 -17 4 -31t-24 -14q-14 0 -26 15q-44 61 -68 121q-22 -48 -64 -119q-12 -18 -27 -18q-16 0 -24 14t4 33
q44 63 87 104q-44 8 -124 35q-23 7 -23 28q0 14 12 22.5t30 2.5q41 -16 114 -63z" />
    <glyph glyph-name="plus" unicode="+" 
d="M281 530v-201h169v-54h-169v-200h-53v200h-169v54h169v201h53z" />
    <glyph glyph-name="comma" unicode="," horiz-adv-x="242" 
d="M74 -153l40 141q-43 4 -43 51q0 57 50 57q23 0 37 -16t14 -41q0 -40 -21 -108.5t-38 -100.5z" />
    <glyph glyph-name="hyphen" unicode="-" horiz-adv-x="478" 
d="M79 330h319v-55h-319v55z" />
    <glyph glyph-name="period" unicode="." horiz-adv-x="243" 
d="M72 44q0 55 49 55q50 0 50 -55t-50 -55q-49 0 -49 55z" />
    <glyph glyph-name="slash" unicode="/" horiz-adv-x="427" 
d="M32 6l306 674h57v-6l-306 -674h-57v6z" />
    <glyph glyph-name="zero" unicode="0" horiz-adv-x="631" 
d="M70 339q0 161 61.5 256t183.5 95q124 0 185 -94.5t61 -256.5q0 -160 -61.5 -254.5t-184.5 -94.5q-122 0 -183.5 94.5t-61.5 254.5zM133 339q0 -132 44 -209t138 -77q182 0 182 286q0 290 -182 290q-94 0 -138 -78t-44 -212z" />
    <glyph glyph-name="one" unicode="1" horiz-adv-x="419" 
d="M17 544l247 136h50v-680h-65v603l-207 -111z" />
    <glyph glyph-name="two" unicode="2" horiz-adv-x="556" 
d="M69 0v52l240 227q54 52 79 96t25 99q0 70 -37 112.5t-108 42.5q-72 0 -110 -49t-39 -130l-60 9q2 105 57 168t156 63q100 0 154 -60t54 -152q0 -65 -29.5 -118t-94.5 -116l-194 -185h336v-59h-429z" />
    <glyph glyph-name="three" unicode="3" horiz-adv-x="561" 
d="M129 381h152q59 0 92.5 36t33.5 87q0 62 -44.5 95.5t-111.5 33.5q-91 0 -170 -50l-17 56q90 51 192 51q101 0 158.5 -46.5t57.5 -131.5q0 -58 -30.5 -102.5t-80.5 -54.5q132 -31 132 -171q0 -90 -64 -142t-173 -52q-93 0 -194 47l18 57q86 -46 173 -46q75 0 124.5 39
t49.5 105q0 61 -37.5 95.5t-108.5 34.5h-152v59z" />
    <glyph glyph-name="four" unicode="4" horiz-adv-x="606" 
d="M570 150h-125v-150h-65v150h-351v48l331 482h85v-478h125v-52zM97 202h283v416z" />
    <glyph glyph-name="five" unicode="5" horiz-adv-x="558" 
d="M92 353l-4 4l23 323h366v-59h-310l-16 -217h108q110 0 173 -45.5t63 -142.5q0 -113 -68 -169.5t-173 -56.5t-200 49l18 57q87 -48 177 -48q76 0 128 40.5t52 125.5q0 139 -177 139h-160z" />
    <glyph glyph-name="six" unicode="6" horiz-adv-x="612" 
d="M525 625l-22 -54q-26 25 -70.5 43t-96.5 18q-98 0 -150 -79t-52 -212v-19q76 132 203 132q99 0 155.5 -59.5t56.5 -165.5t-62.5 -172.5t-159.5 -66.5q-121 0 -189.5 95.5t-68.5 255.5q0 158 69 253.5t191 95.5q62 0 115 -20t81 -45zM327 398q-38 0 -72 -15.5t-57 -40.5
t-36 -44.5t-23 -39.5q15 -96 63 -151.5t123 -55.5q68 0 114 51t46 127q0 80 -43.5 124.5t-114.5 44.5z" />
    <glyph glyph-name="seven" unicode="7" horiz-adv-x="465" 
d="M111 7l256 614h-342v59h415v-50l-257 -630h-72v7z" />
    <glyph glyph-name="eight" unicode="8" horiz-adv-x="607" 
d="M304 -10q-108 0 -172 52t-64 142q0 142 144 171q-56 10 -90 54.5t-34 102.5q0 85 57.5 131.5t158.5 46.5q99 0 156.5 -46.5t57.5 -131.5q0 -58 -33.5 -102.5t-90.5 -54.5q145 -29 145 -171q0 -90 -64 -142t-171 -52zM304 327q-85 0 -127.5 -36.5t-42.5 -98.5
q0 -66 48 -106.5t122 -40.5q73 0 121 40.5t48 106.5q0 62 -41.5 98.5t-127.5 36.5zM304 635q-69 0 -110 -33.5t-41 -95.5q0 -54 37.5 -91t113.5 -37q75 0 112 37t37 91q0 62 -41 95.5t-108 33.5z" />
    <glyph glyph-name="nine" unicode="9" horiz-adv-x="612" 
d="M86 55l23 54q25 -24 69.5 -42.5t96.5 -18.5q99 0 151 79t52 212v18q-29 -50 -79.5 -90.5t-123.5 -40.5q-99 0 -156 59.5t-57 165.5t63 172.5t159 66.5q122 0 190.5 -95t68.5 -256q0 -158 -69 -253.5t-192 -95.5q-62 0 -114 20t-82 45zM285 282q38 0 71.5 16t57 41.5
t36.5 45t22 38.5q-15 95 -63 150.5t-122 55.5q-69 0 -114.5 -50.5t-45.5 -127.5q0 -80 43.5 -124.5t114.5 -44.5z" />
    <glyph glyph-name="colon" unicode=":" horiz-adv-x="257" 
d="M78 484q0 26 13 40t36 14q50 0 50 -54q0 -55 -50 -55q-49 0 -49 55zM78 44q0 26 13 40t36 14q50 0 50 -54q0 -55 -50 -55q-49 0 -49 55z" />
    <glyph glyph-name="semicolon" unicode=";" horiz-adv-x="262" 
d="M85 -151l40 139q-43 4 -43 51q0 56 50 56q23 0 36.5 -16t13.5 -40q0 -40 -20.5 -108t-37.5 -99zM81 484q0 26 13 40t36 14q50 0 50 -54q0 -55 -50 -55q-49 0 -49 55z" />
    <glyph glyph-name="less" unicode="&#x3c;" 
d="M60 275v54l385 207h5v-54l-336 -179l336 -179v-54h-5z" />
    <glyph glyph-name="equal" unicode="=" 
d="M60 471h390v-54h-390v54zM60 188h390v-54h-390v54z" />
    <glyph glyph-name="greater" unicode="&#x3e;" 
d="M450 329v-54l-384 -205h-6v54l336 179l-336 179v54h6z" />
    <glyph glyph-name="question" unicode="?" horiz-adv-x="422" 
d="M209 230h-55q-6 24 -6 41q0 24 11 41t35 41l42 43q41 44 53 71q13 29 13 65q0 45 -28.5 73.5t-78.5 28.5q-85 0 -127 -81l-24 48q57 89 165 89q71 0 114.5 -43t43.5 -109q0 -40 -15.5 -77t-29.5 -54.5t-39 -44.5l-45 -47q-15 -15 -19.5 -20.5t-8.5 -15t-4 -21.5t3 -28z
M134 44q0 55 48 55q51 0 51 -55t-51 -55q-48 0 -48 55z" />
    <glyph glyph-name="at" unicode="@" horiz-adv-x="870" 
d="M611 491v-367q0 -35 9 -50t34 -15q47 0 83.5 67.5t36.5 192.5q0 163 -90 257.5t-241 94.5t-245 -109t-94 -299t93.5 -299.5t245.5 -109.5q86 0 159 42l17 -44q-80 -46 -176 -46q-174 0 -281 123.5t-107 333.5q0 206 109 331t279 125t275 -108.5t105 -288.5
q0 -155 -54 -233t-134 -78q-37 0 -55 14t-27 46q-46 -60 -136 -60q-88 0 -141 67.5t-53 174.5q0 108 53 177t141 69q89 0 132 -53v45h62zM287 253q0 -82 40.5 -133.5t106.5 -51.5q71 0 115 57v263q-40 54 -115 54q-67 0 -107 -52.5t-40 -136.5z" />
    <glyph glyph-name="A" unicode="A" horiz-adv-x="609" 
d="M24 0l247 680h74l234 -680h-65l-56 166h-309l-59 -166h-66zM307 613l-140 -395h273z" />
    <glyph glyph-name="B" unicode="B" horiz-adv-x="612" 
d="M104 0v680h210q92 0 142 -43.5t50 -131.5q0 -114 -102 -152q148 -26 148 -173q0 -85 -51 -132.5t-148 -47.5h-249zM170 318v-260h176q68 0 103.5 33t35.5 92q0 67 -41 101t-116 34h-158zM170 622v-243h131q65 0 102 31.5t37 89.5q0 122 -134 122h-136z" />
    <glyph glyph-name="C" unicode="C" horiz-adv-x="655" 
d="M567 149l30 -53q-42 -45 -105.5 -75.5t-131.5 -30.5q-131 0 -212 93.5t-81 255.5q0 163 81 257t212 94q112 0 173 -59.5t63 -177.5l-60 -11q-3 186 -178 186q-103 0 -164 -76.5t-61 -212.5q0 -135 63 -211t169 -76q55 0 110 28.5t92 68.5z" />
    <glyph glyph-name="D" unicode="D" horiz-adv-x="695" 
d="M104 0v680h225q133 -1 216 -90.5t83 -250.5q0 -160 -83.5 -249.5t-215.5 -89.5h-225zM170 59h152q108 0 173.5 73t65.5 207q0 135 -65 208.5t-174 73.5h-152v-562z" />
    <glyph glyph-name="E" unicode="E" horiz-adv-x="610" 
d="M546 0h-442v680h442v-59h-379v-237h317v-59h-317v-266h379v-59z" />
    <glyph glyph-name="F" unicode="F" horiz-adv-x="565" 
d="M483 284h-316v-284h-63v680h425v-59h-362v-278h316v-59z" />
    <glyph glyph-name="G" unicode="G" horiz-adv-x="687" 
d="M591 599l-31 -51q-80 80 -181 80q-109 0 -178 -77.5t-69 -211.5t69 -210.5t175 -76.5q104 0 176 58v190h-204v59h265v-286q-42 -35 -109 -59t-131 -24q-132 0 -220 94.5t-88 254.5q0 161 88 256t220 95q125 0 218 -91z" />
    <glyph glyph-name="H" unicode="H" horiz-adv-x="735" 
d="M565 0v312h-395v-312h-66v680h66v-309h395v309h66v-680h-66z" />
    <glyph glyph-name="I" unicode="I" horiz-adv-x="274" 
d="M104 0v680h66v-680h-66z" />
    <glyph glyph-name="J" unicode="J" horiz-adv-x="572" 
d="M29 225l63 6q5 -93 43.5 -137.5t114.5 -44.5q77 0 117.5 47.5t40.5 140.5v443h66v-442q0 -116 -58.5 -183t-166.5 -67q-104 0 -159.5 61t-60.5 176z" />
    <glyph glyph-name="K" unicode="K" horiz-adv-x="668" 
d="M572 680v-10l-206 -333q15 -19 39.5 -71t45.5 -98t55 -83t70 -37q32 0 71 22l8 -54q-45 -26 -93 -26q-50 0 -92 42t-65.5 93.5t-50 108.5t-44.5 76h-140v-310h-66v680h66v-312h146l187 312h69z" />
    <glyph glyph-name="L" unicode="L" horiz-adv-x="520" 
d="M499 0h-395v680h66v-621h329v-59z" />
    <glyph glyph-name="M" unicode="M" horiz-adv-x="829" 
d="M659 0v570l-237 -344h-15l-237 344v-570h-66v680h64l246 -359l247 359h63v-680h-65z" />
    <glyph glyph-name="N" unicode="N" horiz-adv-x="733" 
d="M570 0l-401 570v-570h-65v680h58l401 -572v572h66v-680h-59z" />
    <glyph glyph-name="O" unicode="O" horiz-adv-x="726" 
d="M65 339q0 157 83 254t214 97q132 0 215 -97t83 -254q0 -155 -83 -252t-215 -97q-131 0 -214 97t-83 252zM130 339q0 -133 64.5 -209.5t167.5 -76.5t168 77t65 209q0 134 -65 211t-168 77t-167.5 -77t-64.5 -211z" />
    <glyph glyph-name="P" unicode="P" horiz-adv-x="606" 
d="M104 0v680h249q87 0 146.5 -61t59.5 -177q0 -106 -60.5 -170t-145.5 -64h-183v-208h-66zM340 621h-170v-354h170q64 0 108 47.5t44 127.5q0 87 -43 133t-109 46z" />
    <glyph glyph-name="Q" unicode="Q" horiz-adv-x="727" 
d="M66 339q0 157 83 254t214 97q132 0 215 -97t83 -254q0 -131 -60.5 -222t-161.5 -117q4 -4 22.5 -24t27 -28.5t27.5 -24.5t33.5 -23.5t35.5 -14t42 -6.5q56 0 94 17l9 -57q-46 -19 -106 -19q-49 0 -95.5 24.5t-74.5 53.5t-54 58t-37 34q-131 0 -214 97t-83 252zM130 339
q0 -132 65 -209t168 -77t168.5 77t65.5 209q0 134 -65 211t-169 77q-103 0 -168 -77t-65 -211z" />
    <glyph glyph-name="R" unicode="R" horiz-adv-x="664" 
d="M104 0v680h253q87 0 145 -57t58 -158q0 -92 -58 -149.5t-141 -59.5q13 -16 45.5 -61t54 -71.5t54 -51t61.5 -24.5q34 0 73 23l8 -55q-45 -26 -95 -26q-36 0 -72.5 23t-66.5 58t-55.5 71t-50 69t-40.5 45h-107v-256h-66zM170 621v-311h172q64 0 108 41.5t44 113.5
q0 76 -43 116t-109 40h-172z" />
    <glyph glyph-name="S" unicode="S" horiz-adv-x="557" 
d="M72 47l16 62q83 -58 178 -58q71 0 117 36.5t46 99.5q0 45 -28.5 72.5t-89.5 44.5l-119 34q-130 39 -130 161q0 79 59.5 134.5t167.5 55.5q54 0 108 -15t89 -37l-20 -60q-30 21 -79.5 36t-95.5 15q-80 0 -122 -36t-42 -89q0 -82 93 -107l120 -36q78 -24 117 -63.5
t39 -106.5q0 -90 -62.5 -145t-165.5 -55q-56 0 -109.5 17.5t-86.5 39.5z" />
    <glyph glyph-name="T" unicode="T" horiz-adv-x="542" 
d="M517 614h-207v-614h-66v614h-220v66h493v-66z" />
    <glyph glyph-name="U" unicode="U" horiz-adv-x="692" 
d="M162 680v-406q0 -105 45 -164.5t138 -59.5t139 61.5t46 163.5v405h65v-409q0 -123 -64 -203t-186 -80q-123 0 -186 76.5t-63 206.5v409h66z" />
    <glyph glyph-name="V" unicode="V" horiz-adv-x="613" 
d="M264 0l-234 680h70l204 -612l215 612h70l-246 -680h-79z" />
    <glyph glyph-name="W" unicode="W" horiz-adv-x="933" 
d="M592 0l-125 369l-133 -369h-70l-234 680h69l205 -606l134 372l-78 234h69l197 -597l212 597h71l-246 -680h-71z" />
    <glyph glyph-name="X" unicode="X" horiz-adv-x="610" 
d="M575 680v-6l-225 -334l225 -334v-6h-77l-193 294l-195 -294h-76v6l224 334l-224 334v6h76l195 -295l194 295h76z" />
    <glyph glyph-name="Y" unicode="Y" horiz-adv-x="580" 
d="M258 0v288l-240 386v6h73l199 -332l201 332h71v-6l-240 -385v-289h-64z" />
    <glyph glyph-name="Z" unicode="Z" horiz-adv-x="534" 
d="M53 50l345 571h-345v59h429v-50l-346 -571h346v-59h-429v50z" />
    <glyph glyph-name="bracketleft" unicode="[" horiz-adv-x="297" 
d="M265 -188h-172v898h172v-55h-117v-788h117v-55z" />
    <glyph glyph-name="backslash" unicode="\" horiz-adv-x="427" 
d="M89 680l306 -674v-6h-58l-305 674v6h57z" />
    <glyph glyph-name="bracketright" unicode="]" horiz-adv-x="296" 
d="M32 710h171v-898h-171v55h117v788h-117v55z" />
    <glyph glyph-name="asciicircum" unicode="^" 
d="M227 680h50l158 -267v-6h-61l-122 220l-120 -220h-59v6z" />
    <glyph glyph-name="underscore" unicode="_" horiz-adv-x="672" 
d="M124 -42h425v-55h-425v55z" />
    <glyph glyph-name="grave" unicode="`" 
d="M265 604l-78 137h66l70 -137h-58z" />
    <glyph glyph-name="a" unicode="a" horiz-adv-x="600" 
d="M485 523v-412q0 -64 40 -64q20 0 49 22l6 -53q-35 -26 -77 -26q-68 0 -79 73q-57 -73 -153 -73q-98 0 -156.5 71.5t-58.5 197.5t58 199.5t160 73.5q41 0 81.5 -18t64.5 -48v57h65zM420 403q-22 29 -56.5 49.5t-74.5 20.5q-78 0 -123 -57.5t-45 -156.5q0 -98 45 -154
t123 -56q40 0 74.5 21t56.5 51v282z" />
    <glyph glyph-name="b" unicode="b" horiz-adv-x="573" 
d="M152 710v-244q59 66 151 66q98 0 156 -72t58 -198t-58 -199t-156 -73q-93 0 -151 67v-57h-65v710h65zM452 259q0 99 -45 156.5t-123 57.5q-40 0 -76 -20t-56 -48v-289q21 -28 57 -47.5t75 -19.5q78 0 123 56t45 154z" />
    <glyph glyph-name="c" unicode="c" horiz-adv-x="530" 
d="M451 111l28 -52q-81 -73 -186 -73q-120 0 -179 74t-59 200q0 123 64 200t169 77q89 0 138 -48t57 -133l-53 -18q-9 140 -137 140q-79 0 -125.5 -60t-46.5 -156q0 -101 43.5 -159t135.5 -58q74 0 151 66z" />
    <glyph glyph-name="d" unicode="d" horiz-adv-x="600" 
d="M421 710h65v-599q0 -64 40 -64q21 0 48 22l7 -53q-35 -26 -79 -26q-66 0 -78 70q-56 -70 -153 -70q-98 0 -156.5 73t-58.5 199t58.5 198t156.5 72q90 0 150 -65v243zM121 259q0 -98 45 -154t123 -56q79 0 132 67v289q-21 29 -56.5 48.5t-75.5 19.5q-78 0 -123 -57.5
t-45 -156.5z" />
    <glyph glyph-name="e" unicode="e" horiz-adv-x="538" 
d="M473 238h-355q3 -91 47 -143t134 -52q80 0 151 62l27 -51q-76 -68 -186 -68q-119 0 -177.5 74.5t-58.5 199.5q0 122 63 199.5t169 77.5q98 0 147 -60.5t49 -154.5q0 -44 -10 -84zM121 291h299q4 24 4 39q0 66 -35.5 108t-101.5 42q-75 0 -119 -52t-47 -137z" />
    <glyph glyph-name="f" unicode="f" horiz-adv-x="389" 
d="M39 437v54h92v66q0 78 35 120.5t106 42.5q66 0 112 -44l-19 -55q-41 41 -84 41q-86 0 -86 -103v-68h164v-54h-164v-437h-64v437h-92z" />
    <glyph glyph-name="g" unicode="g" horiz-adv-x="573" 
d="M57 280q0 114 59 183t157 69q86 0 148 -67v58h65v-500q0 -110 -57 -165.5t-147 -55.5q-13 0 -26.5 1t-24 2.5t-22 5t-19.5 5.5t-18.5 6.5t-15.5 6.5t-15 7.5t-12.5 6.5t-11.5 7l-9 5l16 59q74 -53 151 -53q65 0 105.5 37t40.5 118v78q-59 -64 -148 -64q-98 0 -157 69
t-59 181zM122 280q0 -87 45.5 -139.5t122.5 -52.5q71 0 131 67v248q-55 70 -130 70q-77 0 -123 -52.5t-46 -140.5z" />
    <glyph glyph-name="h" unicode="h" horiz-adv-x="591" 
d="M152 0h-65v710h65v-271q49 93 162 93q84 0 126 -53t42 -152v-226q0 -29 9 -41.5t29 -12.5t50 21l7 -52q-35 -26 -77 -26q-83 0 -83 96v230q0 155 -125 155q-53 0 -89.5 -35t-50.5 -89v-347z" />
    <glyph glyph-name="i" unicode="i" horiz-adv-x="272" 
d="M76 672q0 45 46 45q43 0 43 -45t-43 -45q-46 0 -46 45zM89 523h65v-422q0 -29 8.5 -41.5t28.5 -12.5q21 0 51 21l6 -52q-33 -26 -77 -26q-82 0 -82 96v437z" />
    <glyph glyph-name="j" unicode="j" horiz-adv-x="239" 
d="M87 523h65v-518q0 -140 -110 -202l-37 45q43 27 62.5 61.5t19.5 93.5v520zM76 672q0 45 44 45t44 -45t-44 -45t-44 45z" />
    <glyph glyph-name="k" unicode="k" horiz-adv-x="531" 
d="M152 0h-65v710h65v-427q52 0 90.5 10t74.5 35t61 74t38 121h65q-31 -188 -145 -254l159 -261v-8h-70l-144 246q-59 -18 -129 -18v-228z" />
    <glyph glyph-name="l" unicode="l" horiz-adv-x="279" 
d="M86 710h65v-596q0 -37 11.5 -52t36.5 -15q28 0 59 21l7 -52q-38 -26 -87 -26q-46 0 -69 25.5t-23 84.5v610z" />
    <glyph glyph-name="m" unicode="m" horiz-adv-x="887" 
d="M152 0h-65v523h65v-82q47 91 154 91q117 0 150 -106q48 106 155 106q87 0 127 -49t40 -149v-233q0 -54 38 -54q20 0 50 21l7 -52q-35 -26 -77 -26q-83 0 -83 96v238q0 76 -28.5 111.5t-91.5 35.5q-89 0 -125 -115q1 -7 1 -22v-334h-64v324q0 147 -121 147
q-100 0 -132 -120v-351z" />
    <glyph glyph-name="n" unicode="n" horiz-adv-x="591" 
d="M152 0h-65v523h65v-84q49 93 162 93q84 0 126 -53t42 -152v-226q0 -29 9 -41.5t29 -12.5t50 21l7 -52q-35 -26 -77 -26q-83 0 -83 96v230q0 155 -125 155q-53 0 -89.5 -35t-50.5 -89v-347z" />
    <glyph glyph-name="o" unicode="o" horiz-adv-x="582" 
d="M55 260q0 127 64.5 202t170.5 75q107 0 172.5 -75t65.5 -202q0 -126 -65.5 -200t-172.5 -74q-106 0 -170.5 74t-64.5 200zM118 260q0 -99 47.5 -156t124.5 -57q79 0 126 57t47 156q0 100 -47 158t-126 58q-78 0 -125 -58t-47 -158z" />
    <glyph glyph-name="p" unicode="p" horiz-adv-x="601" 
d="M545 262q0 -127 -58.5 -198.5t-157.5 -71.5q-91 0 -149 65v-243h-65v599q0 32 -9 47.5t-32 15.5q-20 0 -47 -22l-7 54q35 26 78 26q65 0 79 -71q59 71 152 71q98 0 157 -73t59 -199zM480 264q0 98 -45.5 154.5t-122.5 56.5q-40 0 -75.5 -19.5t-56.5 -48.5v-289
q21 -29 56.5 -48.5t75.5 -19.5q78 0 123 57.5t45 156.5z" />
    <glyph glyph-name="q" unicode="q" horiz-adv-x="573" 
d="M56 259q0 127 58.5 199.5t156.5 72.5q93 0 151 -68v60h64v-711h-64v243q-59 -66 -151 -66q-98 0 -156.5 72t-58.5 198zM122 262q0 -99 45 -156.5t123 -57.5q39 0 74 20t58 48v289q-22 28 -57.5 48t-74.5 20q-77 0 -122.5 -56.5t-45.5 -154.5z" />
    <glyph glyph-name="r" unicode="r" horiz-adv-x="397" 
d="M378 500l-15 -59q-33 30 -74 30q-45 0 -70 -36t-39 -101v-334h-65v413q0 32 -9 47.5t-32 15.5q-20 0 -47 -22l-7 54q35 26 78 26q72 0 81 -87q35 85 117 85q48 0 82 -32z" />
    <glyph glyph-name="s" unicode="s" horiz-adv-x="454" 
d="M396 496l-17 -57q-66 36 -140 36q-58 0 -89.5 -26t-31.5 -71q0 -31 18.5 -47.5t62.5 -29.5l90 -26q112 -32 112 -127q0 -68 -46 -113t-128 -45q-91 0 -166 42l15 59q72 -45 148 -45q53 0 82.5 27.5t29.5 69.5q0 34 -20.5 51.5t-61.5 29.5l-91 26q-111 32 -111 127
q0 68 49.5 111.5t134.5 43.5q40 0 87 -11t73 -25z" />
    <glyph glyph-name="t" unicode="t" horiz-adv-x="407" 
d="M178 469v-326q0 -95 81 -95q56 0 105 40l19 -53q-64 -45 -138 -45q-132 0 -132 146v333h-86v54h90l7 133h54v-133h183v-54h-183z" />
    <glyph glyph-name="u" unicode="u" horiz-adv-x="591" 
d="M412 523h64v-422q0 -54 38 -54q21 0 51 21l6 -52q-33 -26 -77 -26q-40 0 -60 20t-22 64q-50 -84 -161 -84q-85 0 -127 53.5t-42 152.5v327h64v-319q0 -153 124 -153q103 0 142 112v360z" />
    <glyph glyph-name="v" unicode="v" horiz-adv-x="596" 
d="M179 422v-199q0 -81 37 -126.5t99 -45.5q63 0 105 53t42 142q0 136 -45 277h66q44 -138 44 -281q0 -114 -59.5 -183t-152.5 -69t-146.5 60t-53.5 165v197q0 63 -41 63q-23 0 -49 -20l-6 52q35 26 78 26q82 0 82 -111z" />
    <glyph glyph-name="w" unicode="w" horiz-adv-x="896" 
d="M499 523v-302q0 -77 32.5 -123.5t91.5 -46.5q65 0 100.5 54.5t35.5 139.5q0 123 -42 278h67q42 -145 42 -278q0 -118 -52.5 -186.5t-143.5 -68.5q-63 0 -102.5 29t-60.5 96q-43 -125 -171 -125q-89 0 -135 58t-46 167v197q0 33 -9 48.5t-32 15.5q-24 0 -48 -22l-7 54
q44 24 80 24q81 0 81 -109v-201q0 -171 123 -171q61 0 97.5 46.5t36.5 125.5v300h62z" />
    <glyph glyph-name="x" unicode="x" horiz-adv-x="495" 
d="M462 523v-6l-170 -257l170 -254v-6h-72l-143 222l-141 -222h-73v6l168 254l-168 257v6h71l143 -224l144 224h71z" />
    <glyph glyph-name="y" unicode="y" horiz-adv-x="506" 
d="M16 -168l12 51q39 -25 86 -25q40 0 62.5 25t41.5 80l14 42l-213 518h72l171 -451l155 451h66l-207 -574q-27 -75 -62 -111t-97 -36q-57 0 -101 30z" />
    <glyph glyph-name="z" unicode="z" horiz-adv-x="450" 
d="M47 50l274 419h-274v54h356v-50l-274 -419h274v-54h-356v50z" />
    <glyph glyph-name="braceleft" unicode="{" horiz-adv-x="275" 
d="M201 -145h23v-49h-32q-57 0 -84.5 31t-27.5 80q0 35 26.5 118.5t26.5 128.5q0 73 -84 73v44q84 0 84 74q0 45 -26.5 128t-26.5 118q0 48 27.5 78.5t84.5 30.5h32v-50h-23q-33 0 -50.5 -20t-17.5 -51q0 -29 26 -113t26 -128q0 -74 -64 -89q34 -8 49 -30t15 -63
q0 -43 -26 -126.5t-26 -112.5q0 -31 17.5 -51.5t50.5 -20.5z" />
    <glyph glyph-name="bar" unicode="|" horiz-adv-x="239" 
d="M93 -188v898h53v-898h-53z" />
    <glyph glyph-name="braceright" unicode="}" horiz-adv-x="275" 
d="M83 -194h-33v49h24q32 0 50 20.5t18 51.5q0 29 -26 112.5t-26 126.5q0 41 15 63t49 30q-64 15 -64 89q0 44 26 128t26 113q0 31 -17.5 51t-50.5 20h-24v50h33q57 0 84.5 -31t27.5 -78q0 -35 -26 -118t-26 -128q0 -74 83 -74v-44q-44 0 -63.5 -18t-19.5 -55
q0 -45 26 -128.5t26 -118.5q0 -49 -27.5 -80t-84.5 -31z" />
    <glyph glyph-name="asciitilde" unicode="~" horiz-adv-x="465" 
d="M363 352l29 -28q-8 -41 -30.5 -66t-55.5 -25q-31 0 -76.5 43.5t-70.5 43.5q-20 0 -36 -17.5t-21 -50.5l-28 29q6 38 28 64t55 26q26 0 53.5 -21.5t52 -43.5t42.5 -22q43 0 58 68z" />
    <glyph glyph-name="uni00A0" unicode="&#xa0;" horiz-adv-x="215" 
 />
    <glyph glyph-name="exclamdown" unicode="&#xa1;" horiz-adv-x="254" 
d="M151 292l9 -449h-65l8 449h48zM177 481q0 -57 -50 -57q-51 0 -51 57q0 56 51 56q50 0 50 -56z" />
    <glyph glyph-name="cent" unicode="&#xa2;" 
d="M438 111l25 -52q-78 -73 -183 -73q-18 0 -46 4l-29 -125l-40 12l29 122q-77 24 -114.5 93t-37.5 168q0 122 64 199.5t169 77.5q17 0 45 -4l25 105l39 -11l-25 -105q96 -39 114 -169l-51 -20q-13 100 -76 133l-99 -420q18 -3 38 -3q79 0 153 68zM103 262q0 -162 105 -205
l99 422q-15 3 -32 3q-78 0 -125 -61.5t-47 -158.5z" />
    <glyph glyph-name="sterling" unicode="&#xa3;" 
d="M388 326h-188q17 -100 17 -153q0 -19 -1 -28q11 -8 38 -35t51.5 -45t43.5 -18q41 0 57.5 41.5t16.5 122.5h56v-26q0 -195 -116 -195q-28 0 -57.5 19.5t-60.5 49.5t-42 38q-26 -107 -96 -107q-37 0 -57.5 25.5t-20.5 66.5t24.5 68t62.5 27q28 0 45 -13v11q0 39 -22 151
h-84v44h76q-12 69 -12 125q0 86 43 140.5t125 54.5q97 0 167 -84l-24 -55q-17 21 -29.5 34.5t-41.5 28.5t-62 15q-55 0 -84 -40.5t-29 -105.5q0 -45 9 -113h195v-44zM119 135q-21 0 -35 -15t-14 -40q0 -49 36 -49q42 0 52 90q-18 14 -39 14z" />
    <glyph glyph-name="currency" unicode="&#xa4;" horiz-adv-x="550" 
d="M434 499l39 -39l-60 -59q33 -41 33 -100q0 -56 -32 -99l59 -58l-39 -39l-59 59q-42 -33 -102 -33q-59 0 -99 31l-56 -57l-39 39l55 55q-34 42 -34 102q0 61 34 103l-55 56l39 39l57 -57q42 31 98 31q60 0 102 -34zM149 301q0 -53 35 -88t89 -35q55 0 89.5 35t34.5 88
q0 54 -34.5 89.5t-89.5 35.5q-54 0 -89 -35.5t-35 -89.5z" />
    <glyph glyph-name="yen" unicode="&#xa5;" 
d="M432 156h-146v-156h-65v156h-145v45h145v74h-145v45h129l-170 354v6h67l152 -337l153 337h68v-6l-174 -354h131v-45h-146v-74h146v-45z" />
    <glyph glyph-name="brokenbar" unicode="&#xa6;" horiz-adv-x="248" 
d="M151 -188h-54v347h54v-347zM97 710h54v-335h-54v335z" />
    <glyph glyph-name="section" unicode="&#xa7;" horiz-adv-x="572" 
d="M81 -52l15 55q92 -45 188 -45q67 0 109.5 24t42.5 66q0 34 -27 49.5t-87 29.5l-122 26q-68 16 -98 48t-30 90q0 45 23.5 82t69.5 58q-91 26 -91 111q0 62 57 105t156 43q114 0 202 -44l-19 -54q-90 44 -188 44q-68 0 -106.5 -27t-38.5 -66q0 -53 76 -67l132 -25
q74 -15 114.5 -55t40.5 -100q0 -97 -95 -137q95 -33 95 -109q0 -68 -61 -107.5t-158 -39.5q-115 0 -200 45zM323 401l-62 11q-65 -4 -98.5 -38t-33.5 -77q0 -40 21 -62t71 -33l83 -18q62 2 99 30.5t37 76.5q0 88 -117 110z" />
    <glyph glyph-name="dieresis" unicode="&#xa8;" 
d="M106 671q0 45 43 45q41 0 41 -45q0 -44 -41 -44q-43 0 -43 44zM320 671q0 45 43 45q41 0 41 -45q0 -44 -41 -44q-43 0 -43 44z" />
    <glyph glyph-name="copyright" unicode="&#xa9;" horiz-adv-x="816" 
d="M58 339q0 151 100 251t249 100q151 0 251 -100t100 -251q0 -149 -100 -249t-251 -100q-149 0 -249 100t-100 249zM100 339q0 -132 87.5 -220t219.5 -88q133 0 221 88t88 220q0 133 -88 221.5t-221 88.5q-132 0 -219.5 -88.5t-87.5 -221.5zM520 256l30 -37
q-59 -55 -140 -55q-77 0 -125 47t-48 128t48 128t125 47q65 0 101 -34t38 -94l-45 -10q-1 42 -25 65.5t-69 23.5q-54 0 -87 -33.5t-33 -92.5t33 -92.5t88 -33.5q62 0 109 43z" />
    <glyph glyph-name="ordfeminine" unicode="&#xaa;" horiz-adv-x="447" 
d="M367 403l5 -40q-26 -16 -52 -16q-40 0 -49 41q-37 -41 -89 -41q-45 0 -72 29t-27 73q0 57 39 86t105 29q21 0 41 -5v16q0 38 -15 54t-48 16q-50 0 -86 -23l-9 43q43 23 104 23q54 0 77.5 -27t23.5 -82v-157q0 -18 5 -25.5t19 -7.5q11 0 28 14zM192 389q43 0 76 33v101
q-22 6 -46 6q-44 0 -70.5 -18.5t-26.5 -56.5q0 -30 18 -47.5t49 -17.5zM97 258h259v-41h-259v41z" />
    <glyph glyph-name="guillemotleft" unicode="&#xab;" horiz-adv-x="463" 
d="M54 295v15l135 198h6l23 -20l-108 -185l109 -186l-24 -20h-6zM231 295v15l136 198h6l23 -20l-108 -185l109 -186l-24 -20h-6z" />
    <glyph glyph-name="logicalnot" unicode="&#xac;" 
d="M450 389l-1 -254h-52v200h-337v54h390z" />
    <glyph glyph-name="uni00AD" unicode="&#xad;" horiz-adv-x="478" 
d="M79 330h319v-55h-319v55z" />
    <glyph glyph-name="registered" unicode="&#xae;" horiz-adv-x="816" 
d="M58 339q0 151 100 251t249 100q151 0 251 -100t100 -251q0 -149 -100 -249t-251 -100q-149 0 -249 100t-100 249zM100 339q0 -132 87.5 -220t219.5 -88q133 0 220.5 88t87.5 220q0 133 -87.5 221.5t-220.5 88.5q-132 0 -219.5 -88.5t-87.5 -221.5zM364 290v4h-41v-125
h-52v340h128q144 0 144 -110q0 -48 -31 -73.5t-79 -30.5q5 -5 20 -21t23.5 -24t22 -19t26 -16t25.5 -5q21 0 43 11l6 -44q-26 -13 -54 -13t-57.5 18.5t-49.5 40.5t-41 43t-33 24zM423 466h-100v-134h100q30 0 50 18t20 48q0 33 -20 50.5t-50 17.5z" />
    <glyph glyph-name="macron" unicode="&#xaf;" 
d="M357 637h-205v49h205v-49z" />
    <glyph glyph-name="degree" unicode="&#xb0;" horiz-adv-x="418" 
d="M60 517q0 80 41 126t108 46q66 0 107 -46t41 -126t-40.5 -125.5t-107.5 -45.5t-108 45.5t-41 125.5zM108 517q0 -60 27 -91.5t74 -31.5t74 31.5t27 91.5t-27 92.5t-74 32.5t-74 -32.5t-27 -92.5z" />
    <glyph glyph-name="plusminus" unicode="&#xb1;" 
d="M281 640v-200h169v-55h-169v-158h-52v158h-169v55h169v200h52zM60 137h390v-55h-390v55z" />
    <glyph glyph-name="twosuperior" unicode="&#xb2;" horiz-adv-x="288" 
d="M44 466v33l111 100q46 39 46 85q0 30 -15.5 48.5t-44.5 18.5q-32 0 -48.5 -21.5t-16.5 -56.5l-38 6q2 51 29 81t75 30t73.5 -28.5t25.5 -73.5q0 -62 -58 -112l-82 -73h149v-37h-206z" />
    <glyph glyph-name="threesuperior" unicode="&#xb3;" horiz-adv-x="286" 
d="M70 648h69q26 0 40.5 15.5t14.5 37.5q0 52 -65 52q-41 0 -81 -21l-9 36q47 22 93 22q48 0 75.5 -22.5t27.5 -63.5q0 -54 -48 -71q57 -13 57 -80q0 -42 -30 -67t-82 -25q-39 0 -94 22l10 35q40 -20 82 -20q32 0 52.5 16.5t20.5 44.5q0 25 -16.5 39.5t-47.5 14.5h-69v35z
" />
    <glyph glyph-name="acute" unicode="&#xb4;" 
d="M323 741l-78 -137h-58l70 137h66z" />
    <glyph glyph-name="mu" unicode="&#xb5;" horiz-adv-x="564" 
d="M159 523v-298q0 -174 125 -174q99 0 139 108v364h65v-523h-65v72q-50 -82 -159 -82q-65 0 -105 31v-209h-65v711h65z" />
    <glyph glyph-name="paragraph" unicode="&#xb6;" horiz-adv-x="466" 
d="M191 -188v483h-48q-46 0 -75 30.5t-29 83.5t29 83t75 31h101v-711h-53zM325 -188v711h52v-711h-52z" />
    <glyph glyph-name="periodcentered" unicode="&#xb7;" horiz-adv-x="252" 
d="M76 298q0 55 49 55q50 0 50 -55t-50 -55q-49 0 -49 55z" />
    <glyph glyph-name="cedilla" unicode="&#xb8;" 
d="M193 -96l22 98h31l-15 -69q14 4 27 4q33 0 52.5 -17.5t19.5 -45.5q0 -34 -24.5 -53t-62.5 -19q-31 0 -63 12l8 29q29 -11 53 -11q53 0 53 41q0 35 -47 35q-31 0 -52 -8z" />
    <glyph glyph-name="onesuperior" unicode="&#xb9;" horiz-adv-x="223" 
d="M16 717l117 67h30v-318h-39v272l-93 -52z" />
    <glyph glyph-name="ordmasculine" unicode="&#xba;" horiz-adv-x="452" 
d="M77 517q0 81 41 126.5t108 45.5t108 -45.5t41 -126.5t-41 -126t-108 -45t-108 45t-41 126zM122 517q0 -62 28 -94.5t76 -32.5t76 32.5t28 94.5t-28 95t-76 33t-76 -33t-28 -95zM97 258h259v-41h-259v41z" />
    <glyph glyph-name="guillemotright" unicode="&#xbb;" horiz-adv-x="463" 
d="M231 310v-15l-135 -198h-6l-23 20l108 186l-109 185l24 20h6zM408 310v-15l-134 -198h-6l-24 20l109 186l-109 185l24 20h6z" />
    <glyph glyph-name="onequarter" unicode="&#xbc;" horiz-adv-x="694" 
d="M656 67h-55v-67h-41v67h-159v29l150 222l9 -1v1h41v-219h55v-32zM140 6l314 674h41v-6l-313 -674h-42v6zM31 617l117 67h30v-318h-39v272l-93 -52zM444 99h116v173z" />
    <glyph glyph-name="onehalf" unicode="&#xbd;" horiz-adv-x="675" 
d="M140 6l314 674h41v-6l-313 -674h-42v6zM420 0v33l111 99q46 40 46 86q0 29 -15.5 48t-44.5 19q-32 0 -48.5 -21.5t-16.5 -56.5l-38 6q2 51 29 81t75 30t73.5 -28.5t25.5 -74.5q0 -61 -58 -111l-82 -73h149v-37h-206zM31 617l117 67h30v-318h-39v272l-93 -52z" />
    <glyph glyph-name="threequarters" unicode="&#xbe;" horiz-adv-x="755" 
d="M720 67h-55v-67h-41v67h-159v29l150 222l9 -1v1h41v-219h55v-32zM204 6l314 674h41v-6l-313 -674h-42v6zM82 548h69q26 0 40.5 15.5t14.5 37.5q0 52 -65 52q-41 0 -81 -21l-9 36q47 22 93 22q48 0 75.5 -22.5t27.5 -63.5q0 -54 -48 -71q57 -13 57 -80q0 -42 -30 -67
t-82 -25q-39 0 -94 22l10 35q40 -20 82 -20q32 0 52.5 16.5t20.5 44.5q0 25 -16.5 39.5t-47.5 14.5h-69v35zM508 99h116v173z" />
    <glyph glyph-name="questiondown" unicode="&#xbf;" horiz-adv-x="415" 
d="M209 294h55q6 -24 6 -41q0 -24 -11 -41t-35 -41l-42 -42q-41 -45 -52 -69q-14 -30 -14 -67q0 -45 29 -73.5t78 -28.5q85 0 127 80l24 -48q-57 -89 -165 -89q-72 0 -115 43t-43 109q0 40 15.5 77t29.5 54.5t39 44.5l46 47q26 30 29 42q2 6 2 15q0 12 -3 28zM284 480
q0 -55 -48 -55q-51 0 -51 55t51 55q48 0 48 -55z" />
    <glyph glyph-name="Agrave" unicode="&#xc0;" horiz-adv-x="609" 
d="M24 0l247 680h74l234 -680h-65l-56 166h-309l-59 -166h-66zM307 613l-140 -395h273zM282 761l-78 137h66l70 -137h-58z" />
    <glyph glyph-name="Aacute" unicode="&#xc1;" horiz-adv-x="609" 
d="M24 0l247 680h74l234 -680h-65l-56 166h-309l-59 -166h-66zM307 613l-140 -395h273zM403 898l-78 -137h-58l70 137h66z" />
    <glyph glyph-name="Acircumflex" unicode="&#xc2;" horiz-adv-x="609" 
d="M24 0l247 680h74l234 -680h-65l-56 166h-309l-59 -166h-66zM307 613l-140 -395h273zM377 761l-70 99l-69 -99h-55l92 137h66l91 -137h-55z" />
    <glyph glyph-name="Atilde" unicode="&#xc3;" horiz-adv-x="609" 
d="M24 0l247 680h74l234 -680h-65l-56 166h-309l-59 -166h-66zM307 613l-140 -395h273zM186 784l-23 29q12 28 34.5 48.5t48.5 20.5q29 0 66.5 -34t56.5 -34q39 0 59 50l24 -29q-32 -69 -83 -69q-28 0 -66.5 34t-56.5 34q-36 0 -60 -50z" />
    <glyph glyph-name="Adieresis" unicode="&#xc4;" horiz-adv-x="609" 
d="M24 0l247 680h74l234 -680h-65l-56 166h-309l-59 -166h-66zM307 613l-140 -395h273zM158 828q0 45 43 45q41 0 41 -45q0 -44 -41 -44q-43 0 -43 44zM372 828q0 45 43 45q41 0 41 -45q0 -44 -41 -44q-43 0 -43 44z" />
    <glyph glyph-name="Aring" unicode="&#xc5;" horiz-adv-x="609" 
d="M209 749q0 41 28.5 69.5t69.5 28.5t69.5 -28.5t28.5 -69.5q0 -28 -15 -52t-39 -36l228 -661h-65l-56 166h-309l-59 -166h-66l240 661q-55 27 -55 88zM307 613l-140 -395h273zM243 749q0 -26 19 -45t45 -19t45 19t19 45t-19 45t-45 19t-45 -19t-19 -45z" />
    <glyph glyph-name="AE" unicode="&#xc6;" horiz-adv-x="915" 
d="M408 0v166h-239l-88 -166h-70l364 680h475v-59h-379v-239h316v-55h-316v-268h379v-59h-442zM197 218h211v393z" />
    <glyph glyph-name="Ccedilla" unicode="&#xc7;" horiz-adv-x="656" 
d="M300 -96l20 89q-115 14 -184 105.5t-69 240.5q0 163 81 257t212 94q112 0 173 -59.5t63 -177.5l-60 -11q-3 186 -178 186q-103 0 -164 -76.5t-61 -212.5q0 -135 63 -211t169 -76q55 0 110 28.5t92 68.5l30 -53q-42 -45 -105.5 -75.5t-131.5 -30.5h-10l-12 -57q14 4 27 4
q33 0 52.5 -17.5t19.5 -45.5q0 -34 -24.5 -53t-62.5 -19q-32 0 -63 12l8 29q29 -11 53 -11q53 0 53 41q0 35 -47 35q-31 0 -52 -8z" />
    <glyph glyph-name="Egrave" unicode="&#xc8;" horiz-adv-x="610" 
d="M546 0h-442v680h442v-59h-379v-237h317v-59h-317v-266h379v-59zM301 761l-78 137h66l70 -137h-58z" />
    <glyph glyph-name="Eacute" unicode="&#xc9;" horiz-adv-x="610" 
d="M546 0h-442v680h442v-59h-379v-237h317v-59h-317v-266h379v-59zM424 898l-78 -137h-58l70 137h66z" />
    <glyph glyph-name="Ecircumflex" unicode="&#xca;" horiz-adv-x="610" 
d="M546 0h-442v680h442v-59h-379v-237h317v-59h-317v-266h379v-59zM395 761l-70 99l-69 -99h-55l92 137h66l91 -137h-55z" />
    <glyph glyph-name="Edieresis" unicode="&#xcb;" horiz-adv-x="610" 
d="M546 0h-442v680h442v-59h-379v-237h317v-59h-317v-266h379v-59zM177 828q0 45 43 45q41 0 41 -45q0 -44 -41 -44q-43 0 -43 44zM391 828q0 45 43 45q41 0 41 -45q0 -44 -41 -44q-43 0 -43 44z" />
    <glyph glyph-name="Igrave" unicode="&#xcc;" horiz-adv-x="274" 
d="M104 0v680h66v-680h-66zM114 761l-78 137h66l70 -137h-58z" />
    <glyph glyph-name="Iacute" unicode="&#xcd;" horiz-adv-x="274" 
d="M104 0v680h66v-680h-66zM243 898l-78 -137h-58l70 137h66z" />
    <glyph glyph-name="Icircumflex" unicode="&#xce;" horiz-adv-x="274" 
d="M104 0v680h66v-680h-66zM206 761l-70 99l-69 -99h-55l92 137h66l91 -137h-55z" />
    <glyph glyph-name="Idieresis" unicode="&#xcf;" horiz-adv-x="274" 
d="M104 0v680h66v-680h-66zM-14 828q0 45 43 45q41 0 41 -45q0 -44 -41 -44q-43 0 -43 44zM200 828q0 45 43 45q41 0 41 -45q0 -44 -41 -44q-43 0 -43 44z" />
    <glyph glyph-name="Eth" unicode="&#xd0;" horiz-adv-x="695" 
d="M104 0v314h-54v55h54v311h225q133 -1 216 -90.5t83 -250.5q0 -160 -83.5 -249.5t-215.5 -89.5h-225zM170 59h152q109 0 174.5 73.5t65.5 206.5q0 135 -65.5 208.5t-174.5 73.5h-152v-252h145v-55h-145v-255z" />
    <glyph glyph-name="Ntilde" unicode="&#xd1;" horiz-adv-x="733" 
d="M570 0l-401 570v-570h-65v680h58l401 -572v572h66v-680h-59zM250 784l-23 29q12 28 34.5 48.5t48.5 20.5q29 0 66.5 -34t56.5 -34q39 0 59 50l24 -29q-32 -69 -83 -69q-28 0 -66.5 34t-56.5 34q-36 0 -60 -50z" />
    <glyph glyph-name="Ograve" unicode="&#xd2;" horiz-adv-x="726" 
d="M65 339q0 157 83 254t214 97q132 0 215 -97t83 -254q0 -155 -83 -252t-215 -97q-131 0 -214 97t-83 252zM130 339q0 -133 64.5 -209.5t167.5 -76.5t168 77t65 209q0 134 -65 211t-168 77t-167.5 -77t-64.5 -211zM336 761l-78 137h66l70 -137h-58z" />
    <glyph glyph-name="Oacute" unicode="&#xd3;" horiz-adv-x="726" 
d="M65 339q0 157 83 254t214 97q132 0 215 -97t83 -254q0 -155 -83 -252t-215 -97q-131 0 -214 97t-83 252zM130 339q0 -133 64.5 -209.5t167.5 -76.5t168 77t65 209q0 134 -65 211t-168 77t-167.5 -77t-64.5 -211zM467 898l-78 -137h-58l70 137h66z" />
    <glyph glyph-name="Ocircumflex" unicode="&#xd4;" horiz-adv-x="726" 
d="M65 339q0 157 83 254t214 97q132 0 215 -97t83 -254q0 -155 -83 -252t-215 -97q-131 0 -214 97t-83 252zM130 339q0 -133 64.5 -209.5t167.5 -76.5t168 77t65 209q0 134 -65 211t-168 77t-167.5 -77t-64.5 -211zM431 761l-70 99l-69 -99h-55l92 137h66l91 -137h-55z" />
    <glyph glyph-name="Otilde" unicode="&#xd5;" horiz-adv-x="726" 
d="M65 339q0 157 83 254t214 97q132 0 215 -97t83 -254q0 -155 -83 -252t-215 -97q-131 0 -214 97t-83 252zM130 339q0 -133 64.5 -209.5t167.5 -76.5t168 77t65 209q0 134 -65 211t-168 77t-167.5 -77t-64.5 -211zM241 784l-23 29q12 28 34.5 48.5t48.5 20.5q29 0 66.5 -34
t56.5 -34q39 0 59 50l24 -29q-32 -69 -83 -69q-28 0 -66.5 34t-56.5 34q-36 0 -60 -50z" />
    <glyph glyph-name="Odieresis" unicode="&#xd6;" horiz-adv-x="726" 
d="M65 339q0 157 83 254t214 97q132 0 215 -97t83 -254q0 -155 -83 -252t-215 -97q-131 0 -214 97t-83 252zM130 339q0 -133 64.5 -209.5t167.5 -76.5t168 77t65 209q0 134 -65 211t-168 77t-167.5 -77t-64.5 -211zM214 828q0 45 43 45q41 0 41 -45q0 -44 -41 -44
q-43 0 -43 44zM428 828q0 45 43 45q41 0 41 -45q0 -44 -41 -44q-43 0 -43 44z" />
    <glyph glyph-name="multiply" unicode="&#xd7;" 
d="M412 444l-119 -142l119 -141l-38 -39l-119 142l-119 -142l-38 39l120 141l-120 142l38 38l119 -142l119 142z" />
    <glyph glyph-name="Oslash" unicode="&#xd8;" horiz-adv-x="726" 
d="M65 339q0 157 83 254t214 97q102 0 176 -60l34 50h50v-6l-51 -74q89 -99 89 -261q0 -155 -83 -252t-215 -97q-97 0 -172 56l-31 -46h-51v6l49 71q-92 97 -92 262zM130 339q0 -131 64 -209l308 448q-58 49 -140 49q-103 0 -167.5 -77t-64.5 -211zM595 339q0 128 -62 206
l-307 -447q59 -45 136 -45q103 0 168 77t65 209z" />
    <glyph glyph-name="Ugrave" unicode="&#xd9;" horiz-adv-x="692" 
d="M162 680v-406q0 -105 45 -164.5t138 -59.5t139 61.5t46 163.5v405h65v-409q0 -123 -64 -203t-186 -80q-123 0 -186 76.5t-63 206.5v409h66zM320 761l-78 137h66l70 -137h-58z" />
    <glyph glyph-name="Uacute" unicode="&#xda;" horiz-adv-x="692" 
d="M162 680v-406q0 -105 45 -164.5t138 -59.5t139 61.5t46 163.5v405h65v-409q0 -123 -64 -203t-186 -80q-123 0 -186 76.5t-63 206.5v409h66zM450 898l-78 -137h-58l70 137h66z" />
    <glyph glyph-name="Ucircumflex" unicode="&#xdb;" horiz-adv-x="692" 
d="M162 680v-406q0 -105 45 -164.5t138 -59.5t139 61.5t46 163.5v405h65v-409q0 -123 -64 -203t-186 -80q-123 0 -186 76.5t-63 206.5v409h66zM414 761l-70 99l-69 -99h-55l92 137h66l91 -137h-55z" />
    <glyph glyph-name="Udieresis" unicode="&#xdc;" horiz-adv-x="692" 
d="M162 680v-406q0 -105 45 -164.5t138 -59.5t139 61.5t46 163.5v405h65v-409q0 -123 -64 -203t-186 -80q-123 0 -186 76.5t-63 206.5v409h66zM197 828q0 45 43 45q41 0 41 -45q0 -44 -41 -44q-43 0 -43 44zM411 828q0 45 43 45q41 0 41 -45q0 -44 -41 -44q-43 0 -43 44z
" />
    <glyph glyph-name="Yacute" unicode="&#xdd;" horiz-adv-x="580" 
d="M258 0v288l-240 386v6h73l199 -332l201 332h71v-6l-240 -385v-289h-64zM395 898l-78 -137h-58l70 137h66z" />
    <glyph glyph-name="Thorn" unicode="&#xde;" horiz-adv-x="605" 
d="M104 0v680h65v-110h183q90 0 148 -54t58 -169q0 -105 -59.5 -162t-146.5 -57h-183v-128h-65zM340 511h-171v-324h171q66 0 109 41t43 120q0 85 -42 124t-110 39z" />
    <glyph glyph-name="germandbls" unicode="&#xdf;" horiz-adv-x="578" 
d="M87 0v467q0 124 58 188.5t151 64.5q81 0 133 -55.5t52 -131.5q0 -33 -12.5 -64.5t-27 -50.5t-27 -36.5t-12.5 -25.5q0 -7 20 -25t43.5 -39.5t43.5 -59t20 -78.5q0 -75 -46 -119.5t-120 -44.5q-78 0 -129 32l11 55q44 -30 98 -30q50 0 83 31t33 84q0 34 -19.5 65.5
t-43 50.5t-43 39t-19.5 34q0 16 20 42t40.5 61.5t20.5 74.5q0 58 -34.5 94.5t-90.5 36.5q-65 0 -101.5 -50.5t-36.5 -142.5v-467h-65z" />
    <glyph glyph-name="agrave" unicode="&#xe0;" horiz-adv-x="600" 
d="M485 523v-412q0 -64 40 -64q20 0 49 22l6 -53q-35 -26 -77 -26q-68 0 -79 73q-57 -73 -153 -73q-98 0 -156.5 71.5t-58.5 197.5t58 199.5t160 73.5q41 0 81.5 -18t64.5 -48v57h65zM420 403q-22 29 -56.5 49.5t-74.5 20.5q-78 0 -123 -57.5t-45 -156.5q0 -98 45 -154
t123 -56q40 0 74.5 21t56.5 51v282zM283 604l-78 137h66l70 -137h-58z" />
    <glyph glyph-name="aacute" unicode="&#xe1;" horiz-adv-x="600" 
d="M485 523v-412q0 -64 40 -64q20 0 49 22l6 -53q-35 -26 -77 -26q-68 0 -79 73q-57 -73 -153 -73q-98 0 -156.5 71.5t-58.5 197.5t58 199.5t160 73.5q41 0 81.5 -18t64.5 -48v57h65zM420 403q-22 29 -56.5 49.5t-74.5 20.5q-78 0 -123 -57.5t-45 -156.5q0 -98 45 -154
t123 -56q40 0 74.5 21t56.5 51v282zM404 741l-78 -137h-58l70 137h66z" />
    <glyph glyph-name="acircumflex" unicode="&#xe2;" horiz-adv-x="600" 
d="M485 523v-412q0 -64 40 -64q20 0 49 22l6 -53q-35 -26 -77 -26q-68 0 -79 73q-57 -73 -153 -73q-98 0 -156.5 71.5t-58.5 197.5t58 199.5t160 73.5q41 0 81.5 -18t64.5 -48v57h65zM420 403q-22 29 -56.5 49.5t-74.5 20.5q-78 0 -123 -57.5t-45 -156.5q0 -98 45 -154
t123 -56q40 0 74.5 21t56.5 51v282zM364 604l-70 99l-69 -99h-55l92 137h66l91 -137h-55z" />
    <glyph glyph-name="atilde" unicode="&#xe3;" horiz-adv-x="600" 
d="M485 523v-412q0 -64 40 -64q20 0 49 22l6 -53q-35 -26 -77 -26q-68 0 -79 73q-57 -73 -153 -73q-98 0 -156.5 71.5t-58.5 197.5t58 199.5t160 73.5q41 0 81.5 -18t64.5 -48v57h65zM420 403q-22 29 -56.5 49.5t-74.5 20.5q-78 0 -123 -57.5t-45 -156.5q0 -98 45 -154
t123 -56q40 0 74.5 21t56.5 51v282zM175 627l-23 29q12 28 34.5 48.5t48.5 20.5q29 0 66.5 -34t56.5 -34q39 0 59 50l24 -29q-32 -69 -83 -69q-28 0 -66.5 34t-56.5 34q-36 0 -60 -50z" />
    <glyph glyph-name="adieresis" unicode="&#xe4;" horiz-adv-x="600" 
d="M485 523v-412q0 -64 40 -64q20 0 49 22l6 -53q-35 -26 -77 -26q-68 0 -79 73q-57 -73 -153 -73q-98 0 -156.5 71.5t-58.5 197.5t58 199.5t160 73.5q41 0 81.5 -18t64.5 -48v57h65zM420 403q-22 29 -56.5 49.5t-74.5 20.5q-78 0 -123 -57.5t-45 -156.5q0 -98 45 -154
t123 -56q40 0 74.5 21t56.5 51v282zM160 671q0 45 43 45q41 0 41 -45q0 -44 -41 -44q-43 0 -43 44zM374 671q0 45 43 45q41 0 41 -45q0 -44 -41 -44q-43 0 -43 44z" />
    <glyph glyph-name="aring" unicode="&#xe5;" horiz-adv-x="600" 
d="M485 523v-412q0 -64 40 -64q20 0 49 22l6 -53q-35 -26 -77 -26q-68 0 -79 73q-57 -73 -153 -73q-98 0 -156.5 71.5t-58.5 197.5t58 199.5t160 73.5q41 0 81.5 -18t64.5 -48v57h65zM420 403q-22 29 -56.5 49.5t-74.5 20.5q-78 0 -123 -57.5t-45 -156.5q0 -98 45 -154
t123 -56q40 0 74.5 21t56.5 51v282zM202 670q0 40 29 69t69 29t69 -29t29 -69t-29 -69t-69 -29t-69 29t-29 69zM236 670q0 -26 19 -45t45 -19t45 19t19 45t-19 45t-45 19t-45 -19t-19 -45z" />
    <glyph glyph-name="ae" unicode="&#xe6;" horiz-adv-x="831" 
d="M101 444l-11 57q73 36 182 36q72 0 103.5 -34.5t41.5 -96.5q19 51 63 91t115 40q94 0 137.5 -58.5t43.5 -154.5q0 -48 -9 -86h-330q2 -93 36.5 -144t116.5 -51t150 64l26 -48q-78 -73 -182 -73q-64 0 -108.5 27t-64.5 73q-88 -100 -194 -100q-75 0 -123.5 46t-48.5 122
q0 87 64 133.5t170 46.5q51 0 93 -10q0 85 -24.5 120.5t-88.5 35.5q-37 0 -83 -10.5t-75 -25.5zM440 291h277q3 33 3 37q0 68 -31 110t-98 42q-71 0 -110 -57t-41 -132zM376 267q-33 13 -92 13q-79 0 -126.5 -31t-47.5 -95q0 -50 31.5 -80t85.5 -30q81 0 149 75v148z" />
    <glyph glyph-name="ccedilla" unicode="&#xe7;" horiz-adv-x="531" 
d="M234 -96l19 85q-100 12 -148.5 84t-48.5 187q0 123 64 200t169 77q89 0 138 -48t57 -133l-53 -18q-9 140 -137 140q-79 0 -125.5 -60t-46.5 -156q0 -101 43.5 -159t135.5 -58q74 0 151 66l28 -52q-81 -73 -186 -73h-11l-11 -53q14 4 27 4q33 0 52.5 -17.5t19.5 -45.5
q0 -34 -24.5 -53t-62.5 -19q-32 0 -63 12l8 29q29 -11 53 -11q53 0 53 41q0 35 -47 35q-31 0 -52 -8z" />
    <glyph glyph-name="egrave" unicode="&#xe8;" horiz-adv-x="538" 
d="M473 238h-355q3 -91 47 -143t134 -52q80 0 151 62l27 -51q-76 -68 -186 -68q-119 0 -177.5 74.5t-58.5 199.5q0 122 63 199.5t169 77.5q98 0 147 -60.5t49 -154.5q0 -44 -10 -84zM121 291h299q4 24 4 39q0 66 -35.5 108t-101.5 42q-75 0 -119 -52t-47 -137zM276 604
l-78 137h66l70 -137h-58z" />
    <glyph glyph-name="eacute" unicode="&#xe9;" horiz-adv-x="538" 
d="M473 238h-355q3 -91 47 -143t134 -52q80 0 151 62l27 -51q-76 -68 -186 -68q-119 0 -177.5 74.5t-58.5 199.5q0 122 63 199.5t169 77.5q98 0 147 -60.5t49 -154.5q0 -44 -10 -84zM121 291h299q4 24 4 39q0 66 -35.5 108t-101.5 42q-75 0 -119 -52t-47 -137zM388 741
l-78 -137h-58l70 137h66z" />
    <glyph glyph-name="ecircumflex" unicode="&#xea;" horiz-adv-x="538" 
d="M473 238h-355q3 -91 47 -143t134 -52q80 0 151 62l27 -51q-76 -68 -186 -68q-119 0 -177.5 74.5t-58.5 199.5q0 122 63 199.5t169 77.5q98 0 147 -60.5t49 -154.5q0 -44 -10 -84zM121 291h299q4 24 4 39q0 66 -35.5 108t-101.5 42q-75 0 -119 -52t-47 -137zM361 604
l-70 99l-69 -99h-55l92 137h66l91 -137h-55z" />
    <glyph glyph-name="edieresis" unicode="&#xeb;" horiz-adv-x="538" 
d="M473 238h-355q3 -91 47 -143t134 -52q80 0 151 62l27 -51q-76 -68 -186 -68q-119 0 -177.5 74.5t-58.5 199.5q0 122 63 199.5t169 77.5q98 0 147 -60.5t49 -154.5q0 -44 -10 -84zM121 291h299q4 24 4 39q0 66 -35.5 108t-101.5 42q-75 0 -119 -52t-47 -137zM142 671
q0 45 43 45q41 0 41 -45q0 -44 -41 -44q-43 0 -43 44zM356 671q0 45 43 45q41 0 41 -45q0 -44 -41 -44q-43 0 -43 44z" />
    <glyph glyph-name="igrave" unicode="&#xec;" horiz-adv-x="272" 
d="M89 523h64v-422q0 -54 38 -54q21 0 51 21l6 -52q-33 -26 -77 -26q-42 0 -62 23t-20 73v437zM105 604l-78 137h66l70 -137h-58z" />
    <glyph glyph-name="iacute" unicode="&#xed;" horiz-adv-x="272" 
d="M89 523h64v-422q0 -54 38 -54q21 0 51 21l6 -52q-33 -26 -77 -26q-42 0 -62 23t-20 73v437zM226 741l-78 -137h-58l70 137h66z" />
    <glyph glyph-name="icircumflex" unicode="&#xee;" horiz-adv-x="272" 
d="M89 523h64v-422q0 -54 38 -54q21 0 51 21l6 -52q-33 -26 -77 -26q-42 0 -62 23t-20 73v437zM190 604l-70 99l-69 -99h-55l92 137h66l91 -137h-55z" />
    <glyph glyph-name="idieresis" unicode="&#xef;" horiz-adv-x="272" 
d="M89 523h64v-422q0 -54 38 -54q21 0 51 21l6 -52q-33 -26 -77 -26q-42 0 -62 23t-20 73v437zM-27 671q0 45 43 45q41 0 41 -45q0 -44 -41 -44q-43 0 -43 44zM187 671q0 45 43 45q41 0 41 -45q0 -44 -41 -44q-43 0 -43 44z" />
    <glyph glyph-name="eth" unicode="&#xf0;" horiz-adv-x="547" 
d="M218 676l26 44q55 -18 100 -57l52 62l22 -20l-52 -63q115 -117 115 -301q0 -164 -60.5 -257.5t-169.5 -93.5q-85 0 -140.5 66.5t-55.5 172.5q0 104 49 164.5t134 60.5q107 0 178 -122v9q0 152 -89 255l-56 -68l-21 21l57 68q-41 40 -89 59zM253 51q66 0 107 57.5
t52 159.5q-65 130 -159 130q-60 0 -97 -44t-37 -126q0 -77 38 -127t96 -50z" />
    <glyph glyph-name="ntilde" unicode="&#xf1;" horiz-adv-x="591" 
d="M152 0h-65v523h65v-84q49 93 162 93q84 0 126 -53t42 -152v-226q0 -29 9 -41.5t29 -12.5t50 21l7 -52q-35 -26 -77 -26q-83 0 -83 96v230q0 155 -125 155q-53 0 -89.5 -35t-50.5 -89v-347zM172 627l-23 29q12 28 34.5 48.5t48.5 20.5q29 0 66.5 -34t56.5 -34q39 0 59 50
l24 -29q-32 -69 -83 -69q-28 0 -66.5 34t-56.5 34q-36 0 -60 -50z" />
    <glyph glyph-name="ograve" unicode="&#xf2;" horiz-adv-x="582" 
d="M55 260q0 127 64.5 202t170.5 75q107 0 172.5 -75t65.5 -202q0 -126 -65.5 -200t-172.5 -74q-106 0 -170.5 74t-64.5 200zM118 260q0 -99 47.5 -156t124.5 -57q79 0 126 57t47 156q0 100 -47 158t-126 58q-78 0 -125 -58t-47 -158zM265 604l-78 137h66l70 -137h-58z" />
    <glyph glyph-name="oacute" unicode="&#xf3;" horiz-adv-x="582" 
d="M55 260q0 127 64.5 202t170.5 75q107 0 172.5 -75t65.5 -202q0 -126 -65.5 -200t-172.5 -74q-106 0 -170.5 74t-64.5 200zM118 260q0 -99 47.5 -156t124.5 -57q79 0 126 57t47 156q0 100 -47 158t-126 58q-78 0 -125 -58t-47 -158zM396 741l-78 -137h-58l70 137h66z" />
    <glyph glyph-name="ocircumflex" unicode="&#xf4;" horiz-adv-x="582" 
d="M55 260q0 127 64.5 202t170.5 75q107 0 172.5 -75t65.5 -202q0 -126 -65.5 -200t-172.5 -74q-106 0 -170.5 74t-64.5 200zM118 260q0 -99 47.5 -156t124.5 -57q79 0 126 57t47 156q0 100 -47 158t-126 58q-78 0 -125 -58t-47 -158zM361 604l-70 99l-69 -99h-55l92 137h66
l91 -137h-55z" />
    <glyph glyph-name="otilde" unicode="&#xf5;" horiz-adv-x="582" 
d="M55 260q0 127 64.5 202t170.5 75q107 0 172.5 -75t65.5 -202q0 -126 -65.5 -200t-172.5 -74q-106 0 -170.5 74t-64.5 200zM118 260q0 -99 47.5 -156t124.5 -57q79 0 126 57t47 156q0 100 -47 158t-126 58q-78 0 -125 -58t-47 -158zM169 627l-23 29q12 28 34.5 48.5
t48.5 20.5q29 0 66.5 -34t56.5 -34q39 0 59 50l24 -29q-32 -69 -83 -69q-28 0 -66.5 34t-56.5 34q-36 0 -60 -50z" />
    <glyph glyph-name="odieresis" unicode="&#xf6;" horiz-adv-x="582" 
d="M55 260q0 127 64.5 202t170.5 75q107 0 172.5 -75t65.5 -202q0 -126 -65.5 -200t-172.5 -74q-106 0 -170.5 74t-64.5 200zM118 260q0 -99 47.5 -156t124.5 -57q79 0 126 57t47 156q0 100 -47 158t-126 58q-78 0 -125 -58t-47 -158zM142 671q0 45 43 45q41 0 41 -45
q0 -44 -41 -44q-43 0 -43 44zM356 671q0 45 43 45q41 0 41 -45q0 -44 -41 -44q-43 0 -43 44z" />
    <glyph glyph-name="divide" unicode="&#xf7;" 
d="M60 329h390v-54h-390v54zM203 477q0 53 46 53t46 -53t-46 -53t-46 53zM203 127q0 53 46 53t46 -53t-46 -53t-46 53z" />
    <glyph glyph-name="oslash" unicode="&#xf8;" horiz-adv-x="582" 
d="M55 260q0 127 64.5 202t170.5 75q87 0 147 -51l25 36h38v-6l-38 -54q66 -75 66 -202q0 -126 -65.5 -200t-172.5 -74q-74 0 -131 38l-17 -24h-38v6l28 40q-77 75 -77 214zM118 260q0 -102 51 -161l232 335q-45 42 -111 42q-78 0 -125 -58t-47 -158zM463 260q0 87 -39 146
l-229 -330q40 -29 95 -29q79 0 126 57t47 156z" />
    <glyph glyph-name="ugrave" unicode="&#xf9;" horiz-adv-x="591" 
d="M412 523h64v-422q0 -54 38 -54q21 0 51 21l6 -52q-33 -26 -77 -26q-40 0 -60 20t-22 64q-50 -84 -161 -84q-85 0 -127 53.5t-42 152.5v327h64v-319q0 -153 124 -153q103 0 142 112v360zM256 604l-78 137h66l70 -137h-58z" />
    <glyph glyph-name="uacute" unicode="&#xfa;" horiz-adv-x="591" 
d="M412 523h64v-422q0 -54 38 -54q21 0 51 21l6 -52q-33 -26 -77 -26q-40 0 -60 20t-22 64q-50 -84 -161 -84q-85 0 -127 53.5t-42 152.5v327h64v-319q0 -153 124 -153q103 0 142 112v360zM388 741l-78 -137h-58l70 137h66z" />
    <glyph glyph-name="ucircumflex" unicode="&#xfb;" horiz-adv-x="591" 
d="M412 523h64v-422q0 -54 38 -54q21 0 51 21l6 -52q-33 -26 -77 -26q-40 0 -60 20t-22 64q-50 -84 -161 -84q-85 0 -127 53.5t-42 152.5v327h64v-319q0 -153 124 -153q103 0 142 112v360zM354 604l-70 99l-69 -99h-55l92 137h66l91 -137h-55z" />
    <glyph glyph-name="udieresis" unicode="&#xfc;" horiz-adv-x="591" 
d="M412 523h64v-422q0 -54 38 -54q21 0 51 21l6 -52q-33 -26 -77 -26q-40 0 -60 20t-22 64q-50 -84 -161 -84q-85 0 -127 53.5t-42 152.5v327h64v-319q0 -153 124 -153q103 0 142 112v360zM135 671q0 45 43 45q41 0 41 -45q0 -44 -41 -44q-43 0 -43 44zM349 671q0 45 43 45
q41 0 41 -45q0 -44 -41 -44q-43 0 -43 44z" />
    <glyph glyph-name="yacute" unicode="&#xfd;" horiz-adv-x="506" 
d="M16 -168l12 51q39 -25 86 -25q40 0 62.5 25t41.5 80l14 42l-213 518h72l171 -451l155 451h66l-207 -574q-27 -75 -62 -111t-97 -36q-57 0 -101 30zM361 741l-78 -137h-58l70 137h66z" />
    <glyph glyph-name="thorn" unicode="&#xfe;" horiz-adv-x="573" 
d="M517 262q0 -126 -58 -199t-156 -73q-93 0 -151 67v-245h-65v898h65v-244q59 66 151 66q98 0 156 -72t58 -198zM452 259q0 99 -45 156.5t-123 57.5q-40 0 -76 -20t-56 -48v-289q21 -28 57 -47.5t75 -19.5q78 0 123 56t45 154z" />
    <glyph glyph-name="ydieresis" unicode="&#xff;" horiz-adv-x="506" 
d="M16 -168l12 51q39 -25 86 -25q40 0 62.5 25t41.5 80l14 42l-213 518h72l171 -451l155 451h66l-207 -574q-27 -75 -62 -111t-97 -36q-57 0 -101 30zM111 671q0 45 43 45q41 0 41 -45q0 -44 -41 -44q-43 0 -43 44zM325 671q0 45 43 45q41 0 41 -45q0 -44 -41 -44
q-43 0 -43 44z" />
    <glyph glyph-name="Amacron" unicode="&#x100;" horiz-adv-x="609" 
d="M24 0l247 680h74l234 -680h-65l-56 166h-309l-59 -166h-66zM307 613l-140 -395h273zM410 794h-205v49h205v-49z" />
    <glyph glyph-name="amacron" unicode="&#x101;" horiz-adv-x="600" 
d="M485 523v-412q0 -64 40 -64q20 0 49 22l6 -53q-35 -26 -77 -26q-68 0 -79 73q-57 -73 -153 -73q-98 0 -156.5 71.5t-58.5 197.5t58 199.5t160 73.5q41 0 81.5 -18t64.5 -48v57h65zM420 403q-22 29 -56.5 49.5t-74.5 20.5q-78 0 -123 -57.5t-45 -156.5q0 -98 45 -154
t123 -56q40 0 74.5 21t56.5 51v282zM403 637h-205v49h205v-49z" />
    <glyph glyph-name="Abreve" unicode="&#x102;" horiz-adv-x="609" 
d="M24 0l247 680h74l234 -680h-65l-56 166h-309l-59 -166h-66zM307 613l-140 -395h273zM194 845l22 29q35 -56 92 -56q58 0 92 56l21 -29q-38 -74 -113 -74q-40 0 -69 22t-45 52z" />
    <glyph glyph-name="abreve" unicode="&#x103;" horiz-adv-x="600" 
d="M485 523v-412q0 -64 40 -64q20 0 49 22l6 -53q-35 -26 -77 -26q-68 0 -79 73q-57 -73 -153 -73q-98 0 -156.5 71.5t-58.5 197.5t58 199.5t160 73.5q41 0 81.5 -18t64.5 -48v57h65zM420 403q-22 29 -56.5 49.5t-74.5 20.5q-78 0 -123 -57.5t-45 -156.5q0 -98 45 -154
t123 -56q40 0 74.5 21t56.5 51v282zM187 688l22 29q35 -56 92 -56q58 0 92 56l21 -29q-38 -74 -113 -74q-40 0 -69 22t-45 52z" />
    <glyph glyph-name="Aogonek" unicode="&#x104;" horiz-adv-x="609" 
d="M24 0l247 680h74l234 -680h-14q-36 -2 -61 -22.5t-25 -54.5q0 -28 15.5 -43.5t38.5 -15.5q27 0 49 15l7 -36q-32 -16 -64 -16q-36 0 -59 23.5t-23 65.5q0 35 20 59t48 32l-53 159h-309l-59 -166h-66zM307 613l-140 -395h273z" />
    <glyph glyph-name="aogonek" unicode="&#x105;" horiz-adv-x="600" 
d="M485 523v-412q0 -64 40 -64q20 0 49 22l6 -53q-32 -23 -72 -26q-40 -20 -40 -67q0 -28 15 -43.5t39 -15.5q27 0 49 15l6 -36q-30 -16 -63 -16q-36 0 -59.5 23.5t-23.5 65.5q0 51 40 79q-38 11 -47 68q-57 -73 -153 -73q-98 0 -156.5 71.5t-58.5 197.5t58 199.5t160 73.5
q41 0 81.5 -18t64.5 -48v57h65zM420 403q-22 29 -56.5 49.5t-74.5 20.5q-78 0 -123 -57.5t-45 -156.5q0 -98 45 -154t123 -56q40 0 74.5 21t56.5 51v282z" />
    <glyph glyph-name="Cacute" unicode="&#x106;" horiz-adv-x="655" 
d="M567 149l30 -53q-42 -45 -105.5 -75.5t-131.5 -30.5q-131 0 -212 93.5t-81 255.5q0 163 81 257t212 94q112 0 173 -59.5t63 -177.5l-60 -11q-3 186 -178 186q-103 0 -164 -76.5t-61 -212.5q0 -135 63 -211t169 -76q55 0 110 28.5t92 68.5zM467 898l-78 -137h-58l70 137
h66z" />
    <glyph glyph-name="cacute" unicode="&#x107;" horiz-adv-x="530" 
d="M451 111l28 -52q-81 -73 -186 -73q-120 0 -179 74t-59 200q0 123 64 200t169 77q89 0 138 -48t57 -133l-53 -18q-9 140 -137 140q-79 0 -125.5 -60t-46.5 -156q0 -101 43.5 -159t135.5 -58q74 0 151 66zM389 741l-78 -137h-58l70 137h66z" />
    <glyph glyph-name="Ccircumflex" unicode="&#x108;" horiz-adv-x="655" 
d="M567 149l30 -53q-42 -45 -105.5 -75.5t-131.5 -30.5q-131 0 -212 93.5t-81 255.5q0 163 81 257t212 94q112 0 173 -59.5t63 -177.5l-60 -11q-3 186 -178 186q-103 0 -164 -76.5t-61 -212.5q0 -135 63 -211t169 -76q55 0 110 28.5t92 68.5zM433 761l-70 99l-69 -99h-55
l92 137h66l91 -137h-55z" />
    <glyph glyph-name="ccircumflex" unicode="&#x109;" horiz-adv-x="530" 
d="M451 111l28 -52q-81 -73 -186 -73q-120 0 -179 74t-59 200q0 123 64 200t169 77q89 0 138 -48t57 -133l-53 -18q-9 140 -137 140q-79 0 -125.5 -60t-46.5 -156q0 -101 43.5 -159t135.5 -58q74 0 151 66zM360 604l-70 99l-69 -99h-55l92 137h66l91 -137h-55z" />
    <glyph glyph-name="Cdotaccent" unicode="&#x10a;" horiz-adv-x="655" 
d="M567 149l30 -53q-42 -45 -105.5 -75.5t-131.5 -30.5q-131 0 -212 93.5t-81 255.5q0 163 81 257t212 94q112 0 173 -59.5t63 -177.5l-60 -11q-3 186 -178 186q-103 0 -164 -76.5t-61 -212.5q0 -135 63 -211t169 -76q55 0 110 28.5t92 68.5zM321 829q0 45 45 45
q43 0 43 -45t-43 -45q-45 0 -45 45z" />
    <glyph glyph-name="cdotaccent" unicode="&#x10b;" horiz-adv-x="530" 
d="M451 111l28 -52q-81 -73 -186 -73q-120 0 -179 74t-59 200q0 123 64 200t169 77q89 0 138 -48t57 -133l-53 -18q-9 140 -137 140q-79 0 -125.5 -60t-46.5 -156q0 -101 43.5 -159t135.5 -58q74 0 151 66zM249 672q0 45 45 45q43 0 43 -45t-43 -45q-45 0 -45 45z" />
    <glyph glyph-name="Ccaron" unicode="&#x10c;" horiz-adv-x="655" 
d="M567 149l30 -53q-42 -45 -105.5 -75.5t-131.5 -30.5q-131 0 -212 93.5t-81 255.5q0 163 81 257t212 94q112 0 173 -59.5t63 -177.5l-60 -11q-3 186 -178 186q-103 0 -164 -76.5t-61 -212.5q0 -135 63 -211t169 -76q55 0 110 28.5t92 68.5zM296 898l70 -99l69 99h55
l-91 -137h-66l-92 137h55z" />
    <glyph glyph-name="ccaron" unicode="&#x10d;" horiz-adv-x="530" 
d="M451 111l28 -52q-81 -73 -186 -73q-120 0 -179 74t-59 200q0 123 64 200t169 77q89 0 138 -48t57 -133l-53 -18q-9 140 -137 140q-79 0 -125.5 -60t-46.5 -156q0 -101 43.5 -159t135.5 -58q74 0 151 66zM224 741l70 -99l69 99h55l-91 -137h-66l-92 137h55z" />
    <glyph glyph-name="Dcaron" unicode="&#x10e;" horiz-adv-x="695" 
d="M104 0v680h225q133 -1 216 -90.5t83 -250.5q0 -160 -83.5 -249.5t-215.5 -89.5h-225zM170 59h152q108 0 173.5 73t65.5 207q0 135 -65 208.5t-174 73.5h-152v-562zM233 898l70 -99l69 99h55l-91 -137h-66l-92 137h55z" />
    <glyph glyph-name="dcaron" unicode="&#x10f;" horiz-adv-x="614" 
d="M421 710h65v-599q0 -64 40 -64q21 0 48 22l7 -53q-35 -26 -79 -26q-66 0 -78 70q-56 -70 -153 -70q-98 0 -156.5 73t-58.5 199t58.5 198t156.5 72q90 0 150 -65v243zM121 259q0 -98 45 -154t123 -56q79 0 132 67v289q-21 29 -56.5 48.5t-75.5 19.5q-78 0 -123 -57.5
t-45 -156.5zM569 527l21 69q-43 4 -43 44q0 48 44 48q24 0 37 -14.5t13 -38.5q0 -58 -37 -122z" />
    <glyph glyph-name="Dcroat" unicode="&#x110;" horiz-adv-x="695" 
d="M104 0v314h-54v55h54v311h225q133 -1 216 -90.5t83 -250.5q0 -160 -83.5 -249.5t-215.5 -89.5h-225zM170 59h152q109 0 174.5 73.5t65.5 206.5q0 135 -65.5 208.5t-174.5 73.5h-152v-252h145v-55h-145v-255z" />
    <glyph glyph-name="dcroat" unicode="&#x111;" horiz-adv-x="600" 
d="M421 710h65v-72h87v-50h-87v-477q0 -64 40 -64q21 0 48 22l7 -53q-35 -26 -79 -26q-66 0 -78 70q-56 -70 -153 -70q-98 0 -156.5 73t-58.5 199t58.5 198t156.5 72q90 0 150 -65v121h-113v50h113v72zM121 259q0 -98 45 -154t123 -56q79 0 132 67v289q-21 29 -56.5 48.5
t-75.5 19.5q-78 0 -123 -57.5t-45 -156.5z" />
    <glyph glyph-name="Emacron" unicode="&#x112;" horiz-adv-x="610" 
d="M546 0h-442v680h442v-59h-379v-237h317v-59h-317v-266h379v-59zM428 794h-205v49h205v-49z" />
    <glyph glyph-name="emacron" unicode="&#x113;" horiz-adv-x="538" 
d="M473 238h-355q3 -91 47 -143t134 -52q80 0 151 62l27 -51q-76 -68 -186 -68q-119 0 -177.5 74.5t-58.5 199.5q0 122 63 199.5t169 77.5q98 0 147 -60.5t49 -154.5q0 -44 -10 -84zM121 291h299q4 24 4 39q0 66 -35.5 108t-101.5 42q-75 0 -119 -52t-47 -137zM389 637h-205
v49h205v-49z" />
    <glyph glyph-name="Ebreve" unicode="&#x114;" horiz-adv-x="610" 
d="M546 0h-442v680h442v-59h-379v-237h317v-59h-317v-266h379v-59zM212 845l22 29q35 -56 92 -56q58 0 92 56l21 -29q-38 -74 -113 -74q-40 0 -69 22t-45 52z" />
    <glyph glyph-name="ebreve" unicode="&#x115;" horiz-adv-x="538" 
d="M473 238h-355q3 -91 47 -143t134 -52q80 0 151 62l27 -51q-76 -68 -186 -68q-119 0 -177.5 74.5t-58.5 199.5q0 122 63 199.5t169 77.5q98 0 147 -60.5t49 -154.5q0 -44 -10 -84zM121 291h299q4 24 4 39q0 66 -35.5 108t-101.5 42q-75 0 -119 -52t-47 -137zM177 688
l22 29q35 -56 92 -56q58 0 92 56l21 -29q-38 -74 -113 -74q-40 0 -69 22t-45 52z" />
    <glyph glyph-name="Edotaccent" unicode="&#x116;" horiz-adv-x="610" 
d="M546 0h-442v680h442v-59h-379v-237h317v-59h-317v-266h379v-59zM280 829q0 45 45 45q43 0 43 -45t-43 -45q-45 0 -45 45z" />
    <glyph glyph-name="edotaccent" unicode="&#x117;" horiz-adv-x="538" 
d="M473 238h-355q3 -91 47 -143t134 -52q80 0 151 62l27 -51q-76 -68 -186 -68q-119 0 -177.5 74.5t-58.5 199.5q0 122 63 199.5t169 77.5q98 0 147 -60.5t49 -154.5q0 -44 -10 -84zM121 291h299q4 24 4 39q0 66 -35.5 108t-101.5 42q-75 0 -119 -52t-47 -137zM246 672
q0 45 45 45q43 0 43 -45t-43 -45q-45 0 -45 45z" />
    <glyph glyph-name="Eogonek" unicode="&#x118;" horiz-adv-x="610" 
d="M546 0h-8q-34 -2 -58 -22.5t-24 -54.5q0 -28 15.5 -43.5t38.5 -15.5q27 0 49 15l7 -36q-32 -16 -64 -16q-36 0 -59 23.5t-23 65.5q0 58 51 84h-367v680h442v-59h-379v-237h317v-59h-317v-266h379v-59z" />
    <glyph glyph-name="eogonek" unicode="&#x119;" horiz-adv-x="540" 
d="M474 238h-355q3 -91 47 -143t134 -52q80 0 151 62l27 -51q-60 -54 -142 -65q-41 -21 -41 -66q0 -28 15.5 -43.5t38.5 -15.5q27 0 49 15l7 -36q-32 -16 -64 -16q-36 0 -59 23.5t-23 65.5t31 70q-118 1 -176 75t-58 199q0 122 63 199.5t169 77.5q98 0 147 -60.5t49 -154.5
q0 -44 -10 -84zM122 291h299q4 24 4 39q0 66 -35.5 108t-101.5 42q-75 0 -119 -52t-47 -137z" />
    <glyph glyph-name="Ecaron" unicode="&#x11a;" horiz-adv-x="610" 
d="M546 0h-442v680h442v-59h-379v-237h317v-59h-317v-266h379v-59zM256 898l70 -99l69 99h55l-91 -137h-66l-92 137h55z" />
    <glyph glyph-name="ecaron" unicode="&#x11b;" horiz-adv-x="538" 
d="M473 238h-355q3 -91 47 -143t134 -52q80 0 151 62l27 -51q-76 -68 -186 -68q-119 0 -177.5 74.5t-58.5 199.5q0 122 63 199.5t169 77.5q98 0 147 -60.5t49 -154.5q0 -44 -10 -84zM121 291h299q4 24 4 39q0 66 -35.5 108t-101.5 42q-75 0 -119 -52t-47 -137zM219 741
l70 -99l69 99h55l-91 -137h-66l-92 137h55z" />
    <glyph glyph-name="Gcircumflex" unicode="&#x11c;" horiz-adv-x="687" 
d="M591 599l-31 -51q-80 80 -181 80q-109 0 -178 -77.5t-69 -211.5t69 -210.5t175 -76.5q104 0 176 58v190h-204v59h265v-286q-42 -35 -109 -59t-131 -24q-132 0 -220 94.5t-88 254.5q0 161 88 256t220 95q125 0 218 -91zM442 761l-70 99l-69 -99h-55l92 137h66l91 -137h-55
z" />
    <glyph glyph-name="gcircumflex" unicode="&#x11d;" horiz-adv-x="573" 
d="M361 604l-70 99l-69 -99h-55l92 137h66l91 -137h-55zM57 280q0 114 59 183t157 69q86 0 148 -67v58h65v-500q0 -110 -57 -165.5t-147 -55.5q-13 0 -26.5 1t-24 2.5t-22 5t-19.5 5.5t-18.5 6.5t-15.5 6.5t-15 7.5t-12.5 6.5t-11.5 7l-9 5l16 59q74 -53 151 -53
q65 0 105.5 37t40.5 118v78q-59 -64 -148 -64q-98 0 -157 69t-59 181zM122 280q0 -87 45.5 -139.5t122.5 -52.5q71 0 131 67v248q-55 70 -130 70q-77 0 -123 -52.5t-46 -140.5z" />
    <glyph glyph-name="Gbreve" unicode="&#x11e;" horiz-adv-x="687" 
d="M591 599l-31 -51q-80 80 -181 80q-109 0 -178 -77.5t-69 -211.5t69 -210.5t175 -76.5q104 0 176 58v190h-204v59h265v-286q-42 -35 -109 -59t-131 -24q-132 0 -220 94.5t-88 254.5q0 161 88 256t220 95q125 0 218 -91zM261 845l22 29q35 -56 92 -56q58 0 92 56l21 -29
q-38 -74 -113 -74q-40 0 -69 22t-45 52z" />
    <glyph glyph-name="gbreve" unicode="&#x11f;" horiz-adv-x="573" 
d="M181 688l22 29q35 -56 92 -56q58 0 92 56l21 -29q-38 -74 -113 -74q-40 0 -69 22t-45 52zM57 280q0 114 59 183t157 69q86 0 148 -67v58h65v-500q0 -110 -57 -165.5t-147 -55.5q-13 0 -26.5 1t-24 2.5t-22 5t-19.5 5.5t-18.5 6.5t-15.5 6.5t-15 7.5t-12.5 6.5t-11.5 7
l-9 5l16 59q74 -53 151 -53q65 0 105.5 37t40.5 118v78q-59 -64 -148 -64q-98 0 -157 69t-59 181zM122 280q0 -87 45.5 -139.5t122.5 -52.5q71 0 131 67v248q-55 70 -130 70q-77 0 -123 -52.5t-46 -140.5z" />
    <glyph glyph-name="Gdotaccent" unicode="&#x120;" horiz-adv-x="687" 
d="M591 599l-31 -51q-80 80 -181 80q-109 0 -178 -77.5t-69 -211.5t69 -210.5t175 -76.5q104 0 176 58v190h-204v59h265v-286q-42 -35 -109 -59t-131 -24q-132 0 -220 94.5t-88 254.5q0 161 88 256t220 95q125 0 218 -91zM327 829q0 45 45 45q43 0 43 -45t-43 -45
q-45 0 -45 45z" />
    <glyph glyph-name="gdotaccent" unicode="&#x121;" horiz-adv-x="573" 
d="M256 672q0 45 45 45q43 0 43 -45t-43 -45q-45 0 -45 45zM57 280q0 114 59 183t157 69q86 0 148 -67v58h65v-500q0 -110 -57 -165.5t-147 -55.5q-13 0 -26.5 1t-24 2.5t-22 5t-19.5 5.5t-18.5 6.5t-15.5 6.5t-15 7.5t-12.5 6.5t-11.5 7l-9 5l16 59q74 -53 151 -53
q65 0 105.5 37t40.5 118v78q-59 -64 -148 -64q-98 0 -157 69t-59 181zM122 280q0 -87 45.5 -139.5t122.5 -52.5q71 0 131 67v248q-55 70 -130 70q-77 0 -123 -52.5t-46 -140.5z" />
    <glyph glyph-name="Gcommaaccent" unicode="&#x122;" horiz-adv-x="686" 
d="M591 599l-31 -51q-80 80 -181 80q-109 0 -178 -77.5t-69 -211.5t69 -210.5t175 -76.5q104 0 176 58v190h-204v59h265v-286q-42 -35 -109 -59t-131 -24q-132 0 -220 94.5t-88 254.5q0 161 88 256t220 95q125 0 218 -91zM344 -231l21 69q-43 4 -43 44q0 48 44 48
q24 0 37 -14.5t13 -38.5q0 -58 -37 -122z" />
    <glyph glyph-name="gcommaaccent" unicode="&#x123;" horiz-adv-x="573" 
d="M57 280q0 114 59 183t157 69q86 0 148 -67v58h65v-500q0 -110 -57 -165.5t-147 -55.5q-13 0 -26.5 1t-24 2.5t-22 5t-19.5 5.5t-18.5 6.5t-15.5 6.5t-15 7.5t-12.5 6.5t-11.5 7l-9 5l16 59q74 -53 151 -53q65 0 105.5 37t40.5 118v78q-59 -64 -148 -64q-98 0 -157 69
t-59 181zM122 280q0 -87 45.5 -139.5t122.5 -52.5q71 0 131 67v248q-55 70 -130 70q-77 0 -123 -52.5t-46 -140.5zM324 766l-20 -70q21 -1 32 -13.5t11 -30.5q0 -23 -12 -35.5t-32 -12.5q-24 0 -37 14.5t-13 38.5q0 62 36 123z" />
    <glyph glyph-name="Hcircumflex" unicode="&#x124;" horiz-adv-x="735" 
d="M565 0v312h-395v-312h-66v680h66v-309h395v309h66v-680h-66zM437 761l-70 99l-69 -99h-55l92 137h66l91 -137h-55z" />
    <glyph glyph-name="hcircumflex" unicode="&#x125;" horiz-adv-x="591" 
d="M152 0h-65v710h65v-271q49 93 162 93q84 0 126 -53t42 -152v-226q0 -29 9 -41.5t29 -12.5t50 21l7 -52q-35 -26 -77 -26q-83 0 -83 96v230q0 155 -125 155q-53 0 -89.5 -35t-50.5 -89v-347zM358 753l-70 99l-69 -99h-55l92 137h66l91 -137h-55z" />
    <glyph glyph-name="Hbar" unicode="&#x126;" horiz-adv-x="735" 
d="M565 0v312h-395v-312h-66v504h-38v55h38v121h66v-121h395v121h66v-121h43v-55h-43v-504h-66zM170 371h395v133h-395v-133z" />
    <glyph glyph-name="hbar" unicode="&#x127;" horiz-adv-x="591" 
d="M152 0h-65v588h-69v50h69v72h65v-72h131v-50h-131v-149q49 93 162 93q84 0 126 -53t42 -152v-226q0 -29 9 -41.5t29 -12.5t50 21l7 -52q-35 -26 -77 -26q-83 0 -83 96v230q0 155 -125 155q-53 0 -89.5 -35t-50.5 -89v-347z" />
    <glyph glyph-name="Itilde" unicode="&#x128;" horiz-adv-x="274" 
d="M104 0v680h66v-680h-66zM16 784l-23 29q12 28 34.5 48.5t48.5 20.5q29 0 66.5 -34t56.5 -34q39 0 59 50l24 -29q-32 -69 -83 -69q-28 0 -66.5 34t-56.5 34q-36 0 -60 -50z" />
    <glyph glyph-name="itilde" unicode="&#x129;" horiz-adv-x="272" 
d="M89 523h64v-422q0 -54 38 -54q21 0 51 21l6 -52q-33 -26 -77 -26q-42 0 -62 23t-20 73v437zM-1 627l-23 29q12 28 34.5 48.5t48.5 20.5q29 0 66.5 -34t56.5 -34q39 0 59 50l24 -29q-32 -69 -83 -69q-28 0 -66.5 34t-56.5 34q-36 0 -60 -50z" />
    <glyph glyph-name="imacron" unicode="&#x12b;" horiz-adv-x="272" 
d="M89 523h64v-422q0 -54 38 -54q21 0 51 21l6 -52q-33 -26 -77 -26q-42 0 -62 23t-20 73v437zM223 637h-205v49h205v-49z" />
    <glyph glyph-name="Ibreve" unicode="&#x12c;" horiz-adv-x="274" 
d="M104 0v680h66v-680h-66zM23 845l22 29q35 -56 92 -56q58 0 92 56l21 -29q-38 -74 -113 -74q-40 0 -69 22t-45 52z" />
    <glyph glyph-name="Iogonek" unicode="&#x12e;" horiz-adv-x="274" 
d="M171 0h-11q-36 -2 -61 -22.5t-25 -54.5q0 -28 15.5 -43.5t38.5 -15.5q27 0 49 15l7 -36q-32 -16 -64 -16q-36 0 -59 23.5t-23 65.5q0 35 19.5 58.5t47.5 32.5v673h66v-680z" />
    <glyph glyph-name="iogonek" unicode="&#x12f;" horiz-adv-x="273" 
d="M90 523h65v-422q0 -29 8.5 -41.5t28.5 -12.5q21 0 51 21l6 -52q-32 -24 -75 -26q-40 -20 -40 -67q0 -28 15 -43.5t39 -15.5q28 0 48 15l8 -36q-32 -16 -65 -16q-36 0 -59 23.5t-23 65.5q0 50 44 78q-51 15 -51 92v437zM81 662q0 41 42 41q39 0 39 -41t-39 -41
q-42 0 -42 41z" />
    <glyph glyph-name="Idotaccent" unicode="&#x130;" horiz-adv-x="274" 
d="M104 0v680h66v-680h-66zM93 829q0 45 45 45q43 0 43 -45t-43 -45q-45 0 -45 45z" />
    <glyph glyph-name="dotlessi" unicode="&#x131;" horiz-adv-x="272" 
d="M89 523h64v-422q0 -54 38 -54q21 0 51 21l6 -52q-33 -26 -77 -26q-42 0 -62 23t-20 73v437z" />
    <glyph glyph-name="IJ" unicode="&#x132;" horiz-adv-x="846" 
d="M104 0v680h66v-680h-66zM303 225l63 6q5 -93 43.5 -137.5t114.5 -44.5q77 0 117.5 47.5t40.5 140.5v443h66v-442q0 -116 -58.5 -183t-166.5 -67q-104 0 -159.5 61t-60.5 176z" />
    <glyph glyph-name="ij" unicode="&#x133;" horiz-adv-x="511" 
d="M76 672q0 45 46 45q43 0 43 -45t-43 -45q-46 0 -46 45zM89 523h65v-422q0 -29 8.5 -41.5t28.5 -12.5q21 0 51 21l6 -52q-33 -26 -77 -26q-82 0 -82 96v437zM359 523h65v-518q0 -140 -110 -202l-37 45q43 27 62.5 61.5t19.5 93.5v520zM348 672q0 45 44 45t44 -45t-44 -45
t-44 45z" />
    <glyph glyph-name="Jcircumflex" unicode="&#x134;" horiz-adv-x="572" 
d="M29 225l63 6q5 -93 43.5 -137.5t114.5 -44.5q77 0 117.5 47.5t40.5 140.5v443h66v-442q0 -116 -58.5 -183t-166.5 -67q-104 0 -159.5 61t-60.5 176zM510 761l-70 99l-69 -99h-55l92 137h66l91 -137h-55z" />
    <glyph glyph-name="jcircumflex" unicode="&#x135;" horiz-adv-x="239" 
d="M42 -197l-37 45q43 27 62.5 61.5t19.5 93.5v520h65v-518q0 -140 -110 -202zM187 604l-70 99l-69 -99h-55l92 137h66l91 -137h-55z" />
    <glyph glyph-name="Kcommaaccent" unicode="&#x136;" horiz-adv-x="668" 
d="M572 680v-10l-206 -333q15 -19 39.5 -71t45.5 -98t55 -83t70 -37q32 0 71 22l8 -54q-45 -26 -93 -26q-50 0 -92 42t-65.5 93.5t-50 108.5t-44.5 76h-140v-310h-66v680h66v-312h146l187 312h69zM285 -231l21 69q-43 4 -43 44q0 48 44 48q24 0 37 -14.5t13 -38.5
q0 -58 -37 -122z" />
    <glyph glyph-name="kcommaaccent" unicode="&#x137;" horiz-adv-x="531" 
d="M152 0h-65v710h65v-427q52 0 90.5 10t74.5 35t61 74t38 121h65q-31 -188 -145 -254l159 -261v-8h-70l-144 246q-59 -18 -129 -18v-228zM245 -231l21 69q-43 4 -43 44q0 48 44 48q24 0 37 -14.5t13 -38.5q0 -58 -37 -122z" />
    <glyph glyph-name="kgreenlandic" unicode="&#x138;" horiz-adv-x="529" 
d="M152 0h-65v523h65v-251q105 1 172 56t92 195h65q-31 -192 -147 -262l159 -250v-11h-72l-143 235q-56 -19 -126 -19v-216z" />
    <glyph glyph-name="Lacute" unicode="&#x139;" horiz-adv-x="520" 
d="M499 0h-395v680h66v-621h329v-59zM241 898l-78 -137h-58l70 137h66z" />
    <glyph glyph-name="lacute" unicode="&#x13a;" horiz-adv-x="279" 
d="M86 710h65v-596q0 -37 11.5 -52t36.5 -15q28 0 59 21l7 -52q-38 -26 -87 -26q-46 0 -69 25.5t-23 84.5v610zM216 890l-78 -137h-58l70 137h66z" />
    <glyph glyph-name="Lcommaaccent" unicode="&#x13b;" horiz-adv-x="521" 
d="M499 0h-395v680h66v-621h329v-59zM276 -231l21 69q-43 4 -43 44q0 48 44 48q24 0 37 -14.5t13 -38.5q0 -58 -37 -122z" />
    <glyph glyph-name="lcommaaccent" unicode="&#x13c;" horiz-adv-x="280" 
d="M86 710h65v-596q0 -37 11.5 -52t36.5 -15q28 0 59 21l7 -52q-38 -26 -87 -26q-46 0 -69 25.5t-23 84.5v610zM142 -231l21 69q-43 4 -43 44q0 48 44 48q24 0 37 -14.5t13 -38.5q0 -58 -37 -122z" />
    <glyph glyph-name="Lcaron" unicode="&#x13d;" horiz-adv-x="526" 
d="M499 0h-395v680h66v-621h329v-59zM379 528l21 69q-43 4 -43 44q0 48 44 48q24 0 37 -14.5t13 -38.5q0 -58 -37 -122z" />
    <glyph glyph-name="lcaron" unicode="&#x13e;" horiz-adv-x="299" 
d="M86 710h65v-596q0 -37 11.5 -52t36.5 -15q28 0 59 21l7 -52q-38 -26 -87 -26q-46 0 -69 25.5t-23 84.5v610zM234 527l21 69q-43 4 -43 44q0 48 44 48q24 0 37 -14.5t13 -38.5q0 -58 -37 -122z" />
    <glyph glyph-name="Ldot" unicode="&#x13f;" horiz-adv-x="533" 
d="M499 0h-395v680h66v-621h329v-59zM306 366q0 55 49 55q50 0 50 -55t-50 -55q-49 0 -49 55z" />
    <glyph glyph-name="ldot" unicode="&#x140;" horiz-adv-x="330" 
d="M86 710h65v-596q0 -37 11.5 -52t36.5 -15q28 0 59 21l7 -52q-38 -26 -87 -26q-46 0 -69 25.5t-23 84.5v610zM228 366q0 55 49 55q50 0 50 -55t-50 -55q-49 0 -49 55z" />
    <glyph glyph-name="Lslash" unicode="&#x141;" horiz-adv-x="520" 
d="M499 0h-395v280l-45 -26v57l45 26v343h66v-304l118 70v-56l-118 -70v-261h329v-59z" />
    <glyph glyph-name="lslash" unicode="&#x142;" horiz-adv-x="282" 
d="M87 710h65v-290l77 45v-56l-77 -46v-249q0 -37 12 -52t36 -15q28 0 60 21l7 -52q-38 -26 -87 -26q-46 0 -69.5 25.5t-23.5 84.5v225l-42 -24v57l42 24v328z" />
    <glyph glyph-name="Nacute" unicode="&#x143;" horiz-adv-x="733" 
d="M570 0l-401 570v-570h-65v680h58l401 -572v572h66v-680h-59zM471 898l-78 -137h-58l70 137h66z" />
    <glyph glyph-name="nacute" unicode="&#x144;" horiz-adv-x="591" 
d="M152 0h-65v523h65v-84q49 93 162 93q84 0 126 -53t42 -152v-226q0 -29 9 -41.5t29 -12.5t50 21l7 -52q-35 -26 -77 -26q-83 0 -83 96v230q0 155 -125 155q-53 0 -89.5 -35t-50.5 -89v-347zM396 741l-78 -137h-58l70 137h66z" />
    <glyph glyph-name="Ncommaaccent" unicode="&#x145;" horiz-adv-x="733" 
d="M570 0l-401 570v-570h-65v680h58l401 -572v572h66v-680h-59zM335 -231l21 69q-43 4 -43 44q0 48 44 48q24 0 37 -14.5t13 -38.5q0 -58 -37 -122z" />
    <glyph glyph-name="ncommaaccent" unicode="&#x146;" horiz-adv-x="590" 
d="M152 0h-65v523h65v-84q49 93 162 93q84 0 126 -53t42 -152v-226q0 -29 9 -41.5t29 -12.5t50 21l7 -52q-35 -26 -77 -26q-83 0 -83 96v230q0 155 -125 155q-53 0 -89.5 -35t-50.5 -89v-347zM274 -231l21 69q-43 4 -43 44q0 48 44 48q24 0 37 -14.5t13 -38.5
q0 -58 -37 -122z" />
    <glyph glyph-name="Ncaron" unicode="&#x147;" horiz-adv-x="733" 
d="M570 0l-401 570v-570h-65v680h58l401 -572v572h66v-680h-59zM306 898l70 -99l69 99h55l-91 -137h-66l-92 137h55z" />
    <glyph glyph-name="ncaron" unicode="&#x148;" horiz-adv-x="591" 
d="M152 0h-65v523h65v-84q49 93 162 93q84 0 126 -53t42 -152v-226q0 -29 9 -41.5t29 -12.5t50 21l7 -52q-35 -26 -77 -26q-83 0 -83 96v230q0 155 -125 155q-53 0 -89.5 -35t-50.5 -89v-347zM219 741l70 -99l69 99h55l-91 -137h-66l-92 137h55z" />
    <glyph glyph-name="napostrophe" unicode="&#x149;" horiz-adv-x="617" 
d="M178 0h-65v523h65v-84q49 93 162 93q84 0 126 -53t42 -152v-226q0 -29 9 -41.5t29 -12.5t50 21l7 -52q-35 -26 -77 -26q-83 0 -83 96v230q0 155 -125 155q-53 0 -89.5 -35t-50.5 -89v-347z" />
    <glyph glyph-name="Eng" unicode="&#x14a;" horiz-adv-x="731" 
d="M562 14l-393 559v-573h-65v680h57l401 -572v572h65v-659q0 -152 -118 -217l-36 41q89 59 89 169z" />
    <glyph glyph-name="eng" unicode="&#x14b;" horiz-adv-x="563" 
d="M152 0h-65v523h65v-88q48 97 162 97q84 0 126 -53t42 -152v-308q0 -150 -119 -215l-36 42q43 29 66.5 68t23.5 104v298q0 155 -125 155q-53 0 -89.5 -33t-50.5 -87v-351z" />
    <glyph glyph-name="Omacron" unicode="&#x14c;" horiz-adv-x="726" 
d="M65 339q0 157 83 254t214 97q132 0 215 -97t83 -254q0 -155 -83 -252t-215 -97q-131 0 -214 97t-83 252zM130 339q0 -133 64.5 -209.5t167.5 -76.5t168 77t65 209q0 134 -65 211t-168 77t-167.5 -77t-64.5 -211zM465 794h-205v49h205v-49z" />
    <glyph glyph-name="omacron" unicode="&#x14d;" horiz-adv-x="582" 
d="M55 260q0 127 64.5 202t170.5 75q107 0 172.5 -75t65.5 -202q0 -126 -65.5 -200t-172.5 -74q-106 0 -170.5 74t-64.5 200zM118 260q0 -99 47.5 -156t124.5 -57q79 0 126 57t47 156q0 100 -47 158t-126 58q-78 0 -125 -58t-47 -158zM394 637h-205v49h205v-49z" />
    <glyph glyph-name="Obreve" unicode="&#x14e;" horiz-adv-x="726" 
d="M65 339q0 157 83 254t214 97q132 0 215 -97t83 -254q0 -155 -83 -252t-215 -97q-131 0 -214 97t-83 252zM130 339q0 -133 64.5 -209.5t167.5 -76.5t168 77t65 209q0 134 -65 211t-168 77t-167.5 -77t-64.5 -211zM249 845l22 29q35 -56 92 -56q58 0 92 56l21 -29
q-38 -74 -113 -74q-40 0 -69 22t-45 52z" />
    <glyph glyph-name="obreve" unicode="&#x14f;" horiz-adv-x="582" 
d="M55 260q0 127 64.5 202t170.5 75q107 0 172.5 -75t65.5 -202q0 -126 -65.5 -200t-172.5 -74q-106 0 -170.5 74t-64.5 200zM118 260q0 -99 47.5 -156t124.5 -57q79 0 126 57t47 156q0 100 -47 158t-126 58q-78 0 -125 -58t-47 -158zM178 688l22 29q35 -56 92 -56
q58 0 92 56l21 -29q-38 -74 -113 -74q-40 0 -69 22t-45 52z" />
    <glyph glyph-name="Ohungarumlaut" unicode="&#x150;" horiz-adv-x="726" 
d="M65 339q0 157 83 254t214 97q132 0 215 -97t83 -254q0 -155 -83 -252t-215 -97q-131 0 -214 97t-83 252zM130 339q0 -133 64.5 -209.5t167.5 -76.5t168 77t65 209q0 134 -65 211t-168 77t-167.5 -77t-64.5 -211zM407 898l-78 -137h-58l70 137h66zM554 898l-78 -137h-58
l70 137h66z" />
    <glyph glyph-name="ohungarumlaut" unicode="&#x151;" horiz-adv-x="582" 
d="M55 260q0 127 64.5 202t170.5 75q107 0 172.5 -75t65.5 -202q0 -126 -65.5 -200t-172.5 -74q-106 0 -170.5 74t-64.5 200zM118 260q0 -99 47.5 -156t124.5 -57q79 0 126 57t47 156q0 100 -47 158t-126 58q-78 0 -125 -58t-47 -158zM325 741l-78 -137h-58l70 137h66z
M472 741l-78 -137h-58l70 137h66z" />
    <glyph glyph-name="OE" unicode="&#x152;" horiz-adv-x="1040" 
d="M975 0h-440v53q-74 -63 -176 -63q-127 0 -211 100t-84 249q0 151 84 251t211 100q103 0 176 -64v54h441v-59h-379v-239h316v-55h-316v-268h378v-59zM127 339q0 -123 67 -205t169 -82q109 0 172 76v423q-64 76 -172 76q-103 0 -169.5 -81.5t-66.5 -206.5z" />
    <glyph glyph-name="oe" unicode="&#x153;" horiz-adv-x="966" 
d="M901 238h-357q1 -92 46.5 -143.5t133.5 -51.5q82 0 154 64l25 -52q-77 -69 -182 -69q-174 0 -217 159q-23 -75 -80 -117t-135 -42q-105 0 -169.5 74t-64.5 200q0 127 64.5 202t169.5 75q79 0 136 -43.5t80 -120.5q22 75 77 119.5t132 44.5q97 0 146.5 -61t49.5 -157
q0 -41 -9 -81zM117 260q0 -98 47.5 -155.5t125.5 -57.5q79 0 127 57t48 156q0 100 -48 158t-127 58q-78 0 -125.5 -58t-47.5 -158zM547 291h298q3 18 3 39q0 62 -36 106t-100 44q-75 0 -118 -51.5t-47 -137.5z" />
    <glyph glyph-name="Racute" unicode="&#x154;" horiz-adv-x="664" 
d="M104 0v680h253q87 0 145 -57t58 -158q0 -92 -58 -149.5t-141 -59.5q13 -16 45.5 -61t54 -71.5t54 -51t61.5 -24.5q34 0 73 23l8 -55q-45 -26 -95 -26q-36 0 -72.5 23t-66.5 58t-55.5 71t-50 69t-40.5 45h-107v-256h-66zM170 621v-311h172q64 0 108 41.5t44 113.5
q0 76 -43 116t-109 40h-172zM404 898l-78 -137h-58l70 137h66z" />
    <glyph glyph-name="racute" unicode="&#x155;" horiz-adv-x="397" 
d="M378 500l-15 -59q-33 30 -74 30q-45 0 -70 -36t-39 -101v-334h-65v413q0 32 -9 47.5t-32 15.5q-20 0 -47 -22l-7 54q35 26 78 26q72 0 81 -87q35 85 117 85q48 0 82 -32zM285 741l-78 -137h-58l70 137h66z" />
    <glyph glyph-name="Rcommaaccent" unicode="&#x156;" horiz-adv-x="665" 
d="M104 0v680h253q87 0 145 -57t58 -158q0 -92 -58 -149.5t-141 -59.5q13 -16 45.5 -61t54 -71.5t54 -51t61.5 -24.5q34 0 73 23l8 -55q-45 -26 -95 -26q-36 0 -72.5 23t-66.5 58t-55.5 71t-50 69t-40.5 45h-107v-256h-66zM170 621v-311h172q64 0 108 41.5t44 113.5
q0 76 -43 116t-109 40h-172zM293 -231l21 69q-43 4 -43 44q0 48 44 48q24 0 37 -14.5t13 -38.5q0 -58 -37 -122z" />
    <glyph glyph-name="rcommaaccent" unicode="&#x157;" horiz-adv-x="397" 
d="M378 500l-15 -59q-33 30 -74 30q-45 0 -70 -36t-39 -101v-334h-65v413q0 32 -9 47.5t-32 15.5q-20 0 -47 -22l-7 54q35 26 78 26q72 0 81 -87q35 85 117 85q48 0 82 -32zM122 -231l21 69q-43 4 -43 44q0 48 44 48q24 0 37 -14.5t13 -38.5q0 -58 -37 -122z" />
    <glyph glyph-name="Rcaron" unicode="&#x158;" horiz-adv-x="664" 
d="M104 0v680h253q87 0 145 -57t58 -158q0 -92 -58 -149.5t-141 -59.5q13 -16 45.5 -61t54 -71.5t54 -51t61.5 -24.5q34 0 73 23l8 -55q-45 -26 -95 -26q-36 0 -72.5 23t-66.5 58t-55.5 71t-50 69t-40.5 45h-107v-256h-66zM170 621v-311h172q64 0 108 41.5t44 113.5
q0 76 -43 116t-109 40h-172zM224 898l70 -99l69 99h55l-91 -137h-66l-92 137h55z" />
    <glyph glyph-name="rcaron" unicode="&#x159;" horiz-adv-x="397" 
d="M378 500l-15 -59q-33 30 -74 30q-45 0 -70 -36t-39 -101v-334h-65v413q0 32 -9 47.5t-32 15.5q-20 0 -47 -22l-7 54q35 26 78 26q72 0 81 -87q35 85 117 85q48 0 82 -32zM125 741l70 -99l69 99h55l-91 -137h-66l-92 137h55z" />
    <glyph glyph-name="Sacute" unicode="&#x15a;" horiz-adv-x="557" 
d="M72 47l16 62q83 -58 178 -58q71 0 117 36.5t46 99.5q0 45 -28.5 72.5t-89.5 44.5l-119 34q-130 39 -130 161q0 79 59.5 134.5t167.5 55.5q54 0 108 -15t89 -37l-20 -60q-30 21 -79.5 36t-95.5 15q-80 0 -122 -36t-42 -89q0 -82 93 -107l120 -36q78 -24 117 -63.5
t39 -106.5q0 -90 -62.5 -145t-165.5 -55q-56 0 -109.5 17.5t-86.5 39.5zM390 898l-78 -137h-58l70 137h66z" />
    <glyph glyph-name="sacute" unicode="&#x15b;" horiz-adv-x="454" 
d="M396 496l-17 -57q-66 36 -140 36q-58 0 -89.5 -26t-31.5 -71q0 -31 18.5 -47.5t62.5 -29.5l90 -26q112 -32 112 -127q0 -68 -46 -113t-128 -45q-91 0 -166 42l15 59q72 -45 148 -45q53 0 82.5 27.5t29.5 69.5q0 34 -20.5 51.5t-61.5 29.5l-91 26q-111 32 -111 127
q0 68 49.5 111.5t134.5 43.5q40 0 87 -11t73 -25zM328 741l-78 -137h-58l70 137h66z" />
    <glyph glyph-name="Scircumflex" unicode="&#x15c;" horiz-adv-x="557" 
d="M72 47l16 62q83 -58 178 -58q71 0 117 36.5t46 99.5q0 45 -28.5 72.5t-89.5 44.5l-119 34q-130 39 -130 161q0 79 59.5 134.5t167.5 55.5q54 0 108 -15t89 -37l-20 -60q-30 21 -79.5 36t-95.5 15q-80 0 -122 -36t-42 -89q0 -82 93 -107l120 -36q78 -24 117 -63.5
t39 -106.5q0 -90 -62.5 -145t-165.5 -55q-56 0 -109.5 17.5t-86.5 39.5zM351 761l-70 99l-69 -99h-55l92 137h66l91 -137h-55z" />
    <glyph glyph-name="scircumflex" unicode="&#x15d;" horiz-adv-x="454" 
d="M396 496l-17 -57q-66 36 -140 36q-58 0 -89.5 -26t-31.5 -71q0 -31 18.5 -47.5t62.5 -29.5l90 -26q112 -32 112 -127q0 -68 -46 -113t-128 -45q-91 0 -166 42l15 59q72 -45 148 -45q53 0 82.5 27.5t29.5 69.5q0 34 -20.5 51.5t-61.5 29.5l-91 26q-111 32 -111 127
q0 68 49.5 111.5t134.5 43.5q40 0 87 -11t73 -25zM301 604l-70 99l-69 -99h-55l92 137h66l91 -137h-55z" />
    <glyph glyph-name="Scedilla" unicode="&#x15e;" horiz-adv-x="559" 
d="M228 -96l19 87q-100 5 -175 56l16 62q83 -58 178 -58q71 0 117 36.5t46 99.5q0 45 -28.5 72.5t-89.5 44.5l-119 34q-130 39 -130 161q0 79 59.5 134.5t167.5 55.5q54 0 108 -15t89 -37l-20 -60q-30 21 -79.5 36t-95.5 15q-80 0 -122 -36t-42 -89q0 -82 93 -107l120 -36
q78 -24 117 -63.5t39 -106.5q0 -88 -60 -142.5t-158 -57.5l-12 -57q14 4 27 4q33 0 52.5 -17.5t19.5 -45.5q0 -34 -24.5 -53t-62.5 -19q-32 0 -63 12l8 29q29 -11 53 -11q53 0 53 41q0 35 -47 35q-31 0 -52 -8z" />
    <glyph glyph-name="scedilla" unicode="&#x15f;" horiz-adv-x="455" 
d="M180 -96l19 87q-80 7 -138 41l15 59q72 -45 148 -45q53 0 82.5 27.5t29.5 69.5q0 34 -20.5 51.5t-61.5 29.5l-91 26q-111 32 -111 127q0 68 49.5 111.5t134.5 43.5q40 0 87 -11t73 -25l-17 -57q-66 36 -140 36q-58 0 -89.5 -26t-31.5 -71q0 -31 18.5 -47.5t62.5 -29.5
l90 -26q112 -32 112 -127q0 -67 -45.5 -112t-125.5 -46l-12 -57q14 4 27 4q33 0 52.5 -17.5t19.5 -45.5q0 -34 -24.5 -53t-62.5 -19q-31 0 -63 12l8 29q29 -11 53 -11q53 0 53 41q0 35 -47 35q-31 0 -52 -8z" />
    <glyph glyph-name="Scaron" unicode="&#x160;" horiz-adv-x="557" 
d="M72 47l16 62q83 -58 178 -58q71 0 117 36.5t46 99.5q0 45 -28.5 72.5t-89.5 44.5l-119 34q-130 39 -130 161q0 79 59.5 134.5t167.5 55.5q54 0 108 -15t89 -37l-20 -60q-30 21 -79.5 36t-95.5 15q-80 0 -122 -36t-42 -89q0 -82 93 -107l120 -36q78 -24 117 -63.5
t39 -106.5q0 -90 -62.5 -145t-165.5 -55q-56 0 -109.5 17.5t-86.5 39.5zM206 898l70 -99l69 99h55l-91 -137h-66l-92 137h55z" />
    <glyph glyph-name="scaron" unicode="&#x161;" horiz-adv-x="454" 
d="M396 496l-17 -57q-66 36 -140 36q-58 0 -89.5 -26t-31.5 -71q0 -31 18.5 -47.5t62.5 -29.5l90 -26q112 -32 112 -127q0 -68 -46 -113t-128 -45q-91 0 -166 42l15 59q72 -45 148 -45q53 0 82.5 27.5t29.5 69.5q0 34 -20.5 51.5t-61.5 29.5l-91 26q-111 32 -111 127
q0 68 49.5 111.5t134.5 43.5q40 0 87 -11t73 -25zM163 741l70 -99l69 99h55l-91 -137h-66l-92 137h55z" />
    <glyph glyph-name="Tcommaaccent" unicode="&#x162;" horiz-adv-x="542" 
d="M517 614h-207v-614h-22l-14 -67q14 4 27 4q33 0 52.5 -17.5t19.5 -45.5q0 -34 -24.5 -53t-62.5 -19q-32 0 -63 12l8 29q29 -11 53 -11q53 0 53 41q0 35 -47 35q-31 0 -52 -8l-2 4l21 96h-13v614h-220v66h493v-66z" />
    <glyph glyph-name="tcommaaccent" unicode="&#x163;" horiz-adv-x="408" 
d="M189 -96l20 90q-95 18 -95 142v333h-86v54h90l7 133h54v-133h183v-54h-183v-326q0 -95 81 -95q56 0 105 40l19 -53q-64 -45 -138 -45h-7l-12 -57q14 4 27 4q33 0 52.5 -17.5t19.5 -45.5q0 -34 -24.5 -53t-62.5 -19q-32 0 -63 12l8 29q29 -11 53 -11q53 0 53 41
q0 35 -47 35q-31 0 -52 -8z" />
    <glyph glyph-name="Tcaron" unicode="&#x164;" horiz-adv-x="542" 
d="M517 614h-207v-614h-66v614h-220v66h493v-66zM208 898l70 -99l69 99h55l-91 -137h-66l-92 137h55z" />
    <glyph glyph-name="tcaron" unicode="&#x165;" horiz-adv-x="404" 
d="M178 469v-326q0 -95 81 -95q56 0 105 40l19 -53q-64 -45 -138 -45q-132 0 -132 146v333h-86v54h90l7 133h54v-133h183v-54h-183zM385 527l21 69q-43 4 -43 44q0 48 44 48q24 0 37 -14.5t13 -38.5q0 -58 -37 -122z" />
    <glyph glyph-name="Tbar" unicode="&#x166;" horiz-adv-x="542" 
d="M517 614h-207v-256h101v-54h-101v-304h-66v304h-98v54h98v256h-220v66h493v-66z" />
    <glyph glyph-name="tbar" unicode="&#x167;" horiz-adv-x="408" 
d="M179 469v-168h127v-50h-127v-108q0 -95 81 -95q56 0 105 40l19 -51q-69 -47 -142 -47q-128 0 -128 146v115h-73v50h73v168h-86v54h90l7 133h54v-133h183v-54h-183z" />
    <glyph glyph-name="Utilde" unicode="&#x168;" horiz-adv-x="692" 
d="M162 680v-406q0 -105 45 -164.5t138 -59.5t139 61.5t46 163.5v405h65v-409q0 -123 -64 -203t-186 -80q-123 0 -186 76.5t-63 206.5v409h66zM224 784l-23 29q12 28 34.5 48.5t48.5 20.5q29 0 66.5 -34t56.5 -34q39 0 59 50l24 -29q-32 -69 -83 -69q-28 0 -66.5 34
t-56.5 34q-36 0 -60 -50z" />
    <glyph glyph-name="utilde" unicode="&#x169;" horiz-adv-x="591" 
d="M412 523h64v-422q0 -54 38 -54q21 0 51 21l6 -52q-33 -26 -77 -26q-40 0 -60 20t-22 64q-50 -84 -161 -84q-85 0 -127 53.5t-42 152.5v327h64v-319q0 -153 124 -153q103 0 142 112v360zM163 627l-23 29q12 28 34.5 48.5t48.5 20.5q29 0 66.5 -34t56.5 -34q39 0 59 50
l24 -29q-32 -69 -83 -69q-28 0 -66.5 34t-56.5 34q-36 0 -60 -50z" />
    <glyph glyph-name="Umacron" unicode="&#x16a;" horiz-adv-x="692" 
d="M162 680v-406q0 -105 45 -164.5t138 -59.5t139 61.5t46 163.5v405h65v-409q0 -123 -64 -203t-186 -80q-123 0 -186 76.5t-63 206.5v409h66zM447 794h-205v49h205v-49z" />
    <glyph glyph-name="umacron" unicode="&#x16b;" horiz-adv-x="591" 
d="M412 523h64v-422q0 -54 38 -54q21 0 51 21l6 -52q-33 -26 -77 -26q-40 0 -60 20t-22 64q-50 -84 -161 -84q-85 0 -127 53.5t-42 152.5v327h64v-319q0 -153 124 -153q103 0 142 112v360zM387 637h-205v49h205v-49z" />
    <glyph glyph-name="Ubreve" unicode="&#x16c;" horiz-adv-x="692" 
d="M162 680v-406q0 -105 45 -164.5t138 -59.5t139 61.5t46 163.5v405h65v-409q0 -123 -64 -203t-186 -80q-123 0 -186 76.5t-63 206.5v409h66zM231 845l22 29q35 -56 92 -56q58 0 92 56l21 -29q-38 -74 -113 -74q-40 0 -69 22t-45 52z" />
    <glyph glyph-name="ubreve" unicode="&#x16d;" horiz-adv-x="591" 
d="M412 523h64v-422q0 -54 38 -54q21 0 51 21l6 -52q-33 -26 -77 -26q-40 0 -60 20t-22 64q-50 -84 -161 -84q-85 0 -127 53.5t-42 152.5v327h64v-319q0 -153 124 -153q103 0 142 112v360zM171 688l22 29q35 -56 92 -56q58 0 92 56l21 -29q-38 -74 -113 -74q-40 0 -69 22
t-45 52z" />
    <glyph glyph-name="Uring" unicode="&#x16e;" horiz-adv-x="692" 
d="M162 680v-406q0 -105 45 -164.5t138 -59.5t139 61.5t46 163.5v405h65v-409q0 -123 -64 -203t-186 -80q-123 0 -186 76.5t-63 206.5v409h66zM251 787q0 41 28.5 69.5t69.5 28.5t69.5 -28.5t28.5 -69.5t-28.5 -69.5t-69.5 -28.5t-69.5 28.5t-28.5 69.5zM285 787
q0 -26 19 -45t45 -19t45 19t19 45t-19 45t-45 19t-45 -19t-19 -45z" />
    <glyph glyph-name="uring" unicode="&#x16f;" horiz-adv-x="591" 
d="M412 523h64v-422q0 -54 38 -54q21 0 51 21l6 -52q-33 -26 -77 -26q-40 0 -60 20t-22 64q-50 -84 -161 -84q-85 0 -127 53.5t-42 152.5v327h64v-319q0 -153 124 -153q103 0 142 112v360zM183 670q0 40 28.5 69t69.5 29t69.5 -29t28.5 -69t-28.5 -69t-69.5 -29t-69.5 29
t-28.5 69zM217 670q0 -26 19 -45t45 -19t45 19t19 45t-19 45t-45 19t-45 -19t-19 -45z" />
    <glyph glyph-name="Uhungarumlaut" unicode="&#x170;" horiz-adv-x="692" 
d="M162 680v-406q0 -105 45 -164.5t138 -59.5t139 61.5t46 163.5v405h65v-409q0 -123 -64 -203t-186 -80q-123 0 -186 76.5t-63 206.5v409h66zM377 898l-78 -137h-58l70 137h66zM524 898l-78 -137h-58l70 137h66z" />
    <glyph glyph-name="uhungarumlaut" unicode="&#x171;" horiz-adv-x="591" 
d="M412 523h64v-422q0 -54 38 -54q21 0 51 21l6 -52q-33 -26 -77 -26q-40 0 -60 20t-22 64q-50 -84 -161 -84q-85 0 -127 53.5t-42 152.5v327h64v-319q0 -153 124 -153q103 0 142 112v360zM312 741l-78 -137h-58l70 137h66zM459 741l-78 -137h-58l70 137h66z" />
    <glyph glyph-name="Uogonek" unicode="&#x172;" horiz-adv-x="693" 
d="M162 680v-406q0 -105 45 -164.5t138 -59.5t139 61.5t46 163.5v405h65v-409q0 -113 -54 -190.5t-158 -90.5q-44 -20 -44 -67q0 -28 15.5 -43.5t38.5 -15.5q27 0 49 15l7 -36q-32 -16 -64 -16q-36 0 -59 23.5t-23 65.5q0 44 33 72q-119 3 -179.5 79t-60.5 204v409h66z" />
    <glyph glyph-name="uogonek" unicode="&#x173;" horiz-adv-x="590" 
d="M412 523h64v-422q0 -54 38 -54q21 0 51 21l6 -52q-27 -22 -67 -25q-41 -21 -41 -68q0 -28 15 -43.5t39 -15.5q26 0 48 15l7 -36q-30 -16 -64 -16q-36 0 -59 23.5t-23 65.5q0 48 41 77q-52 10 -55 81q-50 -84 -161 -84q-85 0 -127 53.5t-42 152.5v327h64v-319
q0 -153 124 -153q103 0 142 112v360z" />
    <glyph glyph-name="Wcircumflex" unicode="&#x174;" horiz-adv-x="933" 
d="M592 0l-125 369l-133 -369h-70l-234 680h69l205 -606l134 372l-78 234h69l197 -597l212 597h71l-246 -680h-71zM536 761l-70 99l-69 -99h-55l92 137h66l91 -137h-55z" />
    <glyph glyph-name="wcircumflex" unicode="&#x175;" horiz-adv-x="896" 
d="M499 523v-302q0 -77 32.5 -123.5t91.5 -46.5q65 0 100.5 54.5t35.5 139.5q0 123 -42 278h67q42 -145 42 -278q0 -118 -52.5 -186.5t-143.5 -68.5q-63 0 -102.5 29t-60.5 96q-43 -125 -171 -125q-89 0 -135 58t-46 167v197q0 33 -9 48.5t-32 15.5q-24 0 -48 -22l-7 54
q44 24 80 24q81 0 81 -109v-201q0 -171 123 -171q61 0 97.5 46.5t36.5 125.5v300h62zM538 604l-70 99l-69 -99h-55l92 137h66l91 -137h-55z" />
    <glyph glyph-name="Ycircumflex" unicode="&#x176;" horiz-adv-x="580" 
d="M258 0v288l-240 386v6h73l199 -332l201 332h71v-6l-240 -385v-289h-64zM360 761l-70 99l-69 -99h-55l92 137h66l91 -137h-55z" />
    <glyph glyph-name="ycircumflex" unicode="&#x177;" horiz-adv-x="506" 
d="M16 -168l12 51q39 -25 86 -25q40 0 62.5 25t41.5 80l14 42l-213 518h72l171 -451l155 451h66l-207 -574q-27 -75 -62 -111t-97 -36q-57 0 -101 30zM327 604l-70 99l-69 -99h-55l92 137h66l91 -137h-55z" />
    <glyph glyph-name="Ydieresis" unicode="&#x178;" horiz-adv-x="580" 
d="M258 0v288l-240 386v6h73l199 -332l201 332h71v-6l-240 -385v-289h-64zM142 828q0 45 43 45q41 0 41 -45q0 -44 -41 -44q-43 0 -43 44zM356 828q0 45 43 45q41 0 41 -45q0 -44 -41 -44q-43 0 -43 44z" />
    <glyph glyph-name="Zacute" unicode="&#x179;" horiz-adv-x="534" 
d="M53 50l345 571h-345v59h429v-50l-346 -571h346v-59h-429v50zM371 898l-78 -137h-58l70 137h66z" />
    <glyph glyph-name="zacute" unicode="&#x17a;" horiz-adv-x="450" 
d="M47 50l274 419h-274v54h356v-50l-274 -419h274v-54h-356v50zM328 741l-78 -137h-58l70 137h66z" />
    <glyph glyph-name="Zdotaccent" unicode="&#x17b;" horiz-adv-x="534" 
d="M53 50l345 571h-345v59h429v-50l-346 -571h346v-59h-429v50zM228 829q0 45 45 45q43 0 43 -45t-43 -45q-45 0 -45 45z" />
    <glyph glyph-name="zdotaccent" unicode="&#x17c;" horiz-adv-x="450" 
d="M47 50l274 419h-274v54h356v-50l-274 -419h274v-54h-356v50zM189 672q0 45 45 45q43 0 43 -45t-43 -45q-45 0 -45 45z" />
    <glyph glyph-name="Zcaron" unicode="&#x17d;" horiz-adv-x="534" 
d="M53 50l345 571h-345v59h429v-50l-346 -571h346v-59h-429v50zM201 898l70 -99l69 99h55l-91 -137h-66l-92 137h55z" />
    <glyph glyph-name="zcaron" unicode="&#x17e;" horiz-adv-x="450" 
d="M47 50l274 419h-274v54h356v-50l-274 -419h274v-54h-356v50zM159 741l70 -99l69 99h55l-91 -137h-66l-92 137h55z" />
    <glyph glyph-name="florin" unicode="&#x192;" horiz-adv-x="386" 
d="M352 326h-137v-366q0 -73 -31 -115.5t-92 -42.5q-29 0 -56.5 14t-42.5 31l15 54q32 -39 70 -39q72 0 72 96v368h-132v44h132v194q0 73 30.5 114.5t91.5 41.5q57 0 100 -45l-15 -54q-30 39 -71 39q-71 0 -71 -94v-196h137v-44z" />
    <glyph glyph-name="Aringacute" unicode="&#x1fa;" horiz-adv-x="609" 
d="M24 0l239 659q-52 18 -52 74q0 39 26.5 59t70.5 20t70 -20t26 -59q0 -56 -52 -74l227 -659h-65l-56 166h-309l-59 -166h-66zM307 612l-140 -394h273zM244 733q0 -48 64 -48t64 48q0 47 -64 47t-64 -47zM373 907l-46 -73h-45l39 73h52z" />
    <glyph glyph-name="aringacute" unicode="&#x1fb;" horiz-adv-x="600" 
d="M367 832l-46 -74h-46l40 74h52zM204 657q0 38 27 59t71 21t71 -21t27 -59q0 -39 -27 -59.5t-71 -20.5t-71 20.5t-27 59.5zM238 657q0 -48 64 -48q63 0 63 48q0 47 -63 47q-64 0 -64 -47zM485 523v-412q0 -64 40 -64q20 0 49 22l6 -53q-35 -26 -77 -26q-68 0 -79 73
q-57 -73 -153 -73q-98 0 -156.5 71.5t-58.5 197.5t58 199.5t160 73.5q41 0 81.5 -18t64.5 -48v57h65zM420 403q-22 29 -56.5 49.5t-74.5 20.5q-78 0 -123 -57.5t-45 -156.5q0 -98 45 -154t123 -56q40 0 74.5 21t56.5 51v282z" />
    <glyph glyph-name="AEacute" unicode="&#x1fc;" horiz-adv-x="915" 
d="M408 0v166h-239l-88 -166h-70l364 680h475v-59h-379v-239h316v-55h-316v-268h379v-59h-442zM197 218h211v393zM695 898l-78 -137h-58l70 137h66z" />
    <glyph glyph-name="aeacute" unicode="&#x1fd;" horiz-adv-x="827" 
d="M101 444l-11 57q73 36 182 36q72 0 103.5 -34.5t41.5 -96.5q19 51 63 91t115 40q94 0 137.5 -58.5t43.5 -154.5q0 -48 -9 -86h-330q2 -93 36.5 -144t116.5 -51t150 64l26 -48q-78 -73 -182 -73q-64 0 -108.5 27t-64.5 73q-88 -100 -194 -100q-75 0 -123.5 46t-48.5 122
q0 87 64 133.5t170 46.5q51 0 93 -10q0 85 -24.5 120.5t-88.5 35.5q-37 0 -83 -10.5t-75 -25.5zM440 291h277q3 33 3 37q0 68 -31 110t-98 42q-71 0 -110 -57t-41 -132zM376 267q-33 13 -92 13q-79 0 -126.5 -31t-47.5 -95q0 -50 31.5 -80t85.5 -30q81 0 149 75v148z
M525 741l-78 -137h-58l70 137h66z" />
    <glyph glyph-name="Oslashacute" unicode="&#x1fe;" horiz-adv-x="726" 
d="M65 339q0 157 83 254t214 97q102 0 176 -60l34 50h50v-6l-51 -74q89 -99 89 -261q0 -155 -83 -252t-215 -97q-97 0 -172 56l-31 -46h-51v6l49 71q-92 97 -92 262zM130 339q0 -131 64 -209l308 448q-58 49 -140 49q-103 0 -167.5 -77t-64.5 -211zM595 339q0 128 -62 206
l-307 -447q59 -45 136 -45q103 0 168 77t65 209zM467 898l-78 -137h-58l70 137h66z" />
    <glyph glyph-name="oslashacute" unicode="&#x1ff;" horiz-adv-x="582" 
d="M55 260q0 127 64.5 202t170.5 75q87 0 147 -51l25 36h38v-6l-38 -54q66 -75 66 -202q0 -126 -65.5 -200t-172.5 -74q-74 0 -131 38l-17 -24h-38v6l28 40q-77 75 -77 214zM118 260q0 -102 51 -161l232 335q-45 42 -111 42q-78 0 -125 -58t-47 -158zM463 260q0 87 -39 146
l-229 -330q40 -29 95 -29q79 0 126 57t47 156zM396 741l-78 -137h-58l70 137h66z" />
    <glyph glyph-name="Scommaaccent" unicode="&#x218;" horiz-adv-x="558" 
d="M72 47l16 62q83 -58 178 -58q71 0 117 36.5t46 99.5q0 45 -28.5 72.5t-89.5 44.5l-119 34q-130 39 -130 161q0 79 59.5 134.5t167.5 55.5q54 0 108 -15t89 -37l-20 -60q-30 21 -79.5 36t-95.5 15q-80 0 -122 -36t-42 -89q0 -82 93 -107l120 -36q78 -24 117 -63.5
t39 -106.5q0 -90 -62.5 -145t-165.5 -55q-56 0 -109.5 17.5t-86.5 39.5zM251 -231l21 69q-43 4 -43 44q0 48 44 48q24 0 37 -14.5t13 -38.5q0 -58 -37 -122z" />
    <glyph glyph-name="scommaaccent" unicode="&#x219;" horiz-adv-x="454" 
d="M396 496l-17 -57q-66 36 -140 36q-58 0 -89.5 -26t-31.5 -71q0 -31 18.5 -47.5t62.5 -29.5l90 -26q112 -32 112 -127q0 -68 -46 -113t-128 -45q-91 0 -166 42l15 59q72 -45 148 -45q53 0 82.5 27.5t29.5 69.5q0 34 -20.5 51.5t-61.5 29.5l-91 26q-111 32 -111 127
q0 68 49.5 111.5t134.5 43.5q40 0 87 -11t73 -25zM207 -231l21 69q-43 4 -43 44q0 48 44 48q24 0 37 -14.5t13 -38.5q0 -58 -37 -122z" />
    <glyph glyph-name="uni021A" unicode="&#x21a;" horiz-adv-x="545" 
d="M517 614h-207v-614h-66v614h-220v66h493v-66zM254 -231l21 69q-43 4 -43 44q0 48 44 48q24 0 37 -14.5t13 -38.5q0 -58 -37 -122z" />
    <glyph glyph-name="uni021B" unicode="&#x21b;" horiz-adv-x="407" 
d="M178 469v-326q0 -95 81 -95q56 0 105 40l19 -53q-64 -45 -138 -45q-132 0 -132 146v333h-86v54h90l7 133h54v-133h183v-54h-183zM204 -231l21 69q-43 4 -43 44q0 48 44 48q24 0 37 -14.5t13 -38.5q0 -58 -37 -122z" />
    <glyph glyph-name="dotlessj" unicode="&#x237;" horiz-adv-x="239" 
d="M42 -197l-37 45q43 27 62.5 61.5t19.5 93.5v520h65v-518q0 -140 -110 -202z" />
    <glyph glyph-name="circumflex" unicode="&#x2c6;" 
d="M324 604l-70 99l-69 -99h-55l92 137h66l91 -137h-55z" />
    <glyph glyph-name="caron" unicode="&#x2c7;" 
d="M185 741l70 -99l69 99h55l-91 -137h-66l-92 137h55z" />
    <glyph glyph-name="breve" unicode="&#x2d8;" 
d="M141 688l22 29q35 -56 92 -56q58 0 92 56l21 -29q-38 -74 -113 -74q-40 0 -69 22t-45 52z" />
    <glyph glyph-name="dotaccent" unicode="&#x2d9;" 
d="M211 672q0 45 45 45q43 0 43 -45t-43 -45q-45 0 -45 45z" />
    <glyph glyph-name="ring" unicode="&#x2da;" 
d="M157 630q0 40 28.5 69t69.5 29t69.5 -29t28.5 -69t-28.5 -69t-69.5 -29t-69.5 29t-28.5 69zM191 630q0 -26 19 -45t45 -19t45 19t19 45t-19 45t-45 19t-45 -19t-19 -45z" />
    <glyph glyph-name="ogonek" unicode="&#x2db;" 
d="M267 11l35 -11q-36 -2 -61 -22.5t-25 -54.5q0 -28 15.5 -43.5t38.5 -15.5q27 0 49 15l7 -36q-32 -16 -64 -16q-36 0 -59 23.5t-23 65.5q0 41 28 66.5t59 28.5z" />
    <glyph glyph-name="tilde" unicode="&#x2dc;" 
d="M133 627l-23 29q12 28 34.5 48.5t48.5 20.5q29 0 66.5 -34t56.5 -34q39 0 59 50l24 -29q-32 -69 -83 -69q-28 0 -66.5 34t-56.5 34q-36 0 -60 -50z" />
    <glyph glyph-name="hungarumlaut" unicode="&#x2dd;" 
d="M249 741l-78 -137h-58l70 137h66zM396 741l-78 -137h-58l70 137h66z" />
    <glyph glyph-name="uni0394" unicode="&#x394;" horiz-adv-x="616" 
d="M31 0l245 680h74l235 -680h-554zM313 613l-199 -561h387z" />
    <glyph glyph-name="uni03A9" unicode="&#x3a9;" horiz-adv-x="735" 
d="M648 54v-54h-234v55q81 26 134.5 109t53.5 189q0 125 -65.5 200t-170.5 75q-103 0 -168 -75t-65 -200q0 -109 51.5 -191.5t133.5 -106.5v-55h-231v54h138q-71 36 -113 121t-42 188q0 145 83.5 236t212.5 91q131 0 215 -91t84 -236q0 -101 -43.5 -186t-112.5 -123h139z
" />
    <glyph glyph-name="uni03BC" unicode="&#x3bc;" horiz-adv-x="568" 
d="M152 523v-298q0 -174 125 -174q99 0 139 108v364h65v-523h-65v72q-50 -82 -159 -82q-65 0 -105 31v-209h-65v711h65z" />
    <glyph glyph-name="pi" unicode="&#x3c0;" horiz-adv-x="613" 
d="M30 523h554v-54h-116v-365q0 -57 40 -57q24 0 48 22l7 -55q-9 -9 -32 -16.5t-46 -7.5q-82 0 -82 104v375h-198v-469h-65v469h-110v54z" />
    <glyph glyph-name="Wgrave" unicode="&#x1e80;" horiz-adv-x="933" 
d="M592 0l-125 369l-133 -369h-70l-234 680h69l205 -606l134 372l-78 234h69l197 -597l212 597h71l-246 -680h-71zM443 761l-78 137h66l70 -137h-58z" />
    <glyph glyph-name="wgrave" unicode="&#x1e81;" horiz-adv-x="896" 
d="M499 523v-302q0 -77 32.5 -123.5t91.5 -46.5q65 0 100.5 54.5t35.5 139.5q0 123 -42 278h67q42 -145 42 -278q0 -118 -52.5 -186.5t-143.5 -68.5q-63 0 -102.5 29t-60.5 96q-43 -125 -171 -125q-89 0 -135 58t-46 167v197q0 33 -9 48.5t-32 15.5q-24 0 -48 -22l-7 54
q44 24 80 24q81 0 81 -109v-201q0 -171 123 -171q61 0 97.5 46.5t36.5 125.5v300h62zM441 604l-78 137h66l70 -137h-58z" />
    <glyph glyph-name="Wacute" unicode="&#x1e82;" horiz-adv-x="933" 
d="M592 0l-125 369l-133 -369h-70l-234 680h69l205 -606l134 372l-78 234h69l197 -597l212 597h71l-246 -680h-71zM566 898l-78 -137h-58l70 137h66z" />
    <glyph glyph-name="wacute" unicode="&#x1e83;" horiz-adv-x="896" 
d="M499 523v-302q0 -77 32.5 -123.5t91.5 -46.5q65 0 100.5 54.5t35.5 139.5q0 123 -42 278h67q42 -145 42 -278q0 -118 -52.5 -186.5t-143.5 -68.5q-63 0 -102.5 29t-60.5 96q-43 -125 -171 -125q-89 0 -135 58t-46 167v197q0 33 -9 48.5t-32 15.5q-24 0 -48 -22l-7 54
q44 24 80 24q81 0 81 -109v-201q0 -171 123 -171q61 0 97.5 46.5t36.5 125.5v300h62zM568 741l-78 -137h-58l70 137h66z" />
    <glyph glyph-name="Wdieresis" unicode="&#x1e84;" horiz-adv-x="933" 
d="M592 0l-125 369l-133 -369h-70l-234 680h69l205 -606l134 372l-78 234h69l197 -597l212 597h71l-246 -680h-71zM319 828q0 45 43 45q41 0 41 -45q0 -44 -41 -44q-43 0 -43 44zM533 828q0 45 43 45q41 0 41 -45q0 -44 -41 -44q-43 0 -43 44z" />
    <glyph glyph-name="wdieresis" unicode="&#x1e85;" horiz-adv-x="896" 
d="M499 523v-302q0 -77 32.5 -123.5t91.5 -46.5q65 0 100.5 54.5t35.5 139.5q0 123 -42 278h67q42 -145 42 -278q0 -118 -52.5 -186.5t-143.5 -68.5q-63 0 -102.5 29t-60.5 96q-43 -125 -171 -125q-89 0 -135 58t-46 167v197q0 33 -9 48.5t-32 15.5q-24 0 -48 -22l-7 54
q44 24 80 24q81 0 81 -109v-201q0 -171 123 -171q61 0 97.5 46.5t36.5 125.5v300h62zM320 671q0 45 43 45q41 0 41 -45q0 -44 -41 -44q-43 0 -43 44zM534 671q0 45 43 45q41 0 41 -45q0 -44 -41 -44q-43 0 -43 44z" />
    <glyph glyph-name="Ygrave" unicode="&#x1ef2;" horiz-adv-x="580" 
d="M258 0v288l-240 386v6h73l199 -332l201 332h71v-6l-240 -385v-289h-64zM264 761l-78 137h66l70 -137h-58z" />
    <glyph glyph-name="ygrave" unicode="&#x1ef3;" horiz-adv-x="506" 
d="M16 -168l12 51q39 -25 86 -25q40 0 62.5 25t41.5 80l14 42l-213 518h72l171 -451l155 451h66l-207 -574q-27 -75 -62 -111t-97 -36q-57 0 -101 30zM237 604l-78 137h66l70 -137h-58z" />
    <glyph glyph-name="endash" unicode="&#x2013;" horiz-adv-x="556" 
d="M79 330h398v-55h-398v55z" />
    <glyph glyph-name="emdash" unicode="&#x2014;" horiz-adv-x="755" 
d="M79 330h597v-55h-597v55z" />
    <glyph glyph-name="quoteleft" unicode="&#x2018;" horiz-adv-x="235" 
d="M161 673l-39 -140q44 -6 44 -52q0 -57 -50 -57q-24 0 -37 16t-13 41q0 40 20 109.5t37 99.5z" />
    <glyph glyph-name="quoteright" unicode="&#x2019;" horiz-adv-x="231" 
d="M74 439l40 141q-43 4 -43 51q0 57 50 57q23 0 37 -16t14 -41q0 -40 -21 -108.5t-38 -100.5z" />
    <glyph glyph-name="quotesinglbase" unicode="&#x201a;" horiz-adv-x="242" 
d="M74 -153l40 141q-43 4 -43 51q0 57 50 57q23 0 37 -16t14 -41q0 -40 -21 -108.5t-38 -100.5z" />
    <glyph glyph-name="quotedblleft" unicode="&#x201c;" horiz-adv-x="385" 
d="M313 675l-37 -137q41 -5 41 -48q0 -54 -46 -54q-22 0 -34.5 15.5t-12.5 38.5q0 38 19.5 104t35.5 96zM155 675l-38 -137q41 -4 41 -48q0 -54 -46 -54q-22 0 -34 15.5t-12 38.5q0 38 19.5 104.5t35.5 95.5z" />
    <glyph glyph-name="quotedblright" unicode="&#x201d;" horiz-adv-x="381" 
d="M75 450l37 137q-42 5 -42 48q0 53 47 53q22 0 34 -15t12 -38q0 -39 -19 -105t-35 -95zM233 450l37 137q-41 4 -41 48q0 53 45 53q22 0 35 -15t13 -38q0 -38 -19.5 -104.5t-35.5 -95.5z" />
    <glyph glyph-name="quotedblbase" unicode="&#x201e;" horiz-adv-x="392" 
d="M75 -155l37 138q-19 1 -30 14.5t-11 32.5q0 54 46 54q22 0 34 -15t12 -39q0 -38 -19 -104t-34 -96zM233 -155l38 138q-41 3 -41 47q0 54 45 54q22 0 34.5 -15t12.5 -39q0 -38 -19.5 -104.5t-35.5 -95.5z" />
    <glyph glyph-name="dagger" unicode="&#x2020;" horiz-adv-x="519" 
d="M488 376h-201v-564h-54v564h-202v55h202v279h54v-279h201v-55z" />
    <glyph glyph-name="daggerdbl" unicode="&#x2021;" horiz-adv-x="563" 
d="M510 76h-201v-264h-54v264h-202v55h202v245h-202v55h202v279h54v-279h201v-55h-201v-245h201v-55z" />
    <glyph glyph-name="bullet" unicode="&#x2022;" horiz-adv-x="299" 
d="M75 302q0 42 19.5 64.5t54.5 22.5t55 -22.5t20 -64.5q0 -87 -75 -87q-74 0 -74 87z" />
    <glyph glyph-name="ellipsis" unicode="&#x2026;" horiz-adv-x="628" 
d="M72 39q0 54 47 54q23 0 36 -14t13 -40q0 -54 -49 -54q-47 0 -47 54zM266 39q0 54 47 54q23 0 36 -14t13 -40q0 -54 -49 -54q-47 0 -47 54zM460 39q0 54 47 54q23 0 36 -14t13 -40q0 -54 -49 -54q-47 0 -47 54z" />
    <glyph glyph-name="perthousand" unicode="&#x2030;" horiz-adv-x="1071" 
d="M734 159q0 81 41 127t108 46t108 -46t41 -127q0 -79 -41 -124.5t-108 -45.5t-108 45t-41 125zM785 159q0 -57 26.5 -88t71.5 -31t71.5 31t26.5 88q0 59 -26.5 90.5t-71.5 31.5t-71.5 -31.5t-26.5 -90.5zM192 6l305 674h57v-6l-305 -674h-57v6zM43 517q0 80 41 126t107 46
q67 0 108 -46t41 -126t-41 -125.5t-108 -45.5t-107.5 45.5t-40.5 125.5zM93 517q0 -57 26.5 -88.5t71.5 -31.5t72 31.5t27 88.5q0 58 -27 89.5t-72 31.5t-71.5 -31.5t-26.5 -89.5zM403 160q0 81 41 127t107 46q67 0 108.5 -46t41.5 -127q0 -80 -41.5 -125t-108.5 -45
q-66 0 -107 45.5t-41 124.5zM454 160q0 -57 26 -88t71 -31t72 31t27 88q0 59 -27 90.5t-72 31.5t-71 -31.5t-26 -90.5z" />
    <glyph glyph-name="guilsinglleft" unicode="&#x2039;" horiz-adv-x="285" 
d="M54 295v15l135 198h6l23 -20l-108 -185l109 -186l-24 -20h-6z" />
    <glyph glyph-name="guilsinglright" unicode="&#x203a;" horiz-adv-x="285" 
d="M231 310v-15l-135 -198h-6l-23 20l108 186l-109 185l24 20h6z" />
    <glyph glyph-name="fraction" unicode="&#x2044;" horiz-adv-x="126" 
d="M-115 6l314 674h41v-6l-313 -674h-42v6z" />
    <glyph glyph-name="zerosuperior" unicode="&#x2070;" horiz-adv-x="321" 
d="M43 626q0 76 29.5 120t87.5 44q59 0 88.5 -44t29.5 -120t-29.5 -120.5t-88.5 -44.5q-58 0 -87.5 44.5t-29.5 120.5zM82 626q0 -126 78 -126t78 126q0 125 -78 125t-78 -125z" />
    <glyph glyph-name="foursuperior" unicode="&#x2074;" horiz-adv-x="305" 
d="M278 533h-55v-67h-41v67h-160v29l151 222l9 -1v1h41v-219h55v-32zM66 565h116v174z" />
    <glyph glyph-name="fivesuperior" unicode="&#x2075;" horiz-adv-x="285" 
d="M53 625l-2 2l11 157h174v-37h-140l-6 -89h43q112 0 112 -90q0 -53 -32 -80t-83 -27t-95 22l11 36q42 -21 82 -21q33 0 54.5 16.5t21.5 52.5q0 58 -73 58h-78z" />
    <glyph glyph-name="sixsuperior" unicode="&#x2076;" horiz-adv-x="309" 
d="M260 761l-13 -35q-32 27 -77 27q-43 0 -65 -33t-23 -90q34 48 88 48q47 0 74 -27.5t27 -76.5q0 -50 -30 -81.5t-75 -31.5q-59 0 -91.5 45t-32.5 120q0 74 33 119t92 45q54 0 93 -29zM165 644q-48 0 -81 -50q12 -94 82 -94q28 0 46.5 21.5t18.5 52.5q0 34 -18 52t-48 18z
" />
    <glyph glyph-name="sevensuperior" unicode="&#x2077;" horiz-adv-x="243" 
d="M61 470l116 277h-154v37h199v-30l-118 -288h-43v4z" />
    <glyph glyph-name="eightsuperior" unicode="&#x2078;" horiz-adv-x="311" 
d="M155 461q-52 0 -82.5 25t-30.5 67q0 67 67 80q-26 4 -41.5 24.5t-15.5 46.5q0 41 27 63.5t76 22.5t76.5 -22.5t27.5 -63.5q0 -26 -16 -46.5t-42 -24.5q67 -13 67 -80q0 -42 -30.5 -67t-82.5 -25zM156 616q-73 0 -73 -57q0 -28 20.5 -45.5t51.5 -17.5q32 0 52.5 17.5
t20.5 45.5q0 26 -18 41.5t-54 15.5zM155 755q-29 0 -46.5 -14t-17.5 -40q0 -23 16 -39t49 -16q31 0 47 16t16 39q0 26 -17.5 40t-46.5 14z" />
    <glyph glyph-name="ninesuperior" unicode="&#x2079;" horiz-adv-x="310" 
d="M139 498q44 0 66 33.5t23 91.5q-35 -49 -89 -49q-47 0 -73.5 27t-26.5 76q0 50 30 81.5t76 31.5q58 0 90.5 -44.5t32.5 -119.5t-32.5 -120t-91.5 -45q-52 0 -94 29l13 35q34 -27 76 -27zM145 608q48 0 81 50q-5 43 -26 68t-55 25q-29 0 -48 -21t-19 -53q0 -34 18 -51.5
t49 -17.5z" />
    <glyph glyph-name="zeroinferior" unicode="&#x2080;" horiz-adv-x="319" 
d="M42 59q0 76 30 120.5t88 44.5q59 0 88 -44.5t29 -120.5t-29 -120t-88 -44q-58 0 -88 44.5t-30 119.5zM82 59q0 -124 78 -124t78 124q0 126 -78 126t-78 -126z" />
    <glyph glyph-name="oneinferior" unicode="&#x2081;" horiz-adv-x="224" 
d="M16 151l117 67h31v-318h-40v270l-92 -51z" />
    <glyph glyph-name="twoinferior" unicode="&#x2082;" horiz-adv-x="288" 
d="M44 -100v33l111 99q46 40 46 86q0 29 -15.5 48t-44.5 19q-32 0 -48.5 -21.5t-16.5 -56.5l-38 6q2 51 29 81t75 30t73.5 -28.5t25.5 -74.5q0 -61 -58 -111l-82 -73h149v-37h-206z" />
    <glyph glyph-name="threeinferior" unicode="&#x2083;" horiz-adv-x="286" 
d="M70 82h69q26 0 40.5 15t14.5 37q0 25 -17.5 39t-47.5 14q-42 0 -81 -22l-9 36q43 23 93 23q48 0 75.5 -22.5t27.5 -63.5q0 -55 -48 -72q57 -13 57 -79q0 -43 -30 -67.5t-82 -24.5q-42 0 -94 21l10 36q40 -20 82 -20q32 0 52.5 16t20.5 45q0 53 -64 53h-69v36z" />
    <glyph glyph-name="fourinferior" unicode="&#x2084;" horiz-adv-x="305" 
d="M278 -33h-55v-67h-41v67h-159v29l150 222l9 -1v1h41v-219h55v-32zM66 -1h116v173z" />
    <glyph glyph-name="fiveinferior" unicode="&#x2085;" horiz-adv-x="284" 
d="M52 59l-1 2l11 157h173v-36h-139l-7 -90h44q112 0 112 -90q0 -53 -32.5 -80t-82.5 -27q-49 0 -95 23l11 35q42 -21 81 -21q33 0 55 17t22 52q0 58 -73 58h-79z" />
    <glyph glyph-name="sixinferior" unicode="&#x2086;" horiz-adv-x="309" 
d="M170 187q-43 0 -65 -33.5t-23 -89.5q35 47 88 47q47 0 74 -27.5t27 -76.5q0 -50 -29.5 -81t-75.5 -31q-59 0 -91.5 44.5t-32.5 119.5t33 120t92 45q51 0 93 -29l-13 -35q-32 27 -77 27zM165 77q-48 0 -81 -50q5 -43 26 -68t56 -25q28 0 46.5 21t18.5 52q0 35 -18 52.5
t-48 17.5z" />
    <glyph glyph-name="seveninferior" unicode="&#x2087;" horiz-adv-x="243" 
d="M61 -96l116 278h-154v36h199v-30l-117 -288h-44v4z" />
    <glyph glyph-name="eightinferior" unicode="&#x2088;" horiz-adv-x="311" 
d="M155 -105q-53 0 -83 24.5t-30 67.5q0 66 67 79q-26 5 -41.5 25.5t-15.5 46.5q0 41 27 63.5t76 22.5t76.5 -22.5t27.5 -63.5q0 -26 -16 -46.5t-42 -25.5q67 -13 67 -79q0 -43 -30 -67.5t-83 -24.5zM156 50q-37 0 -55 -15.5t-18 -41.5q0 -29 20.5 -46t51.5 -17q33 0 53 17
t20 46q0 25 -18 41t-54 16zM155 189q-29 0 -46.5 -14t-17.5 -40q0 -23 16 -39t49 -16q32 0 47.5 16t15.5 39q0 26 -17.5 40t-46.5 14z" />
    <glyph glyph-name="nineinferior" unicode="&#x2089;" horiz-adv-x="309" 
d="M49 -76l13 35q34 -27 77 -27t65 33.5t23 91.5q-36 -50 -89 -50q-47 0 -73.5 27.5t-26.5 76.5q0 50 30 81.5t76 31.5q58 0 90.5 -44.5t32.5 -120.5q0 -74 -32.5 -119t-91.5 -45q-55 0 -94 29zM144 41q48 0 81 50q-5 43 -26 68.5t-55 25.5q-28 0 -47 -21.5t-19 -52.5
q0 -34 18 -52t48 -18z" />
    <glyph glyph-name="Euro" unicode="&#x20ac;" 
d="M370 372h-228v-31q0 -29 1 -43h200l-15 -44h-181q13 -99 56 -150.5t108 -51.5q80 0 136 48l25 -52q-73 -58 -168 -58q-90 0 -148.5 68.5t-74.5 195.5h-47v44h43q-1 14 -1 43v31h-42v45h45q14 132 74 202.5t152 70.5q104 0 168 -64l-24 -54q-54 57 -138 57
q-68 0 -111 -53.5t-54 -158.5h241z" />
    <glyph glyph-name="afii61289" unicode="&#x2113;" horiz-adv-x="396" 
d="M71 127l-30 50l67 46v270q0 93 36.5 144.5t103.5 51.5q109 0 109 -135q0 -105 -51.5 -201t-118.5 -154v-57q0 -82 68 -82q35 0 67 21l-2 -78q-35 -13 -83 -13q-64 0 -96.5 30t-32.5 98v37zM187 501v-227q112 108 112 287q0 69 -47 69q-28 0 -46.5 -33t-18.5 -96z" />
    <glyph glyph-name="uni2117" unicode="&#x2117;" horiz-adv-x="816" 
d="M58 339q0 151 100 251t249 100q151 0 251 -100t100 -251q0 -149 -100 -249t-251 -100q-149 0 -249 100t-100 249zM100 339q0 -132 87.5 -220t219.5 -88q133 0 221 88t88 220q0 133 -88 221.5t-221 88.5q-132 0 -219.5 -88.5t-87.5 -221.5zM306 169v340h151q51 0 85 -30.5
t34 -89.5q0 -54 -34.5 -86.5t-84.5 -32.5h-99v-101h-52zM450 466h-92v-153h92q33 0 55 20.5t22 55.5q0 37 -22 57t-55 20z" />
    <glyph glyph-name="trademark" unicode="&#x2122;" horiz-adv-x="736" 
d="M643 663v-306h-39v237l-100 -144h-9l-99 144v-237h-39v306h36l107 -155l107 155h36zM289 622h-90v-265h-38v265h-94v41h222v-41z" />
    <glyph glyph-name="Omega" unicode="&#x2126;" horiz-adv-x="735" 
d="M648 54v-54h-234v55q81 26 134.5 109t53.5 189q0 125 -65.5 200t-170.5 75q-103 0 -168 -75t-65 -200q0 -109 51.5 -191.5t133.5 -106.5v-55h-231v54h138q-71 36 -113 121t-42 188q0 145 83.5 236t212.5 91q131 0 215 -91t84 -236q0 -101 -43.5 -186t-112.5 -123h139z
" />
    <glyph glyph-name="estimated" unicode="&#x212e;" horiz-adv-x="685" 
d="M532 145h66q-30 -73 -93 -115t-157 -42q-93 0 -157.5 45t-92.5 112.5t-28 148.5q0 82 28 149.5t92.5 112.5t157.5 45q71 0 126 -25.5t87.5 -69.5t49 -98t16.5 -114v-26h-431v-169q60 -58 152 -58q130 0 184 104zM196 320h304v170q-58 58 -152 58t-152 -58v-170z" />
    <glyph glyph-name="onethird" unicode="&#x2153;" horiz-adv-x="702" 
d="M140 6l314 674h41v-6l-313 -674h-42v6zM31 617l117 67h30v-318h-39v272l-93 -52zM478 181h69q26 0 40.5 15t14.5 37q0 25 -17.5 39t-47.5 14q-42 0 -81 -22l-9 36q43 23 93 23q48 0 75.5 -22.5t27.5 -63.5q0 -55 -48 -72q57 -13 57 -79q0 -43 -30 -67.5t-82 -24.5
q-42 0 -94 21l10 36q40 -20 82 -20q32 0 52.5 16t20.5 45q0 53 -64 53h-69v36z" />
    <glyph glyph-name="twothirds" unicode="&#x2154;" horiz-adv-x="773" 
d="M215 6l314 674h41v-6l-313 -674h-42v6zM553 181h69q26 0 40.5 15t14.5 37q0 25 -17.5 39t-47.5 14q-42 0 -81 -22l-9 36q43 23 93 23q48 0 75.5 -22.5t27.5 -63.5q0 -55 -48 -72q57 -13 57 -79q0 -43 -30 -67.5t-82 -24.5q-41 0 -94 21l10 36q40 -20 82 -20q32 0 52.5 16
t20.5 45q0 53 -64 53h-69v36zM55 366v33l111 100q46 39 46 85q0 30 -15.5 48.5t-44.5 18.5q-32 0 -48.5 -21.5t-16.5 -56.5l-38 6q2 51 29 81t75 30t73.5 -28.5t25.5 -73.5q0 -62 -58 -112l-82 -73h149v-37h-206z" />
    <glyph glyph-name="oneeighth" unicode="&#x215b;" horiz-adv-x="700" 
d="M140 6l314 674h41v-6l-313 -674h-42v6zM536 -6q-53 0 -83 24.5t-30 67.5q0 66 67 79q-26 5 -41.5 25.5t-15.5 46.5q0 41 27 63.5t76 22.5t76.5 -22.5t27.5 -63.5q0 -26 -16 -46.5t-42 -25.5q67 -13 67 -79q0 -43 -30 -67.5t-83 -24.5zM537 149q-37 0 -55 -15.5t-18 -41.5
q0 -29 20.5 -46t51.5 -17q33 0 53 17t20 46q0 25 -18 41t-54 16zM536 288q-29 0 -46.5 -14t-17.5 -40q0 -23 16 -39t49 -16q32 0 47.5 16t15.5 39q0 26 -17.5 40t-46.5 14zM31 617l117 67h30v-318h-39v272l-93 -52z" />
    <glyph glyph-name="threeeighths" unicode="&#x215c;" horiz-adv-x="759" 
d="M203 6l314 674h41v-6l-313 -674h-42v6zM599 -6q-53 0 -83 24.5t-30 67.5q0 66 67 79q-26 5 -41.5 25.5t-15.5 46.5q0 41 27 63.5t76 22.5t76.5 -22.5t27.5 -63.5q0 -26 -16 -46.5t-42 -25.5q67 -13 67 -79q0 -43 -30 -67.5t-83 -24.5zM600 149q-37 0 -55 -15.5t-18 -41.5
q0 -29 20.5 -46t51.5 -17q33 0 53 17t20 46q0 25 -18 41t-54 16zM599 288q-29 0 -46.5 -14t-17.5 -40q0 -23 16 -39t49 -16q32 0 47.5 16t15.5 39q0 26 -17.5 40t-46.5 14zM81 548h69q26 0 40.5 15.5t14.5 37.5q0 52 -65 52q-41 0 -81 -21l-9 36q47 22 93 22
q48 0 75.5 -22.5t27.5 -63.5q0 -54 -48 -71q57 -13 57 -80q0 -42 -30 -67t-82 -25q-39 0 -94 22l10 35q40 -20 82 -20q32 0 52.5 16.5t20.5 44.5q0 25 -16.5 39.5t-47.5 14.5h-69v35z" />
    <glyph glyph-name="fiveeighths" unicode="&#x215d;" horiz-adv-x="759" 
d="M599 -6q-53 0 -83 24.5t-30 67.5q0 66 67 79q-26 5 -41.5 25.5t-15.5 46.5q0 41 27 63.5t76 22.5t76.5 -22.5t27.5 -63.5q0 -26 -16 -46.5t-42 -25.5q67 -13 67 -79q0 -43 -30 -67.5t-83 -24.5zM203 6l314 674h41v-6l-313 -674h-42v6zM64 525l-2 2l11 157h174v-37h-140
l-6 -89h43q112 0 112 -90q0 -53 -32 -80t-83 -27t-95 22l11 36q42 -21 82 -21q33 0 54.5 16.5t21.5 52.5q0 58 -73 58h-78zM600 149q-37 0 -55 -15.5t-18 -41.5q0 -29 20.5 -46t51.5 -17q33 0 53 17t20 46q0 25 -18 41t-54 16zM599 288q-29 0 -46.5 -14t-17.5 -40
q0 -23 16 -39t49 -16q32 0 47.5 16t15.5 39q0 26 -17.5 40t-46.5 14z" />
    <glyph glyph-name="seveneighths" unicode="&#x215e;" horiz-adv-x="702" 
d="M146 6l314 674h41v-6l-313 -674h-42v6zM541 -6q-53 0 -83 24.5t-30 67.5q0 66 67 79q-26 5 -41.5 25.5t-15.5 46.5q0 41 27 63.5t76 22.5t76.5 -22.5t27.5 -63.5q0 -26 -16 -46.5t-42 -25.5q67 -13 67 -79q0 -43 -30 -67.5t-83 -24.5zM542 149q-37 0 -55 -15.5t-18 -41.5
q0 -29 20.5 -46t51.5 -17q33 0 53 17t20 46q0 25 -18 41t-54 16zM541 288q-29 0 -46.5 -14t-17.5 -40q0 -23 16 -39t49 -16q32 0 47.5 16t15.5 39q0 26 -17.5 40t-46.5 14zM73 370l116 277h-154v37h199v-30l-118 -288h-43v4z" />
    <glyph glyph-name="arrowleft" unicode="&#x2190;" horiz-adv-x="723" 
d="M321 538l35 -37l-186 -175h476v-52h-476l185 -178l-34 -36l-244 241z" />
    <glyph glyph-name="arrowup" unicode="&#x2191;" horiz-adv-x="723" 
d="M362 583l238 -244l-38 -35l-174 186v-476h-52v475l-179 -184l-35 34z" />
    <glyph glyph-name="arrowright" unicode="&#x2192;" horiz-adv-x="723" 
d="M402 538l244 -241l-244 -237l-35 38l186 174h-476v52h475l-185 179z" />
    <glyph glyph-name="arrowdown" unicode="&#x2193;" horiz-adv-x="723" 
d="M386 583v-475l178 185l36 -34l-241 -245l-237 244l37 35l175 -186v476h52z" />
    <glyph glyph-name="uni2196" unicode="&#x2196;" horiz-adv-x="723" 
d="M501 497l-1 -51l-255 8l336 -337l-36 -37l-336 336l5 -257h-50l-3 342z" />
    <glyph glyph-name="uni2197" unicode="&#x2197;" horiz-adv-x="723" 
d="M563 499l-5 -341l-50 2l7 255l-336 -336l-37 36l336 336l-257 -4v49z" />
    <glyph glyph-name="uni2198" unicode="&#x2198;" horiz-adv-x="723" 
d="M558 440l4 -343l-341 5l1 51l256 -8l-336 336l36 37l336 -336l-5 257z" />
    <glyph glyph-name="uni2199" unicode="&#x2199;" horiz-adv-x="723" 
d="M543 518l37 -36l-336 -336l256 5l1 -50l-342 -3l4 341l51 -2l-8 -255z" />
    <glyph glyph-name="partialdiff" unicode="&#x2202;" horiz-adv-x="540" 
d="M210 676l26 44q95 -29 166 -132t71 -247q0 -163 -60.5 -257t-169.5 -94q-85 0 -140.5 66.5t-55.5 172.5q0 104 48.5 164.5t133.5 60.5q108 0 179 -122v9q0 126 -59.5 215t-138.5 120zM245 51q66 0 107 57.5t52 159.5q-65 130 -159 130q-60 0 -97 -44t-37 -126
q0 -77 38 -127t96 -50z" />
    <glyph glyph-name="Delta" unicode="&#x2206;" horiz-adv-x="616" 
d="M31 0l245 680h74l235 -680h-554zM313 613l-199 -561h387z" />
    <glyph glyph-name="product" unicode="&#x220f;" horiz-adv-x="623" 
d="M161 -188h-61v868h422v-868h-62v809h-299v-809z" />
    <glyph glyph-name="summation" unicode="&#x2211;" horiz-adv-x="456" 
d="M55 0v40l176 300l-178 301v39h351v-54h-271l165 -286l-163 -286h269v-54h-349z" />
    <glyph glyph-name="minus" unicode="&#x2212;" 
d="M60 329h390v-54h-390v54z" />
    <glyph glyph-name="uni2215" unicode="&#x2215;" horiz-adv-x="358" 
d="M1 6l314 674h41v-6l-313 -674h-42v6z" />
    <glyph glyph-name="uni2219" unicode="&#x2219;" horiz-adv-x="252" 
d="M76 298q0 55 49 55q50 0 50 -55t-50 -55q-49 0 -49 55z" />
    <glyph glyph-name="radical" unicode="&#x221a;" horiz-adv-x="543" 
d="M148 441l155 -367l163 623l40 -14l-185 -683h-45l-157 366l-79 -50l-23 45z" />
    <glyph glyph-name="infinity" unicode="&#x221e;" horiz-adv-x="828" 
d="M121 299q0 -54 30.5 -84t79.5 -30q55 0 104 59l46 55l-45 54q-48 59 -105 59q-49 0 -79.5 -30t-30.5 -83zM414 265l-46 -55q-64 -74 -143 -74q-68 0 -112 44.5t-44 118.5t44 118.5t112 44.5q79 0 143 -75l46 -54l46 54q67 75 143 75q68 0 112 -44.5t44 -118.5t-44 -118.5
t-112 -44.5q-78 0 -144 74zM707 299q0 53 -31 83t-80 30q-55 0 -103 -59l-46 -54l46 -55q48 -59 103 -59q49 0 80 30t31 84z" />
    <glyph glyph-name="integral" unicode="&#x222b;" horiz-adv-x="398" 
d="M9 -153l15 54q30 -39 70 -39q36 0 54 26t18 70v606q0 73 30.5 114.5t91.5 41.5q57 0 100 -45l-15 -54q-30 39 -71 39q-71 0 -71 -94v-606q0 -73 -31 -115.5t-92 -42.5q-30 0 -57 14t-42 31z" />
    <glyph glyph-name="approxequal" unicode="&#x2248;" 
d="M434 472l20 -41q-36 -58 -97 -58q-34 0 -104.5 33.5t-99.5 33.5q-52 0 -79 -44l-19 43q34 56 96 56q35 0 107 -33.5t97 -33.5q49 0 79 44zM434 195l20 -41q-37 -58 -97 -58q-34 0 -105 33.5t-99 33.5q-53 0 -80 -44l-18 43q32 56 95 56q35 0 107.5 -33.5t96.5 -33.5
q48 0 80 44z" />
    <glyph glyph-name="notequal" unicode="&#x2260;" 
d="M147 43l28 91h-115v54h132l71 229h-203v54h220l35 113l41 -15l-31 -98h125v-54h-142l-71 -229h213v-54h-230l-32 -105z" />
    <glyph glyph-name="lessequal" unicode="&#x2264;" 
d="M60 137h389v-55h-389v55zM60 386v53l384 183h6v-52l-330 -157l330 -156v-52h-6z" />
    <glyph glyph-name="greaterequal" unicode="&#x2265;" 
d="M60 137h390v-55h-390v55zM450 439v-53l-385 -181h-5v52l329 156l-329 157v52h5z" />
    <glyph glyph-name="lozenge" unicode="&#x25ca;" horiz-adv-x="486" 
d="M447 330l-182 -330h-44l-181 330l181 349h44zM390 329l-147 292l-146 -292l146 -273z" />
    <glyph glyph-name="uniF8FF" unicode="&#xf8ff;" horiz-adv-x="612" 
d="M50 720h512v-720h-512v720zM266 283h48q0 26 14 47t34 36t40 29.5t34 36t14 48.5q0 51 -36.5 85t-101.5 34q-39 0 -67 -14.5t-41.5 -37t-19 -43.5t-5.5 -41h47q0 40 21 66.5t65 26.5q41 0 64 -21.5t23 -54.5q0 -23 -21 -45t-45.5 -38t-45.5 -46t-21 -68zM255 194v-71h68
v71h-68z" />
    <glyph glyph-name="fi" unicode="&#xfb01;" horiz-adv-x="648" 
d="M39 437v54h92v66q0 78 35 120.5t106 42.5q66 0 112 -44l-19 -55q-41 41 -84 41q-86 0 -86 -103v-68h164v-54h-164v-437h-64v437h-92zM452 672q0 45 46 45q43 0 43 -45t-43 -45q-46 0 -46 45zM465 523h65v-422q0 -29 8.5 -41.5t28.5 -12.5q21 0 51 21l6 -52
q-33 -26 -77 -26q-82 0 -82 96v437z" />
    <glyph glyph-name="fl" unicode="&#xfb02;" horiz-adv-x="656" 
d="M39 437v54h92v66q0 78 35 120.5t106 42.5q66 0 112 -44l-19 -55q-41 41 -84 41q-86 0 -86 -103v-68h164v-54h-164v-437h-64v437h-92zM463 710h65v-596q0 -37 11.5 -52t36.5 -15q28 0 59 21l7 -52q-38 -26 -87 -26q-46 0 -69 25.5t-23 84.5v610z" />
    <glyph glyph-name="Imacron" horiz-adv-x="274" 
d="M104 0v680h66v-680h-66zM240 794h-205v49h205v-49z" />
    <glyph glyph-name="ibreve" horiz-adv-x="272" 
d="M89 523h64v-422q0 -54 38 -54q21 0 51 21l6 -52q-33 -26 -77 -26q-42 0 -62 23t-20 73v437zM8 688l22 29q35 -56 92 -56q58 0 92 56l21 -29q-38 -74 -113 -74q-40 0 -69 22t-45 52z" />
    <glyph glyph-name="commaaccent" 
d="M233 -231l21 69q-43 4 -43 44q0 48 44 48q24 0 37 -14.5t13 -38.5q0 -58 -37 -122z" />
    <glyph glyph-name="commaaccent.alt" 
d="M275 759l-20 -70q21 -1 32 -13.5t11 -30.5q0 -23 -12 -35.5t-32 -12.5q-24 0 -37 14.5t-13 38.5q0 62 36 123z" />
    <glyph glyph-name="zero.tf" 
d="M36 339q0 163 53.5 257t164.5 94q113 0 166.5 -94t53.5 -257q0 -162 -53.5 -255.5t-166.5 -93.5q-111 0 -164.5 93.5t-53.5 255.5zM99 339q0 -286 155 -286q157 0 157 286q0 290 -157 290q-155 0 -155 -290z" />
    <glyph glyph-name="one.tf" 
d="M463 0h-413v59h198v549l-178 -100l-23 53l216 119h50v-621h150v-59z" />
    <glyph glyph-name="two.tf" 
d="M54 0v52l222 226q55 56 80 101t25 101q0 68 -35 108.5t-102 40.5q-69 0 -104.5 -45t-36.5 -124l-59 7q2 104 55 163.5t149 59.5q97 0 148.5 -58t51.5 -150q0 -64 -31 -119.5t-95 -121.5l-180 -182h323v-59h-411z" />
    <glyph glyph-name="three.tf" 
d="M115 377h142q55 0 86 38t31 90q0 59 -40 93.5t-104 34.5q-84 0 -160 -49l-17 55q85 51 180 51q96 0 151.5 -47t55.5 -131q0 -58 -29 -103t-78 -54q59 -12 92 -55.5t33 -112.5q0 -93 -60 -145t-165 -52q-87 0 -181 47l17 57q78 -46 164 -46q69 0 114 38.5t45 105.5
q0 62 -35 98t-100 36h-142v51z" />
    <glyph glyph-name="four.tf" 
d="M481 150h-73v-150h-65v150h-314v48l295 482h84v-478h73v-52zM92 202h251v414z" />
    <glyph glyph-name="five.tf" 
d="M81 353l-4 4l23 323h346v-59h-291l-15 -217h100q105 0 164.5 -45.5t59.5 -142.5q0 -113 -65 -169.5t-164 -56.5q-101 0 -190 49l18 57q84 -48 168 -48q71 0 119 40.5t48 125.5q0 139 -164 139h-153z" />
    <glyph glyph-name="six.tf" 
d="M447 626l-22 -53q-24 24 -62.5 41.5t-83.5 17.5q-82 0 -127.5 -78t-45.5 -213v-7q71 120 179 120q84 0 133.5 -60t49.5 -165q0 -107 -55.5 -173t-141.5 -66q-109 0 -169.5 93.5t-60.5 257.5q0 159 61 254t171 95q55 0 102 -20t72 -44zM268 398q-92 0 -158 -131
q11 -103 51.5 -159.5t106.5 -56.5q59 0 97.5 50.5t38.5 127.5q0 82 -37.5 125.5t-98.5 43.5z" />
    <glyph glyph-name="seven.tf" 
d="M136 7l249 614h-333v59h405v-50l-250 -630h-71v7z" />
    <glyph glyph-name="eight.tf" 
d="M255 -10q-100 0 -158.5 52t-58.5 142q0 70 36 113.5t98 57.5q-51 10 -83.5 55t-32.5 102q0 85 53 131.5t146 46.5t146 -46.5t53 -131.5q0 -57 -32.5 -102t-83.5 -55q62 -14 98 -57.5t36 -113.5q0 -90 -58.5 -142t-158.5 -52zM257 327q-154 0 -154 -135q0 -69 43 -108
t109 -39t109 39t43 108q0 135 -150 135zM255 635q-61 0 -98.5 -33t-37.5 -96q0 -55 33.5 -91.5t104.5 -36.5q67 0 100.5 36.5t33.5 91.5q0 63 -37.5 96t-98.5 33z" />
    <glyph glyph-name="nine.tf" 
d="M62 54l22 53q24 -24 62.5 -41.5t83.5 -17.5q82 0 127.5 78t45.5 213v2q-70 -115 -179 -115q-84 0 -133.5 60t-49.5 165q0 107 55.5 173t141.5 66q109 0 169.5 -93.5t60.5 -257.5q0 -159 -61 -254t-171 -95q-55 0 -102 20t-72 44zM241 282q55 0 95 39t64 87
q-11 105 -51.5 163t-107.5 58q-59 0 -97.5 -50.5t-38.5 -127.5q0 -82 37.5 -125.5t98.5 -43.5z" />
    <glyph glyph-name="Euro.tf" 
d="M370 372h-228v-31q0 -29 1 -43h200l-15 -44h-181q13 -99 56 -150.5t108 -51.5q80 0 136 48l25 -52q-73 -58 -168 -58q-90 0 -148.5 68.5t-74.5 195.5h-47v44h43q-1 14 -1 43v31h-42v45h45q14 132 74 202.5t152 70.5q104 0 168 -64l-24 -54q-54 57 -138 57
q-68 0 -111 -53.5t-54 -158.5h241z" />
    <glyph glyph-name="cent.tf" 
d="M438 111l25 -52q-78 -73 -183 -73q-18 0 -46 4l-29 -125l-40 12l29 122q-77 24 -114.5 93t-37.5 168q0 122 64 199.5t169 77.5q17 0 45 -4l25 105l39 -11l-25 -105q96 -39 114 -169l-51 -20q-13 100 -76 133l-99 -420q18 -3 38 -3q79 0 153 68zM103 262q0 -162 105 -205
l99 422q-15 3 -32 3q-78 0 -125 -61.5t-47 -158.5z" />
    <glyph glyph-name="sterling.tf" 
d="M388 326h-188q17 -100 17 -153q0 -19 -1 -28q11 -8 38 -35t51.5 -45t43.5 -18q41 0 57.5 41.5t16.5 122.5h56v-26q0 -195 -116 -195q-28 0 -57.5 19.5t-60.5 49.5t-42 38q-26 -107 -96 -107q-37 0 -57.5 25.5t-20.5 66.5t24.5 68t62.5 27q28 0 45 -13v11q0 39 -22 151
h-84v44h76q-12 69 -12 125q0 86 43 140.5t125 54.5q97 0 167 -84l-24 -55q-17 21 -29.5 34.5t-41.5 28.5t-62 15q-55 0 -84 -40.5t-29 -105.5q0 -45 9 -113h195v-44zM119 135q-21 0 -35 -15t-14 -40q0 -49 36 -49q42 0 52 90q-18 14 -39 14z" />
    <glyph glyph-name="florin.tf" horiz-adv-x="386" 
d="M352 326h-137v-366q0 -73 -31 -115.5t-92 -42.5q-29 0 -56.5 14t-42.5 31l15 54q32 -39 70 -39q72 0 72 96v368h-132v44h132v194q0 73 30.5 114.5t91.5 41.5q57 0 100 -45l-15 -54q-30 39 -71 39q-71 0 -71 -94v-196h137v-44z" />
    <glyph glyph-name="yen.tf" 
d="M432 156h-146v-156h-65v156h-145v45h145v74h-145v45h129l-170 354v6h67l152 -337l153 337h68v-6l-174 -354h131v-45h-146v-74h146v-45z" />
    <glyph glyph-name="dollar.tf" 
d="M233 -129v119q-54 2 -105 19t-80 38l15 62q80 -55 170 -58v269l-65 19q-130 37 -130 160q0 72 51 125.5t144 62.5v83h43v-81q106 -3 186 -52l-20 -60q-29 20 -75.5 35t-90.5 16v-257l40 -12q78 -24 117 -63t39 -106q0 -83 -53 -136.5t-143 -61.5v-121h-43zM287 305l-11 3
v-255q58 9 93.5 44t35.5 90q0 45 -29 73t-89 45zM103 503q0 -81 92 -108l38 -12v243q-64 -8 -97 -42t-33 -81z" />
    <glyph glyph-name="zero.denom" horiz-adv-x="319" 
d="M42 159q0 76 30 120.5t88 44.5q59 0 88 -44.5t29 -120.5t-29 -120t-88 -44q-58 0 -88 44.5t-30 119.5zM82 159q0 -124 78 -124t78 124q0 126 -78 126t-78 -126z" />
    <glyph glyph-name="one.denom" horiz-adv-x="224" 
d="M16 251l117 67h31v-318h-40v270l-92 -51z" />
    <glyph glyph-name="two.denom" horiz-adv-x="288" 
d="M44 0v33l111 99q46 40 46 86q0 29 -15.5 48t-44.5 19q-32 0 -48.5 -21.5t-16.5 -56.5l-38 6q2 51 29 81t75 30t73.5 -28.5t25.5 -74.5q0 -61 -58 -111l-82 -73h149v-37h-206z" />
    <glyph glyph-name="three.denom" horiz-adv-x="286" 
d="M70 182h69q26 0 40.5 15t14.5 37q0 25 -17.5 39t-47.5 14q-42 0 -81 -22l-9 36q43 23 93 23q48 0 75.5 -22.5t27.5 -63.5q0 -55 -48 -72q57 -13 57 -79q0 -43 -30 -67.5t-82 -24.5q-42 0 -94 21l10 36q40 -20 82 -20q32 0 52.5 16t20.5 45q0 53 -64 53h-69v36z" />
    <glyph glyph-name="four.denom" horiz-adv-x="305" 
d="M278 67h-55v-67h-41v67h-159v29l150 222l9 -1v1h41v-219h55v-32zM66 99h116v173z" />
    <glyph glyph-name="five.denom" horiz-adv-x="284" 
d="M52 159l-1 2l11 157h173v-36h-139l-7 -90h44q112 0 112 -90q0 -53 -32.5 -80t-82.5 -27q-49 0 -95 23l11 35q42 -21 81 -21q33 0 55 17t22 52q0 58 -73 58h-79z" />
    <glyph glyph-name="six.denom" horiz-adv-x="309" 
d="M170 287q-43 0 -65 -33.5t-23 -89.5q35 47 88 47q47 0 74 -27.5t27 -76.5q0 -50 -29.5 -81t-75.5 -31q-59 0 -91.5 44.5t-32.5 119.5t33 120t92 45q51 0 93 -29l-13 -35q-32 27 -77 27zM165 177q-48 0 -81 -50q5 -43 26 -68t56 -25q28 0 46.5 21t18.5 52q0 35 -18 52.5
t-48 17.5z" />
    <glyph glyph-name="seven.denom" horiz-adv-x="243" 
d="M61 4l116 278h-154v36h199v-30l-117 -288h-44v4z" />
    <glyph glyph-name="eight.denom" horiz-adv-x="311" 
d="M155 -5q-53 0 -83 24.5t-30 67.5q0 66 67 79q-26 5 -41.5 25.5t-15.5 46.5q0 41 27 63.5t76 22.5t76.5 -22.5t27.5 -63.5q0 -26 -16 -46.5t-42 -25.5q67 -13 67 -79q0 -43 -30 -67.5t-83 -24.5zM156 150q-37 0 -55 -15.5t-18 -41.5q0 -29 20.5 -46t51.5 -17q33 0 53 17
t20 46q0 25 -18 41t-54 16zM155 289q-29 0 -46.5 -14t-17.5 -40q0 -23 16 -39t49 -16q32 0 47.5 16t15.5 39q0 26 -17.5 40t-46.5 14z" />
    <glyph glyph-name="nine.denom" horiz-adv-x="309" 
d="M49 24l13 35q34 -27 77 -27t65 33.5t23 91.5q-36 -50 -89 -50q-47 0 -73.5 27.5t-26.5 76.5q0 50 30 81.5t76 31.5q58 0 90.5 -44.5t32.5 -120.5q0 -74 -32.5 -119t-91.5 -45q-55 0 -94 29zM144 141q48 0 81 50q-5 43 -26 68.5t-55 25.5q-28 0 -47 -21.5t-19 -52.5
q0 -34 18 -52t48 -18z" />
    <glyph glyph-name="zero.num" horiz-adv-x="319" 
d="M42 521q0 76 29.5 120t87.5 44q59 0 88.5 -44t29.5 -120t-29.5 -120.5t-88.5 -44.5q-58 0 -87.5 44.5t-29.5 120.5zM81 521q0 -126 78 -126t78 126q0 125 -78 125t-78 -125z" />
    <glyph glyph-name="one.num" horiz-adv-x="223" 
d="M16 612l117 67h30v-318h-39v272l-93 -52z" />
    <glyph glyph-name="two.num" horiz-adv-x="288" 
d="M44 361v33l111 100q46 39 46 85q0 30 -15.5 48.5t-44.5 18.5q-32 0 -48.5 -21.5t-16.5 -56.5l-38 6q2 51 29 81t75 30t73.5 -28.5t25.5 -73.5q0 -62 -58 -112l-82 -73h149v-37h-206z" />
    <glyph glyph-name="three.num" horiz-adv-x="286" 
d="M70 543h69q26 0 40.5 15.5t14.5 37.5q0 52 -65 52q-41 0 -81 -21l-9 36q47 22 93 22q48 0 75.5 -22.5t27.5 -63.5q0 -54 -48 -71q57 -13 57 -80q0 -42 -30 -67t-82 -25q-39 0 -94 22l10 35q40 -20 82 -20q32 0 52.5 16.5t20.5 44.5q0 25 -16.5 39.5t-47.5 14.5h-69v35z
" />
    <glyph glyph-name="four.num" horiz-adv-x="305" 
d="M278 429h-55v-67h-41v67h-160v29l151 222l9 -1v1h41v-219h55v-32zM66 461h116v174z" />
    <glyph glyph-name="five.num" horiz-adv-x="284" 
d="M52 520l-2 2l11 157h174v-37h-140l-6 -89h43q112 0 112 -90q0 -53 -32 -80t-83 -27t-95 22l11 36q42 -21 82 -21q33 0 54.5 16.5t21.5 52.5q0 58 -73 58h-78z" />
    <glyph glyph-name="six.num" horiz-adv-x="309" 
d="M260 656l-13 -35q-32 27 -77 27q-43 0 -65 -33t-23 -90q34 48 88 48q47 0 74 -27.5t27 -76.5q0 -50 -30 -81.5t-75 -31.5q-59 0 -91.5 45t-32.5 120q0 74 33 119t92 45q54 0 93 -29zM165 539q-48 0 -81 -50q12 -94 82 -94q28 0 46.5 21.5t18.5 52.5q0 34 -18 52t-48 18z
" />
    <glyph glyph-name="seven.num" horiz-adv-x="244" 
d="M62 365l116 277h-154v37h199v-30l-118 -288h-43v4z" />
    <glyph glyph-name="eight.num" horiz-adv-x="309" 
d="M154 356q-52 0 -82.5 25t-30.5 67q0 67 67 80q-26 4 -41.5 24.5t-15.5 46.5q0 41 27 63.5t76 22.5t76.5 -22.5t27.5 -63.5q0 -26 -16 -46.5t-42 -24.5q67 -13 67 -80q0 -42 -30.5 -67t-82.5 -25zM155 511q-73 0 -73 -57q0 -28 20.5 -45.5t51.5 -17.5q32 0 52.5 17.5
t20.5 45.5q0 26 -18 41.5t-54 15.5zM154 650q-29 0 -46.5 -14t-17.5 -40q0 -23 16 -39t49 -16q31 0 47 16t16 39q0 26 -17.5 40t-46.5 14z" />
    <glyph glyph-name="nine.num" horiz-adv-x="310" 
d="M138 393q44 0 66 33.5t23 91.5q-35 -49 -89 -49q-47 0 -73.5 27t-26.5 76q0 50 30 81.5t76 31.5q58 0 90.5 -44.5t32.5 -119.5t-32.5 -120t-91.5 -45q-52 0 -94 29l13 35q34 -27 76 -27zM144 503q48 0 81 50q-5 43 -26 68t-55 25q-29 0 -48 -21t-19 -53q0 -34 18 -51.5
t49 -17.5z" />
    <glyph glyph-name="parenleft.case" horiz-adv-x="266" 
d="M186 795l40 -25q-41 -64 -74.5 -173.5t-33.5 -255.5q0 -145 34 -255.5t74 -173.5l-40 -25q-45 56 -86 175.5t-41 278.5q0 160 41 278.5t86 175.5z" />
    <glyph glyph-name="parenright.case" horiz-adv-x="266" 
d="M41 770l39 25q45 -57 86 -175.5t41 -278.5q0 -159 -41 -278.5t-86 -175.5l-39 25q40 63 73.5 173.5t33.5 255.5q0 147 -33.5 256.5t-73.5 172.5z" />
    <glyph glyph-name="hyphen.case" horiz-adv-x="478" 
d="M79 370h319v-55h-319v55z" />
    <glyph glyph-name="bracketleft.case" horiz-adv-x="297" 
d="M265 -108h-172v898h172v-55h-117v-788h117v-55z" />
    <glyph glyph-name="bracketright.case" horiz-adv-x="296" 
d="M32 790h171v-898h-171v55h117v788h-117v55z" />
    <glyph glyph-name="braceleft.case" horiz-adv-x="275" 
d="M201 -65h23v-49h-32q-57 0 -84.5 31t-27.5 80q0 35 26.5 118.5t26.5 128.5q0 73 -84 73v44q84 0 84 74q0 45 -26.5 128t-26.5 118q0 48 27.5 78.5t84.5 30.5h32v-50h-23q-33 0 -50.5 -20t-17.5 -51q0 -29 26 -113t26 -128q0 -74 -64 -89q34 -8 49 -30t15 -63
q0 -43 -26 -126.5t-26 -112.5q0 -31 17.5 -51.5t50.5 -20.5z" />
    <glyph glyph-name="bar.case" horiz-adv-x="239" 
d="M93 -108v898h53v-898h-53z" />
    <glyph glyph-name="braceright.case" horiz-adv-x="275" 
d="M83 -114h-33v49h24q32 0 50 20.5t18 51.5q0 29 -26 112.5t-26 126.5q0 41 15 63t49 30q-64 15 -64 89q0 44 26 128t26 113q0 31 -17.5 51t-50.5 20h-24v50h33q57 0 84.5 -31t27.5 -78q0 -35 -26 -118t-26 -128q0 -74 83 -74v-44q-44 0 -63.5 -18t-19.5 -55
q0 -45 26 -128.5t26 -118.5q0 -49 -27.5 -80t-84.5 -31z" />
    <glyph glyph-name="guilsinglleft.case" horiz-adv-x="272" 
d="M45 335v15l135 198h6l23 -20l-108 -185l109 -186l-24 -20h-6z" />
    <glyph glyph-name="guilsinglright.case" horiz-adv-x="272" 
d="M227 350v-15l-135 -198h-6l-23 20l108 186l-109 185l24 20h6z" />
    <glyph glyph-name="guillemotleft.case" horiz-adv-x="449" 
d="M45 335v15l135 198h6l23 -20l-108 -185l109 -186l-24 -20h-6zM222 335v15l136 198h6l23 -20l-108 -185l109 -186l-24 -20h-6z" />
    <glyph glyph-name="guillemotright.case" horiz-adv-x="450" 
d="M227 350v-15l-135 -198h-6l-23 20l108 186l-109 185l24 20h6zM404 350v-15l-134 -198h-6l-24 20l109 186l-109 185l24 20h6z" />
    <glyph glyph-name="endash.case" horiz-adv-x="556" 
d="M79 370h398v-55h-398v55z" />
    <glyph glyph-name="emdash.case" horiz-adv-x="755" 
d="M79 370h597v-55h-597v55z" />
    <glyph glyph-name="bullet.case" horiz-adv-x="298" 
d="M74 342q0 42 19.5 64.5t54.5 22.5t55 -22.5t20 -64.5q0 -87 -75 -87q-74 0 -74 87z" />
    <glyph glyph-name="periodcentered.case" horiz-adv-x="251" 
d="M76 338q0 55 49 55q50 0 50 -55t-50 -55q-49 0 -49 55z" />
    <glyph glyph-name="g.alt" horiz-adv-x="563" 
d="M52 305q0 99 55 163t157 64q41 0 81.5 -17t64.5 -44v52h65v-464q0 -116 -60.5 -186.5t-145.5 -70.5q-67 0 -106.5 37t-39.5 100q0 53 28 92.5t83 49.5q-80 7 -131 62t-51 162zM118 305q0 -90 47.5 -131.5t114.5 -41.5h130v278q-20 26 -57 44.5t-75 18.5q-76 0 -118 -47.5
t-42 -120.5zM410 42v35h-69q-74 0 -120.5 -31t-46.5 -92q0 -44 27.5 -69.5t70.5 -25.5q58 0 98 52.5t40 130.5z" />
    <glyph glyph-name="y.alt" horiz-adv-x="504" 
d="M26 -87q0 124 185 132l-184 478h67l165 -452l156 452h66l-190 -536q-36 -101 -70.5 -143t-89.5 -42q-46 0 -75.5 30t-29.5 81zM129 -141q32 0 52 28.5t46 100.5l6 17q-84 0 -123 -18.5t-39 -64.5q0 -29 16 -46t42 -17z" />
    <glyph glyph-name="asterisk.alt" horiz-adv-x="417" 
d="M101 409l68 116l-122 32l15 47l123 -38l-3 134h53l-3 -135l123 39l14 -47l-124 -33l70 -114l-41 -25l-66 116l-66 -116z" />
    <glyph glyph-name="a.alt" horiz-adv-x="537" 
d="M452 -10q-62 0 -78 60q-64 -60 -162 -60q-77 0 -122.5 43t-45.5 116q0 92 65.5 138.5t172.5 46.5q43 0 88 -12v29q0 65 -29 93.5t-91 28.5q-80 0 -149 -36l-11 59q30 15 81.5 25.5t95.5 10.5q168 0 168 -175v-253q0 -57 39 -57q21 0 50 22l7 -53q-35 -26 -79 -26z
M110 154q0 -49 32.5 -77.5t85.5 -28.5q82 0 142 62v159q-33 11 -85 11q-80 0 -127.5 -31.5t-47.5 -94.5z" />
    <glyph glyph-name="agrave.alt" horiz-adv-x="537" 
d="M452 -10q-62 0 -78 60q-64 -60 -162 -60q-77 0 -122.5 43t-45.5 116q0 92 65.5 138.5t172.5 46.5q43 0 88 -12v29q0 65 -29 93.5t-91 28.5q-80 0 -149 -36l-11 59q30 15 81.5 25.5t95.5 10.5q168 0 168 -175v-253q0 -57 39 -57q21 0 50 22l7 -53q-35 -26 -79 -26z
M110 154q0 -49 32.5 -77.5t85.5 -28.5q82 0 142 62v159q-33 11 -85 11q-80 0 -127.5 -31.5t-47.5 -94.5zM240 604l-78 137h66l70 -137h-58z" />
    <glyph glyph-name="aacute.alt" horiz-adv-x="537" 
d="M452 -10q-62 0 -78 60q-64 -60 -162 -60q-77 0 -122.5 43t-45.5 116q0 92 65.5 138.5t172.5 46.5q43 0 88 -12v29q0 65 -29 93.5t-91 28.5q-80 0 -149 -36l-11 59q30 15 81.5 25.5t95.5 10.5q168 0 168 -175v-253q0 -57 39 -57q21 0 50 22l7 -53q-35 -26 -79 -26z
M110 154q0 -49 32.5 -77.5t85.5 -28.5q82 0 142 62v159q-33 11 -85 11q-80 0 -127.5 -31.5t-47.5 -94.5zM359 741l-78 -137h-58l70 137h66z" />
    <glyph glyph-name="acircumflex.alt" horiz-adv-x="537" 
d="M452 -10q-62 0 -78 60q-64 -60 -162 -60q-77 0 -122.5 43t-45.5 116q0 92 65.5 138.5t172.5 46.5q43 0 88 -12v29q0 65 -29 93.5t-91 28.5q-80 0 -149 -36l-11 59q30 15 81.5 25.5t95.5 10.5q168 0 168 -175v-253q0 -57 39 -57q21 0 50 22l7 -53q-35 -26 -79 -26z
M110 154q0 -49 32.5 -77.5t85.5 -28.5q82 0 142 62v159q-33 11 -85 11q-80 0 -127.5 -31.5t-47.5 -94.5zM332 604l-70 99l-69 -99h-55l92 137h66l91 -137h-55z" />
    <glyph glyph-name="atilde.alt" horiz-adv-x="537" 
d="M452 -10q-62 0 -78 60q-64 -60 -162 -60q-77 0 -122.5 43t-45.5 116q0 92 65.5 138.5t172.5 46.5q43 0 88 -12v29q0 65 -29 93.5t-91 28.5q-80 0 -149 -36l-11 59q30 15 81.5 25.5t95.5 10.5q168 0 168 -175v-253q0 -57 39 -57q21 0 50 22l7 -53q-35 -26 -79 -26z
M110 154q0 -49 32.5 -77.5t85.5 -28.5q82 0 142 62v159q-33 11 -85 11q-80 0 -127.5 -31.5t-47.5 -94.5zM150 627l-23 29q12 28 34.5 48.5t48.5 20.5q29 0 66.5 -34t56.5 -34q39 0 59 50l24 -29q-32 -69 -83 -69q-28 0 -66.5 34t-56.5 34q-36 0 -60 -50z" />
    <glyph glyph-name="adieresis.alt" horiz-adv-x="537" 
d="M452 -10q-62 0 -78 60q-64 -60 -162 -60q-77 0 -122.5 43t-45.5 116q0 92 65.5 138.5t172.5 46.5q43 0 88 -12v29q0 65 -29 93.5t-91 28.5q-80 0 -149 -36l-11 59q30 15 81.5 25.5t95.5 10.5q168 0 168 -175v-253q0 -57 39 -57q21 0 50 22l7 -53q-35 -26 -79 -26z
M110 154q0 -49 32.5 -77.5t85.5 -28.5q82 0 142 62v159q-33 11 -85 11q-80 0 -127.5 -31.5t-47.5 -94.5zM128 671q0 45 43 45q41 0 41 -45q0 -44 -41 -44q-43 0 -43 44zM342 671q0 45 43 45q41 0 41 -45q0 -44 -41 -44q-43 0 -43 44z" />
    <glyph glyph-name="amacron.alt" horiz-adv-x="537" 
d="M452 -10q-62 0 -78 60q-64 -60 -162 -60q-77 0 -122.5 43t-45.5 116q0 92 65.5 138.5t172.5 46.5q43 0 88 -12v29q0 65 -29 93.5t-91 28.5q-80 0 -149 -36l-11 59q30 15 81.5 25.5t95.5 10.5q168 0 168 -175v-253q0 -57 39 -57q21 0 50 22l7 -53q-35 -26 -79 -26z
M110 154q0 -49 32.5 -77.5t85.5 -28.5q82 0 142 62v159q-33 11 -85 11q-80 0 -127.5 -31.5t-47.5 -94.5zM365 637h-205v49h205v-49z" />
    <glyph glyph-name="abreve.alt" horiz-adv-x="537" 
d="M452 -10q-62 0 -78 60q-64 -60 -162 -60q-77 0 -122.5 43t-45.5 116q0 92 65.5 138.5t172.5 46.5q43 0 88 -12v29q0 65 -29 93.5t-91 28.5q-80 0 -149 -36l-11 59q30 15 81.5 25.5t95.5 10.5q168 0 168 -175v-253q0 -57 39 -57q21 0 50 22l7 -53q-35 -26 -79 -26z
M110 154q0 -49 32.5 -77.5t85.5 -28.5q82 0 142 62v159q-33 11 -85 11q-80 0 -127.5 -31.5t-47.5 -94.5zM152 688l22 29q35 -56 92 -56q58 0 92 56l21 -29q-38 -74 -113 -74q-40 0 -69 22t-45 52z" />
    <glyph glyph-name="aring.alt" horiz-adv-x="537" 
d="M452 -10q-62 0 -78 60q-64 -60 -162 -60q-77 0 -122.5 43t-45.5 116q0 92 65.5 138.5t172.5 46.5q43 0 88 -12v29q0 65 -29 93.5t-91 28.5q-80 0 -149 -36l-11 59q30 15 81.5 25.5t95.5 10.5q168 0 168 -175v-253q0 -57 39 -57q21 0 50 22l7 -53q-35 -26 -79 -26z
M110 154q0 -49 32.5 -77.5t85.5 -28.5q82 0 142 62v159q-33 11 -85 11q-80 0 -127.5 -31.5t-47.5 -94.5zM164 670q0 40 29 69t69 29t69 -29t29 -69t-29 -69t-69 -29t-69 29t-29 69zM198 670q0 -26 19 -45t45 -19t45 19t19 45t-19 45t-45 19t-45 -19t-19 -45z" />
    <glyph glyph-name="aringacute.alt" horiz-adv-x="536" 
d="M452 -10q-62 0 -78 60q-64 -60 -162 -60q-77 0 -122.5 43t-45.5 116q0 92 65.5 138.5t172.5 46.5q43 0 88 -12v29q0 65 -29 93.5t-91 28.5q-80 0 -149 -36l-11 59q30 15 81.5 25.5t95.5 10.5q168 0 168 -175v-253q0 -57 39 -57q21 0 50 22l7 -53q-35 -26 -79 -26z
M110 154q0 -49 32.5 -77.5t85.5 -28.5q82 0 142 62v159q-33 11 -85 11q-80 0 -127.5 -31.5t-47.5 -94.5zM165 657q0 38 27 59t71 21t71 -20.5t27 -59.5t-27 -59.5t-71 -20.5t-71 20.5t-27 59.5zM200 657q0 -48 63 -48q64 0 64 48q0 47 -64 47q-63 0 -63 -47zM329 832
l-46 -74h-46l40 74h52z" />
    <glyph glyph-name="aogonek.alt" horiz-adv-x="536" 
d="M381 -84q0 49 43 78q-39 10 -50 56q-64 -60 -162 -60q-77 0 -122.5 43t-45.5 116q0 92 65.5 138.5t172.5 46.5q43 0 88 -12v29q0 65 -29 93.5t-91 28.5q-80 0 -149 -36l-11 59q30 15 81.5 25.5t95.5 10.5q168 0 168 -175v-253q0 -57 39 -57q21 0 50 22l7 -53
q-31 -23 -72 -26q-40 -20 -40 -67q0 -28 15 -43.5t38 -15.5q27 0 49 15l7 -36q-32 -16 -64 -16q-36 0 -59.5 23.5t-23.5 65.5zM110 154q0 -49 32.5 -77.5t85.5 -28.5q82 0 142 62v159q-33 11 -85 11q-80 0 -127.5 -31.5t-47.5 -94.5z" />
    <glyph glyph-name="gcircumflex.alt" horiz-adv-x="563" 
d="M52 305q0 99 55 163t157 64q41 0 81.5 -17t64.5 -44v52h65v-464q0 -116 -60.5 -186.5t-145.5 -70.5q-67 0 -106.5 37t-39.5 100q0 53 28 92.5t83 49.5q-80 7 -131 62t-51 162zM118 305q0 -90 47.5 -131.5t114.5 -41.5h130v278q-20 26 -57 44.5t-75 18.5q-76 0 -118 -47.5
t-42 -120.5zM410 42v35h-69q-74 0 -120.5 -31t-46.5 -92q0 -44 27.5 -69.5t70.5 -25.5q58 0 98 52.5t40 130.5zM356 604l-70 99l-69 -99h-55l92 137h66l91 -137h-55z" />
    <glyph glyph-name="gbreve.alt" horiz-adv-x="563" 
d="M176 688l22 29q35 -56 92 -56q58 0 92 56l21 -29q-38 -74 -113 -74q-40 0 -69 22t-45 52zM52 305q0 99 55 163t157 64q41 0 81.5 -17t64.5 -44v52h65v-464q0 -116 -60.5 -186.5t-145.5 -70.5q-67 0 -106.5 37t-39.5 100q0 53 28 92.5t83 49.5q-80 7 -131 62t-51 162z
M118 305q0 -90 47.5 -131.5t114.5 -41.5h130v278q-20 26 -57 44.5t-75 18.5q-76 0 -118 -47.5t-42 -120.5zM410 42v35h-69q-74 0 -120.5 -31t-46.5 -92q0 -44 27.5 -69.5t70.5 -25.5q58 0 98 52.5t40 130.5z" />
    <glyph glyph-name="gdotaccent.alt" horiz-adv-x="563" 
d="M52 305q0 99 55 163t157 64q41 0 81.5 -17t64.5 -44v52h65v-464q0 -116 -60.5 -186.5t-145.5 -70.5q-67 0 -106.5 37t-39.5 100q0 53 28 92.5t83 49.5q-80 7 -131 62t-51 162zM118 305q0 -90 47.5 -131.5t114.5 -41.5h130v278q-20 26 -57 44.5t-75 18.5q-76 0 -118 -47.5
t-42 -120.5zM410 42v35h-69q-74 0 -120.5 -31t-46.5 -92q0 -44 27.5 -69.5t70.5 -25.5q58 0 98 52.5t40 130.5zM250 672q0 45 45 45q43 0 43 -45t-43 -45q-45 0 -45 45z" />
    <glyph glyph-name="gcommaaccent.alt" horiz-adv-x="563" 
d="M52 305q0 99 55 163t157 64q41 0 81.5 -17t64.5 -44v52h65v-464q0 -116 -60.5 -186.5t-145.5 -70.5q-67 0 -106.5 37t-39.5 100q0 53 28 92.5t83 49.5q-80 7 -131 62t-51 162zM118 305q0 -90 47.5 -131.5t114.5 -41.5h130v278q-20 26 -57 44.5t-75 18.5q-76 0 -118 -47.5
t-42 -120.5zM410 42v35h-69q-74 0 -120.5 -31t-46.5 -92q0 -44 27.5 -69.5t70.5 -25.5q58 0 98 52.5t40 130.5zM319 766l-20 -70q21 -1 32 -13.5t11 -30.5q0 -23 -12 -35.5t-32 -12.5q-24 0 -37 14.5t-13 38.5q0 62 36 123z" />
    <glyph glyph-name="yacute.alt" horiz-adv-x="504" 
d="M26 -87q0 124 185 132l-184 478h67l165 -452l156 452h66l-190 -536q-36 -101 -70.5 -143t-89.5 -42q-46 0 -75.5 30t-29.5 81zM129 -141q32 0 52 28.5t46 100.5l6 17q-84 0 -123 -18.5t-39 -64.5q0 -29 16 -46t42 -17zM364 741l-78 -137h-58l70 137h66z" />
    <glyph glyph-name="ycircumflex.alt" horiz-adv-x="504" 
d="M26 -87q0 124 185 132l-184 478h67l165 -452l156 452h66l-190 -536q-36 -101 -70.5 -143t-89.5 -42q-46 0 -75.5 30t-29.5 81zM129 -141q32 0 52 28.5t46 100.5l6 17q-84 0 -123 -18.5t-39 -64.5q0 -29 16 -46t42 -17zM328 604l-70 99l-69 -99h-55l92 137h66l91 -137h-55
z" />
    <glyph glyph-name="ydieresis.alt" horiz-adv-x="504" 
d="M26 -87q0 124 185 132l-184 478h67l165 -452l156 452h66l-190 -536q-36 -101 -70.5 -143t-89.5 -42q-46 0 -75.5 30t-29.5 81zM129 -141q32 0 52 28.5t46 100.5l6 17q-84 0 -123 -18.5t-39 -64.5q0 -29 16 -46t42 -17zM117 661q0 41 39 41q37 0 37 -41q0 -40 -37 -40
q-39 0 -39 40zM331 661q0 41 39 41q37 0 37 -41q0 -40 -37 -40q-39 0 -39 40z" />
    <glyph glyph-name="ygrave.alt" horiz-adv-x="504" 
d="M26 -87q0 124 185 132l-184 478h67l165 -452l156 452h66l-190 -536q-36 -101 -70.5 -143t-89.5 -42q-46 0 -75.5 30t-29.5 81zM129 -141q32 0 52 28.5t46 100.5l6 17q-84 0 -123 -18.5t-39 -64.5q0 -29 16 -46t42 -17zM241 604l-78 137h66l70 -137h-58z" />
    </font>
</defs>
</svg>
