<?xml version="1.0" standalone="no"?>
<!DOCTYPE svg PUBLIC "-//W3C//DTD SVG 1.1//EN" "http://www.w3.org/Graphics/SVG/1.1/DTD/svg11.dtd" >
<svg xmlns="http://www.w3.org/2000/svg" xmlns:xlink="http://www.w3.org/1999/xlink" version="1.1">
<metadata>
Created by FontForge 20170731 at Thu Jul  7 17:43:09 2011
 By Aleksey,,,
Copyright (c) 2011 by Hannes von Doehren. All rights reserved.
</metadata>
<defs>
<font id="PlutoCondMedium" horiz-adv-x="510" >
  <font-face 
    font-family="Pluto Cond Medium"
    font-weight="500"
    font-stretch="condensed"
    units-per-em="1000"
    panose-1="2 11 6 6 2 2 3 6 2 4"
    ascent="750"
    descent="-250"
    x-height="523"
    cap-height="680"
    bbox="-118 -274 1089 907"
    underline-thickness="50"
    underline-position="-200"
    unicode-range="U+0020-FB02"
  />
<missing-glyph horiz-adv-x="612" 
d="M50 720h512v-720h-512v720zM266 283h48q0 26 14 47t34 36t40 29.5t34 36t14 48.5q0 51 -36.5 85t-101.5 34q-39 0 -67 -14.5t-41.5 -37t-19 -43.5t-5.5 -41h47q0 40 21 66.5t65 26.5q41 0 64 -21.5t23 -54.5q0 -23 -21 -45t-45.5 -38t-45.5 -46t-21 -68zM255 194v-71h68
v71h-68z" />
    <glyph glyph-name=".notdef" horiz-adv-x="612" 
d="M50 720h512v-720h-512v720zM266 283h48q0 26 14 47t34 36t40 29.5t34 36t14 48.5q0 51 -36.5 85t-101.5 34q-39 0 -67 -14.5t-41.5 -37t-19 -43.5t-5.5 -41h47q0 40 21 66.5t65 26.5q41 0 64 -21.5t23 -54.5q0 -23 -21 -45t-45.5 -38t-45.5 -46t-21 -68zM255 194v-71h68
v71h-68z" />
    <glyph glyph-name=".null" horiz-adv-x="0" 
 />
    <glyph glyph-name="nonmarkingreturn" horiz-adv-x="333" 
 />
    <glyph glyph-name="space" unicode=" " horiz-adv-x="215" 
 />
    <glyph glyph-name="exclam" unicode="!" horiz-adv-x="289" 
d="M99 243l-18 437h126l-19 -437h-89zM68 67q0 38 19.5 59t56.5 21t57.5 -21t20.5 -59q0 -39 -20.5 -59.5t-57.5 -20.5q-76 0 -76 80z" />
    <glyph glyph-name="quotedbl" unicode="&#x22;" horiz-adv-x="420" 
d="M165 680l-6 -252h-87l-5 252h98zM353 680l-6 -252h-88l-4 252h98z" />
    <glyph glyph-name="numbersign" unicode="#" horiz-adv-x="603" 
d="M284 10l30 144h-110l-33 -154h-93v10l31 144h-71v96h91l38 177h-70v96h91l34 157h92v-9l-32 -148h111l34 157h92v-9l-32 -148h79v-96h-99l-38 -177h78v-96h-98l-33 -154h-92v10zM262 427l-38 -177h111l38 177h-111z" />
    <glyph glyph-name="dollar" unicode="$" 
d="M214 -129v121q-105 8 -175 52l29 119q66 -48 146 -55v187l-51 16q-133 43 -133 175q0 75 48.5 130t135.5 69v85h75v-82q103 -4 181 -48l-36 -113q-63 40 -145 45v-178l36 -12q79 -27 116.5 -69.5t37.5 -109.5q0 -82 -51.5 -139.5t-138.5 -70.5v-122h-75zM348 195
q0 50 -59 75v-156q59 20 59 81zM156 494q0 -53 58 -75v146q-58 -18 -58 -71z" />
    <glyph glyph-name="percent" unicode="%" horiz-adv-x="782" 
d="M189 10l296 670h108v-9l-295 -671h-109v10zM35 509q0 85 43.5 133t114.5 48t115 -48.5t44 -132.5q0 -85 -44 -132.5t-115 -47.5t-114.5 47.5t-43.5 132.5zM127 509q0 -42 18 -64t48 -22t48 22t18 64t-18 64t-48 22t-48 -22t-18 -64zM431 169q0 85 43.5 133.5t114.5 48.5
t115 -48.5t44 -133.5q0 -84 -44 -131.5t-115 -47.5t-114.5 47.5t-43.5 131.5zM523 169q0 -42 18 -63.5t48 -21.5t48 21.5t18 63.5q0 43 -18 65t-48 22t-48 -22t-18 -65z" />
    <glyph glyph-name="ampersand" unicode="&#x26;" horiz-adv-x="670" 
d="M638 17v-18h-147l-47 52q-87 -61 -194 -61q-92 0 -147 50.5t-55 132.5q0 108 130 178q-35 40 -51.5 77t-16.5 86q0 74 51 125t142 51q90 0 141 -47t51 -130q0 -119 -142 -187l-2 -1l104 -111q56 73 90 173l94 -66q-40 -107 -108 -189zM276 101q45 0 95 32l-125 141
q-35 -18 -52 -37t-17 -47q0 -40 27.5 -64.5t71.5 -24.5zM233 504q0 -48 49 -104l25 12q65 30 65 92q0 32 -19.5 54t-49.5 22q-31 0 -50.5 -21.5t-19.5 -54.5z" />
    <glyph glyph-name="quotesingle" unicode="'" horiz-adv-x="232" 
d="M165 680l-6 -252h-87l-5 252h98z" />
    <glyph glyph-name="parenleft" unicode="(" horiz-adv-x="289" 
d="M184 716l71 -42q-39 -66 -68.5 -172.5t-29.5 -240.5q0 -132 29.5 -239t68.5 -173l-71 -42q-49 54 -93 175.5t-44 279.5q0 157 43.5 277.5t93.5 176.5z" />
    <glyph glyph-name="parenright" unicode=")" horiz-adv-x="289" 
d="M33 674l71 42q50 -55 93.5 -175.5t43.5 -278.5t-43.5 -280t-93.5 -175l-71 42q40 65 69 172t29 240q0 134 -29 241t-69 172z" />
    <glyph glyph-name="asterisk" unicode="*" horiz-adv-x="471" 
d="M205 543q-15 63 -15 120q0 23 13 36t31 13q19 0 32.5 -13t13.5 -36q0 -39 -17 -115q59 40 103 53q26 8 42 -6.5t16 -34.5q0 -36 -38 -45q-43 -13 -111 -16q50 -44 86 -94q15 -26 1 -48t-40 -22q-23 0 -38 22q-33 49 -50 112q-19 -66 -47 -108q-17 -26 -41 -26
q-27 0 -40.5 23.5t5.5 50.5q42 57 76 85q-40 4 -107 24q-33 9 -33 43q1 22 18.5 36t43.5 6q38 -15 96 -60z" />
    <glyph glyph-name="plus" unicode="+" 
d="M304 540v-187h155v-101h-155v-186h-99v186h-155v101h155v187h99z" />
    <glyph glyph-name="comma" unicode="," horiz-adv-x="265" 
d="M68 -143l37 132q-49 12 -49 74q0 40 19.5 61.5t55.5 21.5t56.5 -22.5t20.5 -60.5q0 -50 -22.5 -121t-47.5 -114z" />
    <glyph glyph-name="hyphen" unicode="-" horiz-adv-x="481" 
d="M69 353h343v-101h-343v101z" />
    <glyph glyph-name="period" unicode="." horiz-adv-x="266" 
d="M56 67q0 38 20 59t57 21q36 0 56.5 -21t20.5 -59q0 -39 -20.5 -59.5t-56.5 -20.5q-37 0 -57 20.5t-20 59.5z" />
    <glyph glyph-name="slash" unicode="/" horiz-adv-x="437" 
d="M17 10l296 670h107v-9l-295 -671h-108v10z" />
    <glyph glyph-name="zero" unicode="0" horiz-adv-x="628" 
d="M60 339q0 163 64.5 257t188.5 94q125 0 190 -94t65 -257q0 -162 -65 -255.5t-190 -93.5q-124 0 -188.5 93.5t-64.5 255.5zM182 339q0 -231 131 -231q133 0 133 231q0 234 -133 234q-131 0 -131 -234z" />
    <glyph glyph-name="one" unicode="1" horiz-adv-x="447" 
d="M10 525l251 155h93v-680h-127v529l-168 -101z" />
    <glyph glyph-name="two" unicode="2" horiz-adv-x="570" 
d="M67 0v96l222 207q43 41 62 78t19 81q0 51 -25 81t-74 30q-51 0 -77.5 -39.5t-27.5 -106.5l-115 22q2 111 62 176t166 65q107 0 164 -61.5t57 -157.5q0 -63 -28 -114t-91 -114l-136 -131h270v-112h-448z" />
    <glyph glyph-name="three" unicode="3" horiz-adv-x="556" 
d="M121 405h136q45 0 69 23t24 59q0 46 -32 70.5t-83 24.5q-42 0 -86.5 -14.5t-69.5 -29.5l-28 109q33 16 87.5 29.5t105.5 13.5q114 0 173.5 -48t59.5 -138q0 -53 -26 -94.5t-69 -54.5q57 -21 86.5 -61t29.5 -108q0 -92 -65.5 -144t-188.5 -52q-94 0 -193 43l31 107
q79 -41 157 -41q57 0 93.5 28.5t36.5 77.5q0 88 -112 88h-136v112z" />
    <glyph glyph-name="four" unicode="4" horiz-adv-x="611" 
d="M574 132h-101v-132h-127v132h-317v84l276 464h168v-453h101v-95zM156 227h190v325z" />
    <glyph glyph-name="five" unicode="5" horiz-adv-x="553" 
d="M83 319l-6 6l26 355h375v-112h-268l-11 -154h57q241 0 241 -192q0 -116 -68 -174t-183 -58q-108 0 -200 46l31 106q78 -43 156 -43q59 0 97 30t38 90q0 100 -129 100h-156z" />
    <glyph glyph-name="six" unicode="6" horiz-adv-x="607" 
d="M528 635l-34 -104q-68 50 -152 50q-146 0 -156 -208q61 80 158 80q101 0 156 -58.5t55 -162.5q0 -109 -64.5 -175.5t-166.5 -66.5q-125 0 -195 95t-70 256q0 159 70.5 254t196.5 95q62 0 117.5 -17.5t84.5 -37.5zM321 348q-78 0 -129 -89q11 -71 43 -111.5t84 -40.5
q48 0 79.5 36t31.5 89q0 57 -29.5 86.5t-79.5 29.5z" />
    <glyph glyph-name="seven" unicode="7" horiz-adv-x="490" 
d="M92 12l231 556h-292v112h433v-90l-232 -590h-140v12z" />
    <glyph glyph-name="eight" unicode="8" horiz-adv-x="613" 
d="M307 -10q-120 0 -184 52.5t-64 143.5q0 70 29 111t91 58q-49 14 -74.5 54t-25.5 95q0 90 58.5 138t169.5 48q110 0 168.5 -48t58.5 -138q0 -55 -26 -95t-75 -54q63 -17 92.5 -58t29.5 -111q0 -91 -64.5 -143.5t-183.5 -52.5zM306 309q-59 0 -89 -29t-30 -75q0 -49 33 -80
t87 -31t87 31t33 80q0 46 -30 75t-91 29zM307 588q-48 0 -75.5 -25t-27.5 -71q0 -41 25.5 -68.5t76.5 -27.5q52 0 77.5 27.5t25.5 68.5q0 45 -27 70.5t-75 25.5z" />
    <glyph glyph-name="nine" unicode="9" horiz-adv-x="607" 
d="M78 45l35 104q68 -50 152 -50q145 0 155 207q-60 -79 -156 -79q-101 0 -156.5 58.5t-55.5 162.5q0 109 64.5 175.5t165.5 66.5q126 0 196 -95t70 -256q0 -159 -70.5 -254t-197.5 -95q-62 0 -116.5 17.5t-85.5 37.5zM287 331q78 0 128 89q-11 71 -43 112t-84 41
q-48 0 -79.5 -36t-31.5 -89q0 -57 29.5 -87t80.5 -30z" />
    <glyph glyph-name="colon" unicode=":" horiz-adv-x="289" 
d="M68 460q0 37 19.5 57.5t55.5 20.5t56 -20.5t20 -57.5q0 -38 -20 -58.5t-56 -20.5t-55.5 20.5t-19.5 58.5zM68 65q0 37 19.5 57.5t55.5 20.5t56 -20.5t20 -57.5q0 -38 -20 -58.5t-56 -20.5t-55.5 20.5t-19.5 58.5z" />
    <glyph glyph-name="semicolon" unicode=";" horiz-adv-x="291" 
d="M83 -140l37 128q-48 12 -48 72q0 39 19 60t54 21t55 -22t20 -59q0 -48 -22 -117t-46 -112zM68 460q0 37 19.5 57.5t55.5 20.5t56 -20.5t20 -57.5q0 -38 -20 -58.5t-56 -20.5t-55.5 20.5t-19.5 58.5z" />
    <glyph glyph-name="less" unicode="&#x3c;" 
d="M51 251v99l400 193h8v-98l-308 -143l308 -141v-99h-8z" />
    <glyph glyph-name="equal" unicode="=" 
d="M51 493h408v-101h-408v101zM51 213h408v-101h-408v101z" />
    <glyph glyph-name="greater" unicode="&#x3e;" 
d="M459 350v-99l-399 -189h-9v99l309 141l-309 143v98h9z" />
    <glyph glyph-name="question" unicode="?" horiz-adv-x="425" 
d="M234 243h-103q-10 32 -10 58q0 44 49 84l39 36q16 15 24 24.5t16 28t8 39.5q0 32 -20 51.5t-55 19.5q-62 0 -112 -66l-34 99q73 73 177 73q79 0 125 -45.5t46 -114.5q0 -38 -13.5 -72.5t-28 -52.5t-37.5 -41l-46 -44q-12 -12 -16.5 -17t-8 -13.5t-3.5 -19.5q0 -12 3 -27z
M107 67q0 80 76 80q37 0 57.5 -21t20.5 -59q0 -39 -20.5 -59.5t-57.5 -20.5q-76 0 -76 80z" />
    <glyph glyph-name="at" unicode="@" horiz-adv-x="851" 
d="M621 491v-331q0 -37 5.5 -49.5t24.5 -12.5q30 0 53 57t23 159q0 149 -77.5 233.5t-215.5 84.5q-136 0 -218.5 -96t-82.5 -273q0 -178 80 -274t221 -96q80 0 147 38l29 -79q-80 -46 -176 -46q-184 0 -287.5 120.5t-103.5 336.5q0 205 109 330.5t282 125.5t278 -109
t105 -289q0 -159 -57 -234.5t-152 -75.5q-41 0 -63 12.5t-37 41.5q-36 -53 -123 -53q-83 0 -134.5 68t-51.5 174q0 108 51.5 176.5t134.5 68.5t115 -43v35h121zM323 254q0 -61 27.5 -98.5t73.5 -37.5q47 0 76 38v200q-27 36 -76 36q-46 0 -73.5 -38t-27.5 -100z" />
    <glyph glyph-name="A" unicode="A" horiz-adv-x="629" 
d="M14 0l228 680h148l222 -680h-127l-43 141h-257l-44 -141h-127zM316 553l-99 -317h194z" />
    <glyph glyph-name="B" unicode="B" horiz-adv-x="634" 
d="M91 0v680h247q97 0 149.5 -45t52.5 -135q0 -107 -87 -146q133 -30 133 -166q0 -89 -54 -138.5t-155 -49.5h-286zM219 287v-176h141q93 0 93 85q0 91 -103 91h-131zM219 569v-163h100q92 0 92 83q0 80 -89 80h-103z" />
    <glyph glyph-name="C" unicode="C" horiz-adv-x="636" 
d="M539 195l51 -105q-42 -43 -105.5 -71.5t-131.5 -28.5q-131 0 -214.5 94t-83.5 255q0 162 83.5 256.5t214.5 94.5q113 0 173.5 -59.5t62.5 -177.5l-115 -23q-3 141 -126 141q-74 0 -118 -61t-44 -171q0 -112 47 -171t131 -59q87 0 175 86z" />
    <glyph glyph-name="D" unicode="D" horiz-adv-x="698" 
d="M91 0v680h253q132 0 215.5 -90t83.5 -251q0 -160 -83.5 -249.5t-215.5 -89.5h-253zM219 112h109q86 0 135 59t49 168q0 110 -49 169.5t-135 59.5h-109v-456z" />
    <glyph glyph-name="E" unicode="E" horiz-adv-x="607" 
d="M552 0h-461v680h461v-113h-339v-162h277v-111h-277v-182h339v-112z" />
    <glyph glyph-name="F" unicode="F" horiz-adv-x="572" 
d="M489 246h-276v-246h-122v680h444v-113h-322v-208h276v-113z" />
    <glyph glyph-name="G" unicode="G" horiz-adv-x="672" 
d="M586 608l-53 -102q-74 65 -157 65q-89 0 -140 -61t-51 -171q0 -112 50.5 -171t134.5 -59q72 0 118 35v140h-152v111h272v-324q-42 -34 -111.5 -57.5t-135.5 -23.5q-132 0 -220 94.5t-88 254.5q0 161 88 256t220 95q136 0 225 -82z" />
    <glyph glyph-name="H" unicode="H" horiz-adv-x="737" 
d="M518 0v287h-299v-287h-128v680h128v-281h299v281h128v-680h-128z" />
    <glyph glyph-name="I" unicode="I" horiz-adv-x="309" 
d="M91 0v680h128v-680h-128z" />
    <glyph glyph-name="J" unicode="J" horiz-adv-x="566" 
d="M17 228l124 12q3 -71 28.5 -103.5t77.5 -32.5q106 0 106 142v434h129v-432q0 -119 -60.5 -189t-177.5 -70q-108 0 -165.5 63t-61.5 176z" />
    <glyph glyph-name="K" unicode="K" horiz-adv-x="685" 
d="M612 680v-19l-193 -329q12 -16 45 -81t66.5 -107.5t68.5 -42.5q28 0 55 15l14 -100q-45 -26 -101 -26q-49 0 -91 35.5t-65.5 79.5t-51.5 99t-46 77h-94v-281h-128v680h128v-288h107l156 288h130z" />
    <glyph glyph-name="L" unicode="L" horiz-adv-x="533" 
d="M516 0h-425v680h128v-568h297v-112z" />
    <glyph glyph-name="M" unicode="M" horiz-adv-x="835" 
d="M616 0v467l-187 -275h-23l-187 275v-467h-128v680h125l201 -298l202 298h125v-680h-128z" />
    <glyph glyph-name="N" unicode="N" horiz-adv-x="735" 
d="M532 0l-314 465v-465h-127v680h110l315 -466v466h129v-680h-113z" />
    <glyph glyph-name="O" unicode="O" horiz-adv-x="703" 
d="M54 339q0 156 81 253.5t215 97.5q135 0 217 -97.5t82 -253.5q0 -155 -82 -252t-217 -97q-134 0 -215 97t-81 252zM180 339q0 -112 46 -170t124 -58q80 0 126.5 58t46.5 170q0 114 -46.5 172t-126.5 58q-78 0 -124 -58.5t-46 -171.5z" />
    <glyph glyph-name="P" unicode="P" horiz-adv-x="620" 
d="M91 0v680h280q91 0 151.5 -63t60.5 -183q0 -110 -62 -176.5t-150 -66.5h-152v-191h-128zM343 568h-124v-265h124q46 0 78 36t32 95q0 63 -31.5 98.5t-78.5 35.5z" />
    <glyph glyph-name="Q" unicode="Q" horiz-adv-x="704" 
d="M55 339q0 156 81 253.5t215 97.5q135 0 217 -97.5t82 -253.5q0 -114 -46 -199.5t-128 -123.5q18 -19 24 -25.5t23 -22.5t28 -22t28 -12t34 -6q50 0 84 15l13 -104q-46 -19 -106 -19q-48 0 -93 23.5t-72 51.5t-54 58t-38 37q-132 1 -212 98t-80 251zM179 339
q0 -112 47 -170t125 -58q80 0 127 58t47 170q0 113 -47 171t-127 58q-78 0 -125 -58t-47 -171z" />
    <glyph glyph-name="R" unicode="R" horiz-adv-x="672" 
d="M91 0v680h284q91 0 148 -61t57 -161q0 -81 -46.5 -137t-118.5 -70q6 -7 32 -39t37 -43.5t32 -31.5t38.5 -28t35.5 -8q30 0 61 17l14 -102q-45 -26 -106 -26q-38 0 -75.5 21.5t-68.5 55t-57.5 67.5t-53 67t-45.5 46h-40v-247h-128zM219 568v-220h122q48 0 78 29.5t30 79.5
q0 54 -29.5 82.5t-78.5 28.5h-122z" />
    <glyph glyph-name="S" unicode="S" horiz-adv-x="554" 
d="M62 44l29 119q80 -56 170 -56q49 0 79.5 22t30.5 66q0 31 -19.5 49.5t-64.5 32.5l-101 32q-133 44 -133 177q0 87 63 145t174 58q117 0 204 -49l-36 -113q-72 46 -164 46q-56 0 -85.5 -21.5t-29.5 -57.5q0 -55 66 -75l103 -35q79 -27 117 -70.5t38 -110.5
q0 -93 -64.5 -153t-171.5 -60q-58 0 -114.5 16.5t-90.5 37.5z" />
    <glyph glyph-name="T" unicode="T" horiz-adv-x="550" 
d="M521 552h-179v-552h-128v552h-186v128h493v-128z" />
    <glyph glyph-name="U" unicode="U" horiz-adv-x="697" 
d="M211 680v-398q0 -174 136 -174q138 0 138 175v397h128v-406q0 -127 -67 -206t-199 -79t-198 76t-66 209v406h128z" />
    <glyph glyph-name="V" unicode="V" horiz-adv-x="640" 
d="M239 0l-222 680h137l164 -543l169 543h138l-228 -680h-158z" />
    <glyph glyph-name="W" unicode="W" horiz-adv-x="951" 
d="M571 0l-94 304l-101 -304h-137l-222 680h136l165 -536l103 311l-69 225h137l149 -516l161 516h138l-228 -680h-138z" />
    <glyph glyph-name="X" unicode="X" horiz-adv-x="639" 
d="M611 680v-9l-203 -332l203 -329v-10h-147l-145 255l-146 -255h-145v10l202 329l-202 332v9h144l147 -256l147 256h145z" />
    <glyph glyph-name="Y" unicode="Y" horiz-adv-x="589" 
d="M232 0v272l-225 399v9h141l147 -290l147 290h140v-9l-225 -398v-273h-125z" />
    <glyph glyph-name="Z" unicode="Z" horiz-adv-x="561" 
d="M54 90l290 478h-290v112h453v-90l-290 -478h290v-112h-453v90z" />
    <glyph glyph-name="bracketleft" unicode="[" horiz-adv-x="319" 
d="M283 -188h-203v898h203v-101h-103v-696h103v-101z" />
    <glyph glyph-name="backslash" unicode="\" horiz-adv-x="437" 
d="M124 680l296 -670v-10h-108l-295 671v9h107z" />
    <glyph glyph-name="bracketright" unicode="]" horiz-adv-x="319" 
d="M35 710h203v-898h-203v101h104v696h-104v101z" />
    <glyph glyph-name="asciicircum" unicode="^" 
d="M206 680h94l159 -281v-11h-114l-92 191l-93 -191h-112v11z" />
    <glyph glyph-name="underscore" unicode="_" horiz-adv-x="592" 
d="M84 -33h425v-101h-425v101z" />
    <glyph glyph-name="grave" unicode="`" 
d="M247 591l-89 150h124l69 -150h-104z" />
    <glyph glyph-name="a" unicode="a" horiz-adv-x="615" 
d="M511 523v-375q0 -50 30 -50q19 0 44 17l5 -102q-44 -23 -100 -23q-40 0 -63.5 14.5t-32.5 50.5q-48 -64 -141 -64q-95 0 -150.5 70.5t-55.5 198.5q0 126 55 199t156 73q85 0 127 -49v40h126zM385 373q-39 47 -92 47q-55 0 -86.5 -42.5t-31.5 -117.5q0 -73 31.5 -115.5
t86.5 -42.5q52 0 92 53v218z" />
    <glyph glyph-name="b" unicode="b" horiz-adv-x="586" 
d="M201 710v-229q51 51 135 51q94 0 149 -71t55 -199t-55.5 -200t-148.5 -72q-87 0 -135 54v-44h-126v710h126zM412 260q0 75 -31.5 117.5t-87.5 42.5q-57 0 -92 -46v-227q37 -45 92 -45t87 42t32 116z" />
    <glyph glyph-name="c" unicode="c" horiz-adv-x="522" 
d="M431 157l50 -99q-85 -72 -194 -72q-121 0 -181.5 73.5t-60.5 200.5q0 124 64.5 200.5t170.5 76.5q180 0 206 -182l-98 -36q-9 105 -96 105q-54 0 -85.5 -43.5t-31.5 -116.5q0 -165 127 -165q64 0 129 58z" />
    <glyph glyph-name="d" unicode="d" horiz-adv-x="615" 
d="M386 710h125v-560q0 -52 32 -52q18 0 42 17l5 -102q-40 -23 -101 -23q-73 0 -94 64q-49 -64 -142 -64q-94 0 -150 72t-56 200t56 199t150 71q81 0 133 -50v228zM175 260q0 -73 31.5 -115.5t85.5 -42.5q56 0 94 46v226q-38 46 -94 46q-55 0 -86 -42.5t-31 -117.5z" />
    <glyph glyph-name="e" unicode="e" horiz-adv-x="525" 
d="M465 221h-296q8 -127 130 -127q68 0 128 51l48 -95q-75 -64 -196 -64q-116 0 -175 75t-59 199q0 122 64 199.5t170 77.5q100 0 150 -58.5t50 -151.5q0 -55 -14 -106zM176 319h185q3 12 3 26q0 41 -22.5 62.5t-62.5 21.5q-46 0 -72.5 -30t-30.5 -80z" />
    <glyph glyph-name="f" unicode="f" horiz-adv-x="395" 
d="M32 397v100h80v47q0 176 157 176q64 0 113 -27l-28 -111q-32 25 -64 25q-52 0 -52 -58v-52h130v-100h-130v-397h-126v397h-80z" />
    <glyph glyph-name="g" unicode="g" horiz-adv-x="587" 
d="M48 280q0 116 56.5 184t152.5 68q79 0 129 -52v43h126v-487q0 -117 -62.5 -175.5t-165.5 -58.5q-99 0 -184 45l28 111q73 -44 142 -44q116 0 116 105v57q-49 -46 -129 -46q-96 0 -152.5 68t-56.5 182zM176 280q0 -64 31.5 -101.5t86.5 -37.5q49 0 92 45v184
q-38 50 -92 50q-55 0 -86.5 -37.5t-31.5 -102.5z" />
    <glyph glyph-name="h" unicode="h" horiz-adv-x="603" 
d="M201 0h-126v710h126v-239q47 61 144 61q161 0 161 -204v-187q0 -43 32 -43q17 0 42 16l5 -101q-42 -23 -95 -23q-57 0 -83.5 27.5t-26.5 89.5v196q0 111 -86 111q-34 0 -58 -25.5t-35 -61.5v-327z" />
    <glyph glyph-name="i" unicode="i" horiz-adv-x="307" 
d="M63 671q0 65 76 65q71 0 71 -65q0 -66 -71 -66q-76 0 -76 66zM75 523h126v-382q0 -43 30 -43q18 0 43 16l5 -101q-40 -23 -95 -23q-56 0 -82.5 27.5t-26.5 89.5v416z" />
    <glyph glyph-name="j" unicode="j" horiz-adv-x="276" 
d="M75 523h126v-489q0 -158 -120 -231l-74 84q68 51 68 141v495zM66 671q0 65 72 65q73 0 73 -65q0 -66 -73 -66q-72 0 -72 66z" />
    <glyph glyph-name="k" unicode="k" horiz-adv-x="562" 
d="M201 0h-126v710h126v-393q39 0 66.5 8t52.5 29.5t41.5 63t25.5 105.5h127q-22 -187 -121 -259l138 -248v-16h-130l-113 220q-43 -8 -87 -8v-212z" />
    <glyph glyph-name="l" unicode="l" horiz-adv-x="307" 
d="M72 710h126v-561q0 -51 37 -51q22 0 48 16l5 -101q-46 -23 -101 -23q-59 0 -87 29t-28 96v595z" />
    <glyph glyph-name="m" unicode="m" horiz-adv-x="886" 
d="M201 0h-126v523h126v-51q45 60 139 60q100 0 137 -83q47 83 147 83q87 0 126.5 -50t39.5 -150v-191q0 -43 31 -43q19 0 42 16l6 -101q-42 -23 -96 -23q-56 0 -82.5 27.5t-26.5 89.5v200q0 56 -20.5 81.5t-62.5 25.5q-57 0 -83 -72v-10v-332h-125v307q0 107 -83 107
q-65 0 -89 -78v-336z" />
    <glyph glyph-name="n" unicode="n" horiz-adv-x="603" 
d="M201 0h-126v523h126v-52q47 61 144 61q161 0 161 -204v-187q0 -43 32 -43q17 0 42 16l5 -101q-42 -23 -95 -23q-57 0 -83.5 27.5t-26.5 89.5v196q0 111 -86 111q-34 0 -58 -25.5t-35 -61.5v-327z" />
    <glyph glyph-name="o" unicode="o" horiz-adv-x="568" 
d="M45 260q0 129 65 203t173 74q110 0 175 -74t65 -203q0 -128 -65 -201t-175 -73q-108 0 -173 73t-65 201zM169 260q0 -76 30.5 -117t83.5 -41q54 0 84.5 40.5t30.5 117.5q0 78 -30.5 119t-84.5 41q-53 0 -83.5 -41t-30.5 -119z" />
    <glyph glyph-name="p" unicode="p" horiz-adv-x="616" 
d="M569 261q0 -128 -56 -199t-150 -71q-83 0 -133 50v-228h-126v560q0 51 -32 51q-18 0 -42 -17l-5 103q46 23 101 23q72 0 94 -65q49 65 143 65t150 -72t56 -200zM441 263q0 73 -31.5 115.5t-86.5 42.5q-57 0 -93 -46v-226q15 -19 40 -32.5t53 -13.5q55 0 86.5 42.5
t31.5 117.5z" />
    <glyph glyph-name="q" unicode="q" horiz-adv-x="586" 
d="M47 260q0 128 55.5 200t148.5 72q86 0 135 -54v45h125v-711h-125v228q-52 -50 -135 -50q-94 0 -149 71t-55 199zM175 263q0 -75 31.5 -118t86.5 -43t93 46v226q-36 46 -93 46q-55 0 -86.5 -42t-31.5 -115z" />
    <glyph glyph-name="r" unicode="r" horiz-adv-x="428" 
d="M412 507l-17 -118q-33 25 -78 25q-38 0 -58 -28.5t-29 -81.5v-304h-126v373q0 51 -32 51q-18 0 -42 -17l-5 103q46 23 101 23q73 0 95 -66q17 34 42.5 49.5t68.5 15.5q52 0 80 -25z" />
    <glyph glyph-name="s" unicode="s" horiz-adv-x="453" 
d="M406 498l-30 -108q-72 34 -131 34q-72 0 -72 -51q0 -19 13 -30t47 -21l68 -20q107 -33 107 -142q0 -72 -50.5 -121t-137.5 -49q-95 0 -169 39l25 111q79 -44 138 -44q32 0 49.5 14t17.5 39q0 24 -13.5 35.5t-42.5 20.5l-72 22q-109 34 -109 142q0 71 52 117t142 46
q42 0 91 -10.5t77 -23.5z" />
    <glyph glyph-name="t" unicode="t" horiz-adv-x="430" 
d="M228 423v-251q0 -71 60 -71q48 0 90 33l32 -101q-74 -43 -152 -43q-71 0 -113 41t-42 125v267h-78v100h86l15 133h102v-133h161v-100h-161z" />
    <glyph glyph-name="u" unicode="u" horiz-adv-x="605" 
d="M376 523h125v-382q0 -43 31 -43q18 0 43 16l5 -101q-40 -23 -95 -23q-82 0 -102 60q-48 -60 -148 -60q-165 0 -165 204v329h126v-313q0 -51 18.5 -77t62.5 -26q67 0 99 69v347z" />
    <glyph glyph-name="v" unicode="v" horiz-adv-x="592" 
d="M223 398v-169q0 -58 23.5 -90t64.5 -32q42 0 69 37t27 101q0 145 -43 278h129q41 -148 41 -286q0 -113 -60 -180t-164 -67q-103 0 -157.5 57.5t-54.5 162.5v165q0 26 -7 37.5t-25 11.5q-21 0 -43 -16l-5 101q38 23 100 23q105 0 105 -134z" />
    <glyph glyph-name="w" unicode="w" horiz-adv-x="874" 
d="M509 523v-300q0 -54 22.5 -85t60.5 -31q43 0 67 36.5t24 100.5q0 130 -36 279h129q38 -140 38 -279q0 -122 -53.5 -188t-151.5 -66q-60 0 -98.5 20t-62.5 71q-24 -50 -62.5 -70.5t-97.5 -20.5q-190 0 -190 220v164q0 50 -32 50q-23 0 -43 -17l-5 103q55 22 104 22
q102 0 102 -131v-176q0 -118 80 -118q40 0 63.5 31t23.5 91v294h118z" />
    <glyph glyph-name="x" unicode="x" horiz-adv-x="523" 
d="M495 523v-9l-147 -254l147 -250v-10h-137l-98 192l-95 -192h-137v10l144 250l-144 254v9h135l97 -195l100 195h135z" />
    <glyph glyph-name="y" unicode="y" horiz-adv-x="518" 
d="M29 -169l18 96q38 -20 74 -20q31 0 49.5 18t30.5 58l9 29l-201 511h139l117 -383l113 383h128l-196 -565q-27 -80 -67 -118t-113 -38q-57 0 -101 29z" />
    <glyph glyph-name="z" unicode="z" horiz-adv-x="461" 
d="M48 90l207 332h-207v101h365v-90l-206 -332h206v-101h-365v90z" />
    <glyph glyph-name="braceleft" unicode="{" horiz-adv-x="310" 
d="M240 -105h23v-90h-44q-137 0 -137 125q0 37 21.5 111.5t21.5 113.5q0 35 -21 50t-68 15v77q47 0 68 17.5t21 53.5q0 38 -21.5 111.5t-21.5 110.5q0 56 34 88t103 32h44v-90h-23q-59 0 -59 -59q0 -26 21.5 -98.5t21.5 -111.5q0 -77 -72 -93q72 -16 72 -95
q0 -38 -21.5 -110t-21.5 -98q0 -60 59 -60z" />
    <glyph glyph-name="bar" unicode="|" horiz-adv-x="259" 
d="M80 -188v898h99v-898h-99z" />
    <glyph glyph-name="braceright" unicode="}" horiz-adv-x="311" 
d="M92 -195h-45v90h25q58 0 58 60q0 26 -21.5 98t-21.5 110q0 79 72 95q-72 16 -72 93q0 39 21.5 111.5t21.5 98.5q0 59 -58 59h-25v90h45q68 0 102 -32t34 -88q0 -37 -21 -110.5t-21 -111.5q0 -37 21 -54t68 -17v-77q-48 0 -68.5 -15t-20.5 -50q0 -39 21 -114t21 -111
q0 -125 -136 -125z" />
    <glyph glyph-name="asciitilde" unicode="~" horiz-adv-x="468" 
d="M372 369l43 -60q-11 -43 -40 -69t-64 -26q-33 0 -79 37.5t-72 37.5q-21 0 -38.5 -15.5t-26.5 -44.5l-41 63q10 38 37.5 64.5t63.5 26.5q29 0 57.5 -18.5t52.5 -37.5t42 -19q42 0 65 61z" />
    <glyph glyph-name="uni00A0" unicode="&#xa0;" horiz-adv-x="215" 
 />
    <glyph glyph-name="exclamdown" unicode="&#xa1;" horiz-adv-x="275" 
d="M181 279l20 -437h-126l19 437h87zM214 457q0 -39 -20 -60.5t-57 -21.5t-57.5 21.5t-20.5 60.5t20.5 59.5t57.5 20.5t57 -20.5t20 -59.5z" />
    <glyph glyph-name="cent" unicode="&#xa2;" 
d="M422 155l46 -97q-79 -72 -190 -72q-12 0 -36 2l-29 -125l-72 21l29 122q-133 59 -133 254q0 121 65 199t170 78q15 0 22 -1l27 111l72 -21l-25 -107q82 -36 118 -153l-93 -41q-19 61 -51 86l-75 -317q7 -1 22 -1q69 0 133 62zM154 264q0 -90 44 -136l72 306
q-52 -1 -84 -48t-32 -122z" />
    <glyph glyph-name="sterling" unicode="&#xa3;" 
d="M390 307h-148q9 -72 9 -118q0 -23 -1 -34q4 -3 23.5 -20.5t34.5 -27t28 -9.5q48 0 48 101v25h107q2 -34 2 -48q0 -186 -126 -186q-26 0 -50.5 13t-57.5 42t-36 31q-20 -43 -46 -64.5t-68 -21.5q-44 0 -68.5 29.5t-24.5 76.5q0 45 25.5 73.5t65.5 28.5q22 0 38 -10
q0 33 -18 119h-80v79h63q-10 57 -10 107q0 87 47 142t137 55q52 0 101 -19t77 -42l-37 -111q-53 55 -119 55q-39 0 -59 -30t-20 -80q0 -32 5 -77h158v-79zM116 127q-14 0 -23 -9.5t-9 -25.5q0 -32 23 -32q27 0 33 58q-9 9 -24 9z" />
    <glyph glyph-name="currency" unicode="&#xa4;" horiz-adv-x="555" 
d="M420 516l72 -72l-58 -57q24 -38 24 -85q0 -46 -23 -85l57 -56l-72 -72l-58 57q-37 -23 -87 -23q-49 0 -83 20l-55 -54l-72 72l51 51q-25 39 -25 90t25 89l-51 53l72 72l55 -56q36 22 83 22q52 0 87 -25zM181 302q0 -40 26.5 -67.5t67.5 -27.5t67 27.5t26 67.5t-26 67.5
t-67 27.5t-67.5 -27.5t-26.5 -67.5z" />
    <glyph glyph-name="yen" unicode="&#xa5;" 
d="M441 122h-126v-122h-127v122h-125v78h125v55h-125v78h99l-141 338v9h130l101 -305l106 305h130v-9l-147 -338h100v-78h-126v-55h126v-78z" />
    <glyph glyph-name="brokenbar" unicode="&#xa6;" horiz-adv-x="268" 
d="M184 -188h-100v347h100v-347zM84 710h100v-335h-100v335z" />
    <glyph glyph-name="section" unicode="&#xa7;" horiz-adv-x="564" 
d="M72 -50l28 103q99 -45 182 -45q45 0 69.5 14t24.5 39q0 18 -15 30.5t-31.5 18t-55.5 14.5l-82 19q-67 16 -97.5 50.5t-30.5 92.5q0 83 68 130q-68 34 -68 113q0 70 60.5 115.5t164.5 45.5q116 0 202 -43l-34 -104q-95 44 -179 44q-92 0 -92 -54q0 -15 11.5 -25.5
t22 -13.5t35.5 -9q5 -1 8 -2l87 -19q152 -36 152 -158q0 -85 -71 -131q71 -38 71 -109q0 -74 -62 -118t-165 -44q-58 0 -114 14t-89 32zM305 370l-50 11q-40 -6 -61 -30t-21 -52q0 -27 14.5 -42t49.5 -24l64 -16q39 4 62 24t23 52q0 62 -81 77z" />
    <glyph glyph-name="dieresis" unicode="&#xa8;" 
d="M78 669q0 63 68 63q67 0 67 -63q0 -62 -67 -62q-68 0 -68 62zM297 669q0 63 68 63q66 0 66 -63q0 -62 -66 -62q-68 0 -68 62z" />
    <glyph glyph-name="copyright" unicode="&#xa9;" horiz-adv-x="796" 
d="M48 339q0 151 100 251t249 100q151 0 251 -100t100 -251q0 -149 -100 -249t-251 -100q-149 0 -249 100t-100 249zM120 339q0 -120 78.5 -200t198.5 -80t199.5 80t79.5 200q0 121 -79 201t-200 80q-120 0 -198.5 -80t-78.5 -201zM487 286l54 -67q-59 -55 -140 -55
q-77 0 -126.5 47t-49.5 128t49.5 128t126.5 47q65 0 101 -34t38 -94l-81 -19q-2 58 -58 58q-35 0 -56.5 -23t-21.5 -63q0 -41 21.5 -63.5t58.5 -22.5q45 0 84 33z" />
    <glyph glyph-name="ordfeminine" unicode="&#xaa;" horiz-adv-x="448" 
d="M379 415l3 -70q-34 -16 -70 -16q-41 0 -57 38q-34 -38 -85 -38q-45 0 -72.5 28.5t-27.5 73.5q0 58 42 89t116 31q13 0 19 -1v12q0 29 -12 40.5t-36 11.5q-49 0 -86 -26l-15 76q53 23 123 23q61 0 85.5 -29t24.5 -88v-140q0 -15 4 -21.5t16 -6.5q9 0 28 13zM94 251h269
v-70h-269v70zM193 401q30 0 54 18v72q-18 4 -31 4q-31 0 -52 -13.5t-21 -39.5q0 -41 50 -41z" />
    <glyph glyph-name="guillemotleft" unicode="&#xab;" horiz-adv-x="497" 
d="M46 289v25l137 204h9l46 -26l-88 -190l88 -190l-46 -26h-9zM245 289v25l139 204h9l46 -26l-87 -190l87 -190l-46 -26h-9z" />
    <glyph glyph-name="logicalnot" unicode="&#xac;" 
d="M459 413l-1 -287h-98v186h-309v101h408z" />
    <glyph glyph-name="uni00AD" unicode="&#xad;" horiz-adv-x="481" 
d="M69 353h343v-101h-343v101z" />
    <glyph glyph-name="registered" unicode="&#xae;" horiz-adv-x="796" 
d="M48 339q0 151 100 251t249 100q151 0 251 -100t100 -251q0 -149 -100 -249t-251 -100q-149 0 -249 100t-100 249zM120 339q0 -120 78.5 -200t198.5 -80t199 80t79 200q0 121 -79 201t-199 80t-198.5 -80t-78.5 -201zM254 169v340h157q58 0 95 -29.5t37 -86.5
q0 -38 -22.5 -65.5t-59.5 -37.5q55 -41 86 -41q18 0 37 7l8 -79q-26 -13 -57 -13q-36 0 -71.5 21t-67 49t-46.5 35v-100h-96zM411 432h-61v-78h61q18 0 30 11t12 28q0 19 -11.5 29t-30.5 10z" />
    <glyph glyph-name="macron" unicode="&#xaf;" 
d="M364 614h-219v89h219v-89z" />
    <glyph glyph-name="degree" unicode="&#xb0;" horiz-adv-x="416" 
d="M49 509q0 84 44 132.5t114 48.5q71 0 115 -48t44 -133t-44 -132.5t-115 -47.5q-70 0 -114 47.5t-44 132.5zM135 509q0 -47 19.5 -71t52.5 -24q34 0 54 24t20 71t-20 71t-54 24q-33 0 -52.5 -24t-19.5 -71z" />
    <glyph glyph-name="plusminus" unicode="&#xb1;" 
d="M304 652v-187h155v-101h-155v-127h-98v127h-155v101h155v187h98zM51 158h408v-101h-408v101z" />
    <glyph glyph-name="twosuperior" unicode="&#xb2;" horiz-adv-x="304" 
d="M42 449v54l110 98q39 35 39 73q0 22 -11.5 36t-33.5 14q-49 0 -49 -67l-64 12q2 56 32.5 88.5t84.5 32.5t82.5 -30.5t28.5 -79.5q0 -66 -60 -116l-60 -52h127v-63h-226z" />
    <glyph glyph-name="threesuperior" unicode="&#xb3;" horiz-adv-x="295" 
d="M68 651h66q21 0 32 10.5t11 27.5q0 40 -50 40q-40 0 -80 -20l-15 61q45 20 102 20q55 0 84.5 -24.5t29.5 -69.5q0 -54 -48 -71q58 -16 58 -84q0 -44 -32 -70.5t-92 -26.5q-49 0 -102 20l18 60q36 -18 80 -18q26 0 41 12t15 34q0 38 -52 38h-66v61z" />
    <glyph glyph-name="acute" unicode="&#xb4;" 
d="M351 741l-88 -150h-105l70 150h123z" />
    <glyph glyph-name="mu" unicode="&#xb5;" horiz-adv-x="579" 
d="M208 523v-263q0 -80 19 -116.5t67 -36.5q61 0 93 67v349h126v-523h-126v40q-49 -50 -140 -50q-15 0 -39 4v-182h-126v711h126z" />
    <glyph glyph-name="paragraph" unicode="&#xb6;" horiz-adv-x="522" 
d="M207 -188v441h-51q-55 0 -90 36t-35 99t35 99t90 36h148v-711h-97zM358 -188v711h98v-711h-98z" />
    <glyph glyph-name="periodcentered" unicode="&#xb7;" horiz-adv-x="278" 
d="M62 296q0 38 20 59t57 21q36 0 56.5 -21t20.5 -59q0 -39 -20.5 -59.5t-56.5 -20.5q-37 0 -57 20.5t-20 59.5z" />
    <glyph glyph-name="cedilla" unicode="&#xb8;" 
d="M181 -97l25 99h50l-15 -61q9 3 22 3q35 0 54.5 -18t19.5 -48q0 -36 -27 -56t-70 -20q-36 0 -68 11l11 43q31 -11 53 -11q44 0 44 31q0 29 -43 29q-32 0 -53 -7z" />
    <glyph glyph-name="onesuperior" unicode="&#xb9;" horiz-adv-x="244" 
d="M11 705l127 79h50v-335h-69v254l-80 -51z" />
    <glyph glyph-name="ordmasculine" unicode="&#xba;" horiz-adv-x="433" 
d="M59 509q0 86 43.5 133.5t114.5 47.5t115 -47.5t44 -133.5q0 -87 -44 -133.5t-115 -46.5t-114.5 46.5t-43.5 133.5zM137 509q0 -51 21.5 -77.5t58.5 -26.5t58 26t21 78t-21 78t-58 26t-58.5 -26.5t-21.5 -77.5zM83 251h269v-70h-269v70z" />
    <glyph glyph-name="guillemotright" unicode="&#xbb;" horiz-adv-x="496" 
d="M249 314v-25l-137 -203h-9l-46 25l88 191l-88 189l46 27h9zM450 314v-25l-137 -203h-10l-46 25l88 191l-88 189l46 27h10z" />
    <glyph glyph-name="onequarter" unicode="&#xbc;" horiz-adv-x="720" 
d="M682 62h-48v-62h-71v62h-154v47l133 226l21 -1v1h71v-219h48v-54zM146 10l314 670h71v-9l-313 -671h-72v10zM27 605l127 79h50v-335h-69v254l-80 -51zM480 116h83v143z" />
    <glyph glyph-name="onehalf" unicode="&#xbd;" horiz-adv-x="714" 
d="M146 10l314 670h71v-9l-313 -671h-72v10zM443 0v54l110 97q39 36 39 74q0 21 -11.5 35.5t-33.5 14.5q-49 0 -49 -67l-64 12q2 56 32.5 88.5t84.5 32.5t82.5 -30.5t28.5 -80.5q0 -65 -60 -115l-60 -52h127v-63h-226zM27 605l127 79h50v-335h-69v254l-80 -51z" />
    <glyph glyph-name="threequarters" unicode="&#xbe;" horiz-adv-x="760" 
d="M728 62h-48v-62h-71v62h-154v47l133 226l21 -1v1h71v-219h48v-54zM191 10l314 670h71v-9l-313 -671h-72v10zM77 551h66q21 0 32 10.5t11 27.5q0 40 -50 40q-40 0 -80 -20l-15 61q45 20 102 20q55 0 84.5 -24.5t29.5 -69.5q0 -54 -48 -71q58 -16 58 -84q0 -44 -32 -70.5
t-92 -26.5q-49 0 -102 20l18 60q36 -18 80 -18q26 0 41 12t15 34q0 38 -52 38h-66v61zM526 116h83v143z" />
    <glyph glyph-name="questiondown" unicode="&#xbf;" horiz-adv-x="416" 
d="M186 281h103q11 -33 11 -60q0 -41 -49 -84l-40 -35q-15 -15 -23.5 -25t-16 -28t-7.5 -39q0 -32 20 -51t55 -19q62 0 112 65l33 -100q-74 -72 -176 -72q-80 0 -125 45.5t-45 115.5q0 38 13.5 71.5t27.5 51.5t37 42l46 44q12 13 15.5 17t7.5 13t4 20t-3 28zM314 456
q0 -38 -20 -59.5t-56 -21.5q-37 0 -57.5 21.5t-20.5 59.5q0 39 20.5 59.5t57.5 20.5q76 0 76 -80z" />
    <glyph glyph-name="Agrave" unicode="&#xc0;" horiz-adv-x="629" 
d="M14 0l228 680h148l222 -680h-127l-43 141h-257l-44 -141h-127zM316 553l-99 -317h194zM270 748l-89 150h124l69 -150h-104z" />
    <glyph glyph-name="Aacute" unicode="&#xc1;" horiz-adv-x="629" 
d="M14 0l228 680h148l222 -680h-127l-43 141h-257l-44 -141h-127zM316 553l-99 -317h194zM441 898l-88 -150h-105l70 150h123z" />
    <glyph glyph-name="Acircumflex" unicode="&#xc2;" horiz-adv-x="629" 
d="M14 0l228 680h148l222 -680h-127l-43 141h-257l-44 -141h-127zM316 553l-99 -317h194zM369 748l-54 87l-55 -87h-94l87 150h123l87 -150h-94z" />
    <glyph glyph-name="Atilde" unicode="&#xc3;" horiz-adv-x="629" 
d="M14 0l228 680h148l222 -680h-127l-43 141h-257l-44 -141h-127zM316 553l-99 -317h194zM190 761l-37 51q14 34 40.5 58t56.5 24q33 0 72 -30.5t58 -30.5q38 0 58 45l38 -50q-37 -82 -97 -82q-31 0 -71.5 30t-57.5 30q-37 0 -60 -45z" />
    <glyph glyph-name="Adieresis" unicode="&#xc4;" horiz-adv-x="629" 
d="M14 0l228 680h148l222 -680h-127l-43 141h-257l-44 -141h-127zM316 553l-99 -317h194zM139 826q0 63 68 63q67 0 67 -63q0 -62 -67 -62q-68 0 -68 62zM358 826q0 63 68 63q66 0 66 -63q0 -62 -66 -62q-68 0 -68 62z" />
    <glyph glyph-name="Aring" unicode="&#xc5;" horiz-adv-x="629" 
d="M218 736q0 40 29 69t69 29t69 -29t29 -69q0 -35 -22 -62l220 -674h-127l-43 141h-257l-44 -141h-127l226 674q-22 27 -22 62zM316 553l-99 -317h194zM271 736q0 -19 13 -32t32 -13q18 0 31 13t13 32q0 18 -13 31t-31 13q-19 0 -32 -13t-13 -31z" />
    <glyph glyph-name="AE" unicode="&#xc6;" horiz-adv-x="921" 
d="M406 0v141h-209l-65 -141h-134l331 680h537v-113h-339v-166h277v-103h-277v-186h339v-112h-460zM244 236h162v333z" />
    <glyph glyph-name="Ccedilla" unicode="&#xc7;" horiz-adv-x="637" 
d="M279 -97l23 91q-111 18 -179 109t-68 236q0 162 83.5 256.5t214.5 94.5q113 0 173.5 -59.5t62.5 -177.5l-115 -23q-3 141 -126 141q-74 0 -118 -61t-44 -171q0 -112 47 -171t131 -59q87 0 175 86l51 -105q-42 -43 -105.5 -71.5t-131.5 -28.5h-2l-12 -49q9 3 22 3
q35 0 54.5 -18t19.5 -48q0 -36 -27 -56t-70 -20q-36 0 -68 11l11 43q31 -11 53 -11q44 0 44 31q0 29 -43 29q-32 0 -53 -7z" />
    <glyph glyph-name="Egrave" unicode="&#xc8;" horiz-adv-x="607" 
d="M552 0h-461v680h461v-113h-339v-162h277v-111h-277v-182h339v-112zM280 748l-89 150h124l69 -150h-104z" />
    <glyph glyph-name="Eacute" unicode="&#xc9;" horiz-adv-x="607" 
d="M552 0h-461v680h461v-113h-339v-162h277v-111h-277v-182h339v-112zM451 898l-88 -150h-105l70 150h123z" />
    <glyph glyph-name="Ecircumflex" unicode="&#xca;" horiz-adv-x="607" 
d="M552 0h-461v680h461v-113h-339v-162h277v-111h-277v-182h339v-112zM377 748l-54 87l-55 -87h-94l87 150h123l87 -150h-94z" />
    <glyph glyph-name="Edieresis" unicode="&#xcb;" horiz-adv-x="607" 
d="M552 0h-461v680h461v-113h-339v-162h277v-111h-277v-182h339v-112zM146 826q0 63 68 63q67 0 67 -63q0 -62 -67 -62q-68 0 -68 62zM365 826q0 63 68 63q66 0 66 -63q0 -62 -66 -62q-68 0 -68 62z" />
    <glyph glyph-name="Igrave" unicode="&#xcc;" horiz-adv-x="309" 
d="M91 0v680h128v-680h-128zM109 748l-89 150h124l69 -150h-104z" />
    <glyph glyph-name="Iacute" unicode="&#xcd;" horiz-adv-x="309" 
d="M91 0v680h128v-680h-128zM292 898l-88 -150h-105l70 150h123z" />
    <glyph glyph-name="Icircumflex" unicode="&#xce;" horiz-adv-x="309" 
d="M91 0v680h128v-680h-128zM209 748l-54 87l-55 -87h-94l87 150h123l87 -150h-94z" />
    <glyph glyph-name="Idieresis" unicode="&#xcf;" horiz-adv-x="309" 
d="M91 0v680h128v-680h-128zM-24 826q0 63 68 63q67 0 67 -63q0 -62 -67 -62q-68 0 -68 62zM195 826q0 63 68 63q66 0 66 -63q0 -62 -66 -62q-68 0 -68 62z" />
    <glyph glyph-name="Eth" unicode="&#xd0;" horiz-adv-x="698" 
d="M91 0v289h-52v101h52v290h253q132 0 215.5 -90t83.5 -251q0 -160 -83.5 -249.5t-215.5 -89.5h-253zM219 112h109q86 0 136 59t50 168q0 110 -50 169.5t-136 59.5h-109v-178h109v-101h-109v-177z" />
    <glyph glyph-name="Ntilde" unicode="&#xd1;" horiz-adv-x="735" 
d="M532 0l-314 465v-465h-127v680h110l315 -466v466h129v-680h-113zM245 761l-37 51q14 34 40.5 58t56.5 24q33 0 72 -30.5t58 -30.5q38 0 58 45l38 -50q-37 -82 -97 -82q-31 0 -71.5 30t-57.5 30q-37 0 -60 -45z" />
    <glyph glyph-name="Ograve" unicode="&#xd2;" horiz-adv-x="703" 
d="M54 339q0 156 81 253.5t215 97.5q135 0 217 -97.5t82 -253.5q0 -155 -82 -252t-217 -97q-134 0 -215 97t-81 252zM180 339q0 -112 46 -170t124 -58q80 0 126.5 58t46.5 170q0 114 -46.5 172t-126.5 58q-78 0 -124 -58.5t-46 -171.5zM304 748l-89 150h124l69 -150h-104z
" />
    <glyph glyph-name="Oacute" unicode="&#xd3;" horiz-adv-x="703" 
d="M54 339q0 156 81 253.5t215 97.5q135 0 217 -97.5t82 -253.5q0 -155 -82 -252t-217 -97q-134 0 -215 97t-81 252zM180 339q0 -112 46 -170t124 -58q80 0 126.5 58t46.5 170q0 114 -46.5 172t-126.5 58q-78 0 -124 -58.5t-46 -171.5zM487 898l-88 -150h-105l70 150h123z
" />
    <glyph glyph-name="Ocircumflex" unicode="&#xd4;" horiz-adv-x="703" 
d="M54 339q0 156 81 253.5t215 97.5q135 0 217 -97.5t82 -253.5q0 -155 -82 -252t-217 -97q-134 0 -215 97t-81 252zM180 339q0 -112 46 -170t124 -58q80 0 126.5 58t46.5 170q0 114 -46.5 172t-126.5 58q-78 0 -124 -58.5t-46 -171.5zM405 748l-54 87l-55 -87h-94l87 150
h123l87 -150h-94z" />
    <glyph glyph-name="Otilde" unicode="&#xd5;" horiz-adv-x="703" 
d="M54 339q0 156 81 253.5t215 97.5q135 0 217 -97.5t82 -253.5q0 -155 -82 -252t-217 -97q-134 0 -215 97t-81 252zM180 339q0 -112 46 -170t124 -58q80 0 126.5 58t46.5 170q0 114 -46.5 172t-126.5 58q-78 0 -124 -58.5t-46 -171.5zM226 761l-37 51q14 34 40.5 58
t56.5 24q33 0 72 -30.5t58 -30.5q38 0 58 45l38 -50q-37 -82 -97 -82q-31 0 -71.5 30t-57.5 30q-37 0 -60 -45z" />
    <glyph glyph-name="Odieresis" unicode="&#xd6;" horiz-adv-x="703" 
d="M54 339q0 156 81 253.5t215 97.5q135 0 217 -97.5t82 -253.5q0 -155 -82 -252t-217 -97q-134 0 -215 97t-81 252zM180 339q0 -112 46 -170t124 -58q80 0 126.5 58t46.5 170q0 114 -46.5 172t-126.5 58q-78 0 -124 -58.5t-46 -171.5zM175 826q0 63 68 63q67 0 67 -63
q0 -62 -67 -62q-68 0 -68 62zM394 826q0 63 68 63q66 0 66 -63q0 -62 -66 -62q-68 0 -68 62z" />
    <glyph glyph-name="multiply" unicode="&#xd7;" 
d="M435 434l-110 -131l110 -132l-71 -72l-109 132l-110 -132l-71 72l111 132l-111 131l71 72l110 -132l109 132z" />
    <glyph glyph-name="Oslash" unicode="&#xd8;" horiz-adv-x="703" 
d="M54 339q0 156 81 253.5t215 97.5q95 0 166 -51l28 41h90v-9l-60 -87q75 -97 75 -245q0 -155 -82 -252t-217 -97q-86 0 -155 44l-23 -34h-91v10l53 77q-80 97 -80 252zM180 339q0 -89 29 -144l238 344q-41 30 -97 30q-78 0 -124 -58.5t-46 -171.5zM523 339q0 80 -25 135
l-234 -340q36 -23 86 -23q80 0 126.5 58t46.5 170z" />
    <glyph glyph-name="Ugrave" unicode="&#xd9;" horiz-adv-x="697" 
d="M211 680v-398q0 -174 136 -174q138 0 138 175v397h128v-406q0 -127 -67 -206t-199 -79t-198 76t-66 209v406h128zM302 748l-89 150h124l69 -150h-104z" />
    <glyph glyph-name="Uacute" unicode="&#xda;" horiz-adv-x="697" 
d="M211 680v-398q0 -174 136 -174q138 0 138 175v397h128v-406q0 -127 -67 -206t-199 -79t-198 76t-66 209v406h128zM484 898l-88 -150h-105l70 150h123z" />
    <glyph glyph-name="Ucircumflex" unicode="&#xdb;" horiz-adv-x="697" 
d="M211 680v-398q0 -174 136 -174q138 0 138 175v397h128v-406q0 -127 -67 -206t-199 -79t-198 76t-66 209v406h128zM402 748l-54 87l-55 -87h-94l87 150h123l87 -150h-94z" />
    <glyph glyph-name="Udieresis" unicode="&#xdc;" horiz-adv-x="697" 
d="M211 680v-398q0 -174 136 -174q138 0 138 175v397h128v-406q0 -127 -67 -206t-199 -79t-198 76t-66 209v406h128zM172 826q0 63 68 63q67 0 67 -63q0 -62 -67 -62q-68 0 -68 62zM391 826q0 63 68 63q66 0 66 -63q0 -62 -66 -62q-68 0 -68 62z" />
    <glyph glyph-name="Yacute" unicode="&#xdd;" horiz-adv-x="589" 
d="M232 0v272l-225 399v9h141l147 -290l147 290h140v-9l-225 -398v-273h-125zM430 898l-88 -150h-105l70 150h123z" />
    <glyph glyph-name="Thorn" unicode="&#xde;" horiz-adv-x="618" 
d="M91 0v680h126v-97h152q92 0 152 -59t60 -178q0 -110 -61 -172t-151 -62h-152v-112h-126zM340 472h-123v-248h123q50 0 81.5 32t31.5 91q0 62 -31.5 93.5t-81.5 31.5z" />
    <glyph glyph-name="germandbls" unicode="&#xdf;" horiz-adv-x="602" 
d="M75 0v464q0 72 19 123.5t53.5 79.5t74.5 40.5t89 12.5q96 0 150 -60t54 -135q0 -39 -14.5 -76t-29.5 -61.5t-15 -32.5q0 -7 16.5 -25t36 -39.5t36 -58t16.5 -76.5q0 -72 -46.5 -119t-123.5 -47t-129 26l14 102q34 -20 69 -20q34 0 56.5 21t22.5 56q0 33 -26 65.5
t-51.5 59t-25.5 44.5q0 15 32.5 71.5t32.5 100.5q0 40 -22 65t-65 25q-98 0 -98 -142v-464h-126z" />
    <glyph glyph-name="agrave" unicode="&#xe0;" horiz-adv-x="615" 
d="M511 523v-375q0 -50 30 -50q19 0 44 17l5 -102q-44 -23 -100 -23q-40 0 -63.5 14.5t-32.5 50.5q-48 -64 -141 -64q-95 0 -150.5 70.5t-55.5 198.5q0 126 55 199t156 73q85 0 127 -49v40h126zM385 373q-39 47 -92 47q-55 0 -86.5 -42.5t-31.5 -117.5q0 -73 31.5 -115.5
t86.5 -42.5q52 0 92 53v218zM266 591l-89 150h124l69 -150h-104z" />
    <glyph glyph-name="aacute" unicode="&#xe1;" horiz-adv-x="615" 
d="M511 523v-375q0 -50 30 -50q19 0 44 17l5 -102q-44 -23 -100 -23q-40 0 -63.5 14.5t-32.5 50.5q-48 -64 -141 -64q-95 0 -150.5 70.5t-55.5 198.5q0 126 55 199t156 73q85 0 127 -49v40h126zM385 373q-39 47 -92 47q-55 0 -86.5 -42.5t-31.5 -117.5q0 -73 31.5 -115.5
t86.5 -42.5q52 0 92 53v218zM438 741l-88 -150h-105l70 150h123z" />
    <glyph glyph-name="acircumflex" unicode="&#xe2;" horiz-adv-x="615" 
d="M511 523v-375q0 -50 30 -50q19 0 44 17l5 -102q-44 -23 -100 -23q-40 0 -63.5 14.5t-32.5 50.5q-48 -64 -141 -64q-95 0 -150.5 70.5t-55.5 198.5q0 126 55 199t156 73q85 0 127 -49v40h126zM385 373q-39 47 -92 47q-55 0 -86.5 -42.5t-31.5 -117.5q0 -73 31.5 -115.5
t86.5 -42.5q52 0 92 53v218zM356 591l-54 87l-55 -87h-94l87 150h123l87 -150h-94z" />
    <glyph glyph-name="atilde" unicode="&#xe3;" horiz-adv-x="615" 
d="M511 523v-375q0 -50 30 -50q19 0 44 17l5 -102q-44 -23 -100 -23q-40 0 -63.5 14.5t-32.5 50.5q-48 -64 -141 -64q-95 0 -150.5 70.5t-55.5 198.5q0 126 55 199t156 73q85 0 127 -49v40h126zM385 373q-39 47 -92 47q-55 0 -86.5 -42.5t-31.5 -117.5q0 -73 31.5 -115.5
t86.5 -42.5q52 0 92 53v218zM182 604l-37 51q14 34 40.5 58t56.5 24q33 0 72 -30.5t58 -30.5q38 0 58 45l38 -50q-37 -82 -97 -82q-31 0 -71.5 30t-57.5 30q-37 0 -60 -45z" />
    <glyph glyph-name="adieresis" unicode="&#xe4;" horiz-adv-x="615" 
d="M511 523v-375q0 -50 30 -50q19 0 44 17l5 -102q-44 -23 -100 -23q-40 0 -63.5 14.5t-32.5 50.5q-48 -64 -141 -64q-95 0 -150.5 70.5t-55.5 198.5q0 126 55 199t156 73q85 0 127 -49v40h126zM385 373q-39 47 -92 47q-55 0 -86.5 -42.5t-31.5 -117.5q0 -73 31.5 -115.5
t86.5 -42.5q52 0 92 53v218zM134 669q0 63 68 63q67 0 67 -63q0 -62 -67 -62q-68 0 -68 62zM353 669q0 63 68 63q66 0 66 -63q0 -62 -66 -62q-68 0 -68 62z" />
    <glyph glyph-name="aring" unicode="&#xe5;" horiz-adv-x="615" 
d="M511 523v-375q0 -50 30 -50q19 0 44 17l5 -102q-44 -23 -100 -23q-40 0 -63.5 14.5t-32.5 50.5q-48 -64 -141 -64q-95 0 -150.5 70.5t-55.5 198.5q0 126 55 199t156 73q85 0 127 -49v40h126zM385 373q-39 47 -92 47q-55 0 -86.5 -42.5t-31.5 -117.5q0 -73 31.5 -115.5
t86.5 -42.5q52 0 92 53v218zM205 670q0 40 28.5 69t69.5 29t69.5 -29t28.5 -69t-28.5 -69t-69.5 -29t-69.5 29t-28.5 69zM258 670q0 -19 13 -32t32 -13q18 0 31 13t13 32q0 18 -13 31t-31 13q-19 0 -32 -13t-13 -31z" />
    <glyph glyph-name="ae" unicode="&#xe6;" horiz-adv-x="808" 
d="M98 393l-20 109q85 35 195 35t139 -96q18 38 60 67t108 29q182 0 182 -207q0 -59 -12 -109h-295q3 -64 32.5 -95.5t92.5 -31.5q71 0 132 55l43 -91q-77 -72 -190 -72q-119 0 -173 79q-81 -79 -188 -79q-75 0 -121.5 46.5t-46.5 126.5q0 77 59 124.5t160 47.5q34 0 76 -6
q0 59 -19 81t-67 22q-33 0 -77.5 -10.5t-69.5 -24.5zM463 319h192q1 6 1 22q0 88 -88 88q-49 0 -75.5 -30.5t-29.5 -79.5zM331 226q-22 5 -55 5q-53 0 -82.5 -19t-29.5 -55q0 -27 17 -44t48 -17q56 0 102 46v84z" />
    <glyph glyph-name="ccedilla" unicode="&#xe7;" horiz-adv-x="523" 
d="M219 -97l22 87q-98 14 -146.5 85.5t-48.5 184.5q0 124 64.5 200.5t170.5 76.5q180 0 206 -182l-98 -36q-9 105 -96 105q-54 0 -85.5 -43.5t-31.5 -116.5q0 -165 127 -165q64 0 129 58l50 -99q-83 -71 -192 -72l-11 -45q9 3 22 3q35 0 54.5 -18t19.5 -48q0 -36 -27 -56
t-70 -20q-36 0 -68 11l11 43q31 -11 53 -11q44 0 44 31q0 29 -43 29q-32 0 -53 -7z" />
    <glyph glyph-name="egrave" unicode="&#xe8;" horiz-adv-x="525" 
d="M465 221h-296q8 -127 130 -127q68 0 128 51l48 -95q-75 -64 -196 -64q-116 0 -175 75t-59 199q0 122 64 199.5t170 77.5q100 0 150 -58.5t50 -151.5q0 -55 -14 -106zM176 319h185q3 12 3 26q0 41 -22.5 62.5t-62.5 21.5q-46 0 -72.5 -30t-30.5 -80zM248 591l-89 150h124
l69 -150h-104z" />
    <glyph glyph-name="eacute" unicode="&#xe9;" horiz-adv-x="525" 
d="M465 221h-296q8 -127 130 -127q68 0 128 51l48 -95q-75 -64 -196 -64q-116 0 -175 75t-59 199q0 122 64 199.5t170 77.5q100 0 150 -58.5t50 -151.5q0 -55 -14 -106zM176 319h185q3 12 3 26q0 41 -22.5 62.5t-62.5 21.5q-46 0 -72.5 -30t-30.5 -80zM413 741l-88 -150
h-105l70 150h123z" />
    <glyph glyph-name="ecircumflex" unicode="&#xea;" horiz-adv-x="525" 
d="M465 221h-296q8 -127 130 -127q68 0 128 51l48 -95q-75 -64 -196 -64q-116 0 -175 75t-59 199q0 122 64 199.5t170 77.5q100 0 150 -58.5t50 -151.5q0 -55 -14 -106zM176 319h185q3 12 3 26q0 41 -22.5 62.5t-62.5 21.5q-46 0 -72.5 -30t-30.5 -80zM338 591l-54 87
l-55 -87h-94l87 150h123l87 -150h-94z" />
    <glyph glyph-name="edieresis" unicode="&#xeb;" horiz-adv-x="525" 
d="M465 221h-296q8 -127 130 -127q68 0 128 51l48 -95q-75 -64 -196 -64q-116 0 -175 75t-59 199q0 122 64 199.5t170 77.5q100 0 150 -58.5t50 -151.5q0 -55 -14 -106zM176 319h185q3 12 3 26q0 41 -22.5 62.5t-62.5 21.5q-46 0 -72.5 -30t-30.5 -80zM106 669q0 63 68 63
q67 0 67 -63q0 -62 -67 -62q-68 0 -68 62zM325 669q0 63 68 63q66 0 66 -63q0 -62 -66 -62q-68 0 -68 62z" />
    <glyph glyph-name="igrave" unicode="&#xec;" horiz-adv-x="307" 
d="M75 523h125v-382q0 -43 31 -43q18 0 43 16l5 -101q-40 -23 -95 -23q-57 0 -83 27.5t-26 89.5v416zM100 591l-89 150h124l69 -150h-104z" />
    <glyph glyph-name="iacute" unicode="&#xed;" horiz-adv-x="307" 
d="M75 523h125v-382q0 -43 31 -43q18 0 43 16l5 -101q-40 -23 -95 -23q-57 0 -83 27.5t-26 89.5v416zM270 741l-88 -150h-105l70 150h123z" />
    <glyph glyph-name="icircumflex" unicode="&#xee;" horiz-adv-x="307" 
d="M75 523h125v-382q0 -43 31 -43q18 0 43 16l5 -101q-40 -23 -95 -23q-57 0 -83 27.5t-26 89.5v416zM192 591l-54 87l-55 -87h-94l87 150h123l87 -150h-94z" />
    <glyph glyph-name="idieresis" unicode="&#xef;" horiz-adv-x="307" 
d="M75 523h125v-382q0 -43 31 -43q18 0 43 16l5 -101q-40 -23 -95 -23q-57 0 -83 27.5t-26 89.5v416zM-37 669q0 63 68 63q67 0 67 -63q0 -62 -67 -62q-68 0 -68 62zM182 669q0 63 68 63q66 0 66 -63q0 -62 -66 -62q-68 0 -68 62z" />
    <glyph glyph-name="eth" unicode="&#xf0;" horiz-adv-x="539" 
d="M182 639l50 81q48 -13 88 -40l41 50l33 -29l-39 -48q59 -52 94 -132.5t35 -179.5q0 -168 -61.5 -259.5t-177.5 -91.5q-91 0 -148.5 66.5t-57.5 175.5q0 99 47.5 160t131.5 61q75 0 136 -65q-11 101 -73 175l-44 -54l-33 30l46 56q-29 26 -68 44zM250 107q90 0 104 170
q-47 71 -101 71q-41 0 -65 -29.5t-24 -87.5q0 -55 23.5 -89.5t62.5 -34.5z" />
    <glyph glyph-name="ntilde" unicode="&#xf1;" horiz-adv-x="603" 
d="M201 0h-126v523h126v-52q47 61 144 61q161 0 161 -204v-187q0 -43 32 -43q17 0 42 16l5 -101q-42 -23 -95 -23q-57 0 -83.5 27.5t-26.5 89.5v196q0 111 -86 111q-34 0 -58 -25.5t-35 -61.5v-327zM174 604l-37 51q14 34 40.5 58t56.5 24q33 0 72 -30.5t58 -30.5
q38 0 58 45l38 -50q-37 -82 -97 -82q-31 0 -71.5 30t-57.5 30q-37 0 -60 -45z" />
    <glyph glyph-name="ograve" unicode="&#xf2;" horiz-adv-x="568" 
d="M45 260q0 129 65 203t173 74q110 0 175 -74t65 -203q0 -128 -65 -201t-175 -73q-108 0 -173 73t-65 201zM169 260q0 -76 30.5 -117t83.5 -41q54 0 84.5 40.5t30.5 117.5q0 78 -30.5 119t-84.5 41q-53 0 -83.5 -41t-30.5 -119zM237 591l-89 150h124l69 -150h-104z" />
    <glyph glyph-name="oacute" unicode="&#xf3;" horiz-adv-x="568" 
d="M45 260q0 129 65 203t173 74q110 0 175 -74t65 -203q0 -128 -65 -201t-175 -73q-108 0 -173 73t-65 201zM169 260q0 -76 30.5 -117t83.5 -41q54 0 84.5 40.5t30.5 117.5q0 78 -30.5 119t-84.5 41q-53 0 -83.5 -41t-30.5 -119zM420 741l-88 -150h-105l70 150h123z" />
    <glyph glyph-name="ocircumflex" unicode="&#xf4;" horiz-adv-x="568" 
d="M45 260q0 129 65 203t173 74q110 0 175 -74t65 -203q0 -128 -65 -201t-175 -73q-108 0 -173 73t-65 201zM169 260q0 -76 30.5 -117t83.5 -41q54 0 84.5 40.5t30.5 117.5q0 78 -30.5 119t-84.5 41q-53 0 -83.5 -41t-30.5 -119zM338 591l-54 87l-55 -87h-94l87 150h123
l87 -150h-94z" />
    <glyph glyph-name="otilde" unicode="&#xf5;" horiz-adv-x="568" 
d="M45 260q0 129 65 203t173 74q110 0 175 -74t65 -203q0 -128 -65 -201t-175 -73q-108 0 -173 73t-65 201zM169 260q0 -76 30.5 -117t83.5 -41q54 0 84.5 40.5t30.5 117.5q0 78 -30.5 119t-84.5 41q-53 0 -83.5 -41t-30.5 -119zM158 604l-37 51q14 34 40.5 58t56.5 24
q33 0 72 -30.5t58 -30.5q38 0 58 45l38 -50q-37 -82 -97 -82q-31 0 -71.5 30t-57.5 30q-37 0 -60 -45z" />
    <glyph glyph-name="odieresis" unicode="&#xf6;" horiz-adv-x="568" 
d="M45 260q0 129 65 203t173 74q110 0 175 -74t65 -203q0 -128 -65 -201t-175 -73q-108 0 -173 73t-65 201zM169 260q0 -76 30.5 -117t83.5 -41q54 0 84.5 40.5t30.5 117.5q0 78 -30.5 119t-84.5 41q-53 0 -83.5 -41t-30.5 -119zM106 669q0 63 68 63q67 0 67 -63
q0 -62 -67 -62q-68 0 -68 62zM325 669q0 63 68 63q66 0 66 -63q0 -62 -66 -62q-68 0 -68 62z" />
    <glyph glyph-name="divide" unicode="&#xf7;" 
d="M51 353h408v-101h-408v101zM186 493q0 72 68 72q32 0 50 -19t18 -53q0 -35 -18 -53.5t-50 -18.5q-68 0 -68 72zM186 111q0 72 68 72q32 0 50 -19t18 -53q0 -35 -18 -53.5t-50 -18.5q-68 0 -68 72z" />
    <glyph glyph-name="oslash" unicode="&#xf8;" horiz-adv-x="568" 
d="M45 260q0 129 65 203t173 74q81 0 137 -41l19 27h63v-10l-39 -56q60 -74 60 -197q0 -128 -65 -201t-175 -73q-73 0 -127 34l-14 -20h-63v10l33 47q-67 73 -67 203zM169 260q0 -58 18 -96l163 233q-28 23 -67 23q-53 0 -83.5 -41t-30.5 -119zM398 260q0 49 -13 86
l-160 -228q23 -16 58 -16q54 0 84.5 40.5t30.5 117.5z" />
    <glyph glyph-name="ugrave" unicode="&#xf9;" horiz-adv-x="605" 
d="M376 523h125v-382q0 -43 31 -43q18 0 43 16l5 -101q-40 -23 -95 -23q-82 0 -102 60q-48 -60 -148 -60q-165 0 -165 204v329h126v-313q0 -51 18.5 -77t62.5 -26q67 0 99 69v347zM237 591l-89 150h124l69 -150h-104z" />
    <glyph glyph-name="uacute" unicode="&#xfa;" horiz-adv-x="605" 
d="M376 523h125v-382q0 -43 31 -43q18 0 43 16l5 -101q-40 -23 -95 -23q-82 0 -102 60q-48 -60 -148 -60q-165 0 -165 204v329h126v-313q0 -51 18.5 -77t62.5 -26q67 0 99 69v347zM429 741l-88 -150h-105l70 150h123z" />
    <glyph glyph-name="ucircumflex" unicode="&#xfb;" horiz-adv-x="605" 
d="M376 523h125v-382q0 -43 31 -43q18 0 43 16l5 -101q-40 -23 -95 -23q-82 0 -102 60q-48 -60 -148 -60q-165 0 -165 204v329h126v-313q0 -51 18.5 -77t62.5 -26q67 0 99 69v347zM343 591l-54 87l-55 -87h-94l87 150h123l87 -150h-94z" />
    <glyph glyph-name="udieresis" unicode="&#xfc;" horiz-adv-x="605" 
d="M376 523h125v-382q0 -43 31 -43q18 0 43 16l5 -101q-40 -23 -95 -23q-82 0 -102 60q-48 -60 -148 -60q-165 0 -165 204v329h126v-313q0 -51 18.5 -77t62.5 -26q67 0 99 69v347zM114 669q0 63 68 63q67 0 67 -63q0 -62 -67 -62q-68 0 -68 62zM333 669q0 63 68 63
q66 0 66 -63q0 -62 -66 -62q-68 0 -68 62z" />
    <glyph glyph-name="yacute" unicode="&#xfd;" horiz-adv-x="518" 
d="M29 -169l18 96q38 -20 74 -20q31 0 49.5 18t30.5 58l9 29l-201 511h139l117 -383l113 383h128l-196 -565q-27 -80 -67 -118t-113 -38q-57 0 -101 29zM398 741l-88 -150h-105l70 150h123z" />
    <glyph glyph-name="thorn" unicode="&#xfe;" horiz-adv-x="586" 
d="M540 262q0 -128 -55.5 -200t-148.5 -72q-87 0 -135 54v-232h-126v898h126v-229q51 51 135 51q94 0 149 -71t55 -199zM412 260q0 75 -31.5 117.5t-87.5 42.5q-57 0 -92 -46v-227q37 -45 92 -45t87 42t32 116z" />
    <glyph glyph-name="ydieresis" unicode="&#xff;" horiz-adv-x="518" 
d="M29 -169l18 96q38 -20 74 -20q31 0 49.5 18t30.5 58l9 29l-201 511h139l117 -383l113 383h128l-196 -565q-27 -80 -67 -118t-113 -38q-57 0 -101 29zM88 669q0 63 68 63q67 0 67 -63q0 -62 -67 -62q-68 0 -68 62zM307 669q0 63 68 63q66 0 66 -63q0 -62 -66 -62
q-68 0 -68 62z" />
    <glyph glyph-name="Amacron" unicode="&#x100;" horiz-adv-x="629" 
d="M14 0l228 680h148l222 -680h-127l-43 141h-257l-44 -141h-127zM316 553l-99 -317h194zM425 771h-219v89h219v-89z" />
    <glyph glyph-name="amacron" unicode="&#x101;" horiz-adv-x="615" 
d="M511 523v-375q0 -50 30 -50q19 0 44 17l5 -102q-44 -23 -100 -23q-40 0 -63.5 14.5t-32.5 50.5q-48 -64 -141 -64q-95 0 -150.5 70.5t-55.5 198.5q0 126 55 199t156 73q85 0 127 -49v40h126zM385 373q-39 47 -92 47q-55 0 -86.5 -42.5t-31.5 -117.5q0 -73 31.5 -115.5
t86.5 -42.5q52 0 92 53v218zM413 614h-219v89h219v-89z" />
    <glyph glyph-name="Abreve" unicode="&#x102;" horiz-adv-x="629" 
d="M14 0l228 680h148l222 -680h-127l-43 141h-257l-44 -141h-127zM316 553l-99 -317h194zM188 832l32 51q31 -47 95 -47q31 0 56.5 13.5t38.5 33.5l31 -51q-43 -81 -125 -81q-83 0 -128 81z" />
    <glyph glyph-name="abreve" unicode="&#x103;" horiz-adv-x="615" 
d="M511 523v-375q0 -50 30 -50q19 0 44 17l5 -102q-44 -23 -100 -23q-40 0 -63.5 14.5t-32.5 50.5q-48 -64 -141 -64q-95 0 -150.5 70.5t-55.5 198.5q0 126 55 199t156 73q85 0 127 -49v40h126zM385 373q-39 47 -92 47q-55 0 -86.5 -42.5t-31.5 -117.5q0 -73 31.5 -115.5
t86.5 -42.5q52 0 92 53v218zM177 675l32 51q31 -47 95 -47q31 0 56.5 13.5t38.5 33.5l31 -51q-43 -81 -125 -81q-83 0 -128 81z" />
    <glyph glyph-name="Aogonek" unicode="&#x104;" horiz-adv-x="629" 
d="M14 0l228 680h148l222 -680h-33q-32 -1 -54.5 -20t-22.5 -50q0 -25 14 -39t35 -14q24 0 45 14l12 -57q-32 -17 -76 -17q-39 0 -64 26t-25 70q0 58 50 87h-8l-43 141h-257l-44 -141h-127zM316 553l-99 -317h194z" />
    <glyph glyph-name="aogonek" unicode="&#x105;" horiz-adv-x="616" 
d="M511 523v-375q0 -50 30 -50q19 0 44 17l5 -102q-34 -18 -78 -22q-35 -19 -35 -61q0 -25 13.5 -39t33.5 -14q26 0 46 14l12 -57q-34 -17 -76 -17q-39 0 -64 26t-25 70q0 52 37 81q-48 10 -60 61q-48 -64 -141 -64q-95 0 -150.5 70.5t-55.5 198.5q0 126 55 199t156 73
q85 0 127 -49v40h126zM385 373q-39 47 -92 47q-55 0 -86.5 -42.5t-31.5 -117.5q0 -73 31.5 -115.5t86.5 -42.5q52 0 92 53v218z" />
    <glyph glyph-name="Cacute" unicode="&#x106;" horiz-adv-x="636" 
d="M539 195l51 -105q-42 -43 -105.5 -71.5t-131.5 -28.5q-131 0 -214.5 94t-83.5 255q0 162 83.5 256.5t214.5 94.5q113 0 173.5 -59.5t62.5 -177.5l-115 -23q-3 141 -126 141q-74 0 -118 -61t-44 -171q0 -112 47 -171t131 -59q87 0 175 86zM490 898l-88 -150h-105l70 150
h123z" />
    <glyph glyph-name="cacute" unicode="&#x107;" horiz-adv-x="522" 
d="M431 157l50 -99q-85 -72 -194 -72q-121 0 -181.5 73.5t-60.5 200.5q0 124 64.5 200.5t170.5 76.5q180 0 206 -182l-98 -36q-9 105 -96 105q-54 0 -85.5 -43.5t-31.5 -116.5q0 -165 127 -165q64 0 129 58zM414 741l-88 -150h-105l70 150h123z" />
    <glyph glyph-name="Ccircumflex" unicode="&#x108;" horiz-adv-x="636" 
d="M539 195l51 -105q-42 -43 -105.5 -71.5t-131.5 -28.5q-131 0 -214.5 94t-83.5 255q0 162 83.5 256.5t214.5 94.5q113 0 173.5 -59.5t62.5 -177.5l-115 -23q-3 141 -126 141q-74 0 -118 -61t-44 -171q0 -112 47 -171t131 -59q87 0 175 86zM407 748l-54 87l-55 -87h-94
l87 150h123l87 -150h-94z" />
    <glyph glyph-name="ccircumflex" unicode="&#x109;" horiz-adv-x="522" 
d="M431 157l50 -99q-85 -72 -194 -72q-121 0 -181.5 73.5t-60.5 200.5q0 124 64.5 200.5t170.5 76.5q180 0 206 -182l-98 -36q-9 105 -96 105q-54 0 -85.5 -43.5t-31.5 -116.5q0 -165 127 -165q64 0 129 58zM337 591l-54 87l-55 -87h-94l87 150h123l87 -150h-94z" />
    <glyph glyph-name="Cdotaccent" unicode="&#x10a;" horiz-adv-x="636" 
d="M539 195l51 -105q-42 -43 -105.5 -71.5t-131.5 -28.5q-131 0 -214.5 94t-83.5 255q0 162 83.5 256.5t214.5 94.5q113 0 173.5 -59.5t62.5 -177.5l-115 -23q-3 141 -126 141q-74 0 -118 -61t-44 -171q0 -112 47 -171t131 -59q87 0 175 86zM280 828q0 65 73 65q71 0 71 -65
q0 -66 -71 -66q-73 0 -73 66z" />
    <glyph glyph-name="cdotaccent" unicode="&#x10b;" horiz-adv-x="522" 
d="M431 157l50 -99q-85 -72 -194 -72q-121 0 -181.5 73.5t-60.5 200.5q0 124 64.5 200.5t170.5 76.5q180 0 206 -182l-98 -36q-9 105 -96 105q-54 0 -85.5 -43.5t-31.5 -116.5q0 -165 127 -165q64 0 129 58zM215 671q0 65 73 65q71 0 71 -65q0 -66 -71 -66q-73 0 -73 66z
" />
    <glyph glyph-name="Ccaron" unicode="&#x10c;" horiz-adv-x="636" 
d="M539 195l51 -105q-42 -43 -105.5 -71.5t-131.5 -28.5q-131 0 -214.5 94t-83.5 255q0 162 83.5 256.5t214.5 94.5q113 0 173.5 -59.5t62.5 -177.5l-115 -23q-3 141 -126 141q-74 0 -118 -61t-44 -171q0 -112 47 -171t131 -59q87 0 175 86zM301 898l55 -86l54 86h94
l-87 -150h-123l-87 150h94z" />
    <glyph glyph-name="ccaron" unicode="&#x10d;" horiz-adv-x="522" 
d="M431 157l50 -99q-85 -72 -194 -72q-121 0 -181.5 73.5t-60.5 200.5q0 124 64.5 200.5t170.5 76.5q180 0 206 -182l-98 -36q-9 105 -96 105q-54 0 -85.5 -43.5t-31.5 -116.5q0 -165 127 -165q64 0 129 58zM231 741l55 -86l54 86h94l-87 -150h-123l-87 150h94z" />
    <glyph glyph-name="Dcaron" unicode="&#x10e;" horiz-adv-x="698" 
d="M91 0v680h253q132 0 215.5 -90t83.5 -251q0 -160 -83.5 -249.5t-215.5 -89.5h-253zM219 112h109q86 0 135 59t49 168q0 110 -49 169.5t-135 59.5h-109v-456zM255 898l55 -86l54 86h94l-87 -150h-123l-87 150h94z" />
    <glyph glyph-name="dcaron" unicode="&#x10f;" horiz-adv-x="651" 
d="M386 710h125v-560q0 -52 32 -52q18 0 42 17l5 -102q-40 -23 -101 -23q-73 0 -94 64q-49 -64 -142 -64q-94 0 -150 72t-56 200t56 199t150 71q81 0 133 -50v228zM175 260q0 -73 31.5 -115.5t85.5 -42.5q56 0 94 46v226q-38 46 -94 46q-55 0 -86 -42.5t-31 -117.5zM591 499
l20 65q-48 10 -48 60q0 31 17.5 48t45.5 17q76 0 76 -75q0 -62 -51 -138z" />
    <glyph glyph-name="Dcroat" unicode="&#x110;" horiz-adv-x="698" 
d="M91 0v289h-52v101h52v290h253q132 0 215.5 -90t83.5 -251q0 -160 -83.5 -249.5t-215.5 -89.5h-253zM219 112h109q86 0 136 59t50 168q0 110 -50 169.5t-136 59.5h-109v-178h109v-101h-109v-177z" />
    <glyph glyph-name="dcroat" unicode="&#x111;" horiz-adv-x="615" 
d="M386 710h125v-53h74v-92h-74v-415q0 -52 32 -52q18 0 42 17l5 -102q-40 -23 -101 -23q-73 0 -94 64q-49 -64 -142 -64q-94 0 -150 72t-56 200t56 199t150 71q81 0 133 -50v83h-91v92h91v53zM175 260q0 -73 31.5 -115.5t85.5 -42.5q56 0 94 46v226q-38 46 -94 46
q-55 0 -86 -42.5t-31 -117.5z" />
    <glyph glyph-name="Emacron" unicode="&#x112;" horiz-adv-x="607" 
d="M552 0h-461v680h461v-113h-339v-162h277v-111h-277v-182h339v-112zM433 771h-219v89h219v-89z" />
    <glyph glyph-name="emacron" unicode="&#x113;" horiz-adv-x="525" 
d="M465 221h-296q8 -127 130 -127q68 0 128 51l48 -95q-75 -64 -196 -64q-116 0 -175 75t-59 199q0 122 64 199.5t170 77.5q100 0 150 -58.5t50 -151.5q0 -55 -14 -106zM176 319h185q3 12 3 26q0 41 -22.5 62.5t-62.5 21.5q-46 0 -72.5 -30t-30.5 -80zM390 614h-219v89h219
v-89z" />
    <glyph glyph-name="Ebreve" unicode="&#x114;" horiz-adv-x="607" 
d="M552 0h-461v680h461v-113h-339v-162h277v-111h-277v-182h339v-112zM196 832l32 51q31 -47 95 -47q31 0 56.5 13.5t38.5 33.5l31 -51q-43 -81 -125 -81q-83 0 -128 81z" />
    <glyph glyph-name="ebreve" unicode="&#x115;" horiz-adv-x="525" 
d="M465 221h-296q8 -127 130 -127q68 0 128 51l48 -95q-75 -64 -196 -64q-116 0 -175 75t-59 199q0 122 64 199.5t170 77.5q100 0 150 -58.5t50 -151.5q0 -55 -14 -106zM176 319h185q3 12 3 26q0 41 -22.5 62.5t-62.5 21.5q-46 0 -72.5 -30t-30.5 -80zM157 675l32 51
q31 -47 95 -47q31 0 56.5 13.5t38.5 33.5l31 -51q-43 -81 -125 -81q-83 0 -128 81z" />
    <glyph glyph-name="Edotaccent" unicode="&#x116;" horiz-adv-x="607" 
d="M552 0h-461v680h461v-113h-339v-162h277v-111h-277v-182h339v-112zM250 828q0 65 73 65q71 0 71 -65q0 -66 -71 -66q-73 0 -73 66z" />
    <glyph glyph-name="edotaccent" unicode="&#x117;" horiz-adv-x="525" 
d="M465 221h-296q8 -127 130 -127q68 0 128 51l48 -95q-75 -64 -196 -64q-116 0 -175 75t-59 199q0 122 64 199.5t170 77.5q100 0 150 -58.5t50 -151.5q0 -55 -14 -106zM176 319h185q3 12 3 26q0 41 -22.5 62.5t-62.5 21.5q-46 0 -72.5 -30t-30.5 -80zM211 671q0 65 73 65
q71 0 71 -65q0 -66 -71 -66q-73 0 -73 66z" />
    <glyph glyph-name="Eogonek" unicode="&#x118;" horiz-adv-x="607" 
d="M552 0h-9q-32 -1 -54.5 -20t-22.5 -50q0 -25 14 -39t35 -14q24 0 45 14l12 -57q-32 -17 -76 -17q-39 0 -64 26t-25 70q0 58 50 87h-366v680h461v-113h-339v-162h277v-111h-277v-182h339v-112z" />
    <glyph glyph-name="eogonek" unicode="&#x119;" horiz-adv-x="527" 
d="M466 221h-296q8 -127 130 -127q68 0 128 51l48 -95q-56 -48 -141 -60q-36 -20 -36 -60q0 -25 14 -39t35 -14q24 0 45 14l12 -57q-32 -17 -76 -17q-39 0 -64 26t-25 70t31 73q-111 3 -168 77.5t-57 196.5t64 199.5t170 77.5q100 0 150 -58.5t50 -151.5q0 -55 -14 -106z
M177 319h185q3 12 3 26q0 41 -22.5 62.5t-62.5 21.5q-46 0 -72.5 -30t-30.5 -80z" />
    <glyph glyph-name="Ecaron" unicode="&#x11a;" horiz-adv-x="607" 
d="M552 0h-461v680h461v-113h-339v-162h277v-111h-277v-182h339v-112zM268 898l55 -86l54 86h94l-87 -150h-123l-87 150h94z" />
    <glyph glyph-name="ecaron" unicode="&#x11b;" horiz-adv-x="525" 
d="M465 221h-296q8 -127 130 -127q68 0 128 51l48 -95q-75 -64 -196 -64q-116 0 -175 75t-59 199q0 122 64 199.5t170 77.5q100 0 150 -58.5t50 -151.5q0 -55 -14 -106zM176 319h185q3 12 3 26q0 41 -22.5 62.5t-62.5 21.5q-46 0 -72.5 -30t-30.5 -80zM226 741l55 -86l54 86
h94l-87 -150h-123l-87 150h94z" />
    <glyph glyph-name="Gcircumflex" unicode="&#x11c;" horiz-adv-x="672" 
d="M586 608l-53 -102q-74 65 -157 65q-89 0 -140 -61t-51 -171q0 -112 50.5 -171t134.5 -59q72 0 118 35v140h-152v111h272v-324q-42 -34 -111.5 -57.5t-135.5 -23.5q-132 0 -220 94.5t-88 254.5q0 161 88 256t220 95q136 0 225 -82zM417 748l-54 87l-55 -87h-94l87 150h123
l87 -150h-94z" />
    <glyph glyph-name="gcircumflex" unicode="&#x11d;" horiz-adv-x="587" 
d="M353 591l-54 87l-55 -87h-94l87 150h123l87 -150h-94zM48 280q0 116 56.5 184t152.5 68q79 0 129 -52v43h126v-487q0 -117 -62.5 -175.5t-165.5 -58.5q-99 0 -184 45l28 111q73 -44 142 -44q116 0 116 105v57q-49 -46 -129 -46q-96 0 -152.5 68t-56.5 182zM176 280
q0 -64 31.5 -101.5t86.5 -37.5q49 0 92 45v184q-38 50 -92 50q-55 0 -86.5 -37.5t-31.5 -102.5z" />
    <glyph glyph-name="Gbreve" unicode="&#x11e;" horiz-adv-x="672" 
d="M586 608l-53 -102q-74 65 -157 65q-89 0 -140 -61t-51 -171q0 -112 50.5 -171t134.5 -59q72 0 118 35v140h-152v111h272v-324q-42 -34 -111.5 -57.5t-135.5 -23.5q-132 0 -220 94.5t-88 254.5q0 161 88 256t220 95q136 0 225 -82zM237 832l32 51q31 -47 95 -47
q31 0 56.5 13.5t38.5 33.5l31 -51q-43 -81 -125 -81q-83 0 -128 81z" />
    <glyph glyph-name="gbreve" unicode="&#x11f;" horiz-adv-x="587" 
d="M174 675l32 51q31 -47 95 -47q31 0 56.5 13.5t38.5 33.5l31 -51q-43 -81 -125 -81q-83 0 -128 81zM48 280q0 116 56.5 184t152.5 68q79 0 129 -52v43h126v-487q0 -117 -62.5 -175.5t-165.5 -58.5q-99 0 -184 45l28 111q73 -44 142 -44q116 0 116 105v57q-49 -46 -129 -46
q-96 0 -152.5 68t-56.5 182zM176 280q0 -64 31.5 -101.5t86.5 -37.5q49 0 92 45v184q-38 50 -92 50q-55 0 -86.5 -37.5t-31.5 -102.5z" />
    <glyph glyph-name="Gdotaccent" unicode="&#x120;" horiz-adv-x="672" 
d="M586 608l-53 -102q-74 65 -157 65q-89 0 -140 -61t-51 -171q0 -112 50.5 -171t134.5 -59q72 0 118 35v140h-152v111h272v-324q-42 -34 -111.5 -57.5t-135.5 -23.5q-132 0 -220 94.5t-88 254.5q0 161 88 256t220 95q136 0 225 -82zM290 828q0 65 73 65q71 0 71 -65
q0 -66 -71 -66q-73 0 -73 66z" />
    <glyph glyph-name="gdotaccent" unicode="&#x121;" horiz-adv-x="587" 
d="M235 671q0 65 73 65q71 0 71 -65q0 -66 -71 -66q-73 0 -73 66zM48 280q0 116 56.5 184t152.5 68q79 0 129 -52v43h126v-487q0 -117 -62.5 -175.5t-165.5 -58.5q-99 0 -184 45l28 111q73 -44 142 -44q116 0 116 105v57q-49 -46 -129 -46q-96 0 -152.5 68t-56.5 182z
M176 280q0 -64 31.5 -101.5t86.5 -37.5q49 0 92 45v184q-38 50 -92 50q-55 0 -86.5 -37.5t-31.5 -102.5z" />
    <glyph glyph-name="Gcommaaccent" unicode="&#x122;" horiz-adv-x="672" 
d="M586 608l-53 -102q-74 65 -157 65q-89 0 -140 -61t-51 -171q0 -112 50.5 -171t134.5 -59q72 0 118 35v140h-152v111h272v-324q-42 -34 -111.5 -57.5t-135.5 -23.5q-132 0 -220 94.5t-88 254.5q0 161 88 256t220 95q136 0 225 -82zM316 -251l20 65q-48 10 -48 60
q0 31 17.5 48t45.5 17q76 0 76 -75q0 -62 -51 -138z" />
    <glyph glyph-name="gcommaaccent" unicode="&#x123;" horiz-adv-x="587" 
d="M48 280q0 116 56.5 184t152.5 68q79 0 129 -52v43h126v-487q0 -117 -62.5 -175.5t-165.5 -58.5q-99 0 -184 45l28 111q73 -44 142 -44q116 0 116 105v57q-49 -46 -129 -46q-96 0 -152.5 68t-56.5 182zM176 280q0 -64 31.5 -101.5t86.5 -37.5q49 0 92 45v184
q-38 50 -92 50q-55 0 -86.5 -37.5t-31.5 -102.5zM344 777l-20 -66q49 -9 49 -60q0 -30 -18 -47.5t-46 -17.5q-75 0 -75 75q0 68 51 138z" />
    <glyph glyph-name="Hcircumflex" unicode="&#x124;" horiz-adv-x="737" 
d="M518 0v287h-299v-287h-128v680h128v-281h299v281h128v-680h-128zM423 748l-54 87l-55 -87h-94l87 150h123l87 -150h-94z" />
    <glyph glyph-name="hcircumflex" unicode="&#x125;" horiz-adv-x="603" 
d="M201 0h-126v710h126v-239q47 61 144 61q161 0 161 -204v-187q0 -43 32 -43q17 0 42 16l5 -101q-42 -23 -95 -23q-57 0 -83.5 27.5t-26.5 89.5v196q0 111 -86 111q-34 0 -58 -25.5t-35 -61.5v-327zM348 752l-54 87l-55 -87h-94l87 150h123l87 -150h-94z" />
    <glyph glyph-name="Hbar" unicode="&#x126;" horiz-adv-x="737" 
d="M518 0v287h-299v-287h-128v505h-37v101h37v74h128v-74h299v74h128v-74h40v-101h-40v-505h-128zM219 399h299v106h-299v-106z" />
    <glyph glyph-name="hbar" unicode="&#x127;" horiz-adv-x="603" 
d="M201 0h-126v565h-60v92h60v53h126v-53h103v-92h-103v-94q47 61 144 61q161 0 161 -204v-187q0 -43 32 -43q17 0 42 16l5 -101q-42 -23 -95 -23q-57 0 -83.5 27.5t-26.5 89.5v196q0 111 -86 111q-34 0 -58 -25.5t-35 -61.5v-327z" />
    <glyph glyph-name="Itilde" unicode="&#x128;" horiz-adv-x="309" 
d="M91 0v680h128v-680h-128zM31 761l-37 51q14 34 40.5 58t56.5 24q33 0 72 -30.5t58 -30.5q38 0 58 45l38 -50q-37 -82 -97 -82q-31 0 -71.5 30t-57.5 30q-37 0 -60 -45z" />
    <glyph glyph-name="itilde" unicode="&#x129;" horiz-adv-x="307" 
d="M75 523h125v-382q0 -43 31 -43q18 0 43 16l5 -101q-40 -23 -95 -23q-57 0 -83 27.5t-26 89.5v416zM12 604l-37 51q14 34 40.5 58t56.5 24q33 0 72 -30.5t58 -30.5q38 0 58 45l38 -50q-37 -82 -97 -82q-31 0 -71.5 30t-57.5 30q-37 0 -60 -45z" />
    <glyph glyph-name="imacron" unicode="&#x12b;" horiz-adv-x="307" 
d="M75 523h125v-382q0 -43 31 -43q18 0 43 16l5 -101q-40 -23 -95 -23q-57 0 -83 27.5t-26 89.5v416zM246 614h-219v89h219v-89z" />
    <glyph glyph-name="Ibreve" unicode="&#x12c;" horiz-adv-x="309" 
d="M91 0v680h128v-680h-128zM28 832l32 51q31 -47 95 -47q31 0 56.5 13.5t38.5 33.5l31 -51q-43 -81 -125 -81q-83 0 -128 81z" />
    <glyph glyph-name="Iogonek" unicode="&#x12e;" horiz-adv-x="309" 
d="M91 0v680h128v-680h-27q-32 -2 -53 -21t-21 -49q0 -25 14 -39t35 -14q24 0 45 14l12 -57q-32 -17 -76 -17q-39 0 -64 26t-25 70q0 58 50 87h-18z" />
    <glyph glyph-name="iogonek" unicode="&#x12f;" horiz-adv-x="308" 
d="M76 523h126v-382q0 -43 30 -43q18 0 43 16l5 -101q-33 -19 -81 -22q-36 -20 -36 -61q0 -25 13.5 -39t34.5 -14q25 0 45 14l13 -57q-34 -17 -77 -17q-39 0 -64 26t-25 70q0 52 42 81q-69 16 -69 113v416zM68 661q0 62 72 62q68 0 68 -62q0 -63 -68 -63q-72 0 -72 63z" />
    <glyph glyph-name="Idotaccent" unicode="&#x130;" horiz-adv-x="309" 
d="M91 0v680h128v-680h-128zM83 828q0 65 73 65q71 0 71 -65q0 -66 -71 -66q-73 0 -73 66z" />
    <glyph glyph-name="dotlessi" unicode="&#x131;" horiz-adv-x="307" 
d="M75 523h125v-382q0 -43 31 -43q18 0 43 16l5 -101q-40 -23 -95 -23q-57 0 -83 27.5t-26 89.5v416z" />
    <glyph glyph-name="IJ" unicode="&#x132;" horiz-adv-x="875" 
d="M91 0v680h128v-680h-128zM326 228l124 12q3 -71 28.5 -103.5t77.5 -32.5q106 0 106 142v434h129v-432q0 -119 -60.5 -189t-177.5 -70q-108 0 -165.5 63t-61.5 176z" />
    <glyph glyph-name="ij" unicode="&#x133;" horiz-adv-x="583" 
d="M63 671q0 65 76 65q71 0 71 -65q0 -66 -71 -66q-76 0 -76 66zM75 523h126v-382q0 -43 30 -43q18 0 43 16l5 -101q-40 -23 -95 -23q-56 0 -82.5 27.5t-26.5 89.5v416zM382 523h126v-489q0 -158 -120 -231l-74 84q68 51 68 141v495zM373 671q0 65 72 65q73 0 73 -65
q0 -66 -73 -66q-72 0 -72 66z" />
    <glyph glyph-name="Jcircumflex" unicode="&#x134;" horiz-adv-x="566" 
d="M17 228l124 12q3 -71 28.5 -103.5t77.5 -32.5q106 0 106 142v434h129v-432q0 -119 -60.5 -189t-177.5 -70q-108 0 -165.5 63t-61.5 176zM468 748l-54 87l-55 -87h-94l87 150h123l87 -150h-94z" />
    <glyph glyph-name="jcircumflex" unicode="&#x135;" horiz-adv-x="276" 
d="M81 -197l-74 84q68 51 68 141v495h126v-489q0 -158 -120 -231zM191 591l-54 87l-55 -87h-94l87 150h123l87 -150h-94z" />
    <glyph glyph-name="Kcommaaccent" unicode="&#x136;" horiz-adv-x="686" 
d="M612 680v-19l-193 -329q12 -16 45 -81t66.5 -107.5t68.5 -42.5q28 0 55 15l14 -100q-45 -26 -101 -26q-49 0 -91 35.5t-65.5 79.5t-51.5 99t-46 77h-94v-281h-128v680h128v-288h107l156 288h130zM288 -251l20 65q-48 10 -48 60q0 31 17.5 48t45.5 17q76 0 76 -75
q0 -62 -51 -138z" />
    <glyph glyph-name="kcommaaccent" unicode="&#x137;" horiz-adv-x="561" 
d="M201 0h-126v710h126v-393q39 0 66.5 8t52.5 29.5t41.5 63t25.5 105.5h127q-22 -187 -121 -259l138 -248v-16h-130l-113 220q-43 -8 -87 -8v-212zM245 -251l20 65q-48 10 -48 60q0 31 17.5 48t45.5 17q76 0 76 -75q0 -62 -51 -138z" />
    <glyph glyph-name="kgreenlandic" unicode="&#x138;" horiz-adv-x="560" 
d="M201 0h-126v523h126v-222q77 1 122.5 49.5t63.5 172.5h127q-22 -192 -123 -269l135 -233v-21h-136l-107 206q-37 -9 -82 -9v-197z" />
    <glyph glyph-name="Lacute" unicode="&#x139;" horiz-adv-x="533" 
d="M516 0h-425v680h128v-568h297v-112zM292 898l-88 -150h-105l70 150h123z" />
    <glyph glyph-name="lacute" unicode="&#x13a;" horiz-adv-x="307" 
d="M72 710h126v-561q0 -51 37 -51q22 0 48 16l5 -101q-46 -23 -101 -23q-59 0 -87 29t-28 96v595zM264 902l-88 -150h-105l70 150h123z" />
    <glyph glyph-name="Lcommaaccent" unicode="&#x13b;" horiz-adv-x="533" 
d="M516 0h-425v680h128v-568h297v-112zM261 -251l20 65q-48 10 -48 60q0 31 17.5 48t45.5 17q76 0 76 -75q0 -62 -51 -138z" />
    <glyph glyph-name="lcommaaccent" unicode="&#x13c;" horiz-adv-x="308" 
d="M72 710h126v-561q0 -51 37 -51q22 0 48 16l5 -101q-46 -23 -101 -23q-59 0 -87 29t-28 96v595zM131 -251l20 65q-48 10 -48 60q0 31 17.5 48t45.5 17q76 0 76 -75q0 -62 -51 -138z" />
    <glyph glyph-name="Lcaron" unicode="&#x13d;" horiz-adv-x="540" 
d="M516 0h-425v680h128v-568h297v-112zM374 499l20 65q-48 10 -48 60q0 31 17.5 48t45.5 17q76 0 76 -75q0 -62 -51 -138z" />
    <glyph glyph-name="lcaron" unicode="&#x13e;" horiz-adv-x="345" 
d="M72 710h126v-561q0 -51 37 -51q22 0 48 16l5 -101q-46 -23 -101 -23q-59 0 -87 29t-28 96v595zM277 499l20 65q-48 10 -48 60q0 31 17.5 48t45.5 17q76 0 76 -75q0 -62 -51 -138z" />
    <glyph glyph-name="Ldot" unicode="&#x13f;" horiz-adv-x="550" 
d="M516 0h-425v680h128v-568h297v-112zM316 387q0 38 20 59t57 21q36 0 56.5 -21t20.5 -59q0 -39 -20.5 -59.5t-56.5 -20.5q-37 0 -57 20.5t-20 59.5z" />
    <glyph glyph-name="ldot" unicode="&#x140;" horiz-adv-x="384" 
d="M72 710h126v-561q0 -51 37 -51q22 0 48 16l5 -101q-46 -23 -101 -23q-59 0 -87 29t-28 96v595zM253 387q0 38 20 59t57 21q36 0 56.5 -21t20.5 -59q0 -39 -20.5 -59.5t-56.5 -20.5q-37 0 -57 20.5t-20 59.5z" />
    <glyph glyph-name="Lslash" unicode="&#x141;" horiz-adv-x="533" 
d="M516 0h-425v256l-36 -20v102l36 20v322h128v-248l95 55v-102l-95 -55v-218h297v-112z" />
    <glyph glyph-name="lslash" unicode="&#x142;" horiz-adv-x="311" 
d="M74 710h127v-251l61 35v-102l-61 -35v-208q0 -51 37 -51q20 0 48 16l5 -101q-46 -23 -101 -23q-59 0 -87.5 29t-28.5 96v169l-37 -21v103l37 21v323z" />
    <glyph glyph-name="Nacute" unicode="&#x143;" horiz-adv-x="735" 
d="M532 0l-314 465v-465h-127v680h110l315 -466v466h129v-680h-113zM506 898l-88 -150h-105l70 150h123z" />
    <glyph glyph-name="nacute" unicode="&#x144;" horiz-adv-x="603" 
d="M201 0h-126v523h126v-52q47 61 144 61q161 0 161 -204v-187q0 -43 32 -43q17 0 42 16l5 -101q-42 -23 -95 -23q-57 0 -83.5 27.5t-26.5 89.5v196q0 111 -86 111q-34 0 -58 -25.5t-35 -61.5v-327zM434 741l-88 -150h-105l70 150h123z" />
    <glyph glyph-name="Ncommaaccent" unicode="&#x145;" horiz-adv-x="735" 
d="M532 0l-314 465v-465h-127v680h110l315 -466v466h129v-680h-113zM323 -251l20 65q-48 10 -48 60q0 31 17.5 48t45.5 17q76 0 76 -75q0 -62 -51 -138z" />
    <glyph glyph-name="ncommaaccent" unicode="&#x146;" horiz-adv-x="602" 
d="M201 0h-126v523h126v-52q47 61 144 61q161 0 161 -204v-187q0 -43 32 -43q17 0 42 16l5 -101q-42 -23 -95 -23q-57 0 -83.5 27.5t-26.5 89.5v196q0 111 -86 111q-34 0 -58 -25.5t-35 -61.5v-327zM266 -251l20 65q-48 10 -48 60q0 31 17.5 48t45.5 17q76 0 76 -75
q0 -62 -51 -138z" />
    <glyph glyph-name="Ncaron" unicode="&#x147;" horiz-adv-x="735" 
d="M532 0l-314 465v-465h-127v680h110l315 -466v466h129v-680h-113zM318 898l55 -86l54 86h94l-87 -150h-123l-87 150h94z" />
    <glyph glyph-name="ncaron" unicode="&#x148;" horiz-adv-x="603" 
d="M201 0h-126v523h126v-52q47 61 144 61q161 0 161 -204v-187q0 -43 32 -43q17 0 42 16l5 -101q-42 -23 -95 -23q-57 0 -83.5 27.5t-26.5 89.5v196q0 111 -86 111q-34 0 -58 -25.5t-35 -61.5v-327zM239 741l55 -86l54 86h94l-87 -150h-123l-87 150h94z" />
    <glyph glyph-name="napostrophe" unicode="&#x149;" horiz-adv-x="664" 
d="M262 0h-126v523h126v-52q47 61 144 61q161 0 161 -204v-187q0 -43 32 -43q17 0 42 16l5 -101q-42 -23 -95 -23q-57 0 -83.5 27.5t-26.5 89.5v196q0 111 -86 111q-34 0 -58 -25.5t-35 -61.5v-327z" />
    <glyph glyph-name="Eng" unicode="&#x14a;" horiz-adv-x="732" 
d="M515 34l-298 437v-471h-126v680h109l315 -466v466h126v-635q0 -165 -125 -240l-74 74q73 58 73 155z" />
    <glyph glyph-name="eng" unicode="&#x14b;" horiz-adv-x="576" 
d="M201 0h-126v523h126v-61q43 70 144 70q161 0 161 -204v-287q0 -161 -125 -236l-74 74q35 29 54 64t19 93v267q0 111 -86 111q-34 0 -58.5 -22t-34.5 -56v-336z" />
    <glyph glyph-name="Omacron" unicode="&#x14c;" horiz-adv-x="703" 
d="M54 339q0 156 81 253.5t215 97.5q135 0 217 -97.5t82 -253.5q0 -155 -82 -252t-217 -97q-134 0 -215 97t-81 252zM180 339q0 -112 46 -170t124 -58q80 0 126.5 58t46.5 170q0 114 -46.5 172t-126.5 58q-78 0 -124 -58.5t-46 -171.5zM460 771h-219v89h219v-89z" />
    <glyph glyph-name="omacron" unicode="&#x14d;" horiz-adv-x="568" 
d="M45 260q0 129 65 203t173 74q110 0 175 -74t65 -203q0 -128 -65 -201t-175 -73q-108 0 -173 73t-65 201zM169 260q0 -76 30.5 -117t83.5 -41q54 0 84.5 40.5t30.5 117.5q0 78 -30.5 119t-84.5 41q-53 0 -83.5 -41t-30.5 -119zM393 614h-219v89h219v-89z" />
    <glyph glyph-name="Obreve" unicode="&#x14e;" horiz-adv-x="703" 
d="M54 339q0 156 81 253.5t215 97.5q135 0 217 -97.5t82 -253.5q0 -155 -82 -252t-217 -97q-134 0 -215 97t-81 252zM180 339q0 -112 46 -170t124 -58q80 0 126.5 58t46.5 170q0 114 -46.5 172t-126.5 58q-78 0 -124 -58.5t-46 -171.5zM224 832l32 51q31 -47 95 -47
q31 0 56.5 13.5t38.5 33.5l31 -51q-43 -81 -125 -81q-83 0 -128 81z" />
    <glyph glyph-name="obreve" unicode="&#x14f;" horiz-adv-x="568" 
d="M45 260q0 129 65 203t173 74q110 0 175 -74t65 -203q0 -128 -65 -201t-175 -73q-108 0 -173 73t-65 201zM169 260q0 -76 30.5 -117t83.5 -41q54 0 84.5 40.5t30.5 117.5q0 78 -30.5 119t-84.5 41q-53 0 -83.5 -41t-30.5 -119zM157 675l32 51q31 -47 95 -47
q31 0 56.5 13.5t38.5 33.5l31 -51q-43 -81 -125 -81q-83 0 -128 81z" />
    <glyph glyph-name="Ohungarumlaut" unicode="&#x150;" horiz-adv-x="703" 
d="M54 339q0 156 81 253.5t215 97.5q135 0 217 -97.5t82 -253.5q0 -155 -82 -252t-217 -97q-134 0 -215 97t-81 252zM180 339q0 -112 46 -170t124 -58q80 0 126.5 58t46.5 170q0 114 -46.5 172t-126.5 58q-78 0 -124 -58.5t-46 -171.5zM412 898l-89 -150h-104l69 150h124z
M590 898l-88 -150h-105l70 150h123z" />
    <glyph glyph-name="ohungarumlaut" unicode="&#x151;" horiz-adv-x="568" 
d="M45 260q0 129 65 203t173 74q110 0 175 -74t65 -203q0 -128 -65 -201t-175 -73q-108 0 -173 73t-65 201zM169 260q0 -76 30.5 -117t83.5 -41q54 0 84.5 40.5t30.5 117.5q0 78 -30.5 119t-84.5 41q-53 0 -83.5 -41t-30.5 -119zM333 741l-89 -150h-104l69 150h124zM511 741
l-88 -150h-105l70 150h123z" />
    <glyph glyph-name="OE" unicode="&#x152;" horiz-adv-x="1003" 
d="M948 0h-459v35q-67 -46 -143 -46q-126 0 -209.5 99.5t-83.5 249.5q0 151 83 251t210 100q81 0 143 -45v36h460v-113h-339v-166h276v-103h-276v-186h338v-112zM175 338q0 -98 50.5 -163.5t129.5 -65.5q85 0 134 62v336q-50 62 -135 62q-78 0 -128.5 -65.5t-50.5 -165.5z
" />
    <glyph glyph-name="oe" unicode="&#x153;" horiz-adv-x="920" 
d="M862 221h-302q1 -55 32.5 -91t96.5 -36q69 0 136 56l43 -97q-78 -67 -187 -67q-149 0 -201 121q-26 -58 -78.5 -89.5t-120.5 -31.5q-108 0 -172 73t-64 201q0 129 64 203t172 74q69 0 122 -33t79 -93q26 58 76 92t116 34q99 0 149 -60t50 -158q0 -49 -11 -98zM166 260
q0 -76 32 -117t85 -41q54 0 86 41t32 117q0 78 -31.5 119t-86.5 41q-53 0 -85 -41.5t-32 -118.5zM568 319h182q2 9 2 25q0 37 -22 61t-61 24q-90 0 -101 -110z" />
    <glyph glyph-name="Racute" unicode="&#x154;" horiz-adv-x="672" 
d="M91 0v680h284q91 0 148 -61t57 -161q0 -81 -46.5 -137t-118.5 -70q6 -7 32 -39t37 -43.5t32 -31.5t38.5 -28t35.5 -8q30 0 61 17l14 -102q-45 -26 -106 -26q-38 0 -75.5 21.5t-68.5 55t-57.5 67.5t-53 67t-45.5 46h-40v-247h-128zM219 568v-220h122q48 0 78 29.5t30 79.5
q0 54 -29.5 82.5t-78.5 28.5h-122zM439 898l-88 -150h-105l70 150h123z" />
    <glyph glyph-name="racute" unicode="&#x155;" horiz-adv-x="428" 
d="M412 507l-17 -118q-33 25 -78 25q-38 0 -58 -28.5t-29 -81.5v-304h-126v373q0 51 -32 51q-18 0 -42 -17l-5 103q46 23 101 23q73 0 95 -66q17 34 42.5 49.5t68.5 15.5q52 0 80 -25zM341 741l-88 -150h-105l70 150h123z" />
    <glyph glyph-name="Rcommaaccent" unicode="&#x156;" horiz-adv-x="672" 
d="M91 0v680h284q91 0 148 -61t57 -161q0 -81 -46.5 -137t-118.5 -70q6 -7 32 -39t37 -43.5t32 -31.5t38.5 -28t35.5 -8q30 0 61 17l14 -102q-45 -26 -106 -26q-38 0 -75.5 21.5t-68.5 55t-57.5 67.5t-53 67t-45.5 46h-40v-247h-128zM219 568v-220h122q48 0 78 29.5t30 79.5
q0 54 -29.5 82.5t-78.5 28.5h-122zM294 -251l20 65q-48 10 -48 60q0 31 17.5 48t45.5 17q76 0 76 -75q0 -62 -51 -138z" />
    <glyph glyph-name="rcommaaccent" unicode="&#x157;" horiz-adv-x="429" 
d="M412 507l-17 -118q-33 25 -78 25q-38 0 -58 -28.5t-29 -81.5v-304h-126v373q0 51 -32 51q-18 0 -42 -17l-5 103q46 23 101 23q73 0 95 -66q17 34 42.5 49.5t68.5 15.5q52 0 80 -25zM125 -251l20 65q-48 10 -48 60q0 31 17.5 48t45.5 17q76 0 76 -75q0 -62 -51 -138z" />
    <glyph glyph-name="Rcaron" unicode="&#x158;" horiz-adv-x="672" 
d="M91 0v680h284q91 0 148 -61t57 -161q0 -81 -46.5 -137t-118.5 -70q6 -7 32 -39t37 -43.5t32 -31.5t38.5 -28t35.5 -8q30 0 61 17l14 -102q-45 -26 -106 -26q-38 0 -75.5 21.5t-68.5 55t-57.5 67.5t-53 67t-45.5 46h-40v-247h-128zM219 568v-220h122q48 0 78 29.5t30 79.5
q0 54 -29.5 82.5t-78.5 28.5h-122zM246 898l55 -86l54 86h94l-87 -150h-123l-87 150h94z" />
    <glyph glyph-name="rcaron" unicode="&#x159;" horiz-adv-x="428" 
d="M412 507l-17 -118q-33 25 -78 25q-38 0 -58 -28.5t-29 -81.5v-304h-126v373q0 51 -32 51q-18 0 -42 -17l-5 103q46 23 101 23q73 0 95 -66q17 34 42.5 49.5t68.5 15.5q52 0 80 -25zM162 741l55 -86l54 86h94l-87 -150h-123l-87 150h94z" />
    <glyph glyph-name="Sacute" unicode="&#x15a;" horiz-adv-x="554" 
d="M62 44l29 119q80 -56 170 -56q49 0 79.5 22t30.5 66q0 31 -19.5 49.5t-64.5 32.5l-101 32q-133 44 -133 177q0 87 63 145t174 58q117 0 204 -49l-36 -113q-72 46 -164 46q-56 0 -85.5 -21.5t-29.5 -57.5q0 -55 66 -75l103 -35q79 -27 117 -70.5t38 -110.5
q0 -93 -64.5 -153t-171.5 -60q-58 0 -114.5 16.5t-90.5 37.5zM422 898l-88 -150h-105l70 150h123z" />
    <glyph glyph-name="sacute" unicode="&#x15b;" horiz-adv-x="453" 
d="M406 498l-30 -108q-72 34 -131 34q-72 0 -72 -51q0 -19 13 -30t47 -21l68 -20q107 -33 107 -142q0 -72 -50.5 -121t-137.5 -49q-95 0 -169 39l25 111q79 -44 138 -44q32 0 49.5 14t17.5 39q0 24 -13.5 35.5t-42.5 20.5l-72 22q-109 34 -109 142q0 71 52 117t142 46
q42 0 91 -10.5t77 -23.5zM357 741l-88 -150h-105l70 150h123z" />
    <glyph glyph-name="Scircumflex" unicode="&#x15c;" horiz-adv-x="554" 
d="M62 44l29 119q80 -56 170 -56q49 0 79.5 22t30.5 66q0 31 -19.5 49.5t-64.5 32.5l-101 32q-133 44 -133 177q0 87 63 145t174 58q117 0 204 -49l-36 -113q-72 46 -164 46q-56 0 -85.5 -21.5t-29.5 -57.5q0 -55 66 -75l103 -35q79 -27 117 -70.5t38 -110.5
q0 -93 -64.5 -153t-171.5 -60q-58 0 -114.5 16.5t-90.5 37.5zM334 748l-54 87l-55 -87h-94l87 150h123l87 -150h-94z" />
    <glyph glyph-name="scircumflex" unicode="&#x15d;" horiz-adv-x="453" 
d="M406 498l-30 -108q-72 34 -131 34q-72 0 -72 -51q0 -19 13 -30t47 -21l68 -20q107 -33 107 -142q0 -72 -50.5 -121t-137.5 -49q-95 0 -169 39l25 111q79 -44 138 -44q32 0 49.5 14t17.5 39q0 24 -13.5 35.5t-42.5 20.5l-72 22q-109 34 -109 142q0 71 52 117t142 46
q42 0 91 -10.5t77 -23.5zM285 591l-54 87l-55 -87h-94l87 150h123l87 -150h-94z" />
    <glyph glyph-name="Scedilla" unicode="&#x15e;" horiz-adv-x="556" 
d="M215 -97l22 89q-104 9 -174 52l29 119q80 -56 170 -56q49 0 79.5 22t30.5 66q0 31 -19.5 49.5t-64.5 32.5l-101 32q-133 44 -133 177q0 87 63 145t174 58q117 0 204 -49l-36 -113q-72 46 -164 46q-56 0 -85.5 -21.5t-29.5 -57.5q0 -55 66 -75l103 -35q79 -27 117 -70.5
t38 -110.5q0 -89 -58.5 -148t-158.5 -64l-12 -50q9 3 22 3q35 0 54.5 -18t19.5 -48q0 -36 -27 -56t-70 -20q-36 0 -68 11l11 43q31 -11 53 -11q44 0 44 31q0 29 -43 29q-32 0 -53 -7z" />
    <glyph glyph-name="scedilla" unicode="&#x15f;" horiz-adv-x="454" 
d="M167 -97l22 89q-81 5 -138 37l25 111q79 -44 138 -44q32 0 49.5 14t17.5 39q0 24 -13.5 35.5t-42.5 20.5l-72 22q-109 34 -109 142q0 71 52 117t142 46q42 0 91 -10.5t77 -23.5l-30 -108q-72 34 -131 34q-72 0 -72 -51q0 -19 13 -30t47 -21l68 -20q107 -33 107 -142
q0 -67 -45 -115t-124 -54l-12 -50q9 3 22 3q35 0 54.5 -18t19.5 -48q0 -36 -27 -56t-70 -20q-36 0 -68 11l11 43q31 -11 53 -11q44 0 44 31q0 29 -43 29q-32 0 -53 -7z" />
    <glyph glyph-name="Scaron" unicode="&#x160;" horiz-adv-x="554" 
d="M62 44l29 119q80 -56 170 -56q49 0 79.5 22t30.5 66q0 31 -19.5 49.5t-64.5 32.5l-101 32q-133 44 -133 177q0 87 63 145t174 58q117 0 204 -49l-36 -113q-72 46 -164 46q-56 0 -85.5 -21.5t-29.5 -57.5q0 -55 66 -75l103 -35q79 -27 117 -70.5t38 -110.5
q0 -93 -64.5 -153t-171.5 -60q-58 0 -114.5 16.5t-90.5 37.5zM220 898l55 -86l54 86h94l-87 -150h-123l-87 150h94z" />
    <glyph glyph-name="scaron" unicode="&#x161;" horiz-adv-x="453" 
d="M406 498l-30 -108q-72 34 -131 34q-72 0 -72 -51q0 -19 13 -30t47 -21l68 -20q107 -33 107 -142q0 -72 -50.5 -121t-137.5 -49q-95 0 -169 39l25 111q79 -44 138 -44q32 0 49.5 14t17.5 39q0 24 -13.5 35.5t-42.5 20.5l-72 22q-109 34 -109 142q0 71 52 117t142 46
q42 0 91 -10.5t77 -23.5zM176 741l55 -86l54 86h94l-87 -150h-123l-87 150h94z" />
    <glyph glyph-name="Tcommaaccent" unicode="&#x162;" horiz-adv-x="550" 
d="M521 552h-179v-552h-47l-14 -59q9 3 22 3q35 0 54.5 -18t19.5 -48q0 -36 -27 -56t-70 -20q-36 0 -68 11l11 43q31 -11 53 -11q44 0 44 31q0 29 -43 29q-32 0 -53 -7l-3 5l24 97h-31v552h-186v128h493v-128z" />
    <glyph glyph-name="tcommaaccent" unicode="&#x163;" horiz-adv-x="432" 
d="M188 -97l23 93q-107 25 -107 160v267h-78v100h86l15 133h102v-133h161v-100h-161v-251q0 -71 60 -71q48 0 90 33l32 -101q-74 -43 -151 -43l-12 -49q9 3 22 3q35 0 54.5 -18t19.5 -48q0 -36 -27 -56t-70 -20q-36 0 -68 11l11 43q31 -11 53 -11q44 0 44 31q0 29 -43 29
q-32 0 -53 -7z" />
    <glyph glyph-name="Tcaron" unicode="&#x164;" horiz-adv-x="550" 
d="M521 552h-179v-552h-128v552h-186v128h493v-128zM224 898l55 -86l54 86h94l-87 -150h-123l-87 150h94z" />
    <glyph glyph-name="tcaron" unicode="&#x165;" horiz-adv-x="464" 
d="M228 423v-251q0 -71 60 -71q48 0 90 33l32 -101q-74 -43 -152 -43q-71 0 -113 41t-42 125v267h-78v100h86l15 133h102v-133h161v-100h-161zM420 499l20 65q-48 10 -48 60q0 31 17.5 48t45.5 17q76 0 76 -75q0 -62 -51 -138z" />
    <glyph glyph-name="Tbar" unicode="&#x166;" horiz-adv-x="550" 
d="M521 552h-179v-186h83v-101h-83v-265h-128v265h-78v101h78v186h-186v128h493v-128z" />
    <glyph glyph-name="tbar" unicode="&#x167;" horiz-adv-x="431" 
d="M229 423v-99h100v-92h-100v-60q0 -71 60 -71q48 0 90 33l30 -96q-83 -48 -161 -48q-144 0 -144 166v76h-65v92h65v99h-78v100h86l15 133h102v-133h161v-100h-161z" />
    <glyph glyph-name="Utilde" unicode="&#x168;" horiz-adv-x="697" 
d="M211 680v-398q0 -174 136 -174q138 0 138 175v397h128v-406q0 -127 -67 -206t-199 -79t-198 76t-66 209v406h128zM224 761l-37 51q14 34 40.5 58t56.5 24q33 0 72 -30.5t58 -30.5q38 0 58 45l38 -50q-37 -82 -97 -82q-31 0 -71.5 30t-57.5 30q-37 0 -60 -45z" />
    <glyph glyph-name="utilde" unicode="&#x169;" horiz-adv-x="605" 
d="M376 523h125v-382q0 -43 31 -43q18 0 43 16l5 -101q-40 -23 -95 -23q-82 0 -102 60q-48 -60 -148 -60q-165 0 -165 204v329h126v-313q0 -51 18.5 -77t62.5 -26q67 0 99 69v347zM165 604l-37 51q14 34 40.5 58t56.5 24q33 0 72 -30.5t58 -30.5q38 0 58 45l38 -50
q-37 -82 -97 -82q-31 0 -71.5 30t-57.5 30q-37 0 -60 -45z" />
    <glyph glyph-name="Umacron" unicode="&#x16a;" horiz-adv-x="697" 
d="M211 680v-398q0 -174 136 -174q138 0 138 175v397h128v-406q0 -127 -67 -206t-199 -79t-198 76t-66 209v406h128zM457 771h-219v89h219v-89z" />
    <glyph glyph-name="umacron" unicode="&#x16b;" horiz-adv-x="605" 
d="M376 523h125v-382q0 -43 31 -43q18 0 43 16l5 -101q-40 -23 -95 -23q-82 0 -102 60q-48 -60 -148 -60q-165 0 -165 204v329h126v-313q0 -51 18.5 -77t62.5 -26q67 0 99 69v347zM399 614h-219v89h219v-89z" />
    <glyph glyph-name="Ubreve" unicode="&#x16c;" horiz-adv-x="697" 
d="M211 680v-398q0 -174 136 -174q138 0 138 175v397h128v-406q0 -127 -67 -206t-199 -79t-198 76t-66 209v406h128zM221 832l32 51q31 -47 95 -47q31 0 56.5 13.5t38.5 33.5l31 -51q-43 -81 -125 -81q-83 0 -128 81z" />
    <glyph glyph-name="ubreve" unicode="&#x16d;" horiz-adv-x="605" 
d="M376 523h125v-382q0 -43 31 -43q18 0 43 16l5 -101q-40 -23 -95 -23q-82 0 -102 60q-48 -60 -148 -60q-165 0 -165 204v329h126v-313q0 -51 18.5 -77t62.5 -26q67 0 99 69v347zM162 675l32 51q31 -47 95 -47q31 0 56.5 13.5t38.5 33.5l31 -51q-43 -81 -125 -81
q-83 0 -128 81z" />
    <glyph glyph-name="Uring" unicode="&#x16e;" horiz-adv-x="697" 
d="M211 680v-398q0 -174 136 -174q138 0 138 175v397h128v-406q0 -127 -67 -206t-199 -79t-198 76t-66 209v406h128zM253 787q0 41 28.5 69.5t69.5 28.5t69.5 -28.5t28.5 -69.5t-28.5 -69.5t-69.5 -28.5t-69.5 28.5t-28.5 69.5zM306 787q0 -19 13 -32t32 -13q18 0 31 13
t13 32q0 18 -13 31t-31 13q-19 0 -32 -13t-13 -31z" />
    <glyph glyph-name="uring" unicode="&#x16f;" horiz-adv-x="605" 
d="M376 523h125v-382q0 -43 31 -43q18 0 43 16l5 -101q-40 -23 -95 -23q-82 0 -102 60q-48 -60 -148 -60q-165 0 -165 204v329h126v-313q0 -51 18.5 -77t62.5 -26q67 0 99 69v347zM189 670q0 40 28.5 69t69.5 29t69.5 -29t28.5 -69t-28.5 -69t-69.5 -29t-69.5 29t-28.5 69z
M242 670q0 -19 13 -32t32 -13q18 0 31 13t13 32q0 18 -13 31t-31 13q-19 0 -32 -13t-13 -31z" />
    <glyph glyph-name="Uhungarumlaut" unicode="&#x170;" horiz-adv-x="697" 
d="M211 680v-398q0 -174 136 -174q138 0 138 175v397h128v-406q0 -127 -67 -206t-199 -79t-198 76t-66 209v406h128zM396 898l-89 -150h-104l69 150h124zM574 898l-88 -150h-105l70 150h123z" />
    <glyph glyph-name="uhungarumlaut" unicode="&#x171;" horiz-adv-x="605" 
d="M376 523h125v-382q0 -43 31 -43q18 0 43 16l5 -101q-40 -23 -95 -23q-82 0 -102 60q-48 -60 -148 -60q-165 0 -165 204v329h126v-313q0 -51 18.5 -77t62.5 -26q67 0 99 69v347zM339 741l-89 -150h-104l69 150h124zM517 741l-88 -150h-105l70 150h123z" />
    <glyph glyph-name="Uogonek" unicode="&#x172;" horiz-adv-x="699" 
d="M212 680v-398q0 -174 136 -174q138 0 138 175v397h128v-406q0 -115 -55 -191.5t-164 -90.5q-40 -18 -40 -62q0 -25 14 -39t35 -14q24 0 45 14l12 -57q-32 -17 -76 -17q-39 0 -64 26t-25 70q0 47 34 77q-123 5 -184.5 80t-61.5 204v406h128z" />
    <glyph glyph-name="uogonek" unicode="&#x173;" horiz-adv-x="605" 
d="M376 523h125v-382q0 -43 31 -43q18 0 43 16l5 -101q-28 -16 -66 -21q-38 -18 -38 -62q0 -25 14 -39t34 -14q25 0 46 14l12 -57q-34 -17 -76 -17q-39 0 -64 26t-25 70q0 51 39 79q-57 9 -73 58q-48 -60 -148 -60q-165 0 -165 204v329h126v-313q0 -51 18.5 -77t62.5 -26
q67 0 99 69v347z" />
    <glyph glyph-name="Wcircumflex" unicode="&#x174;" horiz-adv-x="951" 
d="M571 0l-94 304l-101 -304h-137l-222 680h136l165 -536l103 311l-69 225h137l149 -516l161 516h138l-228 -680h-138zM529 748l-54 87l-55 -87h-94l87 150h123l87 -150h-94z" />
    <glyph glyph-name="wcircumflex" unicode="&#x175;" horiz-adv-x="874" 
d="M509 523v-300q0 -54 22.5 -85t60.5 -31q43 0 67 36.5t24 100.5q0 130 -36 279h129q38 -140 38 -279q0 -122 -53.5 -188t-151.5 -66q-60 0 -98.5 20t-62.5 71q-24 -50 -62.5 -70.5t-97.5 -20.5q-190 0 -190 220v164q0 50 -32 50q-23 0 -43 -17l-5 103q55 22 104 22
q102 0 102 -131v-176q0 -118 80 -118q40 0 63.5 31t23.5 91v294h118zM504 591l-54 87l-55 -87h-94l87 150h123l87 -150h-94z" />
    <glyph glyph-name="Ycircumflex" unicode="&#x176;" horiz-adv-x="589" 
d="M232 0v272l-225 399v9h141l147 -290l147 290h140v-9l-225 -398v-273h-125zM349 748l-54 87l-55 -87h-94l87 150h123l87 -150h-94z" />
    <glyph glyph-name="ycircumflex" unicode="&#x177;" horiz-adv-x="518" 
d="M29 -169l18 96q38 -20 74 -20q31 0 49.5 18t30.5 58l9 29l-201 511h139l117 -383l113 383h128l-196 -565q-27 -80 -67 -118t-113 -38q-57 0 -101 29zM318 591l-54 87l-55 -87h-94l87 150h123l87 -150h-94z" />
    <glyph glyph-name="Ydieresis" unicode="&#x178;" horiz-adv-x="589" 
d="M232 0v272l-225 399v9h141l147 -290l147 290h140v-9l-225 -398v-273h-125zM118 826q0 63 68 63q67 0 67 -63q0 -62 -67 -62q-68 0 -68 62zM337 826q0 63 68 63q66 0 66 -63q0 -62 -66 -62q-68 0 -68 62z" />
    <glyph glyph-name="Zacute" unicode="&#x179;" horiz-adv-x="561" 
d="M54 90l290 478h-290v112h453v-90l-290 -478h290v-112h-453v90zM416 898l-88 -150h-105l70 150h123z" />
    <glyph glyph-name="zacute" unicode="&#x17a;" horiz-adv-x="461" 
d="M48 90l207 332h-207v101h365v-90l-206 -332h206v-101h-365v90zM365 741l-88 -150h-105l70 150h123z" />
    <glyph glyph-name="Zdotaccent" unicode="&#x17b;" horiz-adv-x="561" 
d="M54 90l290 478h-290v112h453v-90l-290 -478h290v-112h-453v90zM215 828q0 65 73 65q71 0 71 -65q0 -66 -71 -66q-73 0 -73 66z" />
    <glyph glyph-name="zdotaccent" unicode="&#x17c;" horiz-adv-x="461" 
d="M48 90l207 332h-207v101h365v-90l-206 -332h206v-101h-365v90zM167 671q0 65 73 65q71 0 71 -65q0 -66 -71 -66q-73 0 -73 66z" />
    <glyph glyph-name="Zcaron" unicode="&#x17d;" horiz-adv-x="561" 
d="M54 90l290 478h-290v112h453v-90l-290 -478h290v-112h-453v90zM229 898l55 -86l54 86h94l-87 -150h-123l-87 150h94z" />
    <glyph glyph-name="zcaron" unicode="&#x17e;" horiz-adv-x="461" 
d="M48 90l207 332h-207v101h365v-90l-206 -332h206v-101h-365v90zM177 741l55 -86l54 86h94l-87 -150h-123l-87 150h94z" />
    <glyph glyph-name="florin" unicode="&#x192;" horiz-adv-x="408" 
d="M373 307h-111v-332q0 -82 -36 -127.5t-106 -45.5q-27 0 -60.5 10.5t-52.5 22.5l19 109q28 -28 62 -28q48 0 48 55v336h-106v79h106v162q0 82 35.5 127t105.5 45q27 0 60.5 -10.5t52.5 -22.5l-19 -109q-28 28 -62 28q-47 0 -47 -53v-167h111v-79z" />
    <glyph glyph-name="Aringacute" unicode="&#x1fa;" horiz-adv-x="629" 
d="M14 0l224 668q-20 22 -20 56q0 39 26 61t71 22t71.5 -22t26.5 -61q0 -33 -20 -55l219 -669h-127l-43 141h-257l-44 -141h-127zM316 552l-99 -316h194zM410 907l-59 -81h-77l45 81h91zM272 724q0 -34 43 -34q45 0 45 34q0 32 -45 32q-43 0 -43 -32z" />
    <glyph glyph-name="aringacute" unicode="&#x1fb;" horiz-adv-x="615" 
d="M398 838l-59 -82h-77l45 82h91zM206 654q0 39 26.5 61.5t71.5 22.5t71.5 -22.5t26.5 -61.5t-26.5 -61t-71.5 -22t-71.5 22t-26.5 61zM260 654q0 -33 44 -33t44 33t-44 33t-44 -33zM511 523v-375q0 -50 30 -50q19 0 44 17l5 -102q-44 -23 -100 -23q-40 0 -63.5 14.5
t-32.5 50.5q-48 -64 -141 -64q-95 0 -150.5 70.5t-55.5 198.5q0 126 55 199t156 73q85 0 127 -49v40h126zM385 373q-39 47 -92 47q-55 0 -86.5 -42.5t-31.5 -117.5q0 -73 31.5 -115.5t86.5 -42.5q52 0 92 53v218z" />
    <glyph glyph-name="AEacute" unicode="&#x1fc;" horiz-adv-x="921" 
d="M406 0v141h-209l-65 -141h-134l331 680h537v-113h-339v-166h277v-103h-277v-186h339v-112h-460zM244 236h162v333zM720 898l-88 -150h-105l70 150h123z" />
    <glyph glyph-name="aeacute" unicode="&#x1fd;" horiz-adv-x="799" 
d="M98 393l-20 109q85 35 195 35t139 -96q18 38 60 67t108 29q182 0 182 -207q0 -59 -12 -109h-295q3 -64 32.5 -95.5t92.5 -31.5q71 0 132 55l43 -91q-77 -72 -190 -72q-119 0 -173 79q-81 -79 -188 -79q-75 0 -121.5 46.5t-46.5 126.5q0 77 59 124.5t160 47.5q34 0 76 -6
q0 59 -19 81t-67 22q-33 0 -77.5 -10.5t-69.5 -24.5zM463 319h192q1 6 1 22q0 88 -88 88q-49 0 -75.5 -30.5t-29.5 -79.5zM331 226q-22 5 -55 5q-53 0 -82.5 -19t-29.5 -55q0 -27 17 -44t48 -17q56 0 102 46v84zM545 741l-88 -150h-105l70 150h123z" />
    <glyph glyph-name="Oslashacute" unicode="&#x1fe;" horiz-adv-x="703" 
d="M54 339q0 156 81 253.5t215 97.5q95 0 166 -51l28 41h90v-9l-60 -87q75 -97 75 -245q0 -155 -82 -252t-217 -97q-86 0 -155 44l-23 -34h-91v10l53 77q-80 97 -80 252zM180 339q0 -89 29 -144l238 344q-41 30 -97 30q-78 0 -124 -58.5t-46 -171.5zM523 339q0 80 -25 135
l-234 -340q36 -23 86 -23q80 0 126.5 58t46.5 170zM487 898l-88 -150h-105l70 150h123z" />
    <glyph glyph-name="oslashacute" unicode="&#x1ff;" horiz-adv-x="568" 
d="M45 260q0 129 65 203t173 74q81 0 137 -41l19 27h63v-10l-39 -56q60 -74 60 -197q0 -128 -65 -201t-175 -73q-73 0 -127 34l-14 -20h-63v10l33 47q-67 73 -67 203zM169 260q0 -58 18 -96l163 233q-28 23 -67 23q-53 0 -83.5 -41t-30.5 -119zM398 260q0 49 -13 86
l-160 -228q23 -16 58 -16q54 0 84.5 40.5t30.5 117.5zM420 741l-88 -150h-105l70 150h123z" />
    <glyph glyph-name="Scommaaccent" unicode="&#x218;" horiz-adv-x="555" 
d="M62 44l29 119q80 -56 170 -56q49 0 79.5 22t30.5 66q0 31 -19.5 49.5t-64.5 32.5l-101 32q-133 44 -133 177q0 87 63 145t174 58q117 0 204 -49l-36 -113q-72 46 -164 46q-56 0 -85.5 -21.5t-29.5 -57.5q0 -55 66 -75l103 -35q79 -27 117 -70.5t38 -110.5
q0 -93 -64.5 -153t-171.5 -60q-58 0 -114.5 16.5t-90.5 37.5zM235 -251l20 65q-48 10 -48 60q0 31 17.5 48t45.5 17q76 0 76 -75q0 -62 -51 -138z" />
    <glyph glyph-name="scommaaccent" unicode="&#x219;" horiz-adv-x="453" 
d="M406 498l-30 -108q-72 34 -131 34q-72 0 -72 -51q0 -19 13 -30t47 -21l68 -20q107 -33 107 -142q0 -72 -50.5 -121t-137.5 -49q-95 0 -169 39l25 111q79 -44 138 -44q32 0 49.5 14t17.5 39q0 24 -13.5 35.5t-42.5 20.5l-72 22q-109 34 -109 142q0 71 52 117t142 46
q42 0 91 -10.5t77 -23.5zM191 -251l20 65q-48 10 -48 60q0 31 17.5 48t45.5 17q76 0 76 -75q0 -62 -51 -138z" />
    <glyph glyph-name="uni021A" unicode="&#x21a;" horiz-adv-x="552" 
d="M521 552h-179v-552h-128v552h-186v128h493v-128zM238 -251l20 65q-48 10 -48 60q0 31 17.5 48t45.5 17q76 0 76 -75q0 -62 -51 -138z" />
    <glyph glyph-name="uni021B" unicode="&#x21b;" horiz-adv-x="430" 
d="M228 423v-251q0 -71 60 -71q48 0 90 33l32 -101q-74 -43 -152 -43q-71 0 -113 41t-42 125v267h-78v100h86l15 133h102v-133h161v-100h-161zM198 -251l20 65q-48 10 -48 60q0 31 17.5 48t45.5 17q76 0 76 -75q0 -62 -51 -138z" />
    <glyph glyph-name="dotlessj" unicode="&#x237;" horiz-adv-x="276" 
d="M81 -197l-74 84q68 51 68 141v495h126v-489q0 -158 -120 -231z" />
    <glyph glyph-name="circumflex" unicode="&#x2c6;" 
d="M309 591l-54 87l-55 -87h-94l87 150h123l87 -150h-94z" />
    <glyph glyph-name="caron" unicode="&#x2c7;" 
d="M200 741l55 -86l54 86h94l-87 -150h-123l-87 150h94z" />
    <glyph glyph-name="breve" unicode="&#x2d8;" 
d="M128 675l32 51q31 -47 95 -47q31 0 56.5 13.5t38.5 33.5l31 -51q-43 -81 -125 -81q-83 0 -128 81z" />
    <glyph glyph-name="dotaccent" unicode="&#x2d9;" 
d="M183 671q0 65 73 65q71 0 71 -65q0 -66 -71 -66q-73 0 -73 66z" />
    <glyph glyph-name="ring" unicode="&#x2da;" 
d="M157 630q0 40 28.5 69t69.5 29t69.5 -29t28.5 -69t-28.5 -69t-69.5 -29t-69.5 29t-28.5 69zM210 630q0 -19 13 -32t32 -13q18 0 31 13t13 32q0 18 -13 31t-31 13q-19 0 -32 -13t-13 -31z" />
    <glyph glyph-name="ogonek" unicode="&#x2db;" 
d="M244 9l62 -9q-32 -1 -54.5 -20t-22.5 -50q0 -25 14 -39t35 -14q24 0 45 14l12 -57q-32 -17 -76 -17q-39 0 -64 26t-25 70q0 38 23 64t51 32z" />
    <glyph glyph-name="tilde" unicode="&#x2dc;" 
d="M130 604l-37 51q14 34 40.5 58t56.5 24q33 0 72 -30.5t58 -30.5q38 0 58 45l38 -50q-37 -82 -97 -82q-31 0 -71.5 30t-57.5 30q-37 0 -60 -45z" />
    <glyph glyph-name="hungarumlaut" unicode="&#x2dd;" 
d="M262 741l-89 -150h-104l69 150h124zM440 741l-88 -150h-105l70 150h123z" />
    <glyph glyph-name="uni0394" unicode="&#x394;" horiz-adv-x="654" 
d="M28 0l227 680h148l222 -680h-597zM329 553l-142 -457h279z" />
    <glyph glyph-name="uni03A9" unicode="&#x3a9;" horiz-adv-x="718" 
d="M640 100v-100h-237v103q58 28 94.5 94.5t36.5 149.5q0 103 -47.5 163t-128.5 60q-79 0 -126.5 -60.5t-47.5 -162.5q0 -85 35 -149.5t94 -94.5v-103h-235v100h96q-52 34 -82 107.5t-30 162.5q0 142 82.5 231t213.5 89q133 0 216 -89t83 -231q0 -88 -31 -161t-82 -109h96z
" />
    <glyph glyph-name="uni03BC" unicode="&#x3bc;" horiz-adv-x="581" 
d="M201 523v-263q0 -80 19 -116.5t67 -36.5q61 0 93 67v349h126v-523h-126v40q-49 -50 -140 -50q-15 0 -39 4v-182h-126v711h126z" />
    <glyph glyph-name="pi" unicode="&#x3c0;" horiz-adv-x="641" 
d="M27 523h575v-100h-95v-279q0 -46 31 -46q23 0 42 17l6 -103q-5 -6 -36 -14t-64 -8q-105 0 -105 130v303h-134v-423h-126v423h-94v100z" />
    <glyph glyph-name="Wgrave" unicode="&#x1e80;" horiz-adv-x="951" 
d="M571 0l-94 304l-101 -304h-137l-222 680h136l165 -536l103 311l-69 225h137l149 -516l161 516h138l-228 -680h-138zM433 748l-89 150h124l69 -150h-104z" />
    <glyph glyph-name="wgrave" unicode="&#x1e81;" horiz-adv-x="874" 
d="M509 523v-300q0 -54 22.5 -85t60.5 -31q43 0 67 36.5t24 100.5q0 130 -36 279h129q38 -140 38 -279q0 -122 -53.5 -188t-151.5 -66q-60 0 -98.5 20t-62.5 71q-24 -50 -62.5 -70.5t-97.5 -20.5q-190 0 -190 220v164q0 50 -32 50q-23 0 -43 -17l-5 103q55 22 104 22
q102 0 102 -131v-176q0 -118 80 -118q40 0 63.5 31t23.5 91v294h118zM407 591l-89 150h124l69 -150h-104z" />
    <glyph glyph-name="Wacute" unicode="&#x1e82;" horiz-adv-x="951" 
d="M571 0l-94 304l-101 -304h-137l-222 680h136l165 -536l103 311l-69 225h137l149 -516l161 516h138l-228 -680h-138zM608 898l-88 -150h-105l70 150h123z" />
    <glyph glyph-name="wacute" unicode="&#x1e83;" horiz-adv-x="874" 
d="M509 523v-300q0 -54 22.5 -85t60.5 -31q43 0 67 36.5t24 100.5q0 130 -36 279h129q38 -140 38 -279q0 -122 -53.5 -188t-151.5 -66q-60 0 -98.5 20t-62.5 71q-24 -50 -62.5 -70.5t-97.5 -20.5q-190 0 -190 220v164q0 50 -32 50q-23 0 -43 -17l-5 103q55 22 104 22
q102 0 102 -131v-176q0 -118 80 -118q40 0 63.5 31t23.5 91v294h118zM579 741l-88 -150h-105l70 150h123z" />
    <glyph glyph-name="Wdieresis" unicode="&#x1e84;" horiz-adv-x="951" 
d="M571 0l-94 304l-101 -304h-137l-222 680h136l165 -536l103 311l-69 225h137l149 -516l161 516h138l-228 -680h-138zM298 826q0 63 68 63q67 0 67 -63q0 -62 -67 -62q-68 0 -68 62zM517 826q0 63 68 63q66 0 66 -63q0 -62 -66 -62q-68 0 -68 62z" />
    <glyph glyph-name="wdieresis" unicode="&#x1e85;" horiz-adv-x="874" 
d="M509 523v-300q0 -54 22.5 -85t60.5 -31q43 0 67 36.5t24 100.5q0 130 -36 279h129q38 -140 38 -279q0 -122 -53.5 -188t-151.5 -66q-60 0 -98.5 20t-62.5 71q-24 -50 -62.5 -70.5t-97.5 -20.5q-190 0 -190 220v164q0 50 -32 50q-23 0 -43 -17l-5 103q55 22 104 22
q102 0 102 -131v-176q0 -118 80 -118q40 0 63.5 31t23.5 91v294h118zM273 669q0 63 68 63q67 0 67 -63q0 -62 -67 -62q-68 0 -68 62zM492 669q0 63 68 63q66 0 66 -63q0 -62 -66 -62q-68 0 -68 62z" />
    <glyph glyph-name="Ygrave" unicode="&#x1ef2;" horiz-adv-x="589" 
d="M232 0v272l-225 399v9h141l147 -290l147 290h140v-9l-225 -398v-273h-125zM248 748l-89 150h124l69 -150h-104z" />
    <glyph glyph-name="ygrave" unicode="&#x1ef3;" horiz-adv-x="518" 
d="M29 -169l18 96q38 -20 74 -20q31 0 49.5 18t30.5 58l9 29l-201 511h139l117 -383l113 383h128l-196 -565q-27 -80 -67 -118t-113 -38q-57 0 -101 29zM217 591l-89 150h124l69 -150h-104z" />
    <glyph glyph-name="endash" unicode="&#x2013;" horiz-adv-x="564" 
d="M69 353h426v-101h-426v101z" />
    <glyph glyph-name="emdash" unicode="&#x2014;" horiz-adv-x="776" 
d="M69 353h638v-101h-638v101z" />
    <glyph glyph-name="quoteleft" unicode="&#x2018;" horiz-adv-x="261" 
d="M192 660l-36 -130q49 -13 49 -76q0 -39 -19.5 -60.5t-56.5 -21.5q-36 0 -56 22t-20 60q0 50 22.5 121.5t46.5 114.5z" />
    <glyph glyph-name="quoteright" unicode="&#x2019;" horiz-adv-x="258" 
d="M69 399l37 132q-49 12 -49 74q0 40 19.5 61.5t55.5 21.5t56.5 -22.5t20.5 -60.5q0 -50 -22.5 -121t-47.5 -114z" />
    <glyph glyph-name="quotesinglbase" unicode="&#x201a;" horiz-adv-x="265" 
d="M68 -143l37 132q-49 12 -49 74q0 40 19.5 61.5t55.5 21.5t56.5 -22.5t20.5 -60.5q0 -50 -22.5 -121t-47.5 -114z" />
    <glyph glyph-name="quotedblleft" unicode="&#x201c;" horiz-adv-x="431" 
d="M365 665l-34 -124q45 -11 45 -66q0 -35 -17.5 -54.5t-48.5 -19.5q-32 0 -50 20t-18 54q0 45 20 110t42 105zM177 665l-34 -124q44 -10 44 -66q0 -74 -66 -74q-32 0 -50 20t-18 54q0 45 20.5 110.5t42.5 104.5z" />
    <glyph glyph-name="quotedblright" unicode="&#x201d;" horiz-adv-x="429" 
d="M67 426l33 122q-44 12 -44 68q0 35 17.5 54t49.5 19q31 0 49 -20t18 -53q0 -46 -20 -112.5t-42 -103.5zM256 426l32 122q-44 12 -44 68q0 34 17.5 53.5t48.5 19.5q32 0 50.5 -20t18.5 -53q0 -46 -20.5 -112t-42.5 -104z" />
    <glyph glyph-name="quotedblbase" unicode="&#x201e;" horiz-adv-x="434" 
d="M67 -147l33 124q-44 9 -44 66q0 75 67 75q31 0 49 -20.5t18 -54.5q0 -46 -20 -111t-42 -104zM255 -147l34 124q-45 9 -45 66q0 35 17.5 55t48.5 20q32 0 50 -20.5t18 -54.5q0 -46 -20 -111t-42 -104z" />
    <glyph glyph-name="dagger" unicode="&#x2020;" horiz-adv-x="516" 
d="M486 353h-178v-541h-99v541h-180v101h180v256h99v-256h178v-101z" />
    <glyph glyph-name="daggerdbl" unicode="&#x2021;" horiz-adv-x="555" 
d="M506 53h-179v-241h-99v241h-179v101h179v199h-179v101h179v256h99v-256h179v-101h-179v-199h179v-101z" />
    <glyph glyph-name="bullet" unicode="&#x2022;" horiz-adv-x="330" 
d="M58 302q0 56 28 87t79 31q50 0 78.5 -31t28.5 -87q0 -57 -28 -87.5t-79 -30.5t-79 30.5t-28 87.5z" />
    <glyph glyph-name="ellipsis" unicode="&#x2026;" horiz-adv-x="705" 
d="M57 59q0 36 18.5 55.5t51.5 19.5q35 0 54 -19.5t19 -55.5t-19 -55t-54 -19q-33 0 -51.5 19t-18.5 55zM282 59q0 36 18 55.5t52 19.5t53 -19.5t19 -55.5t-19 -55t-53 -19q-70 0 -70 74zM507 59q0 36 18 55.5t52 19.5t52.5 -19.5t18.5 -55.5t-18.5 -55t-52.5 -19
q-70 0 -70 74z" />
    <glyph glyph-name="perthousand" unicode="&#x2030;" horiz-adv-x="1122" 
d="M771 168q0 86 44 134t115 48t115 -48t44 -134q0 -84 -44 -131t-115 -47q-72 0 -115.5 47t-43.5 131zM864 168q0 -84 66 -84q30 0 47.5 21t17.5 63q0 43 -17.5 65.5t-47.5 22.5q-31 0 -48.5 -22.5t-17.5 -65.5zM189 10l296 670h108v-9l-295 -671h-109v10zM35 509
q0 85 43.5 133t114.5 48t115 -48.5t44 -132.5q0 -85 -44 -132.5t-115 -47.5t-114.5 47.5t-43.5 132.5zM127 509q0 -42 18 -64t48 -22t48 22t18 64t-18 64t-48 22t-48 -22t-18 -64zM431 169q0 85 43.5 133.5t114.5 48.5t115 -48.5t44 -133.5q0 -84 -44 -131.5t-115 -47.5
t-114.5 47.5t-43.5 131.5zM523 169q0 -42 18 -63.5t48 -21.5t48 21.5t18 63.5q0 43 -18 65t-48 22t-48 -22t-18 -65z" />
    <glyph glyph-name="guilsinglleft" unicode="&#x2039;" horiz-adv-x="295" 
d="M46 289v25l137 204h9l46 -26l-88 -190l88 -190l-46 -26h-9z" />
    <glyph glyph-name="guilsinglright" unicode="&#x203a;" horiz-adv-x="295" 
d="M249 314v-25l-137 -203h-9l-46 25l88 191l-88 189l46 27h9z" />
    <glyph glyph-name="fraction" unicode="&#x2044;" horiz-adv-x="149" 
d="M-118 10l314 670h71v-9l-313 -671h-72v10z" />
    <glyph glyph-name="zerosuperior" unicode="&#x2070;" horiz-adv-x="331" 
d="M37 617q0 80 33 126.5t95 46.5q63 0 96 -46t33 -127t-33 -127t-96 -46q-62 0 -95 46.5t-33 126.5zM105 617q0 -107 60 -107q61 0 61 107t-61 107q-60 0 -60 -107z" />
    <glyph glyph-name="foursuperior" unicode="&#x2074;" horiz-adv-x="319" 
d="M293 511h-47v-62h-71v62h-155v48l133 225l22 -1v1h71v-219h47v-54zM91 565h84v145z" />
    <glyph glyph-name="fivesuperior" unicode="&#x2075;" horiz-adv-x="292" 
d="M48 601l-3 3l14 180h188v-62h-130l-5 -67h23q122 0 122 -95q0 -58 -34 -87t-93 -29q-54 0 -101 22l18 60q39 -21 79 -21q26 0 43 13.5t17 39.5q0 43 -55 43h-83z" />
    <glyph glyph-name="sixsuperior" unicode="&#x2076;" horiz-adv-x="319" 
d="M273 764l-18 -59q-36 24 -76 24q-66 0 -73 -92q31 33 74 33q52 0 79 -27.5t27 -78.5q0 -54 -32 -87t-83 -33q-65 0 -99.5 47t-34.5 127q0 78 35 125t100 47q59 0 101 -26zM169 616q-32 0 -61 -31q9 -75 63 -75q21 0 33.5 15.5t12.5 38.5q0 52 -48 52z" />
    <glyph glyph-name="sevensuperior" unicode="&#x2077;" horiz-adv-x="263" 
d="M53 456l112 266h-141v62h219v-49l-114 -286h-76v7z" />
    <glyph glyph-name="eightsuperior" unicode="&#x2078;" horiz-adv-x="325" 
d="M163 444q-61 0 -93.5 26t-32.5 71q0 69 63 84q-24 5 -38.5 25t-14.5 46q0 45 29.5 69.5t86.5 24.5q56 0 85.5 -24.5t29.5 -69.5q0 -26 -14.5 -46t-38.5 -25q63 -15 63 -84q0 -45 -32.5 -71t-92.5 -26zM163 598q-56 0 -56 -46q0 -22 15.5 -36t40.5 -14t40 14t15 36
q0 21 -14 33.5t-41 12.5zM163 732q-47 0 -47 -42q0 -18 11.5 -30.5t35.5 -12.5q23 0 34.5 12.5t11.5 30.5q0 42 -46 42z" />
    <glyph glyph-name="ninesuperior" unicode="&#x2079;" horiz-adv-x="320" 
d="M140 506q68 0 73 92q-30 -34 -74 -34q-51 0 -78.5 27.5t-27.5 77.5q0 54 33 87.5t84 33.5q63 0 98 -47t35 -126t-35 -126t-99 -47q-60 0 -102 26l18 59q37 -23 75 -23zM150 618q32 0 62 30q-9 76 -62 76q-22 0 -35 -15.5t-13 -39.5q0 -51 48 -51z" />
    <glyph glyph-name="zeroinferior" unicode="&#x2080;" horiz-adv-x="331" 
d="M37 67q0 81 33 127.5t95 46.5q63 0 96 -46.5t33 -127.5q0 -80 -33 -126t-96 -46q-62 0 -95 46t-33 126zM105 67q0 -105 60 -105q61 0 61 105q0 108 -61 108q-60 0 -60 -108z" />
    <glyph glyph-name="oneinferior" unicode="&#x2081;" horiz-adv-x="244" 
d="M11 156l126 79h51v-335h-70v253l-79 -51z" />
    <glyph glyph-name="twoinferior" unicode="&#x2082;" horiz-adv-x="304" 
d="M42 -100v54l110 97q39 36 39 74q0 21 -11.5 35.5t-33.5 14.5q-49 0 -49 -67l-64 12q2 56 32.5 88.5t84.5 32.5t82.5 -30.5t28.5 -80.5q0 -65 -60 -115l-60 -52h127v-63h-226z" />
    <glyph glyph-name="threeinferior" unicode="&#x2083;" horiz-adv-x="295" 
d="M68 102h66q21 0 32 10.5t11 27.5q0 39 -50 39q-42 0 -80 -19l-15 60q47 21 102 21t84.5 -24.5t29.5 -69.5q0 -55 -48 -72q58 -15 58 -83q0 -45 -32 -71t-92 -26q-49 0 -102 20l18 60q38 -19 80 -19q26 0 41 12.5t15 34.5q0 38 -52 38h-66v61z" />
    <glyph glyph-name="fourinferior" unicode="&#x2084;" horiz-adv-x="319" 
d="M294 -38h-48v-62h-71v62h-154v47l133 226l21 -1v1h71v-219h48v-54zM92 16h83v143z" />
    <glyph glyph-name="fiveinferior" unicode="&#x2085;" horiz-adv-x="292" 
d="M49 52l-3 3l13 180h188v-62h-129l-5 -67h23q122 0 122 -96q0 -57 -34.5 -86t-92.5 -29q-54 0 -101 22l18 59q40 -20 78 -20q59 0 59 52q0 44 -53 44h-83z" />
    <glyph glyph-name="sixinferior" unicode="&#x2086;" horiz-adv-x="319" 
d="M179 179q-66 0 -73 -92q32 34 74 34q51 0 78.5 -27.5t27.5 -78.5q0 -54 -32 -87t-83 -33q-65 0 -99.5 46.5t-34.5 126.5q0 79 35 126t100 47q55 0 101 -26l-18 -59q-35 23 -76 23zM169 67q-31 0 -62 -31q10 -75 64 -75q21 0 33.5 15.5t12.5 38.5q0 52 -48 52z" />
    <glyph glyph-name="seveninferior" unicode="&#x2087;" horiz-adv-x="263" 
d="M53 -94l112 267h-141v62h219v-50l-114 -285h-76v6z" />
    <glyph glyph-name="eightinferior" unicode="&#x2088;" horiz-adv-x="325" 
d="M163 -105q-61 0 -93.5 26t-32.5 71q0 69 63 83q-24 6 -38.5 26.5t-14.5 45.5q0 45 29.5 69.5t86.5 24.5q56 0 85.5 -24.5t29.5 -69.5q0 -25 -14.5 -45.5t-38.5 -26.5q63 -14 63 -83q0 -45 -32.5 -71t-92.5 -26zM163 49q-28 0 -42 -13t-14 -33q0 -22 15.5 -36t40.5 -14
t40 14t15 36q0 20 -14 33t-41 13zM163 183q-22 0 -34.5 -11.5t-12.5 -30.5q0 -18 11.5 -30.5t35.5 -12.5q23 0 34.5 12.5t11.5 30.5q0 20 -12 31t-34 11z" />
    <glyph glyph-name="nineinferior" unicode="&#x2089;" horiz-adv-x="319" 
d="M46 -79l18 59q38 -24 76 -24q67 0 72 93q-30 -34 -73 -34q-51 0 -78.5 27.5t-27.5 77.5q0 54 32.5 87.5t83.5 33.5q63 0 98 -47t35 -127q0 -79 -35 -125.5t-99 -46.5q-60 0 -102 26zM149 69q32 0 62 30q-8 76 -62 76q-21 0 -34 -16t-13 -39q0 -25 13 -38t34 -13z" />
    <glyph glyph-name="Euro" unicode="&#x20ac;" 
d="M368 359h-174v-16q0 -25 1 -37h158l-25 -77h-123q27 -122 119 -122q58 0 107 40l46 -101q-78 -56 -170 -56q-90 0 -151 62.5t-82 176.5h-48v77h40q-1 12 -1 37v16h-39v78h45q18 123 80 188t159 65q105 0 173 -66l-43 -101q-47 50 -116 50q-98 0 -123 -136h196z" />
    <glyph glyph-name="afii61289" unicode="&#x2113;" horiz-adv-x="410" 
d="M58 124l-30 52l74 51v263q0 99 41.5 149t114.5 50q122 0 122 -138q0 -103 -48.5 -193.5t-118.5 -150.5v-45q0 -44 16 -61t49 -17q30 0 65 21l-5 -98q-41 -17 -104 -17q-132 0 -132 133v31zM213 506v-220q102 100 102 268q0 68 -46 68q-56 0 -56 -116z" />
    <glyph glyph-name="uni2117" unicode="&#x2117;" horiz-adv-x="796" 
d="M48 339q0 151 100 251t249 100q151 0 251 -100t100 -251q0 -149 -100 -249t-251 -100q-149 0 -249 100t-100 249zM120 339q0 -120 78.5 -200t198.5 -80t199.5 80t79.5 200q0 121 -79 201t-200 80q-120 0 -198.5 -80t-78.5 -201zM285 169v340h166q54 0 89 -32t35 -93
q0 -57 -36 -90t-88 -33h-70v-92h-96zM438 432h-57v-95h57q20 0 33.5 13t13.5 35t-13.5 34.5t-33.5 12.5z" />
    <glyph glyph-name="trademark" unicode="&#x2122;" horiz-adv-x="733" 
d="M650 663v-306h-67v183l-76 -105h-13l-75 105v-183h-68v306h60l90 -128l90 128h59zM289 593h-77v-236h-67v236h-78v70h222v-70z" />
    <glyph glyph-name="Omega" unicode="&#x2126;" horiz-adv-x="718" 
d="M640 100v-100h-237v103q58 28 94.5 94.5t36.5 149.5q0 103 -47.5 163t-128.5 60q-79 0 -126.5 -60.5t-47.5 -162.5q0 -85 35 -149.5t94 -94.5v-103h-235v100h96q-52 34 -82 107.5t-30 162.5q0 142 82.5 231t213.5 89q133 0 216 -89t83 -231q0 -88 -31 -161t-82 -109h96z
" />
    <glyph glyph-name="estimated" unicode="&#x212e;" horiz-adv-x="665" 
d="M522 145h66q-30 -73 -93 -115t-157 -42q-93 0 -157.5 45t-92.5 112.5t-28 148.5q0 82 28 149.5t92.5 112.5t157.5 45q71 0 126 -25.5t87.5 -69.5t49 -98t16.5 -114v-26h-431v-169q58 -58 152 -58q130 0 184 104zM186 320h305v170q-56 58 -153 58q-96 0 -152 -58v-170z
" />
    <glyph glyph-name="onethird" unicode="&#x2153;" horiz-adv-x="729" 
d="M146 10l314 670h71v-9l-313 -671h-72v10zM27 605l127 79h50v-335h-69v254l-80 -51zM494 199h66q21 0 32 10.5t11 27.5q0 39 -50 39q-42 0 -80 -19l-15 60q47 21 102 21t84.5 -24.5t29.5 -69.5q0 -55 -48 -72q58 -14 58 -83q0 -45 -32 -71t-92 -26q-49 0 -102 20l18 60
q38 -19 80 -19q26 0 41 12.5t15 34.5q0 38 -52 38h-66v61z" />
    <glyph glyph-name="twothirds" unicode="&#x2154;" horiz-adv-x="780" 
d="M204 10l314 670h71v-9l-313 -671h-72v10zM553 199h66q21 0 32 10.5t11 27.5q0 39 -50 39q-42 0 -80 -19l-15 60q47 21 102 21t84.5 -24.5t29.5 -69.5q0 -55 -48 -72q58 -14 58 -83q0 -45 -32 -71t-92 -26q-49 0 -102 20l18 60q38 -19 80 -19q26 0 41 12.5t15 34.5
q0 38 -52 38h-66v61zM50 349v54l110 98q39 35 39 73q0 22 -11.5 36t-33.5 14q-49 0 -49 -67l-64 12q2 56 32.5 88.5t84.5 32.5t82.5 -30.5t28.5 -79.5q0 -66 -60 -116l-60 -52h127v-63h-226z" />
    <glyph glyph-name="oneeighth" unicode="&#x215b;" horiz-adv-x="728" 
d="M146 10l314 670h71v-9l-313 -671h-72v10zM558 -5q-61 0 -93.5 26t-32.5 71q0 69 63 83q-24 6 -38.5 26.5t-14.5 45.5q0 45 29.5 69.5t86.5 24.5q56 0 85.5 -24.5t29.5 -69.5q0 -25 -14.5 -45.5t-38.5 -26.5q63 -14 63 -83q0 -45 -32.5 -71t-92.5 -26zM558 149
q-28 0 -42 -13t-14 -33q0 -22 15.5 -36t40.5 -14t40 14t15 36q0 20 -14 33t-41 13zM558 283q-22 0 -34.5 -11.5t-12.5 -30.5q0 -18 11.5 -30.5t35.5 -12.5q23 0 34.5 12.5t11.5 30.5q0 20 -12 31t-34 11zM27 605l127 79h50v-335h-69v254l-80 -51z" />
    <glyph glyph-name="threeeighths" unicode="&#x215c;" horiz-adv-x="765" 
d="M190 10l314 670h71v-9l-313 -671h-72v10zM602 -5q-61 0 -93.5 26t-32.5 71q0 69 63 83q-24 6 -38.5 26.5t-14.5 45.5q0 45 29.5 69.5t86.5 24.5q56 0 85.5 -24.5t29.5 -69.5q0 -25 -14.5 -45.5t-38.5 -26.5q63 -14 63 -83q0 -45 -32.5 -71t-92.5 -26zM602 149
q-28 0 -42 -13t-14 -33q0 -22 15.5 -36t40.5 -14t40 14t15 36q0 20 -14 33t-41 13zM602 283q-22 0 -34.5 -11.5t-12.5 -30.5q0 -18 11.5 -30.5t35.5 -12.5q23 0 34.5 12.5t11.5 30.5q0 20 -12 31t-34 11zM76 551h66q21 0 32 10.5t11 27.5q0 40 -50 40q-40 0 -80 -20l-15 61
q45 20 102 20q55 0 84.5 -24.5t29.5 -69.5q0 -54 -48 -71q58 -16 58 -84q0 -44 -32 -70.5t-92 -26.5q-49 0 -102 20l18 60q36 -18 80 -18q26 0 41 12t15 34q0 38 -52 38h-66v61z" />
    <glyph glyph-name="fiveeighths" unicode="&#x215d;" horiz-adv-x="762" 
d="M599 -5q-61 0 -93.5 26t-32.5 71q0 69 63 83q-24 6 -38.5 26.5t-14.5 45.5q0 45 29.5 69.5t86.5 24.5q56 0 85.5 -24.5t29.5 -69.5q0 -25 -14.5 -45.5t-38.5 -26.5q63 -14 63 -83q0 -45 -32.5 -71t-92.5 -26zM187 10l314 670h71v-9l-313 -671h-72v10zM56 501l-3 3l14 180
h188v-62h-130l-5 -67h23q122 0 122 -95q0 -58 -34 -87t-93 -29q-54 0 -101 22l18 60q39 -21 79 -21q26 0 43 13.5t17 39.5q0 43 -55 43h-83zM599 149q-28 0 -42 -13t-14 -33q0 -22 15.5 -36t40.5 -14t40 14t15 36q0 20 -14 33t-41 13zM599 283q-22 0 -34.5 -11.5
t-12.5 -30.5q0 -18 11.5 -30.5t35.5 -12.5q23 0 34.5 12.5t11.5 30.5q0 20 -12 31t-34 11z" />
    <glyph glyph-name="seveneighths" unicode="&#x215e;" horiz-adv-x="718" 
d="M142 10l314 670h71v-9l-313 -671h-72v10zM554 -5q-61 0 -93.5 26t-32.5 71q0 69 63 83q-24 6 -38.5 26.5t-14.5 45.5q0 45 29.5 69.5t86.5 24.5q56 0 85.5 -24.5t29.5 -69.5q0 -25 -14.5 -45.5t-38.5 -26.5q63 -14 63 -83q0 -45 -32.5 -71t-92.5 -26zM554 149
q-28 0 -42 -13t-14 -33q0 -22 15.5 -36t40.5 -14t40 14t15 36q0 20 -14 33t-41 13zM554 283q-22 0 -34.5 -11.5t-12.5 -30.5q0 -18 11.5 -30.5t35.5 -12.5q23 0 34.5 12.5t11.5 30.5q0 20 -12 31t-34 11zM62 356l112 266h-141v62h219v-49l-114 -286h-76v7z" />
    <glyph glyph-name="arrowleft" unicode="&#x2190;" horiz-adv-x="719" 
d="M321 556l63 -67l-154 -145h423v-93h-422l153 -148l-61 -64l-257 260z" />
    <glyph glyph-name="arrowup" unicode="&#x2191;" horiz-adv-x="719" 
d="M360 590l257 -255l-67 -64l-144 154v-421h-94v420l-147 -153l-64 62z" />
    <glyph glyph-name="arrowright" unicode="&#x2192;" horiz-adv-x="719" 
d="M396 556l257 -261l-255 -256l-65 66l155 145h-422v93h421l-154 148z" />
    <glyph glyph-name="arrowdown" unicode="&#x2193;" horiz-adv-x="719" 
d="M405 590v-421l147 153l65 -61l-261 -257l-255 255l66 63l144 -155v423h94z" />
    <glyph glyph-name="uni2196" unicode="&#x2196;" horiz-adv-x="719" 
d="M514 507l-1 -92l-212 7l298 -299l-65 -66l-298 298l5 -213l-90 -2l2 366z" />
    <glyph glyph-name="uni2197" unicode="&#x2197;" horiz-adv-x="719" 
d="M567 503l1 -362l-91 2l6 212l-298 -299l-67 66l298 298l-213 -4q0 14 -0.5 44.5t-0.5 44.5z" />
    <glyph glyph-name="uni2198" unicode="&#x2198;" horiz-adv-x="719" 
d="M567 454l-2 -365l-362 -1l2 92l213 -7l-299 298l66 66l297 -297l-4 212z" />
    <glyph glyph-name="uni2199" unicode="&#x2199;" horiz-adv-x="719" 
d="M533 536l66 -64l-298 -298l212 4l2 -90l-365 2l-1 362l92 -2l-7 -211z" />
    <glyph glyph-name="partialdiff" unicode="&#x2202;" horiz-adv-x="540" 
d="M181 639l50 81q104 -25 178 -128t74 -251q0 -167 -62 -259t-177 -92q-91 0 -148.5 66.5t-57.5 175.5q0 99 47.5 160t130.5 61q76 0 137 -65q-11 94 -61 159.5t-111 91.5zM249 107q90 0 104 170q-49 71 -101 71q-41 0 -65 -29.5t-24 -87.5q0 -55 23.5 -89.5t62.5 -34.5z
" />
    <glyph glyph-name="Delta" unicode="&#x2206;" horiz-adv-x="654" 
d="M28 0l227 680h148l222 -680h-597zM329 553l-142 -457h279z" />
    <glyph glyph-name="product" unicode="&#x220f;" horiz-adv-x="646" 
d="M207 -188h-119v868h469v-868h-120v755h-230v-755z" />
    <glyph glyph-name="summation" unicode="&#x2211;" horiz-adv-x="490" 
d="M57 0v69l153 272l-155 272v67h381v-101h-229l127 -239l-126 -239h228v-101h-379z" />
    <glyph glyph-name="minus" unicode="&#x2212;" 
d="M51 353h408v-101h-408v101z" />
    <glyph glyph-name="uni2215" unicode="&#x2215;" horiz-adv-x="367" 
d="M-9 10l314 670h71v-9l-313 -671h-72v10z" />
    <glyph glyph-name="uni2219" unicode="&#x2219;" horiz-adv-x="278" 
d="M62 296q0 38 20 59t57 21q36 0 56.5 -21t20.5 -59q0 -39 -20.5 -59.5t-56.5 -20.5q-37 0 -57 20.5t-20 59.5z" />
    <glyph glyph-name="radical" unicode="&#x221a;" horiz-adv-x="556" 
d="M183 467l132 -325l148 565l68 -23l-189 -684h-81l-133 327l-78 -46l-42 84z" />
    <glyph glyph-name="infinity" unicode="&#x221e;" horiz-adv-x="808" 
d="M153 300q0 -38 21.5 -59t54.5 -21q32 0 73 41l41 39l-41 39q-42 40 -73 40q-34 0 -55 -20.5t-21 -58.5zM405 241l-45 -41q-38 -36 -70.5 -53t-75.5 -17q-66 0 -111 46.5t-45 123.5q0 78 45 124t111 46q73 0 146 -70l44 -40l44 40q39 36 71.5 52.5t74.5 17.5q66 0 111 -46
t45 -124q0 -77 -45.5 -123.5t-110.5 -46.5q-42 0 -75 17t-72 53zM655 300q0 38 -21 58.5t-55 20.5q-30 0 -73 -40l-41 -39l41 -39q43 -41 73 -41q33 0 54.5 21t21.5 59z" />
    <glyph glyph-name="integral" unicode="&#x222b;" horiz-adv-x="407" 
d="M11 -165l19 109q28 -28 62 -28q48 0 48 55v577q0 81 35.5 126.5t105.5 45.5q27 0 60.5 -10.5t52.5 -22.5l-19 -109q-28 28 -62 28q-47 0 -47 -53v-578q0 -82 -36 -127.5t-106 -45.5q-27 0 -60.5 10.5t-52.5 22.5z" />
    <glyph glyph-name="approxequal" unicode="&#x2248;" 
d="M434 495l30 -78q-38 -64 -110 -64q-34 0 -101 27t-95 27q-58 0 -85 -40l-27 82q35 61 107 61q38 0 106.5 -27t90.5 -27q54 0 84 39zM433 227l30 -79q-38 -64 -109 -64q-35 0 -102.5 27.5t-94.5 27.5q-58 0 -85 -41l-27 82q35 61 107 61q38 0 106.5 -27t90.5 -27
q54 0 84 40z" />
    <glyph glyph-name="notequal" unicode="&#x2260;" 
d="M127 40l22 72h-98v101h130l56 179h-186v101h217l35 111l74 -27l-27 -84h109v-101h-140l-57 -179h197v-101h-228l-31 -99z" />
    <glyph glyph-name="lessequal" unicode="&#x2264;" 
d="M51 158h408v-101h-408v101zM51 365v99l399 162h9v-93l-292 -117l292 -115v-94h-9z" />
    <glyph glyph-name="greaterequal" unicode="&#x2265;" 
d="M51 158h408v-101h-408v101zM459 464v-99l-400 -158h-8v94l292 115l-292 117v93h8z" />
    <glyph glyph-name="lozenge" unicode="&#x25ca;" horiz-adv-x="501" 
d="M468 332l-178 -332h-79l-177 332l177 348h79zM362 331l-111 236l-111 -236l111 -223z" />
    <glyph glyph-name="uniF8FF" unicode="&#xf8ff;" horiz-adv-x="612" 
d="M50 720h512v-720h-512v720zM266 283h48q0 26 14 47t34 36t40 29.5t34 36t14 48.5q0 51 -36.5 85t-101.5 34q-39 0 -67 -14.5t-41.5 -37t-19 -43.5t-5.5 -41h47q0 40 21 66.5t65 26.5q41 0 64 -21.5t23 -54.5q0 -23 -21 -45t-45.5 -38t-45.5 -46t-21 -68zM255 194v-71h68
v71h-68z" />
    <glyph glyph-name="fi" unicode="&#xfb01;" horiz-adv-x="694" 
d="M32 397v100h80v47q0 176 157 176q64 0 113 -27l-28 -111q-32 25 -64 25q-52 0 -52 -58v-52h130v-100h-130v-397h-126v397h-80zM450 671q0 65 76 65q71 0 71 -65q0 -66 -71 -66q-76 0 -76 66zM462 523h126v-382q0 -43 30 -43q18 0 43 16l5 -101q-40 -23 -95 -23
q-56 0 -82.5 27.5t-26.5 89.5v416z" />
    <glyph glyph-name="fl" unicode="&#xfb02;" horiz-adv-x="695" 
d="M32 397v100h80v47q0 176 157 176q64 0 113 -27l-28 -111q-32 25 -64 25q-52 0 -52 -58v-52h130v-100h-130v-397h-126v397h-80zM460 710h126v-561q0 -51 37 -51q22 0 48 16l5 -101q-46 -23 -101 -23q-59 0 -87 29t-28 96v595z" />
    <glyph glyph-name="Imacron" horiz-adv-x="309" 
d="M91 0v680h128v-680h-128zM265 771h-219v89h219v-89z" />
    <glyph glyph-name="ibreve" horiz-adv-x="307" 
d="M75 523h125v-382q0 -43 31 -43q18 0 43 16l5 -101q-40 -23 -95 -23q-57 0 -83 27.5t-26 89.5v416zM11 675l32 51q31 -47 95 -47q31 0 56.5 13.5t38.5 33.5l31 -51q-43 -81 -125 -81q-83 0 -128 81z" />
    <glyph glyph-name="commaaccent" 
d="M215 -251l20 65q-48 10 -48 60q0 31 17.5 48t45.5 17q76 0 76 -75q0 -62 -51 -138z" />
    <glyph glyph-name="commaaccent.alt" 
d="M293 761l-20 -66q49 -9 49 -60q0 -30 -18 -47.5t-46 -17.5q-75 0 -75 75q0 68 51 138z" />
    <glyph glyph-name="zero.tf" 
d="M28 339q0 166 55 258.5t171 92.5q117 0 172.5 -92.5t55.5 -258.5q0 -165 -55.5 -257t-172.5 -92q-116 0 -171 92t-55 257zM150 339q0 -119 24.5 -175t79.5 -56q57 0 81.5 56t24.5 175q0 120 -24.5 177t-81.5 57q-55 0 -79.5 -57t-24.5 -177z" />
    <glyph glyph-name="one.tf" 
d="M475 0h-432v112h170v428l-136 -82l-43 102l212 120h93v-568h136v-112z" />
    <glyph glyph-name="two.tf" 
d="M53 0v96l198 206q80 84 80 166q0 48 -23 76.5t-66 28.5q-92 0 -94 -136l-112 17q2 110 58.5 173t155.5 63q102 0 156.5 -60t54.5 -156q0 -62 -30 -116.5t-91 -118.5l-125 -127h258v-112h-420z" />
    <glyph glyph-name="three.tf" 
d="M108 397h129q41 0 63.5 26.5t22.5 65.5q0 43 -29.5 68t-76.5 25q-40 0 -83 -14.5t-65 -28.5l-29 108q32 16 84.5 29.5t100.5 13.5q111 0 168 -48t57 -138q0 -54 -26.5 -95.5t-71.5 -53.5q55 -15 86.5 -56.5t31.5 -106.5q0 -96 -62.5 -149t-182.5 -53q-90 0 -183 43
l30 105q78 -39 152 -39q52 0 84 28.5t32 77.5q0 46 -26 71.5t-77 25.5h-129v95z" />
    <glyph glyph-name="four.tf" 
d="M486 132h-65v-132h-125v132h-272v84l230 464h167v-453h65v-95zM133 227h163v342z" />
    <glyph glyph-name="five.tf" 
d="M73 319l-5 6l26 355h360v-112h-254l-10 -154h50q232 0 232 -192q0 -116 -65 -174t-177 -58q-101 0 -193 46l32 106q75 -43 153 -43q53 0 87 30t34 90q0 100 -118 100h-152z" />
    <glyph glyph-name="six.tf" 
d="M453 638l-34 -104q-60 47 -133 47q-115 0 -126 -196q58 68 141 68q82 0 129 -59.5t47 -161.5q0 -112 -57.5 -177t-149.5 -65q-115 0 -176.5 92t-61.5 259q0 161 62.5 255t177.5 94q55 0 105.5 -16.5t75.5 -35.5zM262 348q-51 0 -101 -76q13 -165 104 -165q39 0 63 35.5
t24 89.5q0 59 -24 87.5t-66 28.5z" />
    <glyph glyph-name="seven.tf" 
d="M101 12l229 556h-291v112h431v-90l-231 -590h-138v12z" />
    <glyph glyph-name="eight.tf" 
d="M255 -10q-110 0 -167.5 52t-57.5 144q0 130 114 169q-43 14 -69.5 55.5t-26.5 93.5q0 90 52.5 138t154.5 48q101 0 153.5 -47.5t52.5 -138.5q0 -53 -26 -94t-69 -55q114 -39 114 -169q0 -92 -57.5 -144t-167.5 -52zM256 309q-99 0 -99 -104q0 -55 27 -83t71 -28t71 28
t27 83q0 104 -97 104zM255 588q-39 0 -62.5 -24t-23.5 -72q0 -96 87 -96q42 0 63.5 26.5t21.5 69.5q0 48 -23.5 72t-62.5 24z" />
    <glyph glyph-name="nine.tf" 
d="M56 42l34 104q58 -47 133 -47q111 0 125 186q-58 -58 -140 -58t-129 59.5t-47 161.5q0 112 57.5 177t149.5 65q114 0 176 -92t62 -259q0 -160 -63 -254.5t-177 -94.5q-55 0 -105.5 16.5t-75.5 35.5zM247 331q53 0 101 66q-12 176 -104 176q-39 0 -63 -35.5t-24 -89.5
q0 -59 24 -88t66 -29z" />
    <glyph glyph-name="Euro.tf" 
d="M368 359h-174v-16q0 -25 1 -37h158l-25 -77h-123q27 -122 119 -122q58 0 107 40l46 -101q-78 -56 -170 -56q-90 0 -151 62.5t-82 176.5h-48v77h40q-1 12 -1 37v16h-39v78h45q18 123 80 188t159 65q105 0 173 -66l-43 -101q-47 50 -116 50q-98 0 -123 -136h196z" />
    <glyph glyph-name="cent.tf" 
d="M422 155l46 -97q-79 -72 -190 -72q-12 0 -36 2l-29 -125l-72 21l29 122q-133 59 -133 254q0 121 65 199t170 78q15 0 22 -1l27 111l72 -21l-25 -107q82 -36 118 -153l-93 -41q-19 61 -51 86l-75 -317q7 -1 22 -1q69 0 133 62zM154 264q0 -90 44 -136l72 306
q-52 -1 -84 -48t-32 -122z" />
    <glyph glyph-name="sterling.tf" 
d="M390 307h-148q9 -72 9 -118q0 -23 -1 -34q4 -3 23.5 -20.5t34.5 -27t28 -9.5q48 0 48 101v25h107q2 -34 2 -48q0 -186 -126 -186q-26 0 -50.5 13t-57.5 42t-36 31q-20 -43 -46 -64.5t-68 -21.5q-44 0 -68.5 29.5t-24.5 76.5q0 45 25.5 73.5t65.5 28.5q22 0 38 -10
q0 33 -18 119h-80v79h63q-10 57 -10 107q0 87 47 142t137 55q52 0 101 -19t77 -42l-37 -111q-53 55 -119 55q-39 0 -59 -30t-20 -80q0 -32 5 -77h158v-79zM116 127q-14 0 -23 -9.5t-9 -25.5q0 -32 23 -32q27 0 33 58q-9 9 -24 9z" />
    <glyph glyph-name="florin.tf" horiz-adv-x="408" 
d="M373 307h-111v-332q0 -82 -36 -127.5t-106 -45.5q-27 0 -60.5 10.5t-52.5 22.5l19 109q28 -28 62 -28q48 0 48 55v336h-106v79h106v162q0 82 35.5 127t105.5 45q27 0 60.5 -10.5t52.5 -22.5l-19 -109q-28 28 -62 28q-47 0 -47 -53v-167h111v-79z" />
    <glyph glyph-name="yen.tf" 
d="M441 122h-126v-122h-127v122h-125v78h125v55h-125v78h99l-141 338v9h130l101 -305l106 305h130v-9l-147 -338h100v-78h-126v-55h126v-78z" />
    <glyph glyph-name="dollar.tf" 
d="M214 -129v121q-105 8 -175 52l29 119q66 -48 146 -55v187l-51 16q-133 43 -133 175q0 75 48.5 130t135.5 69v85h75v-82q103 -4 181 -48l-36 -113q-63 40 -145 45v-178l36 -12q79 -27 116.5 -69.5t37.5 -109.5q0 -82 -51.5 -139.5t-138.5 -70.5v-122h-75zM348 195
q0 50 -59 75v-156q59 20 59 81zM156 494q0 -53 58 -75v146q-58 -18 -58 -71z" />
    <glyph glyph-name="zero.denom" horiz-adv-x="331" 
d="M37 167q0 81 33 127.5t95 46.5q63 0 96 -46.5t33 -127.5q0 -80 -33 -126t-96 -46q-62 0 -95 46t-33 126zM105 167q0 -105 60 -105q61 0 61 105q0 108 -61 108q-60 0 -60 -108z" />
    <glyph glyph-name="one.denom" horiz-adv-x="244" 
d="M12 256l126 79h51v-335h-70v253l-79 -51z" />
    <glyph glyph-name="two.denom" horiz-adv-x="304" 
d="M42 0v54l110 97q39 36 39 74q0 21 -11.5 35.5t-33.5 14.5q-49 0 -49 -67l-64 12q2 56 32.5 88.5t84.5 32.5t82.5 -30.5t28.5 -80.5q0 -65 -60 -115l-60 -52h127v-63h-226z" />
    <glyph glyph-name="three.denom" horiz-adv-x="295" 
d="M68 202h66q21 0 32 10.5t11 27.5q0 39 -50 39q-42 0 -80 -19l-15 60q47 21 102 21t84.5 -24.5t29.5 -69.5q0 -55 -48 -72q58 -15 58 -83q0 -45 -32 -71t-92 -26q-49 0 -102 20l18 60q38 -19 80 -19q26 0 41 12.5t15 34.5q0 38 -52 38h-66v61z" />
    <glyph glyph-name="four.denom" horiz-adv-x="319" 
d="M294 62h-48v-62h-71v62h-154v47l133 226l21 -1v1h71v-219h48v-54zM92 116h83v143z" />
    <glyph glyph-name="five.denom" horiz-adv-x="292" 
d="M49 152l-3 3l13 180h188v-62h-129l-5 -67h23q122 0 122 -96q0 -57 -34.5 -86t-92.5 -29q-54 0 -101 22l18 59q40 -20 78 -20q59 0 59 52q0 44 -53 44h-83z" />
    <glyph glyph-name="six.denom" horiz-adv-x="319" 
d="M179 279q-66 0 -73 -92q32 34 74 34q51 0 78.5 -27.5t27.5 -78.5q0 -54 -32 -87t-83 -33q-65 0 -99.5 46.5t-34.5 126.5q0 79 35 126t100 47q55 0 101 -26l-18 -59q-35 23 -76 23zM169 167q-31 0 -62 -31q10 -75 64 -75q21 0 33.5 15.5t12.5 38.5q0 52 -48 52z" />
    <glyph glyph-name="seven.denom" horiz-adv-x="262" 
d="M53 6l112 267h-141v62h219v-50l-114 -285h-76v6z" />
    <glyph glyph-name="eight.denom" horiz-adv-x="325" 
d="M163 -5q-61 0 -93.5 26t-32.5 71q0 69 63 83q-24 6 -38.5 26.5t-14.5 45.5q0 45 29.5 69.5t86.5 24.5q56 0 85.5 -24.5t29.5 -69.5q0 -25 -14.5 -45.5t-38.5 -26.5q63 -14 63 -83q0 -45 -32.5 -71t-92.5 -26zM163 149q-28 0 -42 -13t-14 -33q0 -22 15.5 -36t40.5 -14
t40 14t15 36q0 20 -14 33t-41 13zM163 283q-22 0 -34.5 -11.5t-12.5 -30.5q0 -18 11.5 -30.5t35.5 -12.5q23 0 34.5 12.5t11.5 30.5q0 20 -12 31t-34 11z" />
    <glyph glyph-name="nine.denom" horiz-adv-x="319" 
d="M46 21l18 59q38 -24 76 -24q67 0 72 93q-30 -34 -73 -34q-51 0 -78.5 27.5t-27.5 77.5q0 54 32.5 87.5t83.5 33.5q63 0 98 -47t35 -127q0 -79 -35 -125.5t-99 -46.5q-60 0 -102 26zM149 169q32 0 62 30q-8 76 -62 76q-21 0 -34 -16t-13 -39q0 -25 13 -38t34 -13z" />
    <glyph glyph-name="zero.num" horiz-adv-x="331" 
d="M37 512q0 80 33 126.5t95 46.5q63 0 96 -46t33 -127t-33 -127t-96 -46q-62 0 -95 46.5t-33 126.5zM105 512q0 -107 60 -107q61 0 61 107t-61 107q-60 0 -60 -107z" />
    <glyph glyph-name="one.num" horiz-adv-x="244" 
d="M11 601l127 79h50v-335h-69v254l-80 -51z" />
    <glyph glyph-name="two.num" horiz-adv-x="304" 
d="M42 344v54l110 98q39 35 39 73q0 22 -11.5 36t-33.5 14q-49 0 -49 -67l-64 12q2 56 32.5 88.5t84.5 32.5t82.5 -30.5t28.5 -79.5q0 -66 -60 -116l-60 -52h127v-63h-226z" />
    <glyph glyph-name="three.num" horiz-adv-x="295" 
d="M68 546h66q21 0 32 10.5t11 27.5q0 40 -50 40q-40 0 -80 -20l-15 61q45 20 102 20q55 0 84.5 -24.5t29.5 -69.5q0 -54 -48 -71q58 -16 58 -84q0 -44 -32 -70.5t-92 -26.5q-49 0 -102 20l18 60q36 -18 80 -18q26 0 41 12t15 34q0 38 -52 38h-66v61z" />
    <glyph glyph-name="four.num" horiz-adv-x="319" 
d="M293 407h-47v-62h-71v62h-155v48l133 225l22 -1v1h71v-219h47v-54zM91 461h84v145z" />
    <glyph glyph-name="five.num" horiz-adv-x="292" 
d="M48 497l-3 3l14 180h188v-62h-130l-5 -67h23q122 0 122 -95q0 -58 -34 -87t-93 -29q-54 0 -101 22l18 60q39 -21 79 -21q26 0 43 13.5t17 39.5q0 43 -55 43h-83z" />
    <glyph glyph-name="six.num" horiz-adv-x="319" 
d="M273 659l-18 -59q-36 24 -76 24q-66 0 -73 -92q31 33 74 33q52 0 79 -27.5t27 -78.5q0 -54 -32 -87t-83 -33q-65 0 -99.5 47t-34.5 127q0 78 35 125t100 47q59 0 101 -26zM169 511q-32 0 -61 -31q9 -75 63 -75q21 0 33.5 15.5t12.5 38.5q0 52 -48 52z" />
    <glyph glyph-name="seven.num" horiz-adv-x="263" 
d="M53 352l112 266h-141v62h219v-49l-114 -286h-76v7z" />
    <glyph glyph-name="eight.num" horiz-adv-x="325" 
d="M163 339q-61 0 -93.5 26t-32.5 71q0 69 63 84q-24 5 -38.5 25t-14.5 46q0 45 29.5 69.5t86.5 24.5q56 0 85.5 -24.5t29.5 -69.5q0 -26 -14.5 -46t-38.5 -25q63 -15 63 -84q0 -45 -32.5 -71t-92.5 -26zM163 493q-56 0 -56 -46q0 -22 15.5 -36t40.5 -14t40 14t15 36
q0 21 -14 33.5t-41 12.5zM163 627q-47 0 -47 -42q0 -18 11.5 -30.5t35.5 -12.5q23 0 34.5 12.5t11.5 30.5q0 42 -46 42z" />
    <glyph glyph-name="nine.num" horiz-adv-x="320" 
d="M140 401q68 0 73 92q-30 -34 -74 -34q-51 0 -78.5 27.5t-27.5 77.5q0 54 33 87.5t84 33.5q63 0 98 -47t35 -126t-35 -126t-99 -47q-60 0 -102 26l18 59q37 -23 75 -23zM150 513q32 0 62 30q-9 76 -62 76q-22 0 -35 -15.5t-13 -39.5q0 -51 48 -51z" />
    <glyph glyph-name="parenleft.case" horiz-adv-x="289" 
d="M184 796l71 -42q-39 -66 -68.5 -172.5t-29.5 -240.5q0 -132 29.5 -239t68.5 -173l-71 -42q-49 54 -93 175.5t-44 279.5q0 157 43.5 277.5t93.5 176.5z" />
    <glyph glyph-name="parenright.case" horiz-adv-x="289" 
d="M33 754l71 42q50 -55 93.5 -175.5t43.5 -278.5t-43.5 -280t-93.5 -175l-71 42q40 65 69 172t29 240q0 134 -29 241t-69 172z" />
    <glyph glyph-name="hyphen.case" horiz-adv-x="481" 
d="M69 393h343v-101h-343v101z" />
    <glyph glyph-name="bracketleft.case" horiz-adv-x="319" 
d="M283 -108h-203v898h203v-101h-103v-696h103v-101z" />
    <glyph glyph-name="bracketright.case" horiz-adv-x="319" 
d="M35 790h203v-898h-203v101h104v696h-104v101z" />
    <glyph glyph-name="braceleft.case" horiz-adv-x="310" 
d="M240 -25h23v-90h-44q-137 0 -137 125q0 37 21.5 111.5t21.5 113.5q0 35 -21 50t-68 15v77q47 0 68 17.5t21 53.5q0 38 -21.5 111.5t-21.5 110.5q0 56 34 88t103 32h44v-90h-23q-59 0 -59 -59q0 -26 21.5 -98.5t21.5 -111.5q0 -77 -72 -93q72 -16 72 -95q0 -38 -21.5 -110
t-21.5 -98q0 -60 59 -60z" />
    <glyph glyph-name="bar.case" horiz-adv-x="259" 
d="M80 -108v898h99v-898h-99z" />
    <glyph glyph-name="braceright.case" horiz-adv-x="311" 
d="M92 -115h-45v90h25q58 0 58 60q0 26 -21.5 98t-21.5 110q0 79 72 95q-72 16 -72 93q0 39 21.5 111.5t21.5 98.5q0 59 -58 59h-25v90h45q68 0 102 -32t34 -88q0 -37 -21 -110.5t-21 -111.5q0 -37 21 -54t68 -17v-77q-48 0 -68.5 -15t-20.5 -50q0 -39 21 -114t21 -111
q0 -125 -136 -125z" />
    <glyph glyph-name="guilsinglleft.case" horiz-adv-x="279" 
d="M35 329v25l137 204h9l46 -26l-88 -190l88 -190l-46 -26h-9z" />
    <glyph glyph-name="guilsinglright.case" horiz-adv-x="279" 
d="M244 354v-25l-137 -203h-9l-46 25l88 191l-88 189l46 27h9z" />
    <glyph glyph-name="guillemotleft.case" horiz-adv-x="480" 
d="M35 329v25l137 204h9l46 -26l-88 -190l88 -190l-46 -26h-9zM234 329v25l139 204h9l46 -26l-87 -190l87 -190l-46 -26h-9z" />
    <glyph glyph-name="guillemotright.case" horiz-adv-x="481" 
d="M244 354v-25l-137 -203h-9l-46 25l88 191l-88 189l46 27h9zM445 354v-25l-137 -203h-10l-46 25l88 191l-88 189l46 27h10z" />
    <glyph glyph-name="endash.case" horiz-adv-x="564" 
d="M69 393h425v-101h-425v101z" />
    <glyph glyph-name="emdash.case" horiz-adv-x="776" 
d="M69 393h638v-101h-638v101z" />
    <glyph glyph-name="bullet.case" horiz-adv-x="327" 
d="M57 342q0 56 28 87t79 31q50 0 78.5 -31t28.5 -87q0 -57 -28 -87.5t-79 -30.5t-79 30.5t-28 87.5z" />
    <glyph glyph-name="periodcentered.case" horiz-adv-x="276" 
d="M61 336q0 38 20 59t57 21q36 0 56.5 -21t20.5 -59q0 -39 -20.5 -59.5t-56.5 -20.5q-37 0 -57 20.5t-20 59.5z" />
    <glyph glyph-name="g.alt" horiz-adv-x="573" 
d="M44 292q0 106 54 173t154 67q33 0 66.5 -12t52.5 -34v37h127v-448q0 -131 -65.5 -202t-156.5 -71q-69 0 -109.5 36t-40.5 97q0 47 21 81.5t60 46.5q-73 11 -118 70t-45 159zM173 292q0 -66 32.5 -97.5t82.5 -31.5h83v215q-13 17 -37.5 29.5t-49.5 12.5q-52 0 -81.5 -35
t-29.5 -93zM371 33v24h-41q-48 0 -78 -21.5t-30 -65.5q0 -28 17.5 -44t44.5 -16q37 0 62 34.5t25 88.5z" />
    <glyph glyph-name="y.alt" horiz-adv-x="520" 
d="M26 -71q0 60 41.5 101t115.5 48l-154 445h130l110 -386l109 385q21 0 63.5 0.5t63.5 0.5l-165 -519q-36 -113 -78 -157.5t-110 -44.5q-57 0 -91.5 33.5t-34.5 93.5zM148 -90q25 0 38 19.5t28 67.5l5 14q-113 0 -113 -61q0 -18 11.5 -29t30.5 -11z" />
    <glyph glyph-name="asterisk.alt" horiz-adv-x="431" 
d="M78 396l67 104l-108 28l26 86l110 -41l-7 127h99l-7 -127l110 41l26 -86l-110 -30l69 -101l-75 -47l-63 108l-62 -108z" />
    <glyph glyph-name="a.alt" horiz-adv-x="549" 
d="M432 -10q-62 0 -88 45q-57 -45 -149 -45q-76 0 -117.5 42t-41.5 114q0 89 64.5 137t169.5 48q26 0 56 -5v13q0 47 -20.5 63.5t-68.5 16.5q-70 0 -138 -34l-21 112q87 35 197 35q93 0 135.5 -45.5t42.5 -133.5v-209q0 -46 31 -46q19 0 43 17l6 -102q-41 -23 -101 -23z
M165 158q0 -28 17.5 -43t47.5 -15q60 0 96 32v95q-16 4 -49 4q-53 0 -82.5 -19.5t-29.5 -53.5z" />
    <glyph glyph-name="agrave.alt" horiz-adv-x="549" 
d="M432 -10q-62 0 -88 45q-57 -45 -149 -45q-76 0 -117.5 42t-41.5 114q0 89 64.5 137t169.5 48q26 0 56 -5v13q0 47 -20.5 63.5t-68.5 16.5q-70 0 -138 -34l-21 112q87 35 197 35q93 0 135.5 -45.5t42.5 -133.5v-209q0 -46 31 -46q19 0 43 17l6 -102q-41 -23 -101 -23z
M165 158q0 -28 17.5 -43t47.5 -15q60 0 96 32v95q-16 4 -49 4q-53 0 -82.5 -19.5t-29.5 -53.5zM228 591l-89 150h124l69 -150h-104z" />
    <glyph glyph-name="aacute.alt" horiz-adv-x="549" 
d="M432 -10q-62 0 -88 45q-57 -45 -149 -45q-76 0 -117.5 42t-41.5 114q0 89 64.5 137t169.5 48q26 0 56 -5v13q0 47 -20.5 63.5t-68.5 16.5q-70 0 -138 -34l-21 112q87 35 197 35q93 0 135.5 -45.5t42.5 -133.5v-209q0 -46 31 -46q19 0 43 17l6 -102q-41 -23 -101 -23z
M165 158q0 -28 17.5 -43t47.5 -15q60 0 96 32v95q-16 4 -49 4q-53 0 -82.5 -19.5t-29.5 -53.5zM395 741l-88 -150h-105l70 150h123z" />
    <glyph glyph-name="acircumflex.alt" horiz-adv-x="549" 
d="M432 -10q-62 0 -88 45q-57 -45 -149 -45q-76 0 -117.5 42t-41.5 114q0 89 64.5 137t169.5 48q26 0 56 -5v13q0 47 -20.5 63.5t-68.5 16.5q-70 0 -138 -34l-21 112q87 35 197 35q93 0 135.5 -45.5t42.5 -133.5v-209q0 -46 31 -46q19 0 43 17l6 -102q-41 -23 -101 -23z
M323 591l-54 87l-55 -87h-94l87 150h123l87 -150h-94zM165 158q0 -28 17.5 -43t47.5 -15q60 0 96 32v95q-16 4 -49 4q-53 0 -82.5 -19.5t-29.5 -53.5z" />
    <glyph glyph-name="atilde.alt" horiz-adv-x="549" 
d="M432 -10q-62 0 -88 45q-57 -45 -149 -45q-76 0 -117.5 42t-41.5 114q0 89 64.5 137t169.5 48q26 0 56 -5v13q0 47 -20.5 63.5t-68.5 16.5q-70 0 -138 -34l-21 112q87 35 197 35q93 0 135.5 -45.5t42.5 -133.5v-209q0 -46 31 -46q19 0 43 17l6 -102q-41 -23 -101 -23z
M153 604l-37 51q14 34 40.5 58t56.5 24q33 0 72 -30.5t58 -30.5q38 0 58 45l38 -50q-37 -82 -97 -82q-31 0 -71.5 30t-57.5 30q-37 0 -60 -45zM165 158q0 -28 17.5 -43t47.5 -15q60 0 96 32v95q-16 4 -49 4q-53 0 -82.5 -19.5t-29.5 -53.5z" />
    <glyph glyph-name="adieresis.alt" horiz-adv-x="549" 
d="M432 -10q-62 0 -88 45q-57 -45 -149 -45q-76 0 -117.5 42t-41.5 114q0 89 64.5 137t169.5 48q26 0 56 -5v13q0 47 -20.5 63.5t-68.5 16.5q-70 0 -138 -34l-21 112q87 35 197 35q93 0 135.5 -45.5t42.5 -133.5v-209q0 -46 31 -46q19 0 43 17l6 -102q-41 -23 -101 -23z
M165 158q0 -28 17.5 -43t47.5 -15q60 0 96 32v95q-16 4 -49 4q-53 0 -82.5 -19.5t-29.5 -53.5zM102 669q0 63 68 63q67 0 67 -63q0 -62 -67 -62q-68 0 -68 62zM321 669q0 63 68 63q66 0 66 -63q0 -62 -66 -62q-68 0 -68 62z" />
    <glyph glyph-name="amacron.alt" horiz-adv-x="549" 
d="M432 -10q-62 0 -88 45q-57 -45 -149 -45q-76 0 -117.5 42t-41.5 114q0 89 64.5 137t169.5 48q26 0 56 -5v13q0 47 -20.5 63.5t-68.5 16.5q-70 0 -138 -34l-21 112q87 35 197 35q93 0 135.5 -45.5t42.5 -133.5v-209q0 -46 31 -46q19 0 43 17l6 -102q-41 -23 -101 -23z
M383 614h-219v89h219v-89zM165 158q0 -28 17.5 -43t47.5 -15q60 0 96 32v95q-16 4 -49 4q-53 0 -82.5 -19.5t-29.5 -53.5z" />
    <glyph glyph-name="abreve.alt" horiz-adv-x="549" 
d="M432 -10q-62 0 -88 45q-57 -45 -149 -45q-76 0 -117.5 42t-41.5 114q0 89 64.5 137t169.5 48q26 0 56 -5v13q0 47 -20.5 63.5t-68.5 16.5q-70 0 -138 -34l-21 112q87 35 197 35q93 0 135.5 -45.5t42.5 -133.5v-209q0 -46 31 -46q19 0 43 17l6 -102q-41 -23 -101 -23z
M144 675l32 51q31 -47 95 -47q31 0 56.5 13.5t38.5 33.5l31 -51q-43 -81 -125 -81q-83 0 -128 81zM165 158q0 -28 17.5 -43t47.5 -15q60 0 96 32v95q-16 4 -49 4q-53 0 -82.5 -19.5t-29.5 -53.5z" />
    <glyph glyph-name="aring.alt" horiz-adv-x="549" 
d="M432 -10q-62 0 -88 45q-57 -45 -149 -45q-76 0 -117.5 42t-41.5 114q0 89 64.5 137t169.5 48q26 0 56 -5v13q0 47 -20.5 63.5t-68.5 16.5q-70 0 -138 -34l-21 112q87 35 197 35q93 0 135.5 -45.5t42.5 -133.5v-209q0 -46 31 -46q19 0 43 17l6 -102q-41 -23 -101 -23z
M170 670q0 40 29 69t69 29t69 -29t29 -69t-29 -69t-69 -29t-69 29t-29 69zM165 158q0 -28 17.5 -43t47.5 -15q60 0 96 32v95q-16 4 -49 4q-53 0 -82.5 -19.5t-29.5 -53.5zM223 670q0 -19 13 -32t32 -13q18 0 31 13t13 32q0 18 -13 31t-31 13q-19 0 -32 -13t-13 -31z" />
    <glyph glyph-name="aringacute.alt" horiz-adv-x="548" 
d="M432 -10q-62 0 -88 45q-57 -45 -149 -45q-76 0 -117.5 42t-41.5 114q0 89 64.5 137t169.5 48q26 0 56 -5v13q0 47 -20.5 63.5t-68.5 16.5q-70 0 -138 -34l-21 112q87 35 197 35q93 0 135.5 -45.5t42.5 -133.5v-209q0 -46 31 -46q19 0 43 17l6 -102q-41 -23 -101 -23z
M170 654q0 39 26.5 61.5t71.5 22.5t71.5 -22.5t26.5 -61.5t-26.5 -61t-71.5 -22t-71.5 22t-26.5 61zM165 158q0 -28 17.5 -43t47.5 -15q60 0 96 32v95q-16 4 -49 4q-53 0 -82.5 -19.5t-29.5 -53.5zM362 838l-58 -82h-77l45 82h90zM224 654q0 -33 44 -33q45 0 45 33t-45 33
q-44 0 -44 -33z" />
    <glyph glyph-name="aogonek.alt" horiz-adv-x="549" 
d="M360 -87q0 51 42 80q-38 9 -58 42q-57 -45 -149 -45q-76 0 -117.5 42t-41.5 114q0 89 64.5 137t169.5 48q26 0 56 -5v13q0 47 -20.5 63.5t-68.5 16.5q-70 0 -138 -34l-21 112q87 35 197 35q93 0 135.5 -45.5t42.5 -133.5v-209q0 -46 31 -46q19 0 43 17l6 -102
q-30 -16 -75 -21q-37 -19 -37 -62q0 -25 13 -39t34 -14q25 0 45 14l13 -57q-34 -17 -76 -17q-40 0 -65 26t-25 70zM165 158q0 -28 17.5 -43t47.5 -15q60 0 96 32v95q-16 4 -49 4q-53 0 -82.5 -19.5t-29.5 -53.5z" />
    <glyph glyph-name="gcircumflex.alt" horiz-adv-x="573" 
d="M44 292q0 106 54 173t154 67q33 0 66.5 -12t52.5 -34v37h127v-448q0 -131 -65.5 -202t-156.5 -71q-69 0 -109.5 36t-40.5 97q0 47 21 81.5t60 46.5q-73 11 -118 70t-45 159zM173 292q0 -66 32.5 -97.5t82.5 -31.5h83v215q-13 17 -37.5 29.5t-49.5 12.5q-52 0 -81.5 -35
t-29.5 -93zM371 33v24h-41q-48 0 -78 -21.5t-30 -65.5q0 -28 17.5 -44t44.5 -16q37 0 62 34.5t25 88.5zM352 591l-54 87l-55 -87h-94l87 150h123l87 -150h-94z" />
    <glyph glyph-name="gbreve.alt" horiz-adv-x="573" 
d="M171 675l32 51q31 -47 95 -47q31 0 56.5 13.5t38.5 33.5l31 -51q-43 -81 -125 -81q-83 0 -128 81zM44 292q0 106 54 173t154 67q33 0 66.5 -12t52.5 -34v37h127v-448q0 -131 -65.5 -202t-156.5 -71q-69 0 -109.5 36t-40.5 97q0 47 21 81.5t60 46.5q-73 11 -118 70
t-45 159zM173 292q0 -66 32.5 -97.5t82.5 -31.5h83v215q-13 17 -37.5 29.5t-49.5 12.5q-52 0 -81.5 -35t-29.5 -93zM371 33v24h-41q-48 0 -78 -21.5t-30 -65.5q0 -28 17.5 -44t44.5 -16q37 0 62 34.5t25 88.5z" />
    <glyph glyph-name="gdotaccent.alt" horiz-adv-x="573" 
d="M44 292q0 106 54 173t154 67q33 0 66.5 -12t52.5 -34v37h127v-448q0 -131 -65.5 -202t-156.5 -71q-69 0 -109.5 36t-40.5 97q0 47 21 81.5t60 46.5q-73 11 -118 70t-45 159zM173 292q0 -66 32.5 -97.5t82.5 -31.5h83v215q-13 17 -37.5 29.5t-49.5 12.5q-52 0 -81.5 -35
t-29.5 -93zM371 33v24h-41q-48 0 -78 -21.5t-30 -65.5q0 -28 17.5 -44t44.5 -16q37 0 62 34.5t25 88.5zM232 671q0 65 73 65q71 0 71 -65q0 -66 -71 -66q-73 0 -73 66z" />
    <glyph glyph-name="gcommaaccent.alt" horiz-adv-x="573" 
d="M44 292q0 106 54 173t154 67q33 0 66.5 -12t52.5 -34v37h127v-448q0 -131 -65.5 -202t-156.5 -71q-69 0 -109.5 36t-40.5 97q0 47 21 81.5t60 46.5q-73 11 -118 70t-45 159zM173 292q0 -66 32.5 -97.5t82.5 -31.5h83v215q-13 17 -37.5 29.5t-49.5 12.5q-52 0 -81.5 -35
t-29.5 -93zM371 33v24h-41q-48 0 -78 -21.5t-30 -65.5q0 -28 17.5 -44t44.5 -16q37 0 62 34.5t25 88.5zM340 777l-20 -66q49 -9 49 -60q0 -30 -18 -47.5t-46 -17.5q-75 0 -75 75q0 68 51 138z" />
    <glyph glyph-name="yacute.alt" horiz-adv-x="520" 
d="M409 741l-88 -150h-105l70 150h123zM26 -71q0 60 41.5 101t115.5 48l-154 445h130l110 -386l109 385q21 0 63.5 0.5t63.5 0.5l-165 -519q-36 -113 -78 -157.5t-110 -44.5q-57 0 -91.5 33.5t-34.5 93.5zM148 -90q25 0 38 19.5t28 67.5l5 14q-113 0 -113 -61
q0 -18 11.5 -29t30.5 -11z" />
    <glyph glyph-name="ycircumflex.alt" horiz-adv-x="520" 
d="M26 -71q0 60 41.5 101t115.5 48l-154 445h130l110 -386l109 385q21 0 63.5 0.5t63.5 0.5l-165 -519q-36 -113 -78 -157.5t-110 -44.5q-57 0 -91.5 33.5t-34.5 93.5zM148 -90q25 0 38 19.5t28 67.5l5 14q-113 0 -113 -61q0 -18 11.5 -29t30.5 -11zM324 591l-54 87l-55 -87
h-94l87 150h123l87 -150h-94z" />
    <glyph glyph-name="ydieresis.alt" horiz-adv-x="520" 
d="M26 -71q0 60 41.5 101t115.5 48l-154 445h130l110 -386l109 385q21 0 63.5 0.5t63.5 0.5l-165 -519q-36 -113 -78 -157.5t-110 -44.5q-57 0 -91.5 33.5t-34.5 93.5zM148 -90q25 0 38 19.5t28 67.5l5 14q-113 0 -113 -61q0 -18 11.5 -29t30.5 -11zM102 659q0 60 65 60
q64 0 64 -60q0 -59 -64 -59q-65 0 -65 59zM321 659q0 60 65 60q63 0 63 -60q0 -59 -63 -59q-65 0 -65 59z" />
    <glyph glyph-name="ygrave.alt" horiz-adv-x="520" 
d="M229 591l-89 150h124l69 -150h-104zM26 -71q0 60 41.5 101t115.5 48l-154 445h130l110 -386l109 385q21 0 63.5 0.5t63.5 0.5l-165 -519q-36 -113 -78 -157.5t-110 -44.5q-57 0 -91.5 33.5t-34.5 93.5zM148 -90q25 0 38 19.5t28 67.5l5 14q-113 0 -113 -61
q0 -18 11.5 -29t30.5 -11z" />
    </font>
</defs>
</svg>
