<?xml version="1.0" encoding="utf-8"?>
<!-- Generator: Adobe Illustrator 19.2.1, SVG Export Plug-In . SVG Version: 6.00 Build 0)  -->
<svg version="1.1" id="Capa_1" xmlns="http://www.w3.org/2000/svg" xmlns:xlink="http://www.w3.org/1999/xlink" x="0px" y="0px"
	 viewBox="0 0 171.3 171.3" style="enable-background:new 0 0 171.3 171.3;" xml:space="preserve">
<style type="text/css">
	.st0{fill:#A1A5B7;}
</style>
<g>
	<path class="st0" d="M105.7,143.8c-0.1,3.8-1.1,7.2-2.9,10.3c-4.3,7.1-13.1,10.7-21.3,8.7c-8.1-2-14.2-9.2-14.6-17.6
		c-0.1-1.2-0.6-1.4-1.6-1.4c-7.5,0-15,0.1-22.5-0.1c-5.5-0.1-9.5-3-11.6-8c-2.1-5-1.3-9.8,2.3-13.9c3.6-4,6.9-8.2,9.3-13.1
		c3.2-6.6,4.6-13.5,4.7-20.8c0.1-5.2-0.1-10.4,0.4-15.6c1.4-14.7,12.5-27.9,26.8-32.1c1.6-0.5,2.2-1.1,2.2-2.9
		c-0.1-3.6-0.1-7.2,0.2-10.8c0.4-4.6,4.6-8.1,9.3-8c4.6,0.1,8.7,3.5,9.1,8.1c0.3,3.8,0.2,7.5,0.2,11.3c0,1.1,0.3,1.7,1.5,2
		c16.8,5,27.7,19.8,27.9,37.4c0,5.1-0.1,10.2,0.3,15.3c0.7,9.9,4.6,18.6,11,26.1c1.8,2.1,3.7,4.1,4.9,6.5
		c3.9,8.2-2.1,18.1-11.2,18.4c-7.4,0.2-14.8,0.1-22.2,0.1C107.1,143.8,106.4,143.8,105.7,143.8z M86.1,132.5
		C86.1,132.5,86.1,132.5,86.1,132.5c6.9,0,13.8,0,20.7,0c6.9,0,13.8,0,20.7,0c0.5,0,1.1,0,1.6,0c1.7-0.3,2.4-1.8,1.4-3.2
		c-0.5-0.7-1.2-1.3-1.7-2c-7.5-8.2-12.4-17.6-14.1-28.6c-0.8-5.5-0.7-11.1-1-16.7c-0.2-3,0-6.1-0.4-9c-1.9-12.3-11.1-21.3-23.5-23.1
		C75.6,47.9,61.4,58,59.3,72.2c-0.8,5.1-0.6,10.3-0.6,15.4c0,13.2-3.7,25.2-11.8,35.8c-1.5,1.9-3.3,3.7-4.8,5.6
		c-0.5,0.6-0.7,1.7-0.4,2.4c0.2,0.6,1.2,0.9,1.9,1.2c0.4,0.2,1,0,1.5,0C58.7,132.5,72.4,132.5,86.1,132.5z M94.2,143.9
		c-5.4,0-10.7,0-16.1,0c0.1,4.7,3.8,8.2,8.5,8C90.8,151.8,94.4,148.1,94.2,143.9z"/>
	<path class="st0" d="M2,70C2.3,54.6,7,40.8,16.5,28.7C24.5,18.5,34.7,11.2,47,7c3.8-1.3,7.2,0.6,7.8,4.3c0.4,2.6-1,5-3.6,6.1
		c-2.5,1.1-5,2-7.4,3.2c-15.7,8.2-25.4,21-29.2,38.3c-2.1,9.4-1.4,18.8,1.4,28c0.4,1.4,0.6,3,0.3,4.5c-0.4,2.3-2.4,3.8-4.7,4
		c-2.5,0.2-4.6-0.7-5.5-3C5,89.7,4.3,86.9,3.6,84c-0.5-2.3-0.9-4.6-1.1-7C2.2,74.7,2.1,72.4,2,70z"/>
	<path class="st0" d="M170.3,68.6c0,8.3-1.1,15.5-3.4,22.5c-1.1,3.4-4.1,5.1-7.3,4.1c-3-0.9-4.5-3.9-3.5-7.3
		c2-6.8,3.2-13.6,2.8-20.7c-0.5-9.9-3.5-19.1-8.9-27.4c-5.6-8.6-13-15.2-22.2-19.6c-2.1-1-4.2-1.8-6.3-2.7c-3.3-1.4-4.7-4.4-3.5-7.4
		c1.2-3,4.3-4.3,7.6-3.1c14.6,5.3,26.2,14.4,34.5,27.5c5.6,9,9,18.8,10,29.4C170.1,65.7,170.2,67.6,170.3,68.6z"/>
	<path class="st0" d="M25,66.3c1.2-16.1,9.9-29.9,26.7-38.3c1.5-0.7,3-1.3,4.6-1.8c3-1,6,0.4,7.2,3.2c1.1,2.8-0.1,6-3,7.2
		c-4.2,1.7-8.3,3.7-11.8,6.7c-6.7,5.8-10.7,13.1-12,22c-0.7,5.2-0.3,10.4,1.3,15.4c0.6,1.8,0.7,3.5-0.3,5.2c-1.2,2-3,3-5.3,2.8
		c-2.5-0.2-4.2-1.7-5-4.1C25.6,79.5,24.8,74.2,25,66.3z"/>
	<path class="st0" d="M147.5,70.8c0,4.4-0.8,9.2-2.3,13.8c-1.1,3.3-4,4.8-7.2,3.9c-2.9-0.8-4.5-3.9-3.6-7.1
		c1.3-4.2,1.9-8.5,1.8-12.9c-0.3-12.7-9.2-25.8-21-30.5c-1.1-0.4-2.1-0.8-3.2-1.3c-2.8-1.3-4-4.3-3-7.1c1.1-2.8,4.2-4.3,7.1-3.3
		c7.7,2.7,14.3,7,19.7,13.2C143.6,48.2,147.4,58.6,147.5,70.8z"/>
</g>
</svg>
