<?xml version="1.0" encoding="utf-8"?>
<!-- Generator: Adobe Illustrator 19.2.1, SVG Export Plug-In . SVG Version: 6.00 Build 0)  -->
<svg version="1.1" id="Capa_1" xmlns="http://www.w3.org/2000/svg" xmlns:xlink="http://www.w3.org/1999/xlink" x="0px" y="0px"
	 viewBox="0 0 171.3 171.3" style="enable-background:new 0 0 171.3 171.3;" xml:space="preserve">
<g>
	<path d="M62.1,29.7c0,7.6,0,15-0.1,22.3c0,0.7-0.9,1.7-1.6,2.1c-13.9,8.6-22.2,20.8-24.5,37c-2.8,20.1,7.7,41,25.6,50.6
		c25.2,13.5,55.5,4.3,68.9-20.9c12.3-23.2,3.8-52.6-19-66.1c-1.5-0.9-2.1-1.8-2.1-3.5c0.1-7.2,0-14.3,0-21.6
		c24.4,7,51.6,35.3,48.6,74.6c-2.8,36.4-34.4,65.7-71.7,66.1c-37,0.4-69.2-28.6-72.6-65.7C10.1,65.9,36.6,37.4,62.1,29.7z"/>
	<path d="M97.4,52.6c0,12.4,0,24.8,0,37.2c0,6.1-3.5,10.8-8.8,12.1c-7.8,1.8-14.5-3.6-14.6-11.9c-0.1-7.2,0-14.4,0-21.6
		c0-17.8,0-35.6,0-53.4c0-6.2,3.4-11,8.5-12.3c8-2,14.8,3.5,14.8,12.1C97.5,27.4,97.4,40,97.4,52.6z"/>
</g>
</svg>
