<?xml version="1.0" encoding="utf-8"?>
<!-- Generator: Adobe Illustrator 19.2.1, SVG Export Plug-In . SVG Version: 6.00 Build 0)  -->
<svg version="1.1" id="Capa_1" xmlns="http://www.w3.org/2000/svg" xmlns:xlink="http://www.w3.org/1999/xlink" x="0px" y="0px"
	 viewBox="0 0 171.3 171.3" style="enable-background:new 0 0 171.3 171.3;" xml:space="preserve">
<style type="text/css">
	.st0{fill:#50CD89;}
</style>
<g>
	<path class="st0" d="M2.8,38.4c0.2-0.9,0.5-1.8,0.7-2.6c2-6,7.5-10,14-10.1c10.2,0,20.4,0,30.6,0c35.4,0,70.7,0,106.1,0
		c7.4,0,13.2,4.2,14.9,10.9c0.4,1.4,0.5,2.9,0.5,4.3c0,29,0,57.9,0,86.9c0,9-6.3,15.3-15.3,15.3c-45.3,0-90.6,0-135.9,0
		C10.3,143.1,5,138.9,3,131c-0.1-0.2-0.2-0.4-0.2-0.6C2.8,99.7,2.8,69.1,2.8,38.4z M19.9,35.6c0.5,0.5,0.8,0.9,1.2,1.3
		c20.2,20.3,40.4,40.6,60.6,60.8c3,3,6.1,3,9.1,0C111,77.3,131.3,57,151.5,36.7c0.3-0.3,0.6-0.7,1-1.2
		C108.2,35.6,64.2,35.6,19.9,35.6z M19.7,133.1c44.5,0,88.6,0,133,0c-14.1-14-28-27.8-42-41.6c-0.3,0.3-0.7,0.7-1.2,1.1
		c-4.1,4.1-8.1,8.2-12.2,12.2c-6.4,6.4-15.9,6.4-22.3,0c-2.5-2.5-4.9-4.9-7.4-7.4c-2-2-4.1-4.1-6-6
		C47.7,105.4,33.9,119.1,19.7,133.1z M12.6,42.9c0,27.6,0,55.4,0,83c13.9-13.7,27.9-27.6,41.9-41.5C40.5,70.5,26.5,56.6,12.6,42.9z
		 M159.8,125.9c0-27.7,0-55.5,0-82.8C146,56.7,132,70.6,118,84.5C131.9,98.3,145.9,112.2,159.8,125.9z"/>
</g>
</svg>
