<?xml version="1.0" encoding="utf-8"?>
<!-- Generator: Adobe Illustrator 19.2.1, SVG Export Plug-In . SVG Version: 6.00 Build 0)  -->
<svg version="1.1" id="Capa_1" xmlns="http://www.w3.org/2000/svg" xmlns:xlink="http://www.w3.org/1999/xlink" x="0px" y="0px"
	 viewBox="0 0 171.3 171.3" style="enable-background:new 0 0 171.3 171.3;" xml:space="preserve">
<style type="text/css">
	.st0{fill:#006BE9;}
</style>
<g>
	<path class="st0" d="M114.8,1c8.1,1.7,15.3,5,20.7,11.5c4.8,5.8,7.6,12.5,7.6,20.1c0,26.4,0.1,52.8,0,79.2
		c-0.1,17-14.2,31.1-31.2,31.2c-26.4,0.2-52.8,0.1-79.2,0c-15.2-0.1-28.2-11.2-30.9-26.1c-0.1-0.7-0.4-1.4-0.7-2.1
		c0-28.3,0-56.6,0-84.9c1.3-6.2,3.3-12.1,7.5-17C14.1,6.1,21.4,2.6,29.8,1C58.1,1,86.4,1,114.8,1z M13.9,72c0,12.6,0,25.3,0,37.9
		c0,12.1,8.3,20.4,20.5,20.5c25.1,0.1,50.3,0.1,75.4,0c12.1,0,20.5-8.4,20.6-20.5c0.1-25.3,0.1-50.5,0-75.8
		c0-11.9-8.5-20.2-20.4-20.2c-25.3,0-50.5,0-75.8,0c-12,0-20.3,8.3-20.3,20.2C13.9,46.7,13.9,59.4,13.9,72z"/>
	<path class="st0" d="M156.3,33.7c7.2,6,11.2,12.7,12.3,21.1c0.4,3.1,0.3,6.3,0.3,9.5c0,23.9,0.1,47.8,0,71.6
		c-0.1,16.3-10,28.9-25.4,32.3c-2.4,0.5-5,0.7-7.5,0.7c-25.4,0.1-50.8,0-76.2,0c-10.3,0-18.8-3.9-26.1-12.6c2.2,0,3.7,0,5.1,0
		c31.7,0,63.4,0,95.1,0c14.3,0,22.3-8,22.3-22.3c0-31.6,0-63.2,0-94.8C156.3,37.8,156.3,36.3,156.3,33.7z"/>
	<path class="st0" d="M66.1,87.2C74.7,74.4,83,62,91.3,49.7c1.8-2.6,3.6-5.2,5.3-7.8c1.5-2.3,3.3-2.6,5.4-1.1
		c11.8,8.2,10.7,5.7,3.7,16.1c-10.2,15.2-20.4,30.3-30.7,45.4c-4.4,6.6-9.3,7.1-14.9,1.5C54.1,97.8,48.1,91.7,42,85.7
		c-2.6-2.5-2.5-4.5,0-7c8.7-8.8,7.2-8.6,15.8,0C60.4,81.3,63,84.1,66.1,87.2z"/>
</g>
</svg>
