<?xml version="1.0" encoding="utf-8"?>
<!-- Generator: Adobe Illustrator 19.2.1, SVG Export Plug-In . SVG Version: 6.00 Build 0)  -->
<svg version="1.1" id="Capa_1" xmlns="http://www.w3.org/2000/svg" xmlns:xlink="http://www.w3.org/1999/xlink" x="0px" y="0px"
	 viewBox="0 0 171.3 171.3" style="enable-background:new 0 0 171.3 171.3;" xml:space="preserve">
<style type="text/css">
	.st0{fill:#50CD89;}
</style>
<g>
	<path class="st0" d="M84.2,1.5c14.2,0.1,26.5,2.9,38.2,8.6c3.9,1.9,5.5,5.7,4.1,9.4c-1.6,3.9-6,5.6-10,3.6
		c-6.2-3-12.7-5.3-19.5-6.3c-26.6-3.7-48.8,4.5-66,25.1c-12,14.5-17.3,31.5-15.2,50.2c3.3,29.3,19,49.8,46.7,59.7
		c37.4,13.3,77.1-6.9,89.5-44.6c3.7-11.4,4.3-23,2-34.8c-0.9-4.5,1.1-8.1,4.9-9.2c4.2-1.2,8.4,1.3,9.1,5.8
		c0.8,5.7,1.7,11.5,1.6,17.3c-0.3,40.6-28.8,74.7-68.5,82.5c-37.4,7.3-76.4-12.7-92.2-47.4C-9.1,82,4.5,36.8,41.3,14
		C54.8,5.6,69.6,1.6,84.2,1.5z"/>
	<path class="st0" d="M74.4,96c0.5-0.7,0.9-1.4,1.4-1.9c27.5-27.6,54.9-55.1,82.4-82.7c1.5-1.6,3.2-2.8,5.5-2.9
		c3.1-0.1,5.4,1.2,6.8,3.9c1.4,2.8,1,5.5-1,7.9c-1.3,1.5-2.8,2.9-4.2,4.3C137.5,52.4,109.7,80.2,82,108c-3,3-6.4,4.5-10.6,3.3
		c-1.7-0.5-3.5-1.5-4.8-2.8c-6.1-5.9-12-11.9-17.9-17.9c-3-3.1-3-7.4-0.1-10.3c2.9-2.8,7.3-2.7,10.3,0.3
		C63.9,85.5,68.9,90.5,74.4,96z"/>
</g>
</svg>
