<?xml version="1.0" encoding="utf-8"?>
<!-- Generator: Adobe Illustrator 19.2.1, SVG Export Plug-In . SVG Version: 6.00 Build 0)  -->
<svg version="1.1" id="Capa_1" xmlns="http://www.w3.org/2000/svg" xmlns:xlink="http://www.w3.org/1999/xlink" x="0px" y="0px"
	 viewBox="0 0 166 100" style="enable-background:new 0 0 166 100;" xml:space="preserve">
<style type="text/css">
	.st0{fill:#0D2451;}
	.st1{fill:#50CD89;}
	.st2{fill:#F4F4F4;}
	.st3{fill:url(#SVGID_1_);}
</style>
<path class="st0" d="M3.6,97.3h5L9.7,82c0.1-1.8,0-4.3,0-4.3h0.1c0,0,0.8,2.7,1.5,4.3l4.4,10.6h4.4L24.5,82c0.7-1.6,1.5-4.2,1.5-4.2
	h0.1c0,0-0.1,2.4,0,4.2l1.2,15.3h4.9L30,70h-5.3l-5.4,13.5c-0.6,1.6-1.3,4-1.3,4h-0.1c0,0-0.8-2.4-1.4-4L11.1,70H5.8L3.6,97.3z
	 M36.1,87.5c0,5.6,4,10.3,10.6,10.3c4.9,0,7.9-2.8,7.9-2.8l-1.9-3.5c0,0-2.5,2.2-5.7,2.2c-2.9,0-5.6-1.8-5.9-5.2h13.6
	c0,0,0.1-1.3,0.1-1.9c0-5.2-3-9.3-8.7-9.3C40.3,77.2,36.1,81.5,36.1,87.5z M41.3,85.1c0.5-2.5,2.2-4.1,4.7-4.1
	c2.2,0,3.8,1.4,3.9,4.1H41.3z M59.7,90.1c0,6.6,5.4,7.4,8.2,7.4c0.9,0,1.5-0.1,1.5-0.1v-4.3c0,0-0.3,0.1-0.9,0.1
	c-1.3,0-3.9-0.5-3.9-3.7v-7.6h4.5V78h-4.5v-5.7h-4.8V78h-2.7v3.9h2.5V90.1z M73.4,97.3h4.9v-7.8c0-1.2,0.1-2.2,0.4-3.2
	c0.9-2.9,3.3-4.1,5.4-4.1c0.7,0,1.2,0.1,1.2,0.1v-4.8c0,0-0.4-0.1-0.9-0.1c-3,0-5.4,2.2-6.2,5.1H78c0,0,0.1-0.7,0.1-1.4v-3.4h-4.7
	V97.3z M87.1,87.5c0,6.1,4.8,10.3,10.8,10.3c6,0,10.8-4.2,10.8-10.3c0-6-4.8-10.3-10.8-10.3C91.9,77.2,87.1,81.5,87.1,87.5z
	 M92.1,87.5c0-3.6,2.7-6.1,5.9-6.1c3.2,0,5.8,2.5,5.8,6.1c0,3.7-2.7,6.1-5.8,6.1C94.7,93.6,92.1,91.2,92.1,87.5z M112.6,97.3h4.9v-9
	c0-0.9,0.1-1.8,0.3-2.6c0.7-2.4,2.7-4,5.3-4c2.5,0,3.1,1.6,3.1,4v11.6h4.9V84.7c0-5.2-2.5-7.5-6.8-7.5c-4,0-6.1,2.4-7,4.1h-0.1
	c0,0,0.1-0.6,0.1-1.3v-2.3h-4.7V97.3z M136.3,74.3h4.9V70h-4.9V74.3z M136.3,97.3h4.9V77.7h-4.9V97.3z M145.2,87.5
	c0,5.7,4.2,10.3,10.7,10.3c5.3,0,8.1-3.2,8.1-3.2l-1.9-3.5c0,0-2.5,2.5-5.8,2.5c-3.7,0-6.1-2.9-6.1-6.2c0-3.4,2.4-6.1,6-6.1
	c3.1,0,5.1,2.1,5.1,2.1l2.2-3.4c0,0-2.4-2.9-7.6-2.9C149.3,77.2,145.2,81.9,145.2,87.5z"/>
<path class="st1" d="M102.9,5.5l15.2,47.4c0.8,2.6-1.1,5.2-3.8,5.2h-11.2c-1.7,0-3.3-1.1-3.8-2.8l-15-47.4c-0.8-2.6,1.1-5.2,3.8-5.2
	h11C100.8,2.7,102.4,3.8,102.9,5.5z"/>
<g>
	<path class="st2" d="M88.4,40.5L77.6,6.2c-0.6-2.1-2.5-3.4-4.7-3.4c-2.6,0-4.8,2.1-4.9,4.7l-1.3,25.7c0,0.9,0.1,1.8,0.3,2.7
		l5.8,19.5c0.5,1.7,2.1,2.9,3.8,2.9h5.4c1.7,0,3.3-1.1,3.8-2.8l2.4-7.5C89.1,45.4,89.1,42.9,88.4,40.5z"/>
	
		<linearGradient id="SVGID_1_" gradientUnits="userSpaceOnUse" x1="70.2658" y1="53.9909" x2="90.2658" y2="47.9909" gradientTransform="matrix(1 0 0 -1 0 83)">
		<stop  offset="0" style="stop-color:#000000;stop-opacity:0.2"/>
		<stop  offset="0.9115" style="stop-color:#FFFFFF;stop-opacity:0"/>
	</linearGradient>
	<path class="st3" d="M88.4,40.5L77.6,6.2c-0.6-2.1-2.5-3.4-4.7-3.4c-2.6,0-4.8,2.1-4.9,4.7l-1.3,25.7c0,0.9,0.1,1.8,0.3,2.7
		l5.8,19.5c0.5,1.7,2.1,2.9,3.8,2.9h5.4c1.7,0,3.3-1.1,3.8-2.8l2.4-7.5C89.1,45.4,89.1,42.9,88.4,40.5z"/>
</g>
<path class="st1" d="M62.1,2.7h11c2.7,0,4.6,2.6,3.8,5.2L62.1,55.7c-0.5,1.7-2.1,2.8-3.8,2.8h-11c-2.7,0-4.6-2.6-3.8-5.2L58.3,5.5
	C58.8,3.9,60.4,2.7,62.1,2.7z"/>
</svg>
