<?xml version="1.0" encoding="utf-8"?>
<!-- Generator: Adobe Illustrator 19.2.1, SVG Export Plug-In . SVG Version: 6.00 Build 0)  -->
<svg version="1.1" id="Capa_1" xmlns="http://www.w3.org/2000/svg" xmlns:xlink="http://www.w3.org/1999/xlink" x="0px" y="0px"
	 viewBox="0 0 269 56" style="enable-background:new 0 0 269 56;" xml:space="preserve">
<style type="text/css">
	.st0{fill:#0D2451;}
	.st1{fill:#50CD89;}
	.st2{fill:#F4F4F4;}
	.st3{fill:url(#SVGID_1_);}
</style>
<path class="st0" d="M93.1,42h5.4l1.3-16.7c0.1-2,0-4.7,0-4.7h0.1c0,0,0.9,2.9,1.6,4.7l4.8,11.5h4.7l4.8-11.5
	c0.7-1.7,1.6-4.6,1.6-4.6h0.1c0,0-0.1,2.6,0,4.6l1.3,16.7h5.4l-2.4-29.8h-5.8l-5.8,14.7c-0.7,1.8-1.5,4.4-1.5,4.4h-0.1
	c0,0-0.8-2.6-1.5-4.4l-5.8-14.7h-5.8L93.1,42z M128.5,31.3c0,6.1,4.4,11.2,11.5,11.2c5.3,0,8.6-3.1,8.6-3.1l-2.1-3.8
	c0,0-2.7,2.4-6.2,2.4c-3.2,0-6.1-1.9-6.4-5.7h14.8c0,0,0.1-1.4,0.1-2.1c0-5.7-3.3-10.2-9.5-10.2C133,20.1,128.5,24.7,128.5,31.3z
	 M134.2,28.6c0.5-2.8,2.4-4.5,5.1-4.5c2.4,0,4.2,1.6,4.2,4.5H134.2z M154.2,34.1c0,7.2,5.9,8.1,8.9,8.1c1,0,1.6-0.1,1.6-0.1v-4.7
	c0,0-0.4,0.1-1,0.1c-1.5,0-4.2-0.5-4.2-4v-8.3h4.9v-4.2h-4.9v-6.2h-5.2v6.2h-2.9v4.2h2.8V34.1z M169.1,42h5.3v-8.5
	c0-1.3,0.1-2.4,0.5-3.5c1-3.2,3.6-4.5,5.8-4.5c0.7,0,1.3,0.1,1.3,0.1v-5.3c0,0-0.5-0.1-1-0.1c-3.3,0-5.8,2.4-6.8,5.5h-0.1
	c0,0,0.1-0.7,0.1-1.5v-3.7h-5.1V42z M184,31.3c0,6.6,5.3,11.2,11.8,11.2c6.5,0,11.8-4.6,11.8-11.2c0-6.6-5.3-11.2-11.8-11.2
	C189.3,20.1,184,24.7,184,31.3z M189.4,31.3c0-3.9,2.9-6.7,6.4-6.7c3.4,0,6.3,2.7,6.3,6.7c0,4-2.9,6.7-6.3,6.7
	C192.3,38,189.4,35.3,189.4,31.3z M211.9,42h5.3v-9.8c0-1,0.1-2,0.4-2.9c0.8-2.6,2.9-4.4,5.8-4.4c2.7,0,3.4,1.8,3.4,4.4V42h5.3V28.2
	c0-5.7-2.7-8.1-7.4-8.1c-4.3,0-6.7,2.6-7.6,4.5h-0.1c0,0,0.1-0.7,0.1-1.5v-2.5h-5.1V42z M237.6,16.9h5.3v-4.7h-5.3V16.9z M237.6,42
	h5.3V20.6h-5.3V42z M247.3,31.3c0,6.2,4.5,11.2,11.6,11.2c5.8,0,8.8-3.5,8.8-3.5l-2.1-3.8c0,0-2.7,2.7-6.3,2.7
	c-4.1,0-6.7-3.1-6.7-6.7c0-3.7,2.6-6.6,6.5-6.6c3.4,0,5.6,2.3,5.6,2.3l2.4-3.7c0,0-2.6-3.2-8.2-3.2
	C251.8,20.1,247.3,25.2,247.3,31.3z"/>
<path class="st1" d="M61.1,2.8l15.2,47.4c0.8,2.6-1.1,5.2-3.8,5.2H61.3c-1.7,0-3.3-1.1-3.8-2.8l-15-47.4C41.7,2.6,43.6,0,46.3,0h11
	C59,0,60.6,1.1,61.1,2.8z"/>
<g>
	<path class="st2" d="M46.5,37.8L35.8,3.4C35.2,1.4,33.3,0,31.1,0c-2.6,0-4.8,2.1-4.9,4.7l-1.3,25.7c0,0.9,0.1,1.8,0.3,2.7l5.8,19.5
		c0.5,1.7,2.1,2.9,3.8,2.9h5.4c1.7,0,3.3-1.1,3.8-2.8l2.4-7.5C47.3,42.7,47.3,40.2,46.5,37.8z"/>
	
		<linearGradient id="SVGID_1_" gradientUnits="userSpaceOnUse" x1="28.4628" y1="31.7093" x2="48.4628" y2="25.7093" gradientTransform="matrix(1 0 0 -1 0 58)">
		<stop  offset="0" style="stop-color:#000000;stop-opacity:0.2"/>
		<stop  offset="0.9115" style="stop-color:#FFFFFF;stop-opacity:0"/>
	</linearGradient>
	<path class="st3" d="M46.5,37.8L35.8,3.4C35.2,1.4,33.3,0,31.1,0c-2.6,0-4.8,2.1-4.9,4.7l-1.3,25.7c0,0.9,0.1,1.8,0.3,2.7l5.8,19.5
		c0.5,1.7,2.1,2.9,3.8,2.9h5.4c1.7,0,3.3-1.1,3.8-2.8l2.4-7.5C47.3,42.7,47.3,40.2,46.5,37.8z"/>
</g>
<path class="st1" d="M20.3,0h11C34,0,36,2.6,35.2,5.2L20.3,52.9c-0.5,1.7-2.1,2.8-3.8,2.8h-11c-2.7,0-4.6-2.6-3.8-5.2L16.5,2.8
	C17,1.1,18.6,0,20.3,0z"/>
</svg>
