<?xml version="1.0" encoding="utf-8"?>
<!-- Generator: Adobe Illustrator 19.2.1, SVG Export Plug-In . SVG Version: 6.00 Build 0)  -->
<svg version="1.1" id="Capa_1" xmlns="http://www.w3.org/2000/svg" xmlns:xlink="http://www.w3.org/1999/xlink" x="0px" y="0px"
	 viewBox="0 0 171.3 171.3" style="enable-background:new 0 0 171.3 171.3;" xml:space="preserve">
<style type="text/css">
	.st0{fill:#F1416C;}
</style>
<g>
	<path class="st0" d="M88,2c1.4,0.3,2.7,0.6,4.1,1c10.4,2.9,17.8,12.3,18.1,23.1c0.1,5.2,0,10.4,0.1,15.6c0,0.6,0,1.2,0,1.9
		c0.6,0,1.1,0.1,1.7,0.1c3.5,0,7.1,0,10.6,0c2.6,0,4.2,1.6,4.5,4.2c0,0.4,0,0.8,0,1.1c0,15.9,0,31.8,0,47.8c0,3.9-1.4,5.3-5.3,5.3
		c-24.3,0-48.6,0-72.9,0c-3.9,0-5.3-1.4-5.3-5.3c0-15.9,0-31.8,0-47.8c0-4,1.4-5.4,5.4-5.4c3.7,0,7.4,0,11.3,0c0-0.7,0-1.2,0-1.8
		c0-4.9,0-9.8,0-14.7c0.1-12.8,8.8-22.9,21.5-25c0.3,0,0.5-0.2,0.8-0.3C84.3,2,86.2,2,88,2z M52,52.2c0,14,0,27.7,0,41.5
		c22.3,0,44.4,0,66.6,0c0-13.9,0-27.7,0-41.5C96.3,52.2,74.2,52.2,52,52.2z M101.9,43.7c0-6.1,0.4-12-0.1-17.9
		C101,15.3,91.4,8.5,81.4,10.8c-7.6,1.8-12.8,8.4-12.8,16.7c0,4.9,0,9.9,0,14.8c0,0.4,0.1,0.8,0.1,1.3
		C79.7,43.7,90.8,43.7,101.9,43.7z"/>
	<path class="st0" d="M28.3,131.4c1.9,1.8,3.5,3.3,5.1,4.9c2.1,2.1,2.2,4.5,0.4,6.3c-1.8,1.8-4.3,1.6-6.3-0.5
		c-1.6-1.6-3.2-3.3-4.9-5c-1.8,1.9-3.4,3.6-5.1,5.3c-1.9,1.9-4.5,2-6.2,0.2c-1.7-1.7-1.6-4.2,0.3-6.1c1.6-1.7,3.3-3.3,4.9-5
		c0,0,0-0.1,0.2-0.6c-1.7-1.6-3.5-3.2-5.3-5c-1.5-1.5-1.6-3.4-0.7-5.1c0.9-1.5,2.7-2.4,4.5-1.9c0.9,0.3,1.8,0.8,2.4,1.5
		c1.7,1.6,3.2,3.2,5,5c1.9-1.9,3.6-3.7,5.4-5.5c2-1.9,5-1.6,6.5,0.6c1.1,1.7,0.9,3.7-0.7,5.3C32.1,127.9,30.3,129.5,28.3,131.4z"/>
	<path class="st0" d="M64.2,137.4c-1.6,1.7-3.3,3.4-5,5.1c-1.9,1.9-4.5,2-6.2,0.2c-1.7-1.7-1.6-4.2,0.3-6.1c1.7-1.7,3.4-3.3,5.4-5.3
		c-2-1.9-3.8-3.5-5.6-5.3c-1.5-1.5-1.7-3.4-0.7-5.1c0.9-1.5,2.7-2.4,4.5-1.9c0.9,0.3,1.8,0.8,2.4,1.5c1.7,1.6,3.2,3.2,5,5
		c1.9-1.9,3.6-3.7,5.4-5.5c2-1.9,5-1.6,6.5,0.6c1.1,1.7,0.9,3.7-0.7,5.3c-1.7,1.7-3.5,3.4-5.5,5.2c1.9,1.8,3.5,3.3,5.1,4.9
		c2.1,2.1,2.2,4.5,0.4,6.3c-1.8,1.8-4.3,1.6-6.3-0.5c-1.5-1.5-3.1-3.1-4.6-4.6C64.6,137.5,64.4,137.5,64.2,137.4z"/>
	<path class="st0" d="M100.4,131.5c-1.9-1.9-3.6-3.4-5.2-5.1c-2-2-2.1-4.4-0.4-6.2c1.7-1.7,4.3-1.6,6.2,0.3c1.7,1.6,3.3,3.3,5.2,5.2
		c1.9-2,3.5-3.9,5.4-5.6c2.4-2.3,6.2-1,6.9,2.1c0.4,1.6-0.2,2.9-1.3,4c-1.7,1.7-3.4,3.3-5.4,5.3c1.9,1.8,3.7,3.5,5.4,5.2
		c2.3,2.4,1.3,6.1-1.8,7c-1.7,0.5-3.1-0.1-4.3-1.3c-0.8-0.8-1.7-1.7-2.5-2.5c-0.8-0.8-1.5-1.7-2.5-2.7c-1.9,2-3.6,3.8-5.4,5.6
		c-2.4,2.3-6.2,1.3-7-1.8c-0.4-1.6,0.1-3,1.2-4.1C96.7,135,98.5,133.3,100.4,131.5z"/>
	<path class="st0" d="M148,125.6c1.6-1.6,3.1-3.2,4.6-4.7c2.2-2.2,4.8-2.4,6.6-0.6c1.8,1.9,1.6,4.2-0.6,6.4c-1.5,1.5-3.1,3-4.9,4.8
		c1.9,1.8,3.8,3.5,5.5,5.2c2.3,2.4,1.3,6.1-1.8,7c-1.7,0.5-3.1-0.1-4.3-1.3c-0.8-0.8-1.7-1.7-2.5-2.5c-0.8-0.8-1.5-1.7-2.5-2.7
		c-1.9,2-3.6,3.8-5.5,5.5c-2.4,2.3-6.2,1.3-7-1.9c-0.4-1.6,0.1-3,1.3-4.1c0.8-0.8,1.7-1.7,2.5-2.5c0.9-0.8,1.7-1.6,2.8-2.6
		c-0.8-0.8-1.4-1.4-2.1-2.1c-1.1-1.1-2.2-2.1-3.2-3.2c-1.7-1.9-1.8-4.3-0.1-6c1.6-1.6,4.2-1.6,6,0.1c1.4,1.3,2.7,2.7,4,4
		C147,124.7,147.4,125,148,125.6z"/>
	<path class="st0" d="M22.5,169c-2.6,0-5.2,0-7.8,0c-2.7,0-4.6-1.8-4.6-4.2c0-2.3,1.8-4.1,4.5-4.2c5.4-0.1,10.7-0.1,16.1,0
		c2.7,0,4.5,1.8,4.4,4.2c0,2.4-1.9,4.1-4.7,4.1C27.8,169,25.2,169,22.5,169z"/>
	<path class="st0" d="M64.3,169c-2.6,0-5.2,0-7.8,0c-2.7,0-4.6-1.8-4.6-4.2c0-2.3,1.8-4.1,4.5-4.1c5.3-0.1,10.6-0.1,15.9,0
		c2.8,0,4.6,1.8,4.6,4.2c0,2.4-1.9,4.1-4.7,4.1C69.6,169,66.9,169,64.3,169z"/>
	<path class="st0" d="M106.1,169c-2.7,0-5.3,0-8,0c-2.6,0-4.5-1.7-4.5-4.1c0-2.3,1.8-4.2,4.4-4.2c5.4-0.1,10.8-0.1,16.3,0
		c2.6,0,4.4,1.9,4.4,4.3c-0.1,2.4-1.9,4-4.6,4.1C111.4,169,108.8,169,106.1,169z"/>
	<path class="st0" d="M147.8,169c-2.6,0-5.2,0-7.8,0c-2.7,0-4.6-1.8-4.6-4.2c0-2.3,1.8-4.1,4.5-4.1c5.3-0.1,10.6-0.1,15.9,0
		c2.8,0,4.6,1.8,4.6,4.2c0,2.4-1.9,4.1-4.7,4.1C153.1,169,150.4,169,147.8,169z"/>
</g>
</svg>
