<?xml version="1.0" encoding="utf-8"?>
<!-- Generator: Adobe Illustrator 19.2.1, SVG Export Plug-In . SVG Version: 6.00 Build 0)  -->
<svg version="1.1" id="Capa_1" xmlns="http://www.w3.org/2000/svg" xmlns:xlink="http://www.w3.org/1999/xlink" x="0px" y="0px"
	 viewBox="0 0 171.3 171.3" style="enable-background:new 0 0 171.3 171.3;" xml:space="preserve">
<style type="text/css">
	.st0{fill:#006BE9;}
</style>
<g>
	<path class="st0" d="M84.8,1.4c0.1,0.1,0.2,0.2,0.2,0.2c8,2.2,11.7,7,11.7,15.3c0,5.4,0,10.9,0,16.3c0,0.6,0,1.2,0,1.9
		c-1.9,0-3.7,0-5.6,0c0-0.6,0-1.2,0-1.8c0-5.8,0-11.5,0-17.3c0-5.4-3.6-8.9-9-9c-1.6,0-3.2,0-5.1,0c0,0.8,0,1.5,0,2.3
		c-0.1,5.5-3.5,8.9-9,9c-12.8,0-25.5,0-38.3,0c-5.6,0-9-3.4-9-9.1c0-0.7,0-1.3,0-2.3c-2.8,0.2-5.4,0-7.9,0.5c-3.5,0.7-6,4-6.2,7.7
		c0,0.5,0,1.1,0,1.6c0,46.1,0,92.1,0,138.2c0,6.4,3.3,9.8,9.7,9.8c21.7,0,43.4,0,65.1,0c6.2,0,9.6-3.3,9.6-9.5c0-20.5,0-41,0-61.5
		c0-0.7,0-1.3,0-2.1c1.9,0,3.7,0,5.6,0c0,0.6,0,1.2,0,1.8c0,20.6,0,41.2,0,61.8c0,9.2-5.9,15.1-15,15.1c-21.7,0-43.4,0-65.1,0
		c-8.3,0-13.1-3.6-15.3-11.6c0-0.1-0.1-0.2-0.2-0.2C1,110,1,61.7,1,13.3C1.9,10,3.1,6.8,6,4.9c2.1-1.4,4.6-2.3,6.9-3.5
		C36.8,1.4,60.8,1.4,84.8,1.4z M71.3,7.1c-15.1,0-30,0-44.9,0c0,0.5-0.1,0.8-0.1,1.2c-0.1,3.6,0.7,4.3,4.3,4.3c6.3,0,12.5,0,18.8,0
		c6.1,0,12.2,0,18.3,0c2.7,0,3.6-0.9,3.6-3.7C71.3,8.4,71.3,7.8,71.3,7.1z"/>
	<path class="st0" d="M169.8,40.9c0,15,0,29.9,0,44.8c-43.1,0-86.1,0-129.3,0c0-14.9,0-29.8,0-44.8C83.6,40.9,126.6,40.9,169.8,40.9
		z M164.2,46.6c-39.4,0-78.8,0-118,0c0,11.3,0,22.4,0,33.5c39.4,0,78.7,0,118,0C164.2,68.9,164.2,57.8,164.2,46.6z"/>
	<path class="st0" d="M85.4,136.7c0,1.8,0,3.6,0,5.4c-24.4,0-48.6,0-73,0c0-1.8,0-3.5,0-5.4C36.6,136.7,60.9,136.7,85.4,136.7z"/>
	<path class="st0" d="M48.8,161.8c-4.6,0-8.4-3.8-8.4-8.4c0-4.7,3.8-8.5,8.5-8.5c4.6,0,8.4,3.8,8.4,8.4
		C57.3,158.1,53.5,161.8,48.8,161.8z M51.7,153.4c0-1.5-1.3-2.8-2.9-2.8c-1.5,0-2.8,1.3-2.7,2.9c0,1.5,1.2,2.7,2.7,2.7
		C50.4,156.2,51.7,154.9,51.7,153.4z"/>
	<path class="st0" d="M99.4,55.3c1,1.7,1.8,3.2,2.8,4.8c-1.8,1.1-3.5,2.1-5.4,3.2c1.8,1.1,3.6,2.1,5.4,3.2c-0.9,1.6-1.8,3.1-2.8,4.8
		c-1.8-1-3.5-2-5.5-3.1c0,2.2,0,4.2,0,6.3c-1.9,0-3.6,0-5.6,0c0-2,0-3.9,0-6.3c-2,1.2-3.7,2.1-5.6,3.2c-0.9-1.6-1.8-3.2-2.8-4.8
		c1.8-1.1,3.5-2.1,5.5-3.2c-1.9-1.1-3.6-2.1-5.4-3.2c0.9-1.6,1.8-3.1,2.7-4.8c1.8,1,3.5,1.9,5.6,3.1c0-2.2,0-4.1,0-6.2
		c2,0,3.7,0,5.6,0c0,2,0,3.9,0,6.2C95.9,57.3,97.6,56.3,99.4,55.3z"/>
	<path class="st0" d="M124.9,63.3c1.9,1.1,3.7,2.1,5.5,3.2c-1,1.7-1.9,3.2-2.8,4.9c-1.8-1-3.5-2-5.5-3.1c0,2.2,0,4.2,0,6.2
		c-1.9,0-3.7,0-5.6,0c0-1.9,0-3.9,0-6.3c-2,1.2-3.8,2.1-5.7,3.2c-0.9-1.6-1.8-3.1-2.8-4.8c1.8-1.1,3.5-2.1,5.5-3.2
		c-1.9-1.1-3.6-2.1-5.5-3.2c0.9-1.6,1.8-3.2,2.8-4.8c1.8,1,3.5,2,5.5,3.1c0-2.2,0-4.2,0-6.2c2,0,3.7,0,5.6,0c0,2,0,4,0,6.3
		c2-1.1,3.7-2.1,5.6-3.1c0.9,1.6,1.8,3.2,2.8,4.8C128.6,61.2,126.8,62.2,124.9,63.3z"/>
	<path class="st0" d="M65.7,58.5c2-1.2,3.7-2.1,5.6-3.2c0.9,1.6,1.8,3.1,2.8,4.8c-1.8,1-3.5,2.1-5.4,3.2c1.8,1.1,3.6,2.1,5.4,3.2
		c-0.9,1.6-1.8,3.2-2.8,4.8c-1.8-1-3.6-2-5.5-3.1c0,2.2,0,4.1,0,6.2c-1.9,0-3.7,0-5.6,0c0-2,0-3.9,0-6.2c-2,1.1-3.7,2.1-5.6,3.1
		c-0.9-1.6-1.8-3.1-2.8-4.8c1.8-1,3.5-2.1,5.5-3.2c-1.9-1.1-3.6-2.1-5.5-3.2c0.9-1.6,1.8-3.2,2.8-4.8c1.8,1,3.5,2,5.5,3.1
		c0-2.1,0-4.1,0-6.1c2,0,3.7,0,5.7,0C65.7,54.2,65.7,56.2,65.7,58.5z"/>
	<path class="st0" d="M158.5,60.1c-1.9,1.1-3.6,2.1-5.5,3.2c1.9,1.1,3.6,2.1,5.4,3.2c-0.9,1.6-1.8,3.2-2.8,4.8c-1.8-1-3.6-2-5.5-3.1
		c0,2.2,0,4.2,0,6.2c-1.9,0-3.7,0-5.6,0c0-2,0-4,0-6.2c-2,1.1-3.7,2.1-5.6,3.1c-0.9-1.6-1.8-3.2-2.8-4.8c1.8-1.1,3.5-2.1,5.5-3.2
		c-1.9-1.1-3.6-2.1-5.5-3.2c0.9-1.6,1.8-3.2,2.8-4.8c1.8,1,3.5,2,5.5,3.1c0-2.2,0-4.1,0-6.2c1.9,0,3.6,0,5.6,0c0,1.9,0,3.9,0,6.2
		c2-1.1,3.7-2.1,5.6-3.2C156.6,56.9,157.5,58.4,158.5,60.1z"/>
</g>
</svg>
