<?xml version="1.0" encoding="utf-8"?>
<!-- Generator: Adobe Illustrator 19.2.1, SVG Export Plug-In . SVG Version: 6.00 Build 0)  -->
<svg version="1.1" id="Capa_1" xmlns="http://www.w3.org/2000/svg" xmlns:xlink="http://www.w3.org/1999/xlink" x="0px" y="0px"
	 viewBox="0 0 171.3 171.3" style="enable-background:new 0 0 171.3 171.3;" xml:space="preserve">
<style type="text/css">
	.st0{fill:#006BE9;}
</style>
<g>
	<path class="st0" d="M86.3,143.7c-21.5,0-43,0-64.5,0c-11.4,0-19-7.7-19-19.1c0-27.1,0-54.2,0-81.2c0-11.3,7.6-19,18.9-19
		c43,0,86.1,0,129.1,0c11.3,0,18.9,7.7,18.9,18.9c0,27.1,0,54.2,0,81.2c0,11.4-7.7,19.1-19,19.1C129.3,143.7,107.8,143.7,86.3,143.7
		z M14.7,72.2c0,0.8,0,1.4,0,2.1c0,16.8,0,33.5,0,50.3c0,5,2.1,7.2,7.1,7.2c43,0,85.9,0,128.9,0c5,0,7.1-2.2,7.1-7.2
		c0-16.8,0-33.5,0-50.3c0-0.7,0-1.3,0-2.1C110.1,72.2,62.6,72.2,14.7,72.2z M157.8,60.1c0-0.7,0-1.3,0-1.9c0-4.9,0-9.8,0-14.7
		c0-5-2.1-7.1-7.1-7.1c-43,0-85.9,0-128.9,0c-0.4,0-0.9,0-1.3,0c-3.2,0.1-5.7,2.4-5.8,5.6c-0.1,5.9,0,11.8,0,17.7
		c0,0.2,0.2,0.3,0.2,0.4C62.6,60.1,110.1,60.1,157.8,60.1z"/>
	<path class="st0" d="M127.9,113.9c-3.8,0-7.7,0-11.5,0c-3.8,0-6.4-2.6-6.4-6c0-3.4,2.7-5.9,6.5-5.9c7.7,0,15.4,0,23.1,0
		c3.8,0,6.4,2.4,6.5,5.9c0,3.5-2.6,6-6.4,6C135.7,113.9,131.8,113.9,127.9,113.9z"/>
</g>
</svg>
