<?xml version="1.0" encoding="utf-8"?>
<!-- Generator: Adobe Illustrator 19.2.1, SVG Export Plug-In . SVG Version: 6.00 Build 0)  -->
<svg version="1.1" id="Capa_1" xmlns="http://www.w3.org/2000/svg" xmlns:xlink="http://www.w3.org/1999/xlink" x="0px" y="0px"
	 viewBox="0 0 171.3 171.3" style="enable-background:new 0 0 171.3 171.3;" xml:space="preserve">
<style type="text/css">
	.st0{fill:#50CD89;}
</style>
<g>
	<path class="st0" d="M143.6,1c3.3,1.4,5.8,3.5,6.7,7.1c0.1,0.5,0.3,1.1,0.3,1.6c0,32,0,64,0,96c0,3.1-2.2,4.8-5.1,3.8
		c-1.4-0.5-1.6-1.7-1.9-2.8c-0.1-0.4,0-0.9,0-1.3c0-23.8,0-47.5,0-71.3c0-0.7,0-1.3,0-2.1c-45.2,0-90.3,0-135.6,0
		c0,33.7,0,67.4,0,101.4c0.6,0,1.3,0,1.9,0c18.3,0,36.6,0,54.9,0c3.2,0,4.8,2.2,3.8,5c-0.5,1.5-1.6,1.8-2.9,1.9c-1,0.1-2,0-3,0
		c-19.2,0-38.5,0-57.7,0c-1.8,0-3.1-0.5-4.1-2C1,94.9,1,51.4,1,8c1.3-3.4,3.6-5.7,7-7C53.2,1,98.4,1,143.6,1z M8,24.4
		c45.3,0,90.5,0,135.7,0c0-4.4,0.1-8.7,0-13c-0.1-2.7-1.5-3.5-3.7-3.5C97,8,54.2,8,11.4,8c-0.3,0-0.7,0-1,0C8.9,8.2,8,9,8,10.4
		C7.9,15.1,8,19.7,8,24.4z"/>
	<path class="st0" d="M118.4,170.8c-2.8-0.8-5.7-1.4-8.5-2.3c-6.2-1.9-11.7-5.1-16.7-9.2c-4.4-3.6-8.5-7.6-12.6-11.6
		c-1.6-1.5-2.8-3.5-4.3-5.1c-1.3-1.4-0.8-3.6,0.2-5c1-1.4,2.1-2.7,3.2-3.9c5.8-6.4,12-12.2,19.4-16.7c5.5-3.4,11.4-5.9,17.9-6.9
		c6.5-1,12.7-0.5,18.9,1.6c6.7,2.2,12.7,5.6,18.1,10c3.4,2.8,6.7,5.7,9.8,8.8c2.5,2.5,4.7,5.4,7,8.1c0,1,0,2,0,3
		c-0.3,0.5-0.6,1-1,1.4c-3.1,3.4-6.2,6.7-9.4,10c-3.8,4-8.1,7.4-12.9,10.2c-3.6,2-7.4,3.7-11.2,5.3c-2.6,1-5.3,1.5-8,2.2
		C125.1,170.8,121.7,170.8,118.4,170.8z M163,140c-3.3-3.2-6.5-6.3-9.7-9.5c-4.7-4.6-10.1-8-16-10.7c-5.9-2.6-12-3.8-18.4-2.8
		c-9.8,1.5-17.8,6.6-25.1,12.9c-3,2.6-5.7,5.6-8.5,8.5c-1.6,1.6-1.9,1.7,0,3.7c3.1,3.2,6.2,6.3,9.6,9.2c5.8,5.2,12.4,9.1,19.9,11.2
		c5.8,1.6,11.5,1.6,17.2,0c5.6-1.6,10.6-4.3,15.3-7.7C153.1,150.7,158.3,145.8,163,140z"/>
	<path class="st0" d="M126.6,51.9c0,2.4,0,4.7,0,7.1c-26,0-52,0-78.1,0c0-2.3,0-4.6,0-7.1C74.5,51.9,100.5,51.9,126.6,51.9z"/>
	<path class="st0" d="M126.6,68.8c0,2.4,0,4.7,0,7.1c-26,0-52,0-78.1,0c0-2.3,0-4.6,0-7.1C74.5,68.8,100.5,68.8,126.6,68.8z"/>
	<path class="st0" d="M48.5,92.8c0-2.3,0-4.5,0-6.8c26,0,52,0,78.1,0c0,2.2,0,4.4,0,6.8C100.6,92.8,74.6,92.8,48.5,92.8z"/>
	<path class="st0" d="M99.4,102.9c0,2.3,0,4.5,0,6.8c-17,0-33.9,0-50.9,0c0-2.2,0-4.4,0-6.8C65.5,102.9,82.4,102.9,99.4,102.9z"/>
	<path class="st0" d="M102.8,140.3c-0.4-11.1,9.3-21.1,21.2-20.6c10.5,0.5,19.8,8.6,19.8,20.5c0.1,11-8.4,20.4-20.6,20.6
		C112.1,161,102.5,151.5,102.8,140.3z M123.3,153.6c7.1,0.2,13.4-6.2,13.4-13.1c0-8.2-6.6-13.8-13.3-13.6c-7.8,0.2-13.3,6-13.5,13.5
		C109.7,147.2,116.1,153.9,123.3,153.6z"/>
	<path class="st0" d="M116.4,140.3c-0.4-3.7,3.3-7.1,6.8-7c4.6,0.1,6.8,3.3,7.1,6.8c0.3,3.7-3.3,7.2-7.1,7.2
		C119.5,147.2,116,143.8,116.4,140.3z"/>
</g>
<path class="st0" d="M37.9,50.7c2.4,0.1,4.3,2.1,4.2,4.6c-0.1,2.5-2,4.3-4.6,4.2c-2.4-0.1-4.2-2.1-4.2-4.4
	C33.4,52.6,35.5,50.6,37.9,50.7z"/>
<path class="st0" d="M37.9,67.5c2.5,0,4.3,1.9,4.3,4.5c-0.1,2.4-1.9,4.2-4.3,4.3c-2.5,0-4.4-1.9-4.4-4.4
	C33.4,69.4,35.4,67.4,37.9,67.5z"/>
<path class="st0" d="M42.2,88.7c0,2.4-2.1,4.4-4.5,4.3c-2.4-0.1-4.3-2.2-4.2-4.6c0.1-2.4,2-4.1,4.4-4.1
	C40.4,84.3,42.2,86.1,42.2,88.7z"/>
<path class="st0" d="M42.2,106.2c0,2.4-2.1,4.4-4.5,4.3c-2.4-0.1-4.3-2.2-4.2-4.6c0.1-2.4,2-4.1,4.4-4.1
	C40.4,101.8,42.2,103.6,42.2,106.2z"/>
</svg>
