<?xml version="1.0" encoding="utf-8"?>
<!-- Generator: Adobe Illustrator 19.2.1, SVG Export Plug-In . SVG Version: 6.00 Build 0)  -->
<svg version="1.1" id="Capa_1" xmlns="http://www.w3.org/2000/svg" xmlns:xlink="http://www.w3.org/1999/xlink" x="0px" y="0px"
	 viewBox="0 0 171.3 171.3" style="enable-background:new 0 0 171.3 171.3;" xml:space="preserve">
<g>
	<path d="M88.8,2.3c2.2,0.4,4.4,0.8,6.6,1.3c15,3.5,27.8,17.8,29.8,33.1c1.3,10.1-0.1,19.6-5.8,28.1c-7.6,11.3-18,17.9-31.8,18.8
		c-18.1,1.2-33-9.4-39.8-23.9c-6.4-13.6-3.8-31.7,6.2-43C60,9.7,67.4,5,76.5,3.1c1.6-0.3,3.1-0.6,4.7-0.8
		C83.7,2.3,86.3,2.3,88.8,2.3z M115.8,42.9c-0.1-17.2-13.8-30.8-30.9-30.7c-17.1,0-30.8,13.7-30.8,30.9C54.2,60.1,68,73.9,85,73.8
		C102.2,73.7,115.8,60,115.8,42.9z"/>
	<path d="M86,171.3c-13.4,0-26.8,0-40.3,0c-6.8,0-13.2-1.4-18.9-5.4c-6.5-4.6-10.3-10.9-11-18.7c-1.2-14,0.4-27.8,5.7-40.9
		c3.1-7.8,7.8-14.5,15.5-18.6c4.8-2.6,10-3.8,15.4-3.7c1.7,0,3.5,0.9,5,1.8c2.5,1.4,4.8,3.1,7.3,4.6C79,99,93.2,99,107.3,90.2
		c1.9-1.2,3.9-2.3,5.7-3.7c3.5-2.6,7.3-2.9,11.4-2.3c10.8,1.6,18.4,7.5,23.6,16.9c4.7,8.6,6.9,17.9,7.8,27.5c0.5,5,0.7,10,0.7,15
		c-0.2,14.8-10.4,25.8-25.2,27.3c-1.9,0.2-3.8,0.3-5.8,0.3C112.3,171.3,99.2,171.3,86,171.3z M85.9,161.4
		C85.9,161.4,85.9,161.4,85.9,161.4c14,0,27.9,0.1,41.9-0.1c11.8-0.1,18.9-7.6,18.8-19.3c-0.1-4.3-0.2-8.7-0.7-13
		c-0.9-7.8-2.5-15.5-6.3-22.5c-3.9-7.3-9.7-12-18.3-12.5c-0.7,0-1.5,0.1-2.2,0.5c-2.5,1.5-4.9,3.1-7.4,4.7
		c-6.8,4.3-14.3,6.8-22.3,7.4c-10.9,0.8-20.9-2.2-30-8c-2.2-1.4-4.3-2.8-6.5-4.2c-0.4-0.3-1-0.6-1.5-0.5c-5.3,0.3-10.1,1.9-14,5.8
		c-3.2,3.2-5.4,7.1-7,11.2c-4.1,10.7-5.2,21.9-4.9,33.2c0.2,6.3,2.9,11.3,8.5,14.6c3.6,2.1,7.6,2.7,11.8,2.7
		C59.1,161.4,72.5,161.4,85.9,161.4z"/>
</g>
</svg>
